<svg version="1.1" xmlns="http://www.w3.org/2000/svg" xmlns:xlink="http://www.w3.org/1999/xlink" x="0px" y="0px"
	 viewBox="0 0 499.999 500" style="enable-background:new 0 0 499.999 500;" xml:space="preserve">
<g id="BACKGROUND">
	<rect x="0" y="0" style="fill:#6699CC;" width="500" height="500"/>
</g>
<g id="OBJECTS">
	<g>
		<defs>
			<rect id="SVGID_1_" x="0" y="0" width="500" height="500"/>
		</defs>
		<clipPath id="SVGID_00000008139582961946780180000017284487212510627980_">
			<use xlink:href="#SVGID_1_"  style="overflow:visible;"/>
		</clipPath>
		<g style="clip-path:url(#SVGID_00000008139582961946780180000017284487212510627980_);">
			<g>
				<defs>
					<rect id="SVGID_00000008106809808540011690000002110557554690360510_" x="0" y="0" width="500" height="500"/>
				</defs>
				<clipPath id="SVGID_00000123405094284494900330000007681428904589516724_">
					<use xlink:href="#SVGID_00000008106809808540011690000002110557554690360510_"  style="overflow:visible;"/>
				</clipPath>
				<g style="clip-path:url(#SVGID_00000123405094284494900330000007681428904589516724_);">
					<path style="fill:#2186C4;" d="M277.543,211.647h289.034c5.108,0,9.248-4.141,9.248-9.249V35.4
						c0-5.108-4.141-9.249-9.248-9.249H277.543c-5.108,0-9.249,4.141-9.249,9.249v166.998
						C268.294,207.506,272.435,211.647,277.543,211.647z"/>
					<path style="fill:#2186C4;" d="M190.672,173.061h-86.356c-5.472,0-9.908-4.436-9.908-9.908V48.729
						c0-5.472,4.436-9.908,9.908-9.908h86.356c5.472,0,9.908,4.436,9.908,9.908v114.424
						C200.58,168.625,196.144,173.061,190.672,173.061z"/>
					<g>
						<path style="fill:#2186C4;" d="M36.878,381.626h100.68c6.571,0,11.898-5.327,11.898-11.898v-20.441
							c0-14.491-11.747-26.238-26.238-26.238H51.217c-14.491,0-26.238,11.747-26.238,26.238v20.441
							C24.979,376.299,30.306,381.626,36.878,381.626z"/>
						
							<rect x="79.896" y="359.66" transform="matrix(-1 -1.224647e-16 1.224647e-16 -1 174.4353 822.4404)" style="fill:#2186C4;" width="14.644" height="103.121"/>
						
							<rect x="42.674" y="249.827" transform="matrix(-1 -1.224647e-16 1.224647e-16 -1 91.4506 581.4187)" style="fill:#2186C4;" width="6.102" height="81.764"/>
						
							<rect x="59.759" y="249.827" transform="matrix(-1 -1.224647e-16 1.224647e-16 -1 125.6208 581.4187)" style="fill:#2186C4;" width="6.102" height="81.764"/>
						<path style="fill:#2186C4;" d="M52.437,236.403c22.577,0,46.984,0,48.204,10.983c1.22,10.983-7.938,12.718-48.204,13.424
							c-34.78,0.61-32.34-9.153-32.34-12.814c0-5.492,7.932-11.593,31.729-11.593C75.624,236.403,52.437,236.403,52.437,236.403z"/>
						<path style="fill:#2186C4;" d="M87.828,457.899c1.22,0,48.204,4.271,61.018,17.085s12.814,26.848,12.814,26.848h-9.763
							c0,0-4.37-15.259-11.594-21.966c-8.542-7.932-52.476-12.814-52.476-12.814V457.899z"/>
						<path style="fill:#2186C4;" d="M87.828,457.899c-1.22,0-48.204,4.271-61.018,17.085s-12.814,26.848-12.814,26.848h9.763
							c0,0,4.37-15.259,11.593-21.966c8.543-7.932,52.476-12.814,52.476-12.814V457.899z"/>
						<path style="fill:#2186C4;" d="M90.879,460.34c0,0,21.609,9.144,26.238,18.916c5.492,11.593,4.882,22.577,4.882,22.577h-9.153
							c0,0,0.116-12.64-4.882-20.136c-4.881-7.322-18.632-14.468-18.632-14.468L90.879,460.34z"/>
						<path style="fill:#2186C4;" d="M78.979,460.34c0,0-21.609,9.144-26.238,18.916c-5.492,11.593-4.881,22.577-4.881,22.577h9.153
							c0,0-0.116-12.64,4.882-20.136c4.881-7.322,18.632-14.468,18.632-14.468L78.979,460.34z"/>
						<path style="fill:#2186C4;" d="M151.821,508.544h12.966c0.632,0,1.144-0.512,1.144-1.144v-4.424
							c0-0.632-0.512-1.144-1.144-1.144h-12.966c-0.632,0-1.144,0.512-1.144,1.144v4.424
							C150.676,508.032,151.189,508.544,151.821,508.544z"/>
						<circle style="fill:#2186C4;" cx="158.304" cy="511.29" r="6.407"/>
						<circle style="fill:#2186C4;" cx="158.304" cy="511.29" r="2.746"/>
						<path style="fill:#2186C4;" d="M109.718,508.544h12.966c0.632,0,1.144-0.512,1.144-1.144v-4.424
							c0-0.632-0.512-1.144-1.144-1.144h-12.966c-0.632,0-1.144,0.512-1.144,1.144v4.424
							C108.574,508.032,109.086,508.544,109.718,508.544z"/>
						<circle style="fill:#2186C4;" cx="116.201" cy="511.29" r="6.407"/>
						<path style="fill:#2186C4;" d="M113.455,511.29c0-1.516,1.229-2.746,2.746-2.746c1.516,0,2.746,1.229,2.746,2.746
							c0,1.517-1.229,2.746-2.746,2.746C114.685,514.036,113.455,512.806,113.455,511.29z"/>
						<path style="fill:#2186C4;" d="M48.09,508.544h12.966c0.632,0,1.144-0.512,1.144-1.144v-4.424
							c0-0.632-0.512-1.144-1.144-1.144H48.09c-0.632,0-1.144,0.512-1.144,1.144v4.424C46.946,508.032,47.458,508.544,48.09,508.544
							z"/>
						<circle style="fill:#2186C4;" cx="54.573" cy="511.29" r="6.407"/>
						<path style="fill:#2186C4;" d="M51.827,511.29c0-1.516,1.229-2.746,2.746-2.746c1.516,0,2.746,1.229,2.746,2.746
							c0,1.517-1.229,2.746-2.746,2.746C53.056,514.036,51.827,512.806,51.827,511.29z"/>
						<path style="fill:#2186C4;" d="M8.428,508.544h12.966c0.632,0,1.144-0.512,1.144-1.144v-4.424
							c0-0.632-0.512-1.144-1.144-1.144H8.428c-0.632,0-1.144,0.512-1.144,1.144v4.424C7.284,508.032,7.796,508.544,8.428,508.544z"
							/>
						<circle style="fill:#2186C4;" cx="14.911" cy="511.29" r="6.407"/>
						<circle style="fill:#2186C4;" cx="14.911" cy="511.29" r="2.746"/>
					</g>
					<g>
						<path style="fill:#2186C4;" d="M136.76,290.366c3.669-6.353,11.793-8.53,18.147-4.862l126.865,73.244l0,0h311.826
							c7.337,0,13.285,5.948,13.285,13.285v0.004c0,7.337-5.948,13.285-13.285,13.285H279.53l0,0h-4.868l0,0l-4.822-2.787
							l-128.217-74.021C135.268,304.846,133.091,296.72,136.76,290.366L136.76,290.366z"/>
						<path style="fill:#2186C4;" d="M528.781,499.399h1.296c3.043,0,5.51-2.467,5.51-5.509V383.702c0-3.043-2.467-5.51-5.51-5.51
							h-1.296c-3.043,0-5.51,2.467-5.51,5.51V493.89C523.271,496.932,525.738,499.399,528.781,499.399z"/>
						
							<rect x="402.389" y="320.831" transform="matrix(6.123234e-17 -1 1 6.123234e-17 -33.4901 850.5833)" style="fill:#2186C4;" width="12.315" height="242.412"/>
						<circle style="fill:#2186C4;" cx="540.771" cy="514.307" r="16.204"/>
						<path style="fill:#2186C4;" d="M527.97,503.936h24.954c2.595,0,4.699-2.104,4.699-4.699v-1.621
							c0-2.595-2.104-4.699-4.699-4.699H527.97c-2.595,0-4.699,2.104-4.699,4.699v1.621
							C523.271,501.832,525.375,503.936,527.97,503.936z"/>
						<circle style="fill:#2186C4;" cx="540.771" cy="514.307" r="6.482"/>
						<path style="fill:#2186C4;" d="M286.368,499.399h1.296c3.043,0,5.509-2.467,5.509-5.509V383.702
							c0-3.043-2.467-5.51-5.509-5.51h-1.296c-3.043,0-5.509,2.467-5.509,5.51V493.89
							C280.859,496.932,283.326,499.399,286.368,499.399z"/>
						<circle style="fill:#2186C4;" cx="298.359" cy="514.307" r="16.204"/>
						<path style="fill:#2186C4;" d="M285.558,503.936h24.954c2.595,0,4.699-2.104,4.699-4.699v-1.621
							c0-2.595-2.104-4.699-4.699-4.699h-24.954c-2.595,0-4.699,2.104-4.699,4.699v1.621
							C280.859,501.832,282.963,503.936,285.558,503.936z"/>
						<circle style="fill:#2186C4;" cx="298.359" cy="514.307" r="6.482"/>
					</g>
				</g>
			</g>
			
				<linearGradient id="SVGID_00000075133233456766561500000010184110752387903136_" gradientUnits="userSpaceOnUse" x1="375.2347" y1="410.3478" x2="115.6037" y2="600.2271">
				<stop  offset="0" style="stop-color:#D1E7F8"/>
				<stop  offset="1" style="stop-color:#A7D4F7"/>
			</linearGradient>
			<path style="fill:url(#SVGID_00000075133233456766561500000010184110752387903136_);" d="M191,558.741
				c65.303,14.949,145.69-4.997,212.384,1.316c-11.375-53.262-16.666-107.82-15.738-162.275
				c-12.71,13.197-32.404,17.706-50.654,16.082c-18.25-1.625-35.535-8.609-52.506-15.515c-16.448-6.693-32.983-13.468-48.296-22.537
				c-5.971-3.536-15.33-13.864-21.779-15.147c-8.626-1.716-10.051,9.326-10.67,15.607c-3.81,38.659-5.492,80.35-10.074,118.728
				C189.987,525.82,195.908,537.124,191,558.741z"/>
			
				<linearGradient id="SVGID_00000010292553707157579130000007774732330891771777_" gradientUnits="userSpaceOnUse" x1="405.4211" y1="249.8079" x2="137.4213" y2="445.8076">
				<stop  offset="0" style="stop-color:#D1E7F8"/>
				<stop  offset="1" style="stop-color:#A7D4F7"/>
			</linearGradient>
			<path style="fill:url(#SVGID_00000010292553707157579130000007774732330891771777_);" d="M359.685,199.82
				c9.065-0.572,14.819,9.072,19.65,16.764c9.636,15.343,23.913,27.729,40.462,35.105c6.903,3.076,14.83,5.858,18.27,12.587
				c3.464,6.778,0.995,14.98-1.909,22.016c-12.401,30.04-31.846,56.865-43.227,87.305c-4.783,12.791-8.615,26.916-19.119,35.642
				c-8.318,6.91-19.459,9.198-30.165,10.723c-28.766,4.099-58.078,4.346-86.909,0.733c-13.614-1.706-27.927-4.658-37.958-14.019
				c-14.799-13.811-15.615-36.814-13.293-56.922c3.59-31.085,12.13-61.355,20.637-91.468c1.943-6.876,4.018-14.001,8.736-19.367
				c5.876-6.681,14.829-9.539,23.146-12.699c18.4-6.992,35.692-16.776,54.381-22.954c18.689-6.178,39.736-8.477,57.684-0.396"/>
			<g>
				
					<linearGradient id="SVGID_00000018931188796837875640000009538638743857910928_" gradientUnits="userSpaceOnUse" x1="329.952" y1="191.3157" x2="331.952" y2="246.3156">
					<stop  offset="0" style="stop-color:#D8A481"/>
					<stop  offset="1" style="stop-color:#E9BC9D"/>
				</linearGradient>
				<path style="fill:url(#SVGID_00000018931188796837875640000009538638743857910928_);" d="M372.29,237.13
					c-10.92-28.39-13.04-60.1-6.01-89.69c-8.95,9.85-22.74,13.54-35.88,15.7c-6.66,1.1-13.38,1.94-19.98,3.38
					c-4.58,1-13.23,2.13-16.42,6.03c-3.12,3.81,0.41,12.21,0.88,16.66c0.48,4.52,0.67,9.07,0.59,13.62
					c-0.04,1.99-0.13,3.98-0.28,5.96c-0.02,0.4-0.05,0.8-0.08,1.2c-0.66,7.94-2.18,15.81-4.55,23.41c-0.64,2.06-1.35,4.24-0.79,6.33
					c0.41,1.52,1.45,2.78,2.49,3.97c7.4,8.49,16.21,16,26.63,20.28c10.41,4.27,22.58,5.04,32.85,0.42
					c6.25-2.81,11.49-7.41,16.62-11.94c2.39-2.11,4.92-4.46,5.47-7.6C374.28,242.24,373.24,239.62,372.29,237.13z"/>
				
					<linearGradient id="SVGID_00000019665129944887248340000013343006991038147730_" gradientUnits="userSpaceOnUse" x1="324.8926" y1="83.0552" x2="324.8926" y2="256.102">
					<stop  offset="0" style="stop-color:#F3D3BC"/>
					<stop  offset="1" style="stop-color:#E9BC9D"/>
				</linearGradient>
				<path style="fill:url(#SVGID_00000019665129944887248340000013343006991038147730_);" d="M302.594,60.538
					c-7.491,1.886-14.724,5.679-19.452,11.788c-5.444,7.035-7.009,16.253-8.026,25.09c-3.239,28.143-2.283,58.2,12.137,82.585
					c7.274,12.3,19.073,23.252,33.333,24.182c10.651,0.695,21.104-4.434,28.665-11.968c7.56-7.534,12.547-17.272,16.392-27.228
					c6.807-17.627,10.401-36.488,10.554-55.383c0.084-10.348-0.996-21.143-6.445-29.94
					C356.013,57.477,325.524,54.766,302.594,60.538z"/>
				
					<linearGradient id="SVGID_00000006686289214907006220000014653939702111429257_" gradientUnits="userSpaceOnUse" x1="362.9946" y1="48.9974" x2="297.9947" y2="163.9973">
					<stop  offset="0" style="stop-color:#776152"/>
					<stop  offset="1" style="stop-color:#514238"/>
				</linearGradient>
				<path style="fill:url(#SVGID_00000006686289214907006220000014653939702111429257_);" d="M291.103,77.445
					c5.837-4.202,13.191-5.708,20.211-4.146c5.465,1.216,12.287,2.294,17.013,1.511c8.934-1.478,18.764-3.126,26.523,1.543
					c6.291,3.786,9.702,10.979,11.634,18.062c2.225,8.161,2.953,16.728,2.137,25.147c-0.544,5.618-1.754,11.401-0.134,16.807
					c1.037,3.46,3.194,6.57,3.747,10.14c1.362,8.79-14.391,19.174-11.235,27.49c6.631-4.81,16.331-15.046,18.206-22.962
					c2.642-11.153,4.495-22.479,5.563-33.891c1.59-17.002,1.777-36.219-8.356-50.388c-9.893-13.834-27.528-19.84-44.381-22.128
					c-9.131-1.239-18.588-1.609-27.407,1.062c-12.949,3.922-23.376,14.252-29.296,26.418c-5.92,12.166-7.679,26.021-7.118,39.539
					c0.561,13.518,3.341,26.834,6.112,40.077c1.157,5.532,2.769,11.715,7.677,14.517c0.357-12.764-2.737-25.333-4.684-37.952
					c-1.948-12.619-2.825-26.008,2.154-37.766C281.713,85.227,286.49,80.766,291.103,77.445z"/>
				
					<linearGradient id="SVGID_00000057122881852547063390000012695578653544247999_" gradientUnits="userSpaceOnUse" x1="301.5164" y1="63.0439" x2="264.5163" y2="185.5438">
					<stop  offset="0" style="stop-color:#F3D3BC"/>
					<stop  offset="1" style="stop-color:#E9BC9D"/>
				</linearGradient>
				<path style="fill:url(#SVGID_00000057122881852547063390000012695578653544247999_);" d="M269.187,128.946
					c-1.208,0.296-2.001,1.527-2.174,2.759c-0.173,1.231,0.145,2.473,0.461,3.676c1.774,6.754,3.548,13.509,5.321,20.263
					c1.106,4.212,2.62,8.935,6.563,10.784c1.64,0.769,3.941,0.734,4.895-0.806c0.631-1.02,0.453-2.323,0.253-3.506
					c-1.129-6.666-1.396-14.288-3.589-20.699C279.721,137.923,273.464,127.877,269.187,128.946z"/>
				
					<linearGradient id="SVGID_00000079454166631787219180000000227325295353507242_" gradientUnits="userSpaceOnUse" x1="279.8553" y1="112.376" x2="311.9034" y2="112.376">
					<stop  offset="0" style="stop-color:#514238"/>
					<stop  offset="1" style="stop-color:#776152"/>
				</linearGradient>
				<path style="fill:url(#SVGID_00000079454166631787219180000000227325295353507242_);" d="M291.563,113.273
					c5.388,1.428,10.775,2.857,16.163,4.285c0.713,0.189,1.459,0.379,2.18,0.224c1.882-0.405,2.502-3.032,1.568-4.716
					c-0.934-1.683-2.806-2.588-4.59-3.312c-4.609-1.868-9.567-3.238-14.515-2.737c-4.948,0.501-9.891,3.162-12.079,7.628
					c-0.421,0.86-0.698,1.993-0.049,2.697c0.504,0.547,1.386,0.576,2.076,0.297c0.69-0.279,1.246-0.801,1.829-1.263
					c3.005-2.382,7.129-3.285,10.854-2.376"/>
				
					<linearGradient id="SVGID_00000031913802378666455900000012457409288292156602_" gradientUnits="userSpaceOnUse" x1="234.8976" y1="111.9195" x2="269.6237" y2="111.9195" gradientTransform="matrix(-1 0 0 1 592.479 0)">
					<stop  offset="0" style="stop-color:#514238"/>
					<stop  offset="1" style="stop-color:#776152"/>
				</linearGradient>
				<path style="fill:url(#SVGID_00000031913802378666455900000012457409288292156602_);" d="M344.895,112.891
					c-5.838,1.548-11.676,3.095-17.514,4.643c-0.773,0.205-1.58,0.411-2.362,0.243c-2.039-0.439-2.711-3.286-1.699-5.11
					c1.012-1.824,3.04-2.805,4.974-3.588c4.994-2.024,10.366-3.508,15.728-2.966c5.362,0.543,10.718,3.426,13.088,8.266
					c0.456,0.932,0.757,2.159,0.054,2.922c-0.546,0.593-1.502,0.624-2.249,0.321c-0.747-0.302-1.35-0.868-1.982-1.369
					c-3.256-2.581-7.724-3.559-11.761-2.575"/>
				
					<linearGradient id="SVGID_00000152957450006779289610000018261908051033868211_" gradientUnits="userSpaceOnUse" x1="318.1504" y1="150.788" x2="313.4838" y2="164.2879">
					<stop  offset="0" style="stop-color:#D8A481"/>
					<stop  offset="1" style="stop-color:#E9BC9D"/>
				</linearGradient>
				<path style="fill:url(#SVGID_00000152957450006779289610000018261908051033868211_);" d="M313.25,152.938
					c2.056,0.56,2.826,1.613,6.452,1.292c3.298-0.292,5.086-2.824,7.734-2.188c-0.15,1.62-1.263,3.016-2.585,3.964
					c-2.693,1.931-6.325,2.311-9.502,1.371c-2.904-0.859-5.437-2.731-7.397-5.049c-0.205-0.243,0.001-0.613,0.316-0.577
					C309.592,151.9,310.975,152.318,313.25,152.938z"/>
				
					<linearGradient id="SVGID_00000099642848515759525640000000758670365560372112_" gradientUnits="userSpaceOnUse" x1="319.9706" y1="186.0112" x2="319.9706" y2="189.6657" gradientTransform="matrix(-1 0 0 -1 638.9807 368.2205)">
					<stop  offset="0" style="stop-color:#D8A481"/>
					<stop  offset="1" style="stop-color:#E9BC9D"/>
				</linearGradient>
				<path style="fill:url(#SVGID_00000099642848515759525640000000758670365560372112_);" d="M324.045,181.084
					c-2.437-0.899-5.345-1.181-7.943-0.769c-2.599,0.412-4.859,1.512-6.176,3.006c2.983-0.735,6.175-1.186,9.435-1.179
					c1.505,0.003,3.021,0.105,4.514,0.316c1.423,0.201,2.84,0.729,4.221,0.894c-0.155-0.424-1.07-0.822-1.558-1.096
					C325.759,181.818,324.936,181.413,324.045,181.084z"/>
				<path style="fill:#D1E7F8;" d="M359.17,132.83c0,0.99-0.08,1.97-0.23,2.92c-0.33,2.09-1.02,4.07-2,5.86
					c-3.12,5.7-9.16,9.56-16.11,9.56c-10.12,0-18.33-8.21-18.33-18.34c0-7.67,4.72-14.24,11.41-16.97c1.87-0.77,3.91-1.24,6.04-1.34
					c0.29-0.01,0.58-0.02,0.88-0.02C350.96,114.5,359.17,122.71,359.17,132.83z"/>
				<path style="fill:#F9F9FB;" d="M358.94,135.75c-0.33,2.09-1.02,4.07-2,5.86l-23.03-25.75c1.87-0.77,3.91-1.24,6.04-1.34
					L358.94,135.75z"/>
				<circle style="fill:none;stroke:#3E9CD6;stroke-width:4;stroke-miterlimit:10;" cx="340.833" cy="132.834" r="18.333"/>
				<path style="fill:#D1E7F8;" d="M312.4,132.83c0,1.25-0.12,2.46-0.36,3.64c-0.41,2.03-1.15,3.94-2.17,5.66
					c-3.18,5.41-9.07,9.04-15.8,9.04c-10.12,0-18.33-8.21-18.33-18.34c0-7.46,4.46-13.87,10.85-16.73c1.82-0.82,3.79-1.35,5.87-1.53
					c0.53-0.05,1.07-0.07,1.61-0.07C304.2,114.5,312.4,122.71,312.4,132.83z"/>
				<path style="fill:#F9F9FB;" d="M312.04,136.47c-0.41,2.03-1.15,3.94-2.17,5.66l-23.28-26.03c1.82-0.82,3.79-1.35,5.87-1.53
					L312.04,136.47z"/>
				<circle style="fill:none;stroke:#3E9CD6;stroke-width:4;stroke-miterlimit:10;" cx="294.07" cy="132.834" r="18.333"/>
				<path style="fill:none;stroke:#3E9CD6;stroke-width:4;stroke-miterlimit:10;" d="M310.869,126.06
					c1.978-1.202,4.3-1.894,6.783-1.894c2.336,0,4.528,0.612,6.426,1.685"/>
				<path style="fill:none;stroke:#3E9CD6;stroke-width:4;stroke-miterlimit:10;" d="M359.166,133.25c0,0,17.333-7.75,19.333-6.917
					c2,0.833,1.917,9.083,0.5,11.917"/>
				
					<linearGradient id="SVGID_00000057126775682849072000000010316963274456389817_" gradientUnits="userSpaceOnUse" x1="389.6466" y1="89.6631" x2="352.6466" y2="212.1629">
					<stop  offset="0" style="stop-color:#F3D3BC"/>
					<stop  offset="1" style="stop-color:#E9BC9D"/>
				</linearGradient>
				<path style="fill:url(#SVGID_00000057126775682849072000000010316963274456389817_);" d="M368.598,138.66
					c1.176-3.711,2.94-7.235,5.205-10.401c1.514-2.117,4.02-4.283,6.42-3.275c1.366,0.574,2.166,2.067,2.332,3.539
					c0.166,1.472-0.191,2.948-0.545,4.387c-1.284,5.216-2.569,10.432-3.853,15.648c-0.752,3.056-1.539,6.189-3.337,8.771
					c-1.757,2.523-4.447,4.379-7.429,5.127c-0.917,0.23-1.937,0.346-2.766-0.107c-1.753-0.957-1.467-3.523-0.925-5.445
					c2.184-7.752,1.942-9.396,4.385-17.071L368.598,138.66z"/>
				
					<linearGradient id="SVGID_00000132047695754588631580000001661455600330674856_" gradientUnits="userSpaceOnUse" x1="321.4133" y1="172.9795" x2="321.4133" y2="168.1522">
					<stop  offset="0" style="stop-color:#D8A481"/>
					<stop  offset="1" style="stop-color:#E9BC9D"/>
				</linearGradient>
				<path style="fill:url(#SVGID_00000132047695754588631580000001661455600330674856_);" d="M337.405,168.157
					c-5.654,0.846-11.094,1.482-16.821,1.554c-2.312,0.029-4.322-0.755-6.607-0.754c-2.846,0.001-5.771,0.055-8.645,0.11
					c-0.414,0.008-0.622,0.611-0.221,0.815c2.4,1.222,5.178,2.043,7.757,2.771c3.003,0.847,5.513-0.213,8.619-0.257
					c5.4-0.076,11.173-1.221,16.231-3.496C338.174,168.694,337.818,168.095,337.405,168.157z"/>
			</g>
			<path style="fill:#F3F8FB;" d="M303.479,243.12c23.57,6.72,50.785-2.016,66.04-21.199c1.625,6.014,4.825,11.461,7.348,17.157
				c2.523,5.697,4.402,12.009,3.16,18.114c-1.237,6.08-5.378,11.108-9.502,15.743c-28.388,31.904-62.399,58.214-96.194,84.323
				c-7.983-14.362-12.177-30.626-13.681-46.988c-1.503-16.363-0.387-32.869,1.756-49.161c1.23-9.35,2.835-18.785,6.761-27.36
				c2.151-4.697,5.043-9.104,8.701-12.767c0.885-0.887,3.795-4.37,5.197-3.586c1.232,0.689,0.71,3.938,0.729,5.035
				C283.989,233.945,293.282,240.212,303.479,243.12z"/>
			
				<linearGradient id="SVGID_00000116197582053876172610000003291468822386466198_" gradientUnits="userSpaceOnUse" x1="402.8708" y1="246.3206" x2="134.8707" y2="442.3206">
				<stop  offset="0" style="stop-color:#D1E7F8"/>
				<stop  offset="1" style="stop-color:#A7D4F7"/>
			</linearGradient>
			<path style="fill:url(#SVGID_00000116197582053876172610000003291468822386466198_);" d="M274.348,342.37
				c5.264-9.18,12.84-16.789,20.522-24.067c7.682-7.278,15.62-14.408,21.857-22.957c5.682-7.788,9.856-16.627,15.901-24.136
				c10.078-12.52,24.967-20.866,33.491-34.492c2.218-3.545,4.498-7.802,8.607-8.581c4.285-0.812,8.12,2.664,10.831,6.081
				c5.168,6.514,9.377,14.578,8.234,22.814c-0.82,5.911-4.275,11.076-7.65,15.997c-15.051,21.944-30.593,43.931-50.679,61.385
				c-10.53,9.15-22.166,16.925-33.767,24.672c-5.077,3.391-10.173,6.788-15.571,9.654c-3.755,1.994-10.629,6.616-14.974,4.177
				C262.301,367.952,270.934,348.323,274.348,342.37z"/>
			
				<linearGradient id="SVGID_00000131369618839330883020000014794803600724277686_" gradientUnits="userSpaceOnUse" x1="300.8206" y1="272.0285" x2="231.4873" y2="336.0285">
				<stop  offset="0" style="stop-color:#A7D4F7"/>
				<stop  offset="1" style="stop-color:#D1E7F8"/>
			</linearGradient>
			<path style="fill:url(#SVGID_00000131369618839330883020000014794803600724277686_);" d="M281.1,237.82
				c-2.94,13.8-2.32,28.1-1.34,42.18c0.99,14.08,2.33,28.24,0.79,42.27c-1.21,10.99-4.16,21.69-6.71,32.45
				c-1.22,5.12-2.34,10.26-3.38,15.41c-0.57,2.84-0.68,11.11-3.45,12.35c0.99-14.63,3.41-28.48-1.27-42.86
				c-3.15-9.65-8.89-18.21-14.56-26.63c-4.7-6.98-9.4-13.96-14.1-20.95c-1.62-2.41-3.31-5.03-3.24-7.94
				c0.11-4.57,4.44-7.85,8.64-9.63c4.21-1.78,8.94-2.93,12.03-6.29c-5.98-5.51-13.19-9.68-20.95-12.12
				c9.38-8.94,20.83-15.57,29.78-24.94c5.82-6.1,10.48-13.26,16.54-19.13c4.37-4.22,9.77-7.8,15.59-9.16
				c-0.04,1.99-0.13,3.98-0.28,5.96C287.96,216.78,283.36,227.19,281.1,237.82z"/>
			
				<linearGradient id="SVGID_00000122001205485948784150000004579640360090486164_" gradientUnits="userSpaceOnUse" x1="404.8112" y1="231.2647" x2="278.1444" y2="367.9312">
				<stop  offset="0" style="stop-color:#E6F0F9"/>
				<stop  offset="1" style="stop-color:#D1E7F8"/>
			</linearGradient>
			<path style="fill:url(#SVGID_00000122001205485948784150000004579640360090486164_);" d="M354.417,235.811
				c-14.265,16.347-28.529,32.694-42.794,49.042c-17.289,19.813-34.952,40.25-43.849,64.995c-8.36,23.254-8.337,48.749-5.109,73.248
				l35.011,0.138c-5.658-5.54-16.287-2.397-21.923-7.96c-3.507-3.461-3.694-8.966-3.654-13.893
				c0.083-10.392,0.166-20.784,0.249-31.176c0.07-8.748,0.315-18.082,5.27-25.291c4.253-6.187,11.3-9.772,18.187-12.76
				c8.617-3.738,17.498-6.959,25.628-11.663c8.129-4.704,15.603-11.101,19.714-19.546s4.318-19.167-1.125-26.821
				c8.602-3.718,19.542,3.541,27.547-1.33c3.355-2.041,5.254-5.753,6.986-9.278c3.86-7.853,7.72-15.707,11.581-23.56
				c3.536-7.193,7.182-14.874,4.094-23.174c-1.563-4.199-4.64-7.659-8.5-9.933c-5.117-3.014-13.434-7.004-18.73-6.85
				c0.331-0.04,0.84,0.154,1.451,0.493c5.339,2.954,7.253,9.625,4.712,15.172C365.704,223.22,359.392,230.11,354.417,235.811z"/>
			
				<linearGradient id="SVGID_00000043435366129036034770000005782297619999746980_" gradientUnits="userSpaceOnUse" x1="251.6494" y1="341.4771" x2="90.3162" y2="430.8102">
				<stop  offset="0" style="stop-color:#A7D4F7"/>
				<stop  offset="1" style="stop-color:#D1E7F8"/>
			</linearGradient>
			<path style="fill:url(#SVGID_00000043435366129036034770000005782297619999746980_);" d="M227.801,233.27
				c-9.556,0.78-19.231,4.041-25.998,10.833c-4.806,4.824-7.851,11.082-10.809,17.215c-6.626,13.739-13.252,27.478-19.878,41.216
				c-12.697,26.327-25.394,52.654-38.091,78.981c-3.286,6.814-6.661,14.21-5.328,21.657c1.392,7.773,7.591,13.711,13.817,18.57
				c26.965,21.046,61.097,32.73,95.303,32.623c34.206-0.107,68.264-12.004,95.097-33.219c5.059-6.454,1.361-16.632-5.42-21.243
				c-6.781-4.611-15.433-5.178-23.623-5.596c-16.342-0.835-32.874-1.657-48.941,1.444c-8.252,1.593-16.376,4.219-24.778,4.441
				c-8.401,0.222-17.492-2.482-22.293-9.38c-5.478-7.872-3.876-18.471-2.048-27.885c3.947-20.327,7.895-40.655,11.842-60.982
				c2.643-13.612,5.352-27.42,11.571-39.814c2.781-5.541,6.319-10.738,10.619-15.214c4.412-4.592,10.12-6.917,14.727-10.815
				c-1.908-2.729-8.53-2.323-11.601-2.607C237.261,233.057,232.52,232.885,227.801,233.27z"/>
			
				<linearGradient id="SVGID_00000026160720936459132600000017573811842216213425_" gradientUnits="userSpaceOnUse" x1="152.6227" y1="334.9955" x2="210.6228" y2="409.6621">
				<stop  offset="0" style="stop-color:#F3D3BC"/>
				<stop  offset="1" style="stop-color:#E9BC9D"/>
			</linearGradient>
			<path style="fill:url(#SVGID_00000026160720936459132600000017573811842216213425_);" d="M209.49,362.485
				c-7.182-7.177-13.344-15.543-21.774-21.203c-15.678-10.526-38.301-9.235-52.679,3.005c-1.953,1.663-3.883,3.769-3.942,6.333
				c-0.059,2.564,2.924,5.081,5.067,3.673c-3.389,0.455-6.068,3.53-6.558,6.859c-0.274,1.863,1.632,3.388,3.385,2.7
				c0.617-0.242,1.203-0.565,1.735-0.961c-1.724,0.875-3.502,1.793-4.717,3.297c-1.215,1.504-1.712,3.77-0.641,5.381
				c1.07,1.611,3.948,1.772,4.781,0.027c-2.882,1.359-6.317,3.791-5.096,6.955c0.624,1.617,2.31,2.536,4.043,2.498
				c3.704-0.08,6.113-2.788,9.083-4.421c7.651-4.208,17.447-0.496,23.967,5.312c6.52,5.809,11.144,13.504,17.689,19.283
				c2.604,2.299,5.619,4.327,9.048,4.889c4.069,0.667,8.141-0.791,12.207-1.477c8.863-1.495,18.307,0.863,25.428,6.348l15.69-24.315
				c0.65-1.007,1.007-2.209,0.837-3.395c-0.565-3.948-5.756-4.146-8.688-4.898c-2.859-0.733-5.398-2.054-8.152-3.062
				C222.121,372.354,215.644,368.634,209.49,362.485z"/>
			
				<linearGradient id="SVGID_00000183217810913734201110000004768098291695709872_" gradientUnits="userSpaceOnUse" x1="365.1207" y1="351.5714" x2="318.454" y2="400.4048">
				<stop  offset="0" style="stop-color:#E5B0A8"/>
				<stop  offset="1" style="stop-color:#D4978E"/>
			</linearGradient>
			<path style="fill:url(#SVGID_00000183217810913734201110000004768098291695709872_);" d="M331.857,370.966
				c-11.228,8.611-21.946,17.889-32.077,27.767c4.316,1.893,8.631,3.786,12.947,5.678c5.058,2.219,10.238,4.469,15.746,4.879
				c0.711,0.053,1.485,0.058,2.064-0.359c0.875-0.629,0.915-1.886,0.955-2.963c0.306-8.286,6.076-16.104,13.904-18.839
				c-3.909-0.176-7.71-2.069-10.205-5.084c-2.495-3.014-3.644-7.102-3.086-10.975c-0.449-0.118-0.897-0.235-1.346-0.353
				c0.691,0.761,1.382,1.522,2.074,2.282"/>
			<g>
				<g>
					
						<rect x="332.254" y="326.534" transform="matrix(0.9781 0.2079 -0.2079 0.9781 77.806 -61.8603)" style="fill:#EFF5F9;" width="1.822" height="25.3"/>
					
						<linearGradient id="SVGID_00000073712420514567280270000005492698511392490670_" gradientUnits="userSpaceOnUse" x1="339.9112" y1="339.0962" x2="316.5541" y2="415.4935" gradientTransform="matrix(0.9781 0.2079 -0.2079 0.9781 81.5677 -61.0709)">
						<stop  offset="0" style="stop-color:#A0D2F7"/>
						<stop  offset="1" style="stop-color:#5EB3F6"/>
					</linearGradient>
					<path style="fill:url(#SVGID_00000073712420514567280270000005492698511392490670_);" d="M319.083,408.805l-1.375-0.292
						c-0.963-0.205-1.578-1.152-1.373-2.115l14.457-68.003c0.205-0.963,1.152-1.578,2.115-1.373l1.375,0.292
						c0.963,0.205,1.578,1.152,1.373,2.115l-14.457,68.003C320.993,408.395,320.046,409.01,319.083,408.805z"/>
					
						<linearGradient id="SVGID_00000080181231010588963540000008971474116403212178_" gradientUnits="userSpaceOnUse" x1="331.0546" y1="317.6381" x2="327.5594" y2="329.0705" gradientTransform="matrix(0.9781 0.2079 -0.2079 0.9781 81.5677 -61.0709)">
						<stop  offset="0" style="stop-color:#A0D2F7"/>
						<stop  offset="1" style="stop-color:#5EB3F6"/>
					</linearGradient>
					<path style="fill:url(#SVGID_00000080181231010588963540000008971474116403212178_);" d="M341.866,324.269
						c-0.605,2.847-3.404,4.665-6.252,4.06c-2.847-0.605-4.665-3.404-4.06-6.252c0.605-2.847,3.404-4.665,6.252-4.06
						C340.654,318.623,342.471,321.422,341.866,324.269z"/>
					<path style="fill:#F7F7F7;" d="M335.848,327.229c-2.236-0.475-3.669-2.682-3.194-4.918c0.476-2.236,2.682-3.669,4.918-3.194
						c2.236,0.475,3.669,2.682,3.194,4.918C340.291,326.271,338.084,327.704,335.848,327.229z"/>
				</g>
				<g>
					<path style="fill:#EFF5F9;" d="M325.788,415.619L325.788,415.619c-1.89-0.402-3.097-2.26-2.695-4.15l15.501-72.912
						c0.402-1.89,2.26-3.097,4.15-2.695l0,0c1.89,0.402,3.097,2.26,2.695,4.15l-15.501,72.912
						C329.536,414.815,327.678,416.021,325.788,415.619z"/>
					<path style="fill:#EFF5F9;" d="M342.525,337.634l-0.302-0.064c-0.677-0.144-1.11-0.81-0.966-1.487l0.685-3.222
						c0.144-0.678,0.81-1.11,1.487-0.966l0.302,0.064c0.677,0.144,1.11,0.81,0.966,1.487l-0.685,3.222
						C343.868,337.345,343.203,337.778,342.525,337.634z"/>
				</g>
				
					<linearGradient id="SVGID_00000107564876555625869860000013177424606004802692_" gradientUnits="userSpaceOnUse" x1="330.0634" y1="343.6204" x2="307.8999" y2="416.1135">
					<stop  offset="0" style="stop-color:#D1E7F8"/>
					<stop  offset="1" style="stop-color:#E6F0F9"/>
				</linearGradient>
				<path style="fill:url(#SVGID_00000107564876555625869860000013177424606004802692_);" d="M352.888,351.543
					c0.904,13.268-5.264,25.832-10.167,38.195c-1.68,4.236-3.271,8.606-6.122,12.16c-6.038,7.529-17.268,9.916-26.293,6.496
					c-4.254-1.612-8.002-4.308-11.577-7.121c-2.069-1.628-4.177-3.411-5.163-5.852c-0.966-2.393-0.716-5.081-0.45-7.649
					c1.366-13.195,2.768-26.585,7.214-39.167c0.555-1.57,1.156-3.124,1.81-4.655c0.426-0.999,1.18-3.815,2.08-4.424
					c1.152-0.78,4.261,1.939,5.656,2.513c6.408,2.637,13.03,4.751,19.78,6.318C337.281,350.126,345.068,351.199,352.888,351.543z"/>
				
					<linearGradient id="SVGID_00000032633174655465459950000004779550724213502119_" gradientUnits="userSpaceOnUse" x1="341.7156" y1="338.6278" x2="333.2196" y2="366.4165" gradientTransform="matrix(0.9781 0.2079 -0.2079 0.9781 81.5677 -61.0709)">
					<stop  offset="0" style="stop-color:#A0D2F7"/>
					<stop  offset="1" style="stop-color:#5EB3F6"/>
				</linearGradient>
				<path style="fill:url(#SVGID_00000032633174655465459950000004779550724213502119_);" d="M336.38,365.797L336.38,365.797
					c-0.944-0.201-1.547-1.129-1.346-2.073l5.082-23.904l3.42,0.727l-5.082,23.904C338.253,365.395,337.324,365.998,336.38,365.797z
					"/>
			</g>
			
				<linearGradient id="SVGID_00000121248436612727408590000006667610224190200506_" gradientUnits="userSpaceOnUse" x1="208.9517" y1="364.6797" x2="453.5852" y2="364.6797">
				<stop  offset="0" style="stop-color:#D1E7F8"/>
				<stop  offset="1" style="stop-color:#E6F0F9"/>
			</linearGradient>
			<path style="fill:url(#SVGID_00000121248436612727408590000006667610224190200506_);" d="M411.446,261.118
				c9.104-10.09,27.708-1.71,35.062,9.719c7.354,11.428,7.644,25.928,6.682,39.484c-2.824,39.788-14.317,78.478-28.211,115.868
				c-5.932,15.965-13.351,32.979-28.266,41.201c-13.763,7.587-30.659,5.813-46.064,2.703
				c-42.695-8.618-83.137-25.717-123.241-42.709c-6.475-2.743-13.449-5.936-16.661-12.192c-4.618-8.993,0.554-19.706,5.628-28.45
				c4.45-7.669,9.611-15.934,18.036-18.695c8.684-2.845,17.96,1.068,26.422,4.516c19.563,7.971,39.999,13.796,60.824,17.339
				c5.428,0.923,10.973,1.719,15.948,4.078c4.975,2.359,9.397,6.604,10.446,12.009c-0.191-5.99,3.578-11.914,9.085-14.279
				c10.259-37.079,24.201-73.138,41.554-107.474C403.385,274.944,407.024,266.019,411.446,261.118z"/>
			<g>
				
					<linearGradient id="SVGID_00000026884521904814481520000006192645745798028193_" gradientUnits="userSpaceOnUse" x1="375.162" y1="360.7709" x2="329.2349" y2="408.8304">
					<stop  offset="0" style="stop-color:#E9BC9D"/>
					<stop  offset="1" style="stop-color:#D8A481"/>
				</linearGradient>
				<path style="fill:url(#SVGID_00000026884521904814481520000006192645745798028193_);" d="M395.34,361.96
					c-3.02-0.96-6.37-1.29-8.85-3.26c1.06,0.77,2.42,0.68,3.57,0.06c1.18-0.62,2.14-1.79,2.31-3.12c0.01-0.06,0.02-0.13,0.02-0.19
					c0.24-2.56-1.66-4.99-3.98-6.15c-2.38-1.19-5.12-1.34-7.78-1.47c-8.11-0.41-16.47-0.78-24.1,2.01
					c-7.12,2.6-12.99,7.73-18.58,12.85c-8.34,7.63-16.475,15.258-24.405,23.308l-2.209,1.955c0,0,0.103,0.063,0.279,0.169
					c4.101,0.042,8.545,1.28,12.212,2.192c4.367,1.087,8.752,2.265,12.994,3.783c1.836-1.713,3.578-3.722,6.32-4.427
					c5.13-1.33,10.5-2.43,15.7-1.45c2.94,0.56,5.74,1.76,8.7,2.21c2.96,0.44,6.32-0.04,8.29-2.29c1.3-1.48,1.53-3.84,0.73-5.55
					c-0.16-0.35-0.37-0.67-0.62-0.95c2.24,1.49,4.58,2.85,7.17,3.46c0.16,0.04,0.33,0.08,0.5,0.11c3.36,0.64,7.29-0.4,9.02-3.35
					c1.64-2.81,0.1-7.18-3-7.76c0.15,0.01,0.3,0.03,0.45,0.05c1.99,0.21,4.02,0.35,5.95-0.08c0.28-0.06,0.55-0.13,0.83-0.22
					c2.47-0.78,4.7-2.96,4.69-5.55C401.53,365.13,398.36,362.91,395.34,361.96z"/>
				<path style="opacity:0.2;fill:#9E6F41;" d="M363.765,377.368c3.452,0.337,11.53,1.072,13.273,4.981
					c1.908,1.2,3.901,2.24,6.071,2.751c-0.42-0.72-0.83-1.45-1.27-2.13c-6.195-9.431-18.409-8.331-28.347-5.914
					C356.913,376.857,360.41,377.04,363.765,377.368z"/>
				<path style="opacity:0.2;fill:#9E6F41;" d="M354.96,357.1c4.07-3.16,24.94-1.2,30.1-1.13c2.45,0.03,4.89-0.23,7.33-0.52
					c0,0.06-0.01,0.13-0.02,0.19c-0.17,1.33-1.13,2.5-2.31,3.12c-4.73-0.65-9.46-1.31-14.19-1.98
					C368.9,355.81,361.63,354.87,354.96,357.1z"/>
				<path style="opacity:0.2;fill:#9E6F41;" d="M396.03,374.07c-1.93,0.43-3.96,0.29-5.95,0.08
					c-4.122-3.174-15.784-8.033-23.424-8.603c-4.91-0.37-9.85-0.2-14.72,0.59C366.116,361.857,383.06,366.92,396.03,374.07z"/>
			</g>
			
				<linearGradient id="SVGID_00000075869943223831776690000001698436691971036845_" gradientUnits="userSpaceOnUse" x1="196.6962" y1="55.0456" x2="95.6964" y2="163.0455">
				<stop  offset="0" style="stop-color:#D1E7F8"/>
				<stop  offset="1" style="stop-color:#E6F0F9"/>
			</linearGradient>
			<path style="fill:url(#SVGID_00000075869943223831776690000001698436691971036845_);" d="M147.258,121.099
				c-8.5,0-11.333,11.806-14.639,20.306c-3.306,8.5-6.847,11.57-9.445,11.333c-4.233-0.385-5.357-4.619-5.903-7.556
				c-0.944-5.076-0.236-16.528,0.708-23.139c0.945-6.611-5.793-15.778-7.162-28.097c-2.125-19.125,2.912-26.681,12.357-29.986
				c9.445-3.306,15.583,3.306,24.556,3.306h-0.472c8.972,0,15.111-6.611,24.556-3.306c9.445,3.306,14.482,10.861,12.357,29.986
				c-1.369,12.32-8.107,21.486-7.162,28.097c0.944,6.611,1.653,18.063,0.708,23.139c-0.546,2.936-1.67,7.171-5.903,7.556
				c-2.597,0.236-6.139-2.833-9.445-11.333c-3.306-8.5-6.139-20.306-14.639-20.306H147.258z"/>
		</g>
	</g>
</g>
<g id="DESIGNED_BY_FREEPIK">
	<g>
		<g id="XMLID_319_">
			<g id="XMLID_338_">
				<path id="XMLID_346_" style="fill:#222221;" d="M260.104,465.465c-0.433,0.443-0.804,0.932-1.108,1.453l-0.465-0.241
					c-0.067-0.297-0.35-0.502-0.659-0.466c-0.331,0.039-0.567,0.339-0.529,0.67c0.039,0.331,0.339,0.567,0.67,0.528
					c0.065-0.007,0.127-0.025,0.184-0.052l0.451,0.234c-0.251,0.554-0.433,1.139-0.539,1.743l0.747,0.132
					c0.23-1.306,0.85-2.507,1.792-3.473L260.104,465.465z"/>
				<path id="XMLID_345_" style="fill:#222221;" d="M265.591,463.164c-0.171,0-0.341,0.006-0.509,0.017l-0.074-0.626
					c0.188-0.149,0.296-0.389,0.266-0.645c-0.046-0.393-0.402-0.674-0.795-0.628c-0.394,0.046-0.675,0.402-0.628,0.796
					c0.03,0.254,0.189,0.461,0.404,0.563l0.073,0.624c-0.714,0.116-1.402,0.332-2.06,0.646l0.327,0.685
					c0.935-0.447,1.941-0.674,2.995-0.674c0.497,0,0.993,0.053,1.476,0.158l0.16-0.741
					C266.692,463.222,266.142,463.164,265.591,463.164z"/>
				<path id="XMLID_344_" style="fill:#222221;" d="M272.194,465.711c0.331-0.04,0.566-0.341,0.525-0.672
					c-0.04-0.331-0.341-0.566-0.672-0.525c-0.31,0.038-0.535,0.304-0.53,0.608l-0.416,0.363c-0.418-0.43-0.89-0.813-1.407-1.14
					l-0.404,0.642c1.135,0.715,2.021,1.727,2.564,2.925l0.69-0.313c-0.251-0.554-0.567-1.071-0.942-1.545l0.402-0.351
					C272.065,465.715,272.128,465.719,272.194,465.711z"/>
				<path id="XMLID_343_" style="fill:#222221;" d="M265.044,473.372c-0.386,0.023-0.775,0.035-1.157,0.035
					c-0.88,0-1.733-0.061-2.479-0.18c-0.391-0.062-0.846-0.154-1.271-0.292c1.047,1.861,3.069,3.125,5.389,3.125
					c2.855,0,5.263-1.916,5.949-4.503c-0.682,0.449-1.505,0.825-2.458,1.122C267.838,473.047,266.463,473.287,265.044,473.372z"/>
				<path id="XMLID_339_" style="fill:#222221;" d="M265.591,464.68c-3.351,0-6.079,2.666-6.079,5.943
					c0,0.425,0.046,0.849,0.137,1.261c0.674,0.483,2.706,0.891,5.348,0.731c2.88-0.174,5.297-0.958,6.672-2.159
					c-0.005-0.194-0.021-0.39-0.045-0.581C271.244,466.914,268.65,464.68,265.591,464.68z M263.432,471.195
					c-1.02,0-1.85-0.83-1.85-1.85c0-1.021,0.83-1.851,1.85-1.851c1.02,0,1.85,0.83,1.85,1.851
					C265.282,470.365,264.452,471.195,263.432,471.195z M268.169,470.287c-0.75,0-1.36-0.61-1.36-1.36s0.61-1.36,1.36-1.36
					s1.36,0.61,1.36,1.36S268.919,470.287,268.169,470.287z"/>
			</g>
			<path id="XMLID_336_" style="fill:#222221;" d="M281.595,466.547c-0.295-0.116-0.806-0.31-1.383-0.238
				c-0.551,0.069-0.844,0.341-0.844,1.007v0.866h2.229v1.717h-2.229v5.455h-1.932v-5.455h-1.339v-1.717h1.339v-0.889
				c0-1.68,0.896-2.782,2.568-2.782c0.643,0,1.157,0.121,1.59,0.308V466.547z"/>
			<path id="XMLID_334_" style="fill:#222221;" d="M286.297,469.878c-0.177-0.029-0.357-0.046-0.525-0.046
				c-0.896,0-1.51,0.548-1.51,1.613v3.908h-1.933v-7.172h1.873v0.784c0.451-0.673,1.14-0.977,2.021-0.977
				c0.414,0,0.848,0.128,1.095,0.337L286.297,469.878z"/>
			<path id="XMLID_331_" style="fill:#222221;" d="M293.965,471.757c0,0.222-0.016,0.488-0.037,0.651h-5.085
				c0.207,1.036,0.933,1.487,1.843,1.487c0.622,0,1.295-0.252,1.813-0.689l1.133,1.243c-0.814,0.748-1.851,1.089-3.057,1.089
				c-2.198,0-3.724-1.496-3.724-3.753c0-2.258,1.48-3.797,3.627-3.797C292.543,467.99,293.958,469.522,293.965,471.757z
				 M288.851,471.091h3.175c-0.178-0.918-0.732-1.437-1.562-1.437C289.554,469.655,289.021,470.203,288.851,471.091z"/>
			<path id="XMLID_328_" style="fill:#222221;" d="M301.619,471.757c0,0.222-0.016,0.488-0.037,0.651h-5.085
				c0.207,1.036,0.933,1.487,1.843,1.487c0.622,0,1.296-0.252,1.814-0.689l1.133,1.243c-0.815,0.748-1.851,1.089-3.058,1.089
				c-2.198,0-3.723-1.496-3.723-3.753c0-2.258,1.48-3.797,3.627-3.797C300.197,467.99,301.611,469.522,301.619,471.757z
				 M296.504,471.091h3.175c-0.178-0.918-0.733-1.437-1.561-1.437C297.208,469.655,296.674,470.203,296.504,471.091z"/>
			<path id="XMLID_325_" style="fill:#222221;" d="M309.964,471.764c0,2.154-1.495,3.775-3.472,3.775
				c-0.962,0-1.644-0.378-2.109-0.933v3.708h-1.925v-10.133h1.888v0.792c0.467-0.585,1.154-0.984,2.139-0.984
				C308.469,467.99,309.964,469.611,309.964,471.764z M304.287,471.764c0,1.133,0.748,1.977,1.844,1.977
				c1.14,0,1.85-0.881,1.85-1.977c0-1.095-0.71-1.976-1.85-1.976C305.035,469.789,304.287,470.632,304.287,471.764z"/>
			<path id="XMLID_322_" style="fill:#222221;" d="M313.068,465.836c0,0.696-0.541,1.229-1.236,1.229
				c-0.696,0-1.229-0.533-1.229-1.229c0-0.695,0.532-1.243,1.229-1.243C312.527,464.592,313.068,465.14,313.068,465.836z
				 M312.808,475.354h-1.932v-7.172h1.932V475.354z"/>
			<path id="XMLID_320_" style="fill:#222221;" d="M316.032,470.736l2.702-2.554h2.368l-3.478,3.375l3.501,3.797h-2.376
				l-2.717-2.901v2.901H314.1v-10.658h1.932V470.736z"/>
		</g>
		<g>
			<path style="fill:#222221;" d="M184.412,475.29v-1.055c-0.527,0.718-1.391,1.23-2.387,1.23c-1.846,0-3.149-1.406-3.149-3.706
				c0-2.256,1.289-3.721,3.149-3.721c0.952,0,1.816,0.469,2.387,1.245v-3.765h1.099v9.771H184.412z M184.412,473.371v-3.208
				c-0.395-0.615-1.245-1.143-2.124-1.143c-1.42,0-2.27,1.172-2.27,2.739c0,1.567,0.85,2.725,2.27,2.725
				C183.167,474.484,184.017,473.986,184.412,473.371z"/>
			<path style="fill:#222221;" d="M186.932,471.745c0-2.051,1.465-3.706,3.486-3.706c2.139,0,3.398,1.67,3.398,3.794v0.278h-5.727
				c0.088,1.333,1.025,2.446,2.549,2.446c0.806,0,1.626-0.322,2.182-0.894l0.527,0.718c-0.703,0.703-1.655,1.084-2.812,1.084
				C188.44,475.465,186.932,473.957,186.932,471.745z M190.403,468.947c-1.509,0-2.256,1.274-2.314,2.358h4.644
				C192.718,470.25,192.015,468.947,190.403,468.947z"/>
			<path style="fill:#222221;" d="M194.607,474.352l0.571-0.791c0.469,0.542,1.362,1.011,2.329,1.011c1.084,0,1.67-0.513,1.67-1.216
				c0-1.714-4.38-0.659-4.38-3.281c0-1.099,0.952-2.036,2.636-2.036c1.202,0,2.051,0.454,2.623,1.025l-0.513,0.762
				c-0.424-0.513-1.201-0.894-2.109-0.894c-0.966,0-1.567,0.483-1.567,1.113c0,1.553,4.379,0.527,4.379,3.281
				c0,1.187-0.952,2.139-2.783,2.139C196.306,475.465,195.325,475.114,194.607,474.352z"/>
			<path style="fill:#222221;" d="M201.477,466.471c0-0.41,0.337-0.747,0.732-0.747c0.41,0,0.747,0.337,0.747,0.747
				c0,0.41-0.337,0.732-0.747,0.732C201.814,467.204,201.477,466.881,201.477,466.471z M201.667,475.29v-7.075h1.099v7.075H201.667z
				"/>
			<path style="fill:#222221;" d="M204.582,477.106l0.556-0.82c0.586,0.703,1.289,0.967,2.3,0.967c1.172,0,2.271-0.571,2.271-2.124
				v-1.011c-0.513,0.718-1.377,1.26-2.373,1.26c-1.846,0-3.149-1.377-3.149-3.662c0-2.271,1.289-3.677,3.149-3.677
				c0.952,0,1.802,0.469,2.373,1.245v-1.069h1.099v6.87c0,2.344-1.641,3.076-3.369,3.076
				C206.237,478.161,205.416,477.925,204.582,477.106z M209.708,473.253v-3.091c-0.381-0.615-1.23-1.143-2.109-1.143
				c-1.421,0-2.27,1.128-2.27,2.695c0,1.553,0.849,2.695,2.27,2.695C208.478,474.411,209.328,473.869,209.708,473.253z"/>
			<path style="fill:#222221;" d="M217.413,475.29v-4.629c0-1.245-0.63-1.641-1.582-1.641c-0.864,0-1.685,0.527-2.094,1.099v5.171
				h-1.099v-7.075h1.099v1.025c0.497-0.586,1.464-1.201,2.519-1.201c1.479,0,2.256,0.747,2.256,2.285v4.966H217.413z"/>
			<path style="fill:#222221;" d="M219.932,471.745c0-2.051,1.465-3.706,3.486-3.706c2.139,0,3.398,1.67,3.398,3.794v0.278h-5.727
				c0.088,1.333,1.025,2.446,2.548,2.446c0.806,0,1.626-0.322,2.183-0.894l0.527,0.718c-0.703,0.703-1.655,1.084-2.813,1.084
				C221.441,475.465,219.932,473.957,219.932,471.745z M223.404,468.947c-1.509,0-2.256,1.274-2.314,2.358h4.643
				C225.718,470.25,225.015,468.947,223.404,468.947z"/>
			<path style="fill:#222221;" d="M233.35,475.29v-1.055c-0.527,0.718-1.392,1.23-2.388,1.23c-1.845,0-3.149-1.406-3.149-3.706
				c0-2.256,1.289-3.721,3.149-3.721c0.952,0,1.817,0.469,2.388,1.245v-3.765h1.098v9.771H233.35z M233.35,473.371v-3.208
				c-0.396-0.615-1.245-1.143-2.124-1.143c-1.421,0-2.27,1.172-2.27,2.739c0,1.567,0.85,2.725,2.27,2.725
				C232.105,474.484,232.954,473.986,233.35,473.371z"/>
			<path style="fill:#222221;" d="M239.692,475.29v-9.771h1.099v3.765c0.571-0.776,1.421-1.245,2.388-1.245
				c1.845,0,3.149,1.465,3.149,3.721c0,2.3-1.304,3.706-3.149,3.706c-0.996,0-1.86-0.513-2.388-1.23v1.055H239.692z M242.9,474.484
				c1.436,0,2.285-1.157,2.285-2.725c0-1.567-0.85-2.739-2.285-2.739c-0.864,0-1.729,0.527-2.109,1.143v3.208
				C241.171,473.986,242.036,474.484,242.9,474.484z"/>
			<path style="fill:#222221;" d="M247.528,477.062c0.161,0.073,0.425,0.117,0.601,0.117c0.483,0,0.806-0.161,1.055-0.747
				l0.469-1.069l-2.959-7.148h1.187l2.358,5.801l2.344-5.801h1.2l-3.544,8.511c-0.425,1.024-1.143,1.421-2.08,1.436
				c-0.234,0-0.6-0.044-0.806-0.104L247.528,477.062z"/>
		</g>
	</g>
</g>
</svg>
