<?xml version="1.0" encoding="utf-8"?>
<!-- Generator: Adobe Illustrator 27.5.0, SVG Export Plug-In . SVG Version: 6.00 Build 0)  -->
<svg version="1.1" xmlns="http://www.w3.org/2000/svg" xmlns:xlink="http://www.w3.org/1999/xlink" x="0px" y="0px"
	 viewBox="0 0 500 500" style="enable-background:new 0 0 500 500;" xml:space="preserve">
<g id="BACKGROUND">
	<rect style="fill:#B0EEEF;" width="500" height="500"/>
</g>
<g id="OBJECTS">
	<g>
		<path style="opacity:0.4;fill:#6CB4B5;" d="M460.941,448.042c0,4.344-94.441,7.865-210.941,7.865s-210.941-3.521-210.941-7.865
			c0-4.345,94.441-7.866,210.941-7.866S460.941,443.697,460.941,448.042z"/>
		<g>
			<g>
				<g>
					<g>
						<g>
							<g>
								<rect x="372.799" y="344.805" style="fill:#808285;" width="3.499" height="84.742"/>
								<rect x="374.899" y="344.805" style="opacity:0.4;fill:#808285;" width="1.398" height="84.742"/>
							</g>
							<g>
								<g>
									<g>
										<g>
											<path style="fill:#6D6E71;" d="M382.156,439.506c0,4.126-3.347,7.47-7.47,7.47c-4.127,0-7.469-3.344-7.469-7.47
												c0-4.126,3.342-7.472,7.469-7.472C378.81,432.034,382.156,435.38,382.156,439.506z"/>
										</g>
										<path style="opacity:0.4;fill:#6D6E71;" d="M377.589,432.618c0.301,0.811,0.472,1.685,0.472,2.6
											c0,4.126-3.342,7.472-7.469,7.472c-1.028,0-2.01-0.211-2.902-0.586c1.058,2.843,3.786,4.872,6.997,4.872
											c4.123,0,7.47-3.344,7.47-7.47C382.156,436.41,380.271,433.754,377.589,432.618z"/>
									</g>
									<g>
										<path style="fill:#A7A9AC;" d="M385.412,439.506c0,4.126-3.348,7.47-7.471,7.47c-4.129,0-7.47-3.344-7.47-7.47
											c0-4.126,3.341-7.472,7.47-7.472C382.064,432.034,385.412,435.38,385.412,439.506z"/>
										<path style="opacity:0.4;fill:#A7A9AC;" d="M382.969,433.992c0.28,0.786,0.443,1.631,0.443,2.515
											c0,4.126-3.346,7.471-7.471,7.471c-1.939,0-3.699-0.746-5.027-1.956c1.032,2.887,3.784,4.954,7.027,4.954
											c4.123,0,7.471-3.344,7.471-7.47C385.412,437.318,384.465,435.358,382.969,433.992z"/>
									</g>
								</g>
								<rect x="370.324" y="428.546" style="fill:#414042;" width="8.449" height="3.497"/>
							</g>
						</g>
						<g>
							<g>
								<rect x="427.625" y="344.805" style="fill:#808285;" width="3.501" height="84.742"/>
								<rect x="429.725" y="344.805" style="opacity:0.4;fill:#808285;" width="1.401" height="84.742"/>
							</g>
							<g>
								<g>
									<g>
										<g>
											<path style="fill:#6D6E71;" d="M436.98,439.506c0,4.126-3.341,7.47-7.468,7.47c-4.127,0-7.471-3.344-7.471-7.47
												c0-4.126,3.344-7.472,7.471-7.472C433.64,432.034,436.98,435.38,436.98,439.506z"/>
										</g>
										<path style="opacity:0.4;fill:#6D6E71;" d="M432.411,432.618c0.305,0.811,0.478,1.685,0.478,2.6
											c0,4.126-3.346,7.472-7.471,7.472c-1.028,0-2.01-0.211-2.904-0.586c1.058,2.843,3.788,4.872,6.999,4.872
											c4.127,0,7.468-3.344,7.468-7.47C436.98,436.41,435.098,433.754,432.411,432.618z"/>
									</g>
									<g>
										<path style="fill:#A7A9AC;" d="M440.236,439.506c0,4.126-3.344,7.47-7.469,7.47c-4.127,0-7.472-3.344-7.472-7.47
											c0-4.126,3.345-7.472,7.472-7.472C436.893,432.034,440.236,435.38,440.236,439.506z"/>
										<path style="opacity:0.4;fill:#A7A9AC;" d="M437.793,433.992c0.283,0.785,0.445,1.631,0.445,2.515
											c0,4.126-3.344,7.471-7.471,7.471c-1.939,0-3.699-0.746-5.027-1.956c1.032,2.887,3.785,4.954,7.027,4.954
											c4.125,0,7.469-3.344,7.469-7.47C440.236,437.318,439.293,435.358,437.793,433.992z"/>
									</g>
								</g>
								<rect x="425.152" y="428.546" style="fill:#414042;" width="8.445" height="3.497"/>
							</g>
						</g>
					</g>
					<g>
						<g>
							<rect x="361.024" y="222.378" style="fill:#939598;" width="85.853" height="134.246"/>
							<rect x="359.531" y="222.378" style="fill:#E6E7E8;" width="85.85" height="134.246"/>
							<rect x="364.076" y="226.411" style="fill:#3FA4A9;" width="76.764" height="121.668"/>
						</g>
						<g>
							<rect x="366.64" y="350.913" style="fill:#00CFDA;" width="12.103" height="2.911"/>
							<rect x="386.02" y="350.913" style="fill:#95A0CE;" width="4.976" height="2.911"/>
						</g>
					</g>
				</g>
				<g>
					<g>
						<g>
							<rect x="376.629" y="311.868" style="fill:#3CEFDB;" width="50.797" height="3.096"/>
							<rect x="376.629" y="320.535" style="fill:#3CEFDB;" width="50.797" height="3.097"/>
							<rect x="376.629" y="303.2" style="fill:#3CEFDB;" width="50.797" height="3.098"/>
							<rect x="376.629" y="329.205" style="fill:#3CEFDB;" width="50.797" height="3.098"/>
						</g>
					</g>
					<g>
						<path style="fill:#3CEFDB;" d="M409.256,285.238c-0.727,0-1.765-0.294-2.571-1.699c-1.388-2.407-2.394-5.174-3.282-7.613
							c-0.629-1.728-1.475-4.053-2.02-4.633c-0.184,0.089-0.454,0.372-0.661,1.037l-0.191,0.631
							c-2.956,9.733-4.474,11.744-6.095,11.93c-0.174,0.02-0.35,0.033-0.526,0.033c-3.198,0-5.519-3.53-8.017-12.184
							c-3.181-11.009-3.59-17.878-1.299-21.614c0.966-1.57,2.389-2.549,4.234-2.902c0.777-0.148,1.561-0.224,2.337-0.224
							c3.242,0,5.921,1.309,8.076,2.36c1.753,0.855,3.259,1.565,4.38,1.349c1.176-0.231,2.266-0.795,3.416-1.392
							c1.737-0.898,3.709-1.919,6.318-1.919c0.646,0,1.313,0.063,1.983,0.188c2.542,0.47,4.544,1.803,5.792,3.851
							c1.76,2.893,1.902,7.034,0.411,11.977C421.478,264.621,415.001,285.238,409.256,285.238z M401.488,268.728
							c0.042,0,0.143,0.005,0.188,0.009c1.828,0.066,2.734,2.556,4.107,6.324c0.852,2.342,1.82,4.998,3.095,7.216
							c0.187,0.322,0.335,0.43,0.378,0.43c1.799,0,6.906-9.225,9.861-19.025c1.277-4.232,1.226-7.667-0.15-9.927
							c-0.875-1.437-2.251-2.337-4.09-2.678c-0.52-0.097-1.031-0.146-1.522-0.146c-1.994,0-3.529,0.794-5.154,1.637
							c-1.258,0.65-2.563,1.325-4.094,1.625c-0.303,0.059-0.619,0.089-0.94,0.089c-1.663,0-3.304-0.8-5.039-1.646
							c-2.02-0.986-4.306-2.102-6.963-2.102c-0.616,0-1.241,0.061-1.86,0.18c-1.134,0.215-1.967,0.785-2.552,1.737
							c-1.843,3.001-1.314,9.592,1.571,19.588c1.956,6.771,3.887,10.35,5.585,10.35c0.036,0,0.072-0.002,0.108-0.003
							c0.445-0.363,1.641-2.103,4.089-10.161l0.197-0.646C398.955,269.477,400.375,268.728,401.488,268.728z"/>
					</g>
				</g>
			</g>
			<g>
				<g>
					<g>
						<g>
							<polygon style="fill:#FFFFFF;" points="304.374,344.568 297.71,344.568 297.71,57.963 145.887,90.312 164.431,121.22 
								158.716,124.648 135.37,85.738 304.374,49.73 							"/>
						</g>
						<polygon style="opacity:0.3;fill:#BCBEC0;" points="297.71,344.568 297.71,57.963 145.887,90.312 164.431,121.22 
							162.53,122.359 141.738,87.073 301.042,53.845 300.259,344.568 						"/>
					</g>
					<g>
						<g>
							<path style="fill:#58595B;" d="M310.794,53.845c0,5.386-4.364,9.752-9.752,9.752c-5.388,0-9.752-4.366-9.752-9.752
								c0-5.385,4.364-9.752,9.752-9.752S310.794,48.46,310.794,53.845z"/>
							<path style="opacity:0.3;fill:#58595B;" d="M305.88,45.383c1.004,1.534,1.592,3.365,1.592,5.335
								c0,5.386-4.364,9.753-9.752,9.753c-1.763,0-3.41-0.475-4.836-1.292c1.74,2.659,4.742,4.417,8.158,4.417
								c5.388,0,9.752-4.366,9.752-9.752C310.794,50.222,308.813,47.066,305.88,45.383z"/>
						</g>
						<g>
							<path style="fill:#808285;" d="M307.083,53.845c0,3.336-2.703,6.041-6.041,6.042c-3.338,0-6.041-2.705-6.041-6.042
								c0-3.336,2.703-6.042,6.041-6.042S307.083,50.509,307.083,53.845z"/>
							<path style="opacity:0.3;fill:#808285;" d="M305.225,49.494c0.435,0.834,0.688,1.782,0.688,2.789
								c0,3.336-2.705,6.041-6.043,6.041c-1.626,0-3.096-0.646-4.182-1.689c1.006,1.932,3.026,3.252,5.354,3.252
								c3.338,0,6.041-2.705,6.041-6.042C307.083,52.134,306.37,50.592,305.225,49.494z"/>
						</g>
					</g>
					<g>
						<g>
							<path style="fill:#58595B;" d="M152.56,89.107c0,6.628-5.374,12.002-11.999,12.002c-6.629,0.001-12.006-5.373-12.006-12.002
								c0-6.627,5.377-12.001,12.006-12.001C147.185,77.106,152.56,82.48,152.56,89.107z"/>
							<path style="opacity:0.3;fill:#58595B;" d="M146.51,78.695c1.239,1.888,1.963,4.141,1.963,6.566c0,6.628-5.372,12-12.003,12
								c-2.167,0-4.197-0.583-5.953-1.588c2.146,3.271,5.838,5.436,10.044,5.436c6.625,0,11.999-5.374,11.999-12.002
								C152.56,84.648,150.121,80.765,146.51,78.695z"/>
						</g>
						<g>
							<path style="fill:#808285;" d="M147.992,89.107c0,4.105-3.328,7.434-7.432,7.434c-4.108,0-7.435-3.329-7.435-7.434
								c0-4.105,3.327-7.434,7.435-7.434C144.664,81.673,147.992,85.002,147.992,89.107z"/>
							<path style="opacity:0.3;fill:#808285;" d="M145.706,83.752c0.537,1.027,0.846,2.193,0.846,3.432
								c0,4.106-3.328,7.434-7.438,7.435c-1.997,0-3.81-0.795-5.146-2.079c1.241,2.377,3.725,4.002,6.593,4.002
								c4.104,0,7.432-3.329,7.432-7.434C147.992,87.001,147.114,85.105,145.706,83.752z"/>
						</g>
					</g>
				</g>
				<g>
					<g>
						<g>
							<rect x="272.968" y="225.959" style="fill:#939598;" width="7.848" height="14.869"/>
							<rect x="272.968" y="225.959" style="opacity:0.4;fill:#939598;" width="2.439" height="14.869"/>
						</g>
						<g>
							<rect x="314.551" y="225.959" style="fill:#939598;" width="7.845" height="14.869"/>
							<rect x="314.551" y="225.959" style="opacity:0.4;fill:#939598;" width="2.435" height="14.869"/>
						</g>
					</g>
					<path style="fill:#3FA4A9;" d="M330.53,224.888c0,2.833-2.32,5.153-5.152,5.153l-55.39,0c-2.831,0-5.151-2.319-5.151-5.152
						v-26.35c0-2.835,2.32-5.153,5.151-5.153h55.39c2.832,0,5.152,2.318,5.152,5.153V224.888z"/>
					<path style="fill:#3FA4A9;" d="M339.468,322.275c0,3.196-2.617,5.812-5.813,5.812h-71.943c-3.197,0-5.814-2.615-5.814-5.812
						v-75.967c0-3.197,2.617-5.812,5.814-5.812h71.943c3.195,0,5.813,2.615,5.813,5.812V322.275z"/>
				</g>
				<g>
					<g>
						<g>
							<g>
								
									<rect x="192.914" y="168.113" transform="matrix(0.7903 -0.6127 0.6127 0.7903 -65.4668 158.3878)" style="fill:#F0CFAB;" width="11.544" height="13.469"/>
								<path style="fill:#FAFAFA;" d="M267.816,185.975c0,0-9.532,3.402-36.259,20.589l-27.056-35.692l-11.934,8.937
									c0,0,23.085,38.004,33.231,46.264c7.262,5.914,29.68-11.663,35.232-20.173C266.58,197.389,281.921,180.811,267.816,185.975z
									"/>
							</g>
						</g>
						<g>
							<g>
								<path style="fill:#F0CFAB;" d="M260.768,181.469c0,0,2.565,5.001-0.769,9.235c0,0,13.082,10.006,22.704-6.798
									c0,0-6.397-6.794-8.204-13.981C274.499,169.926,265.9,181.212,260.768,181.469z"/>
								<path style="fill:#E8B885;" d="M274.499,169.926c0,0-8.599,11.286-13.731,11.543c0,0,1.109,2.183,0.906,4.884
									c0.008-0.002,11.288-3.575,13.594-14.042c0-0.003,0-0.005,0.002-0.008C274.967,171.522,274.702,170.728,274.499,169.926z"/>
							</g>
							<g>
								<path style="fill:#F0CFAB;" d="M232.418,162.74c4.558,14.643,15.982,24.994,28.459,20.673
									c12.471-4.321,18.883-19.695,14.327-34.339c-4.559-14.645-18.364-23.013-30.835-18.692
									C230.323,135.25,228.346,149.66,232.418,162.74z"/>
								<path style="fill:#323232;" d="M273.483,149.499c0,0-12.847-4.462-14.13-13.698c0,0-18.73,15.907-35.145,10.005
									c0,0,4.104-2.052,4.615-4.361c0,0-4.356,0.514-7.439-1.026c0,0,6.625-15.028,11.034-19.242
									c6.506-6.22,31.3-14.367,40.537,3.592c0,0,13.72,2.689,8.655,19.681C281.61,144.45,277.608,142.416,273.483,149.499z"/>
								<g>
									<g>
										<g>
											<path style="fill:#323232;" d="M237.661,158.827c0.332,1.615,1.372,2.767,2.322,2.573
												c0.954-0.196,1.452-1.664,1.121-3.28c-0.336-1.616-1.372-2.768-2.322-2.571
												C237.83,155.744,237.33,157.211,237.661,158.827z"/>
											<g>
												<path style="fill:#323232;" d="M234.18,155.045c-0.076,0-0.16-0.019-0.235-0.057c-0.259-0.131-0.364-0.448-0.233-0.708
													c1.109-2.192,2.498-3.497,4.135-3.882c2.098-0.494,3.771,0.732,3.841,0.784c0.235,0.175,0.282,0.505,0.107,0.738
													c-0.173,0.233-0.502,0.282-0.735,0.109c-0.02-0.015-1.378-0.985-2.983-0.603c-1.314,0.315-2.466,1.434-3.422,3.329
													C234.563,154.939,234.374,155.045,234.18,155.045z"/>
											</g>
										</g>
										<g>
											<path style="fill:#323232;" d="M251.701,156.003c0.333,1.617,1.368,2.77,2.324,2.572
												c0.948-0.193,1.448-1.663,1.117-3.278c-0.332-1.616-1.37-2.767-2.32-2.57C251.872,152.92,251.368,154.39,251.701,156.003
												z"/>
											<g>
												<path style="fill:#323232;" d="M248.598,151.319c-0.079,0-0.161-0.018-0.238-0.058
													c-0.258-0.131-0.363-0.448-0.232-0.708c1.108-2.191,2.498-3.498,4.133-3.883c2.1-0.493,3.771,0.734,3.84,0.786
													c0.235,0.173,0.285,0.504,0.11,0.736c-0.172,0.232-0.506,0.283-0.735,0.109l0,0c-0.016-0.011-1.374-0.99-2.983-0.604
													c-1.314,0.315-2.468,1.436-3.424,3.331C248.977,151.213,248.791,151.319,248.598,151.319z"/>
											</g>
										</g>
									</g>
								</g>
								<g>
									<path style="fill:#F0CFAB;" d="M273.483,149.499c-1.751,4.148-1.249,8.413,1.123,9.529
										c2.368,1.117,5.713-1.339,7.464-5.487c1.755-4.146,1.257-8.413-1.115-9.529
										C278.582,142.896,275.236,145.353,273.483,149.499z"/>
									<path style="fill:#E8B885;" d="M279.176,149.198c0,0-2.06-0.241-2.995,2.381c-0.937,2.619,2.376,3.465,3.069,1.345
										c0.596-1.817-1.881-2.114-1.881-2.114S277.836,149.499,279.176,149.198z"/>
								</g>
								<g>
									<path style="fill:#FFFFFF;" d="M234.631,169.417c0,0,9.01-10.077,32.488-9.307c0,0,5.962,11.929,5.191,15.97
										C272.31,176.08,252.799,202.092,234.631,169.417z"/>
									<path style="fill:#FFFFFF;" d="M273.483,149.499c-3.444,2.666-7.419,10.583-7.419,10.583l1.185,0.298
										C267.249,160.38,269,154.812,273.483,149.499"/>
									<g>
										<path style="fill:#E6E7E8;" d="M240.503,171.406c0,0,11.431-7.887,22.432-6.658
											C262.935,164.748,252.119,165.961,240.503,171.406z"/>
										<path style="fill:#E6E7E8;" d="M263.877,168.859c0,0-10.67,7.017-20.753,5.659
											C243.124,174.518,253.088,173.625,263.877,168.859z"/>
										<path style="fill:#E6E7E8;" d="M266.412,173.49c0,0-8.574,7.658-20.758,5.66
											C245.654,179.15,255.74,179.627,266.412,173.49z"/>
									</g>
								</g>
							</g>
						</g>
						<path style="fill:none;stroke:#19ABFF;stroke-width:0.965;stroke-miterlimit:10;" d="M261.674,186.353"/>
						<g>
							<g>
								<path style="fill:#4F7BC2;" d="M261.568,187.247c0,0-2.92,2.304-5.035,3.074c-2.115,0.769-5.966,16.163-6.158,21.551
									c-0.193,5.386,7.118,64.653,3.656,74.851c0,0,33.672,12.699,56.956-2.117c0,0-15.969-91.785-21.743-97.365
									c-5.773-5.579-8.969-6.261-8.969-6.261S269.745,198.088,261.568,187.247z"/>
								<path style="opacity:0.4;fill:#4F7BC2;" d="M291.727,291.251c-0.343-1.835-2.988-16.085-3.136-19.796
									c-0.157-3.968-0.318-49.983-0.585-52.234c-0.268-2.251-6.397-26.628-8.559-22.194c-2.163,4.435-3.232,38.567-4.82,39.679
									c-1.588,1.11-14.6-0.16-14.441-3.333c0.159-3.174-3.514-21.014-3.514-21.014s-2.207,9.933-4.546,20.347
									c1.839,19.836,4.165,47.364,1.904,54.017C254.031,286.723,272.621,293.727,291.727,291.251z"/>
							</g>
							<path style="fill:#414042;" d="M242.804,388.088l-11.429-1.411c0,0-1.1-39.771,11.09-65.481
								c8.474-17.881,7.336-13.03,17.402-37.672c0,0,41.326,4.859,48.475,2.622c0,0,3.525,52.72,0.125,62.827
								c-3.106,9.229-15.137,38.13-15.592,45.299L242.804,388.088z"/>
						</g>
						<g>
							<g>
								<path style="fill:#FAFAFA;" d="M261.568,187.247c0,0-4.844,7.307-5.229,16.542c-0.383,9.236,8.085,87.551-4.617,107.562
									l-17.125-0.961c0,0,15.201-30.018,13.273-63.114c-1.922-33.096-4.251-44.905,0.175-50.293
									C252.47,191.596,261.568,187.247,261.568,187.247z"/>
								<path style="fill:#E6E7E8;" d="M256.34,203.789c0.385-9.236,5.229-16.542,5.229-16.542s-11.193,16.542-12.347,24.433
									l4.232,2.309l-3.462,4.811c0,0,10.582,42.91,1.73,92.553C264.425,291.34,255.957,213.025,256.34,203.789z"/>
							</g>
						</g>
						<g>
							<g>
								<path style="fill:#FFFFFF;" d="M279.082,179.327c0,0,2.466,4.066,0.54,16.189c-1.922,12.121,0.193,123.149,12.317,140.659
									c0,0,30.555-5.233,42.061-12.175c0,0-6.399-26.37-9.5-36.5c-4.445-14.521-7.934-49.46-9.472-66.969
									c-1.538-17.511-3.12-26.105-11.778-30.531C294.59,185.574,279.082,179.327,279.082,179.327z"/>
								<path style="fill:#E6E7E8;" d="M289.225,216.268l-5.561-4.975l4.619-1.732c-0.768-17.318-6.405-29.592-6.405-29.592l0,0
									c-1.731-0.413-2.795-0.643-2.795-0.643s2.466,4.066,0.54,16.189c-1.922,12.121,0.193,123.149,12.317,140.659
									C272.414,240.864,289.225,216.268,289.225,216.268z"/>
							</g>
						</g>
					</g>
					<g>
						<g>
							<path style="fill:#58595B;" d="M154.926,119.356c-2.237,1.357-2.958,4.301-1.598,6.54l8.834,12.682
								c1.358,2.239,4.302,2.958,6.539,1.601l5.698-3.457c2.236-1.358,2.958-4.3,1.6-6.539l-8.838-12.682
								c-1.356-2.239-4.3-2.958-6.537-1.602L154.926,119.356z"/>
							<g style="opacity:0.3;">
								<polygon style="fill:#808285;" points="154.101,127.005 154.101,127.005 154.101,127.005 								"/>
								<path style="fill:#58595B;" d="M154.394,127.429l7.768,11.149c1.358,2.239,4.302,2.958,6.539,1.601l5.698-3.457
									c2.236-1.358,2.958-4.3,1.6-6.539l-3.048-4.373l0,0C161.313,134.898,155.683,129.119,154.394,127.429z"/>
							</g>
						</g>
						<g>
							<g>
								<path style="fill:#6D6E71;" d="M166.978,135.553c-19.317,10.951-30.254,24.68-23.033,38.077
									c8.827,16.377,28.321,4.91,45.568-4.16c19.656-10.336,35.434-22.156,23.716-36.789
									C206.2,123.902,186.297,124.6,166.978,135.553z"/>
								<path style="fill:#A7A9AC;" d="M169.186,139.466c-19.318,10.951-29.936,27.423-23.714,36.789
									c6.221,9.366,26.931,8.08,46.249-2.871c19.319-10.953,29.938-27.425,23.715-36.791
									C209.212,127.227,188.506,128.513,169.186,139.466z"/>
							</g>
							<g>
								<path style="fill:#FAE365;" d="M174.422,147.343c-14.178,8.216-22.45,19.717-18.484,25.687
									c3.966,5.969,18.671,4.147,32.847-4.069c14.172-8.217,22.451-19.719,18.485-25.688
									C203.299,137.304,188.597,139.126,174.422,147.343z"/>
								<path style="fill:#FAE365;" d="M174.422,147.343c3.352-1.943,6.73-3.523,9.992-4.732c-1.683,0.792-3.372,1.676-5.055,2.651
									c-14.174,8.216-22.45,19.717-18.484,25.687c3.025,4.558,12.319,4.569,22.853,0.663c-12.464,5.885-24.295,6.678-27.791,1.418
									C151.972,167.061,160.244,155.56,174.422,147.343z"/>
							</g>
						</g>
					</g>
				</g>
				<g>
					<g>
						<g>
							<g>
								<polygon style="fill:#939598;" points="237.765,315.574 248.056,317.347 246.72,361.079 234.629,362.891 								"/>
								<polygon style="fill:#808285;" points="248.01,317.341 250.928,317.84 250.558,360.479 246.674,361.069 								"/>
							</g>
							<g>
								<path style="fill:#414042;" d="M268.03,318.967c-0.233,0.893-0.895,1.624-1.467,1.624h-47.186
									c-0.573,0-0.852-0.732-0.617-1.624l1.235-4.746c0.234-0.893,0.895-1.621,1.47-1.621h47.186c0.575,0,0.854,0.729,0.621,1.621
									L268.03,318.967z"/>
								<path style="fill:#58595B;" d="M270.707,318.967c-0.233,0.893-0.895,1.624-1.468,1.624h-47.185
									c-0.573,0-0.855-0.732-0.623-1.624l1.243-4.746c0.232-0.893,0.893-1.621,1.468-1.621h47.184
									c0.574,0,0.852,0.729,0.621,1.621L270.707,318.967z"/>
							</g>
						</g>
						<g>
							<g>
								<polygon style="fill:#414042;" points="173.884,376.777 173.884,446.588 286.149,446.588 314.379,382.25 241.127,362.624 
																	"/>
								<path style="opacity:0.3;fill:#414042;" d="M173.884,419.66c0,0,11.808,4.76,15.933,1.271
									c4.127-3.492,23.168-21.265,23.168-21.265s77.754-0.636,83.147-2.221c5.395-1.586,11.975-10.03,9.478-16.759l7.736,3.922
									l-7.607,17.336l-6.434,44.644H173.884V419.66z"/>
							</g>
							<g>
								<polygon style="fill:#939598;" points="204.803,351.782 183.567,353.845 178.718,342.249 199.956,340.186 								"/>
								<polygon style="opacity:0.4;fill:#939598;" points="185.133,353.723 183.567,353.845 178.718,342.249 180.283,342.126 
																	"/>
							</g>
							<g>
								<path style="fill:#005451;" d="M169.605,375.71c0,0,1.213,3.912,4.059,3.694c2.847-0.219,65.871-11.817,66.965-11.381
									c1.096,0.438,68.717,16.632,68.717,16.632l37.422-0.439l3.064-1.751l-108.547-19.037L169.605,375.71z"/>
								<g>
									<path style="fill:#3FA4A9;" d="M169.506,353.36c0,0-5.031-0.001-6.127,2.846c-1.094,2.846,4.159,16.194,4.159,16.194
										s1.095,5.034,6.346,4.377c5.252-0.656,64.118-10.942,66.527-10.722c2.408,0.216,68.059,15.318,71.122,15.975
										c3.066,0.654,38.298,0.435,38.298,0.435l4.378-7.221c0,0,0.438-2.845-3.721-5.033
										c-4.159-2.189-52.303-23.196-52.303-23.196s-3.282-1.533-9.411-1.313c-6.125,0.219-57.991,0.437-57.991,0.437
										L169.506,353.36z"/>
									<path style="fill:#007676;" d="M354.209,375.245c0,0,0.042-0.278-0.025-0.725l-38.93-2.559c0,0-5.251,7.879-6.197,9.511
										c1.32,0.301,2.184,0.493,2.477,0.558c3.066,0.654,38.298,0.435,38.298,0.435L354.209,375.245z"/>
									<path style="fill:#008789;" d="M249.164,347.672c-3.271-1.092-70.663,4.645-71.076,4.677l-8.582,1.012
										c0,0-5.031-0.001-6.127,2.846c-1.094,2.846,4.159,16.194,4.159,16.194s1.095,5.034,6.346,4.377
										c5.252-0.656,64.118-10.942,66.527-10.722c2.408,0.216,68.059,15.318,71.122,15.975c0.217,0.044,0.601,0.086,1.104,0.124
										c6.565-1.408,3.929-8.88,2.616-10.192C313.942,370.648,252.446,348.765,249.164,347.672z"/>
								</g>
							</g>
							<g>
								<g>
									<polygon style="fill:#939598;" points="148.215,274.845 143.246,275.192 138.715,263.468 143.684,263.121 									"/>
									<polygon style="opacity:0.4;fill:#939598;" points="144.815,275.113 143.246,275.192 138.715,263.468 140.282,263.388 
																			"/>
								</g>
								<g>
									<polygon style="fill:#939598;" points="171.051,274.599 166.084,274.945 161.551,263.224 166.518,262.874 									"/>
									<polygon style="opacity:0.4;fill:#939598;" points="167.649,274.866 166.084,274.945 161.551,263.224 163.116,263.143 
																			"/>
								</g>
							</g>
							<g>
								<path style="fill:#008789;" d="M172.463,262.227c0.906,1.935,0.001,3.516-2.005,3.516l-35.667-0.085
									c-2.006,0-4.391-1.583-5.297-3.518l-12.201-26.888c-0.904-1.936-0.433-2.653,1.794-3.985l2.59-1.578l31.862-0.097
									c2.006,0,4.389,1.584,5.297,3.518L172.463,262.227z"/>
								<path style="fill:#3FA4A9;" d="M177.331,262.227c0.904,1.935,0.004,3.516-2.004,3.516l-35.669-0.085
									c-2.006,0-4.392-1.583-5.298-3.518l-13.626-29.115c-0.906-1.935-0.004-3.518,2.004-3.518l35.667,0.085
									c2.008,0,4.396,1.584,5.298,3.518L177.331,262.227z"/>
							</g>
							<g>
								<g>
									<path style="fill:#008789;" d="M228.869,341.708c0.82,1.186-3.653,3.605-5.095,3.691l-58.28,3.683
										c-1.442,0.086-3.143-0.905-3.782-2.201l-33.787-68.6c-0.638-1.296,3.458-5.43,4.903-5.432l42.575,2.497
										c1.442-0.002,3.299,0.967,4.121,2.155L228.869,341.708z"/>
								</g>
								<g>
									<path style="fill:#3FA4A9;" d="M228.691,339.988c0.823,1.185,0.311,2.228-1.129,2.314l-58.278,3.684
										c-1.443,0.085-3.143-0.906-3.784-2.202l-33.787-68.601c-0.637-1.296,0.024-2.358,1.467-2.359l46.014-0.575
										c1.444-0.002,3.299,0.968,4.119,2.155L228.691,339.988z"/>
								</g>
							</g>
							<g>
								<polygon style="fill:#6D6E71;" points="372.809,446.588 173.884,446.588 213.745,401.944 305.738,401.944 								"/>
								<path style="opacity:0.3;fill:#6D6E71;" d="M264.078,446.588c0,0,37.131-4.396,44.112-23.755
									c5.842-16.196-16.82-20.889-16.82-20.889h14.368l67.07,44.644H264.078z"/>
							</g>
							<g>
								<rect x="160.306" y="438.509" style="fill:#939598;" width="215.018" height="8.466"/>
								<rect x="160.306" y="444.183" style="opacity:0.4;fill:#939598;" width="215.018" height="2.793"/>
							</g>
						</g>
					</g>
					<g>
						<g>
							<g>
								<path style="fill:#F0CFAB;" d="M317.952,346.38l6.558,4.717c0,0,0.565,10.359-4.484,14.882l-11.042-6.558
									C308.983,359.421,317.153,348.902,317.952,346.38z"/>
								<path style="fill:#174977;" d="M195.246,328.183c0,0,2.776,21.02,28.765,19.86c10.087-0.448,29.626-4.673,33.984-5.545
									c4.358-0.872,53.862,20.415,53.862,20.415s8.608-11.959,10.35-17.066c0,0-34.105-19.838-44.896-22.9
									c-10.789-3.063-39.204-0.591-40.219-0.176C236.077,323.186,208.005,317.65,195.246,328.183z"/>
								<path style="fill:#2D2D2D;" d="M351.239,327.202c0,0-8.511-3.548-13.463,1.232c-4.154,4.009-5.7,11.38-7.643,14.271
									c-1.938,2.887-4.815,4.964-6.019,5.484c-1.201,0.517-2.226,3.096-2.678,5.257c-0.449,2.167-0.111,2.271,0.431,3.629
									c0.544,1.358-1.502,4.587-2.288,5.681c-0.785,1.092-1.853,0.463-1.853,0.463s-2.167,0.514-0.869,2.552
									c1.297,2.041,10.541,9.14,17.9,10.064C334.759,375.835,348.996,340.115,351.239,327.202z"/>
								<path style="fill:#393939;" d="M351.239,327.202c0,0-5.426,0.241-9.262,8.264c-3.837,8.021-6.368,16.153-5.78,19.756
									c0.588,3.602-0.922,10.117-1.632,11.679c-0.709,1.564-4.099,8.387,1.353,9.267c5.448,0.879,9.838-1.766,10.459-7.817
									c0.62-6.05,2.356-10.189,4.038-13.68C352.098,351.18,360.208,328.956,351.239,327.202z"/>
							</g>
							<g>
								<path style="fill:#F0CFAB;" d="M308.434,348.663l6.557,4.715c0,0,0.565,10.36-4.485,14.881l-11.04-6.559
									C299.465,361.7,307.633,351.183,308.434,348.663z"/>
								<path style="fill:#19518E;" d="M185.728,330.462c0,0,2.774,21.021,28.762,19.862c10.087-0.45,29.624-4.674,33.982-5.545
									c4.361-0.871,53.862,20.415,53.862,20.415s8.61-11.96,10.353-17.065c0,0-34.105-19.839-44.897-22.902
									c-10.79-3.062-39.203-0.591-40.219-0.176C226.557,325.47,198.486,319.932,185.728,330.462z"/>
								<path style="fill:#323232;" d="M341.719,329.484c0,0-8.51-3.55-13.463,1.231c-4.151,4.008-5.702,11.381-7.645,14.27
									c-1.938,2.89-4.811,4.967-6.014,5.483c-1.205,0.518-2.229,3.098-2.681,5.261c-0.45,2.164-0.113,2.27,0.433,3.627
									c0.543,1.359-1.504,4.587-2.291,5.68c-0.786,1.093-1.853,0.465-1.853,0.465s-2.165,0.513-0.87,2.552
									c1.299,2.039,10.541,9.138,17.904,10.065C325.24,378.118,339.472,342.397,341.719,329.484z"/>
								<path style="fill:#414042;" d="M341.719,329.484c0,0-5.428,0.241-9.264,8.262c-3.835,8.023-6.364,16.154-5.778,19.756
									c0.587,3.602-0.921,10.117-1.63,11.681c-0.711,1.563-4.101,8.387,1.351,9.266c5.447,0.881,9.836-1.767,10.461-7.816
									c0.617-6.05,2.352-10.192,4.035-13.683C342.577,353.461,350.688,331.237,341.719,329.484z"/>
							</g>
						</g>
						<g>
							<g>
								<g>
									<path style="fill:#F0CFAB;" d="M267.705,307.688l-5.922-0.773c0,0-32.99-6.37-34.141-6.937
										c-1.151-0.567-12.938-14.184-12.938-14.184l-9.572,1.427c0,0,15.854,21.969,17.385,23.461
										c0.667,0.65,35.196,4.074,40.286,4.185c0,0,2.94,1.392,3.589,1.957c1.102,0.961,3.567,2.432,4.067,2.165
										c0.701-0.373,0.862-1.35,0.109-2.205c-0.774-0.879-2.107-1.911-2.587-2.353c0,0,1.021,0.37,1.643,0.816
										c0.618,0.447,2.688,1.978,2.847,3.398c0.163,1.421,0.667,3.066,0.667,3.066s0.314,1.145,1.096,1.03
										c0.783-0.114,1.075-0.387,1.121-1.659c0,0,0.239,1.282,1.237,1.035c0.998-0.246,0.981-1.732,0.981-1.732
										s0.056,1.024,0.751,0.734c0.849-0.356,0.833-1.526,0.833-1.526s0.767,0.784,1.278-0.167
										c0.383-0.709-0.179-4.887-0.341-6.236C279.933,311.84,277.116,309.219,267.705,307.688z"/>
									<g>
										<path style="fill:#E8B885;" d="M279.835,319.89c-0.048-0.008-0.54-0.12-0.613-0.944c-0.073-0.869-0.075-3.291-0.13-3.787
											c-0.051-0.498-0.882-1.471-0.882-1.471c0.056,0.353,0.563,1.41,0.613,1.791c0.113,0.852,0.335,4.114,0.335,4.114
											S279.477,319.911,279.835,319.89z"/>
										<path style="fill:#E8B885;" d="M278.325,321.119c0.028-0.013,0.046-0.03,0.074-0.043c-0.08,0.006-0.693,0.003-0.768-1.621
											c-0.081-1.736-0.01-3.22-0.147-3.753c-0.141-0.538-1.376-1.81-1.376-1.81s0.5,1.082,0.891,2.017
											c0.391,0.932,0.575,4.476,0.575,4.476S277.63,321.409,278.325,321.119z"/>
										<path style="fill:#E8B885;" d="M275.503,320.564c-0.088-1.419-0.217-3.704-0.287-4.202
											c-0.071-0.498-1.392-2.172-1.706-2.309c-0.314-0.133-0.676-0.178-0.676-0.178s1.251,1.22,1.64,2.225
											c0.39,1.006,0.882,4.982,0.882,4.982s0.239,1.282,1.237,1.035C276.593,322.117,275.595,321.981,275.503,320.564z"/>
									</g>
								</g>
								<path style="fill:#C46260;" d="M194.306,265.204c0,0,12.157,4.895,23.29,19.824l-9.449,4.424
									C208.146,289.452,203.238,269.835,194.306,265.204z"/>
							</g>
							<path style="opacity:0.3;fill:#F0CFAB;" d="M221.418,305.66c-0.777-0.029-2.504-1.643-6.041-9.15
								c-3.536-7.505-0.159-10.126-0.159-10.126l-0.001-0.001c-0.326-0.374-0.512-0.59-0.512-0.59l-9.572,1.427
								c0,0,15.854,21.969,17.385,23.461c0.667,0.65,35.196,4.074,40.286,4.185c-1.01-0.493-30.064-6.548-31.202-7.287
								C230.461,306.841,222.192,305.688,221.418,305.66z"/>
						</g>
						<g>
							<path style="fill:#D3726C;" d="M170.01,262.678c0,0-3.918,3.514-8.177,5.187c-4.261,1.675-6.517,7.486-3.768,12.828
								c2.749,5.341,23.713,50.828,23.713,50.828s6.176,0.459,11.409-1.346c5.236-1.804,28.653-1.31,35.364-5.581
								c0,0-15.568-36.013-21.042-44.778c-5.476-8.764-7.363-14.44-18.28-15.721C179.44,262.945,171.938,260.828,170.01,262.678z"/>
						</g>
						<g>
							<g>
								<path style="fill:#F0CFAB;" d="M166.741,255.819c0,0,3.978,5.104,0.378,11.524c0,0,17.96,9.577,25.443,0.604
									c0,0-6.573-5.25-5.141-12.179C187.422,255.769,178.538,260.524,166.741,255.819z"/>
								<path style="fill:#E8B885;" d="M187.236,258.35c0,0,0-0.001,0.002-0.003c-0.048-0.826,0-1.686,0.184-2.578
									c0,0-8.884,4.756-20.681,0.051c0,0,0.563,0.726,1.075,1.971l0,0C167.816,257.79,182.213,264.773,187.236,258.35z"/>
							</g>
							<g>
								<path style="fill:#F0CFAB;" d="M198.496,228.456c2.546,14.07-4.966,27.407-17.609,29.696
									c-12.642,2.288-24.957-7.264-27.503-21.335c-2.55-14.072,5.633-27.333,18.275-29.622
									C184.301,204.907,195.946,214.383,198.496,228.456z"/>
								<path style="fill:#5B3E00;" d="M156.308,237.393c0,0,4.858-9.526,2.113-17.023c0,0,4.561-8.586,11.686-8.02l-3.686,2.936
									c0,0,9.018-2.773,16.268-1.234c5.411,1.149,14.479,1.335,18.884-11.5c0,0-4.515-0.486-6.264-1.244
									c0,0,3.824-2.761,4.555-4.275c0,0-13.263,1.782-28.703-0.371c-18.155-2.535-25.117,3.384-25.818,18.077
									c0,0-9.592,11.212,0.017,22.757C145.359,237.495,146.944,231,156.308,237.393z"/>
								<g>
									<g>
										<g>
											<path style="fill:#5B3E00;" d="M189.47,225.195c0.45,1.422,0.131,2.786-0.705,3.048c-0.837,0.263-1.877-0.677-2.321-2.1
												c-0.445-1.423-0.127-2.787,0.708-3.049C187.991,222.835,189.025,223.773,189.47,225.195z"/>
											<g>
												<path style="fill:#5B3E00;" d="M182.63,221.039c-0.048-0.006-0.096-0.02-0.142-0.04
													c-0.241-0.109-0.345-0.389-0.237-0.628c0.032-0.072,0.82-1.775,2.691-2.302c1.462-0.411,3.131,0.011,4.965,1.257
													c0.22,0.147,0.275,0.444,0.126,0.661c-0.147,0.218-0.444,0.273-0.659,0.126c-1.586-1.079-2.988-1.457-4.161-1.131
													c-1.444,0.401-2.086,1.768-2.094,1.783C183.028,220.956,182.829,221.061,182.63,221.039z"/>
											</g>
										</g>
										<g>
											<path style="fill:#5B3E00;" d="M174.56,228.124c0.444,1.421,0.128,2.787-0.709,3.048
												c-0.836,0.263-1.878-0.677-2.32-2.099c-0.446-1.421-0.128-2.786,0.707-3.048
												C173.075,225.763,174.116,226.702,174.56,228.124z"/>
											<g>
												<path style="fill:#5B3E00;" d="M167.719,223.966c-0.048-0.005-0.098-0.018-0.144-0.04
													c-0.238-0.108-0.345-0.39-0.236-0.628c0.031-0.073,0.82-1.776,2.69-2.304c1.462-0.411,3.135,0.013,4.964,1.259
													c0.219,0.146,0.276,0.442,0.129,0.661c-0.151,0.216-0.445,0.272-0.663,0.125c-1.587-1.078-2.985-1.46-4.161-1.131
													c-1.441,0.399-2.087,1.769-2.091,1.782C168.117,223.884,167.916,223.989,167.719,223.966z"/>
											</g>
										</g>
									</g>
									<path style="fill:#E8B885;" d="M183.227,233.318c0,0,1.462-2.96,4.242-0.87
										C187.47,232.448,185.791,228.573,183.227,233.318z"/>
									<g>
										<path style="fill:#730839;" d="M192.019,236.118c0,0-11.488,2.059-13.856,2.861c0,0,0.782,8.288,7.306,7.537
											C191.987,245.764,192.019,236.118,192.019,236.118z"/>
										<path style="fill:#FFFFFF;" d="M192.019,236.118c0,0-11.488,2.059-13.856,2.861c0,0,0.081,0.877,0.416,2.033h0.002
											c0,0,9.65-1.288,13.214-2.551C192.011,237.103,192.019,236.118,192.019,236.118z"/>
										<path style="fill:#CE5D72;" d="M180.512,244.721c1.09,1.211,2.668,2.06,4.956,1.795c1.227-0.142,2.223-0.598,3.033-1.248
											C183.852,242.496,180.512,244.721,180.512,244.721z"/>
									</g>
								</g>
								<path style="fill:#F0CFAB;" d="M155.451,236.668c3.56,2.735,5.109,6.693,3.46,8.842c-1.651,2.149-5.872,1.676-9.434-1.06
									c-3.566-2.734-5.115-6.693-3.464-8.843C147.664,233.459,151.888,233.933,155.451,236.668z"/>
								<path style="fill:#E8B885;" d="M149.841,238.542c0,0,2.033-1.561,4.689,0.631c2.655,2.189-0.326,5.186-2.406,3.374
									c-1.782-1.552,0.659-3.437,0.659-3.437S151.456,238.011,149.841,238.542z"/>
							</g>
						</g>
						<g>
							<path style="fill:#93E7D6;" d="M168.334,264.278c0,0-0.33,9.184,14.327,9.221c14.446,0.036,6.567-9.404,6.567-9.404
								l1.408,0.199c0,0,15.402,7.218,22.463,29.143c0,0-6.603,13.283-34.183,6.786C178.917,300.223,163.67,270.552,168.334,264.278
								z"/>
							<path style="opacity:0.4;fill:#FFFFFF;" d="M209.116,289.507c0,0-0.016,6.466-10.186,9.546
								C198.931,299.053,211.134,296.36,209.116,289.507z"/>
						</g>
						<path style="opacity:0.3;fill:#A7A9AC;" d="M217.527,316.073l-4.683-9.859c-14.98-3.897-31.4-7.861-32.341-10.842
							c-2.857-9.055-9.98-18.016-9.98-18.016l-9.863,8.712c6.384,13.481,21.117,45.452,21.117,45.452s0.912,0.067,2.326,0.046
							l1.625-1.104c0,0-0.908-11.128,1.172-12.568C188.981,316.452,217.527,316.073,217.527,316.073z"/>
					</g>
					<g>
						<g>
							<polygon style="fill:#939598;" points="186.757,318.211 199.697,320.439 198.019,375.439 182.812,377.721 							"/>
							<polygon style="fill:#808285;" points="199.642,320.429 203.309,321.061 202.845,374.689 197.961,375.43 							"/>
						</g>
						<g>
							<path style="fill:#414042;" d="M224.822,322.475c-0.295,1.124-1.126,2.042-1.847,2.042H163.63
								c-0.723,0-1.071-0.918-0.777-2.042l1.558-5.964c0.293-1.126,1.126-2.044,1.847-2.044h59.346c0.723,0,1.071,0.918,0.78,2.044
								L224.822,322.475z"/>
							<path style="fill:#58595B;" d="M228.187,322.475c-0.294,1.124-1.125,2.042-1.848,2.042h-59.344
								c-0.722,0-1.074-0.918-0.779-2.042l1.56-5.964c0.293-1.126,1.122-2.044,1.845-2.044h59.346c0.721,0,1.073,0.918,0.78,2.044
								L228.187,322.475z"/>
						</g>
					</g>
					<g>
						<g>
							<path style="fill:#E8B885;" d="M222.962,308.303c0,0,5.041-0.537,5.768-0.095c0.73,0.445,1.18,1.759,1.18,1.759
								s-3.209,0.355-4.183-0.007C224.756,309.598,222.962,308.303,222.962,308.303z"/>
							<path style="fill:#F0CFAB;" d="M218.93,307.549l6.832,1.275c0,0,6.689,1.852,8.229,2.233
								c1.539,0.378,6.294,6.285,6.884,7.372c0.589,1.083,1.531,2.643,0.673,2.9c-0.862,0.259-1.314,0.104-2.703-1.543
								c-1.39-1.649-2.713-3.997-4.579-4.539c0,0,3.508,3.744,3.693,4.483c0.186,0.739,0.851,6.662,0.561,6.998
								c-0.287,0.34-1.816,0.461-1.926-0.914c-0.108-1.373-0.941-4.893-1.461-5.854c-0.518-0.966-3.154-2.643-3.487-2.867
								c-0.332-0.225,0.653,1.079,1.638,2.384c0.985,1.306,1.782,3.38,1.922,5.13c0.142,1.748-0.002,2.327-0.68,2.507
								c-0.677,0.18-1.33-0.646-1.487-2.081c-0.233-2.122-2.502-4.517-3.416-4.946c-0.914-0.429-0.914-0.429-0.914-0.429
								s1.727,2.691,1.669,3.575c-0.056,0.885,0.193,3.946,0.18,4.576c-0.011,0.631-1.419,1.123-1.741,0.267
								c-0.32-0.855-1.161-4.31-1.835-5.64c-0.673-1.329-1.203-2.088-2.899-2.862c-2.575-1.172-3.129-2.02-4.78-3.36
								c0,0-45.346-0.154-47.256-1.747c-1.908-1.59-11.375-16.538-11.375-16.538l14.979-5.684c0,0,5.064,9.031,6.378,9.735
								C183.337,302.685,218.93,307.549,218.93,307.549z"/>
						</g>
						<path style="fill:#D3726C;" d="M161.833,267.864c0,0-9.727,4.809-9.138,12.302c0.591,7.491,6.306,19.793,6.306,19.793
							l18.807-7.453C177.808,292.506,166.594,265.657,161.833,267.864z"/>
					</g>
				</g>
				<g>
					<g>
						<g>
							<polygon style="fill:#A7A9AC;" points="221.141,247.255 197.269,246.661 197.318,245.124 221.191,245.718 							"/>
							<polygon style="fill:#D1D3D4;" points="197.318,245.124 195.325,245.394 195.318,245.89 197.269,246.661 							"/>
							<polygon style="fill:#A7A9AC;" points="195.325,245.394 190.066,245.285 189.943,245.752 195.318,245.89 							"/>
							<g>
								<path style="fill:#A7A9AC;" d="M189.548,241.733c1.33,0.798,1.836,2.402,1.13,3.579c-0.703,1.178-2.35,1.487-3.681,0.692
									c-1.329-0.799-1.836-2.402-1.133-3.582C186.569,241.244,188.217,240.934,189.548,241.733z"/>
								<path style="fill:#E6E7E8;" d="M189.699,241.445c1.256,0.749,1.695,2.323,0.985,3.514c-0.717,1.192-2.308,1.548-3.562,0.798
									c-1.257-0.749-1.697-2.321-0.983-3.515C186.849,241.051,188.441,240.695,189.699,241.445z"/>
							</g>
						</g>
						<g>
							<path style="fill:#4F7BC2;" d="M248.25,246.521c0,0-5.296-1.936-7.08-3.561c-1.778-1.625-11.816-2.008-14.479-2.29
								c-2.663-0.28-10.954,4.868-14.811,7.614c-3.866,2.745-2.302,5.421,0.168,5.523c2.464,0.101,4.796-2.244,4.796-2.244
								s-0.065,2.265,3.044,3.314c0,0-0.874,2.781,2.729,3.56c0,0-0.93,2.376,1.467,3.307c2.394,0.93,7.979-2.031,11.31-2.036
								c3.328-0.008,10.006,0.752,15.731-1.382L248.25,246.521z"/>
							<path style="opacity:0.4;fill:#4F7BC2;" d="M251.125,258.326l-2.875-11.805c0,0-2.539-0.929-4.69-2.04l0,0
								c1.216,6.845-2.905,15.349-2.907,15.35C243.861,259.847,247.665,259.615,251.125,258.326z"/>
						</g>
					</g>
					<g>
						<path style="fill:#FFFFFF;" d="M298.494,195.482c0,0-7.773,1.98-9.91,20.102c-2.139,18.122-5.25,32.62-5.25,32.62
							l-38.69-4.626l-0.94,18.765c0,0,38.273,7.63,48.711,4.514c10.444-3.116,12.52-27.607,15.058-43.014
							C310.014,208.434,305.334,194.021,298.494,195.482z"/>
						<g>
							<path style="fill:#DFEDEE;" d="M283.334,248.204c0,0,3.111-14.498,5.25-32.62c1.09-9.24,3.641-14.276,5.887-17.001l0,0
								c-7.602,7.086-12.336,48.178-12.336,48.178l-3.201,0.916L283.334,248.204z"/>
							<path style="fill:#DFEDEE;" d="M307.31,239.583c4.9-23.281-1.185-37.336-1.185-37.336c2,5.396,2.711,13.354,1.348,21.596
								c-2.537,15.407-4.613,39.898-15.058,43.014c-2.259,0.677-5.839,0.844-10.045,0.698c0.12,0.668,0.247,1.34,0.37,2.011
								c0.025-0.005,10.547-1.138,14.465-1.83C301.13,267.041,302.413,262.866,307.31,239.583z"/>
						</g>
					</g>
				</g>
			</g>
			<g>
				<g>
					<rect x="73.618" y="295.873" style="fill:#BCBEC0;" width="44.175" height="13.158"/>
					<g>
						<path style="fill:#A7A9AC;" d="M94.015,295.294c0,0.495-0.402,0.9-0.898,0.9H75.342c-0.496,0-0.902-0.405-0.902-0.9v-1.05
							c0-0.493,0.406-0.899,0.902-0.899h17.774c0.496,0,0.898,0.406,0.898,0.899V295.294z"/>
						<g>
							<rect x="79.321" y="277.794" style="fill:#808285;" width="7.07" height="0.958"/>
							<g>
								<path style="fill:#A7A9AC;" d="M89.127,273.832c0.244,0.036-1.578,1.97-1.626,3.558c0,0,0.052,0.404-1.109,0.404
									s-0.253,0-0.253,0h-3.535C82.603,277.794,80.954,272.547,89.127,273.832z"/>
								<path style="fill:#BCBEC0;" d="M82.603,277.794h-3.282c0,0-1.263,0-1.01-2.222c0.251-2.221,1.566-3.787,4.595-4.14
									c3.029-0.355,12.977,1.111,14.239,1.313c1.263,0.201,0.558,0.91-0.603,1.159c-1.161,0.256-3.589,0.204-5.256,0.104
									c-1.663-0.104-5.5-0.656-6.912,0.302C82.956,275.27,82.554,276.834,82.603,277.794z"/>
							</g>
							<g>
								
									<rect x="97.801" y="282.92" transform="matrix(0.931 -0.3651 0.3651 0.931 -96.7062 56.1447)" style="fill:#E6E7E8;" width="4.601" height="1.716"/>
								<g>
									<path style="fill:#6D6E71;" d="M79.371,278.45h6.734c0,0,0.792-0.151,2.658,1.565c0.959,0.883,2.222,0.809,2.222,0.809
										s9.243-0.404,10.253-0.404c1.01,0,1.211,0.15,1.313,0.908c0.101,0.757-0.605,1.111-0.605,1.111s-8.638,3.283-11.008,3.989
										c-2.375,0.706-2.63,1.869-2.63,1.869l-1.613,5.047h-8.082v-13.733C78.612,279.611,78.513,278.45,79.371,278.45z"/>
									<path style="opacity:0.4;fill:#6D6E71;" d="M85.912,288.719c-0.785,2.476-2.701,3.602-4.948,3.602
										c-2.252,0-2.352-2.139-2.352-2.139v3.163h8.082l1.613-5.047c0,0,0.255-1.163,2.63-1.869
										c2.37-0.706,11.008-3.989,11.008-3.989s0.706-0.355,0.605-1.111c-1.368,1.273-7.971,2.666-11.462,3.34
										C87.601,285.344,86.702,286.245,85.912,288.719z"/>
								</g>
							</g>
						</g>
					</g>
				</g>
				<g>
					<rect x="60.1" y="295.161" style="fill:#D1D3D4;" width="85.361" height="151.814"/>
					<rect x="84.048" y="307.65" style="fill:#E6E7E8;" width="38.778" height="24.314"/>
					<g>
						<rect x="90.154" y="312.061" style="fill:#C73439;" width="4.129" height="8.637"/>
						<rect x="97.477" y="312.061" style="fill:#138D71;" width="4.131" height="8.637"/>
						<rect x="104.802" y="312.061" style="fill:#279BDB;" width="4.131" height="8.637"/>
						<rect x="112.126" y="312.061" style="fill:#939598;" width="4.131" height="8.637"/>
					</g>
				</g>
			</g>
		</g>
	</g>
</g>
</svg>
