<?xml version="1.0" encoding="utf-8"?>
<!-- Generator: Adobe Illustrator 27.5.0, SVG Export Plug-In . SVG Version: 6.00 Build 0)  -->
<svg version="1.1" xmlns="http://www.w3.org/2000/svg" xmlns:xlink="http://www.w3.org/1999/xlink" x="0px" y="0px"
	 viewBox="0 0 650 500" style="enable-background:new 0 0 650 500;" xml:space="preserve">
<g id="BACKGROUND">
	<rect style="fill:#D4F2FF;" width="650" height="500"/>
</g>
<g id="OBJECTS">
	<g>
		<path style="fill:#C3E8F4;" d="M566.791,207.701c-0.62,26.98-9.69,53.55-24.92,75.76c-15.41,22.49-37.13,39.98-62.07,50.89
			c-25.31,11.07-53.38,15.42-80.86,12.64c-30.06-3.04-58.72-13.28-88.15-19.5c-14.65-3.1-29.62-5.21-44.63-4.61
			c-15.85,0.63-30.6,5.05-45.33,10.64c-14.03,5.32-28.12,11-43.21,12.31c-13.33,1.15-27.07-1.33-37.68-9.91
			c-9.66-7.82-15.68-19.29-19.32-30.98c-4.2-13.46-5.67-27.86-5.26-41.92c0.87-29.33,10.42-58.05,25.78-82.93
			c2.74-4.45,5.67-8.77,8.75-12.98c9.45-15.59,21.03-29.85,34.25-42.5c19.55-18.72,42.37-33.86,66.74-45.56
			c25.32-12.16,52.41-20.8,80.07-25.74c29.21-5.22,59.36-6.22,88.7-1.38c27.53,4.54,54.29,14.32,77.35,30.17
			c20.5,14.08,38.13,32.55,50.65,54.07C560.231,157.821,567.371,182.581,566.791,207.701z"/>
		<g>
			<ellipse style="fill:#BAE8F7;" cx="195.846" cy="432.293" rx="107.418" ry="27.459"/>
			<ellipse style="fill:#BAE8F7;" cx="384.155" cy="458.54" rx="212.798" ry="26.247"/>
		</g>
	</g>
	<g>
		<path style="fill:#A2DCEA;" d="M138.223,276.198c-1.327,7.815-2.643,15.61-3.961,23.425l-0.604-0.104
			c-0.597-4.354-4.942-7.215-9.164-8.453c-4.212-1.237-8.766-1.486-12.681-3.494c-3.905-2.007-7.011-6.754-5.178-10.752
			c0.738-1.611,2.199-2.949,2.326-4.714c0.129-1.916-1.434-3.603-3.218-4.303c-1.783-0.711-3.76-0.693-5.666-0.811
			c-2.445-0.157-4.99-0.602-6.927-2.095c-1.937-1.494-3.037-4.31-1.907-6.485c0.909-1.759,3.051-2.817,3.443-4.764
			c0.554-2.667-2.503-4.623-5.154-5.256c-2.306-0.548-4.698-0.751-6.988-1.388c-2.29-0.637-4.554-1.773-5.896-3.735
			c-1.342-1.962-1.473-4.869,0.176-6.585c1.041-1.078,2.567-1.529,3.682-2.531c2.413-2.172,1.986-6.253,0.091-8.887
			c-1.905-2.634-4.856-4.251-7.552-6.071c-2.696-1.819-5.354-4.157-6.067-7.327c-0.998-4.504,2.665-9.122,7.121-10.283
			c4.465-1.161,9.259,0.489,13.005,3.177c3.745,2.697,6.659,6.347,9.708,9.796c1.085,1.221,2.287,2.481,3.865,2.836
			c1.509,0.34,3.073-0.209,4.607-0.068c2.988,0.276,5.161,3.08,6.006,5.959c0.845,2.868,0.744,5.929,1.283,8.876
			c0.529,2.946,1.96,6.027,4.701,7.228c1.711,0.745,3.702,0.659,5.376,1.492c3.601,1.784,4.028,6.688,3.788,10.701
			c-0.24,4.013-0.315,8.79,2.933,11.151c2.096,1.515,5.032,1.537,7.018,3.195C139.188,268.267,138.824,272.602,138.223,276.198z"/>
		<path style="fill:#A2DCEA;" d="M498.285,295.598c-1.29,3.36-3.79,6.1-6.41,8.56c-7.03,6.59-15.29,11.7-23.54,16.69
			c-4.52-16.31-9.04-32.64-13.56-48.95c-0.54-1.94-1.08-3.97-0.68-5.95c0.4-1.98,2.06-3.86,4.08-3.78c0.9,0.04,1.74,0.45,2.63,0.62
			c3.93,0.78,7.37-3.32,7.75-7.3c0.38-3.99-1.25-7.85-2.25-11.73c-0.87-3.33-1.28-6.88-0.34-10.19s3.44-6.33,6.79-7.14
			c2.14-0.52,4.47-0.14,6.51-0.96c3.34-1.33,4.68-5.25,5.64-8.72c1.77-6.41,3.53-12.82,5.3-19.23c0.44-1.58,0.9-3.21,1.95-4.46
			c1.05-1.25,2.86-2.02,4.36-1.36c1.22,0.54,1.92,1.85,3.04,2.57c1.83,1.16,4.35,0.44,5.96-1.01c1.6-1.45,2.55-3.46,3.61-5.35
			c4.47-7.94,11.73-14.27,20.21-17.61c2.81-1.11,5.82-1.9,8.84-1.65c3.01,0.26,6.03,1.7,7.64,4.26c1.78,2.84,1.54,6.61,0.12,9.65
			c-1.42,3.04-3.86,5.48-6.39,7.69c-1.76,1.53-3.63,3.04-4.75,5.08c-1.12,2.05-1.3,4.82,0.25,6.56c1.05,1.18,2.67,1.67,3.95,2.6
			c4.38,3.2,3.21,10.43-0.56,14.33c-3.77,3.89-9.16,5.64-13.88,8.32c-4.71,2.67-9.22,7.22-8.77,12.63c0.2,2.45,1.43,4.73,1.74,7.17
			c0.72,5.59-3.44,10.71-8.17,13.77c-4.73,3.05-10.24,4.82-14.78,8.15c-3.06,2.25-5.81,6.07-4.44,9.61c1.2,3.1,4.91,4.35,7.02,6.91
			C499.445,288.148,499.575,292.248,498.285,295.598z"/>
		<path style="fill:#A2DCEA;" d="M606.485,256.988c-0.37,3.06-3.43,4.94-6.17,6.36c-5.07,2.65-10.15,5.29-15.23,7.93
			c-2.29,1.2-4.94,3.01-4.67,5.58c0.22,2.14,2.38,3.46,3.53,5.27c2.36,3.71-0.06,8.89-3.77,11.27c-3.7,2.38-8.26,2.84-12.56,3.78
			c-3.08,0.68-6.18,1.68-8.67,3.63c-2.48,1.94-4.29,4.99-4.06,8.14c0.1,1.51,0.66,2.97,0.73,4.49c0.12,2.9-1.62,5.65-3.95,7.39
			c-2.33,1.73-5.19,2.6-8.03,3.23c-3.63,0.8-7.41,1.29-10.68,3.06c-3.27,1.76-5.98,5.24-5.5,8.92c0.27,2.03,1.46,3.95,1.23,5.98
			c-0.43,3.79-5.08,5.24-8.84,5.82c-8.69,1.35-17.36,2.68-26.05,4.03c3.27-11.31,3.89-23.38,1.77-34.96
			c-0.54-2.94-1.25-5.98-0.52-8.88c0.72-2.9,3.46-5.56,6.4-5.01c2.5,0.47,4.32,3.05,6.87,3.15c3.33,0.14,5.13-3.77,6.04-6.98
			c2-7.13,4.01-14.26,6.02-21.39c0.79-2.79,1.63-5.69,3.57-7.85c1.93-2.17,5.31-3.34,7.81-1.87c1.92,1.11,2.99,3.5,5.12,4.13
			c2.67,0.79,5.13-1.61,6.89-3.78c4.24-5.21,8.47-10.43,12.71-15.65c1.45-1.79,2.99-3.64,5.11-4.55c2.11-0.91,4.98-0.52,6.14,1.46
			c1.15,1.97,0.34,4.79,1.89,6.46c1.1,1.2,3.02,1.26,4.53,0.65c1.51-0.6,2.73-1.73,4.02-2.72c5.77-4.43,13.52-6.17,20.63-4.65
			C602.665,250.258,606.965,253.058,606.485,256.988z"/>
		<path style="fill:#A2DCEA;" d="M121.32,320.583c0.63,9.39,2.16,18.72,4.57,27.81c-4.18-2.03-9.22-2.05-13.92-2.59
			c-5.42-0.61-11.48-2.65-13.47-7.72c-1.31-3.34-0.54-7.35-2.43-10.39c-2.04-3.28-6.38-4.17-10.23-4.42
			c-3.86-0.26-8.06-0.31-11.07-2.74c-3.14-2.55-4.01-6.93-4.43-10.96c-0.41-4.02-0.69-8.34-3.14-11.55
			c-2.19-2.86-5.74-4.32-9.24-5.19c-3.49-0.88-7.12-1.3-10.44-2.68c-3.33-1.38-6.43-3.98-7.17-7.5c-0.84-4.01,1.58-8.05,4.67-10.73
			c7.37-6.38,19.16-6.93,27.1-1.27c2.92,2.09,5.62,5.02,9.2,5.28c3.98,0.29,7.73-2.9,11.66-2.19c2.95,0.54,5.11,3.21,6.14,6.04
			c1.03,2.82,1.19,5.88,1.8,8.82c0.6,2.95,1.77,5.98,4.21,7.73c2.26,1.62,5.21,1.89,7.7,3.13c3.57,1.78,5.87,5.46,7,9.28
			C120.95,312.573,121.06,316.613,121.32,320.583z"/>
		<path style="fill:#D4F2FF;" d="M528.76,188.706c-13.361,9.325-23.88,22.037-31.886,36.144
			c-8.209,14.465-13.931,30.245-18.313,46.25c-5.007,18.289-8.309,36.99-12.492,55.472c-4.252,18.784-9.391,37.555-17.914,54.904
			c-7.383,15.028-17.707,29.396-32.22,38.231c-1.765,1.075-3.583,2.055-5.446,2.95c-0.58,0.279-0.073,1.141,0.505,0.863
			c15.066-7.237,26.303-20.363,34.417-34.697c9.226-16.297,14.92-34.4,19.387-52.503c4.642-18.814,7.977-37.922,12.6-56.74
			c4.009-16.319,9.188-32.465,16.753-47.509c7.383-14.682,17.156-28.327,30.024-38.69c1.652-1.33,3.351-2.597,5.09-3.811
			C529.789,189.203,529.29,188.336,528.76,188.706z"/>
		<path style="fill:#D4F2FF;" d="M577.25,262.668c-13.681,4.781-25.83,13.067-36.298,22.992
			c-10.899,10.333-20.012,22.336-28.272,34.836c-9.378,14.193-17.774,29.008-27.195,43.172
			c-8.539,12.838-17.991,25.139-29.444,35.53c-10.57,9.589-22.809,17.545-36.497,21.843c-1.737,0.546-3.494,1.025-5.265,1.448
			c-0.62,0.148-0.484,1.14,0.143,0.99c13.898-3.318,26.553-10.403,37.538-19.434c11.543-9.49,21.238-20.977,29.808-33.167
			c9.818-13.964,18.295-28.799,27.446-43.195c8.294-13.049,17.213-25.764,27.985-36.908c10.129-10.479,21.929-19.578,35.427-25.261
			c1.651-0.695,3.324-1.335,5.014-1.926C578.25,263.375,577.856,262.456,577.25,262.668z"/>
		<path style="fill:#D4F2FF;" d="M151.668,369.089c-2.939-14.477-6.2-28.889-9.778-43.222c-3.541-14.185-7.282-28.354-11.615-42.32
			c-4.048-13.048-8.889-25.978-15.935-37.734c-6.239-10.409-14.211-19.923-24.121-27.015c-1.247-0.892-2.524-1.741-3.825-2.552
			c-0.548-0.341-1.05,0.524-0.505,0.863c10.479,6.528,18.987,15.768,25.651,26.094c7.36,11.404,12.454,24.087,16.615,36.958
			c4.421,13.672,8.106,27.605,11.65,41.526c3.613,14.193,6.913,28.465,9.898,42.802c2.972,14.275,5.632,28.616,7.977,43.008
			c0.297,1.823,0.588,3.646,0.876,5.47c0.1,0.634,1.064,0.365,0.964-0.266C157.223,398.109,154.608,383.566,151.668,369.089z"/>
		<path style="fill:#D4F2FF;" d="M147.79,405.694c-2.042-8.739-4.581-17.36-7.601-25.811c-3.011-8.426-6.494-16.685-10.42-24.726
			c-3.923-8.034-8.291-15.85-13.078-23.402c-4.791-7.558-10.002-14.848-15.599-21.829c-5.614-7.001-11.621-13.686-17.993-20.005
			c-0.781-0.775-1.569-1.544-2.36-2.308c-0.463-0.447-1.171,0.259-0.707,0.707c6.434,6.208,12.514,12.778,18.206,19.673
			c5.664,6.862,10.94,14.042,15.805,21.491c4.889,7.485,9.363,15.242,13.395,23.221c4.028,7.971,7.614,16.165,10.728,24.536
			c3.105,8.346,5.743,16.866,7.888,25.509c0.265,1.068,0.522,2.138,0.772,3.21C146.972,406.586,147.937,406.321,147.79,405.694z"/>
	</g>
	<g>
		<g>
			<g>
				<circle style="fill:#FFFFFF;" cx="114.176" cy="67.283" r="32.605"/>
				<path style="fill:#0F9FB7;" d="M114.176,100.663c-18.406,0-33.38-14.974-33.38-33.38s14.974-33.38,33.38-33.38
					c18.405,0,33.379,14.974,33.379,33.38S132.581,100.663,114.176,100.663z M114.176,35.453c-17.551,0-31.83,14.279-31.83,31.83
					s14.279,31.83,31.83,31.83c17.551,0,31.83-14.279,31.83-31.83S131.727,35.453,114.176,35.453z"/>
			</g>
			<path style="fill:#4D5566;" d="M113.19,70.124h-0.193c-0.382,0-0.695-0.313-0.695-0.695V41.412c0-0.382,0.313-0.695,0.695-0.695
				h0.193c0.382,0,0.695,0.313,0.695,0.695v28.017C113.885,69.811,113.572,70.124,113.19,70.124z"/>
			<path style="fill:#0F9FB7;" d="M112.944,70.033l-0.085,0.054c-0.169,0.107-0.395,0.057-0.503-0.112l-14.823-23.31
				c-0.107-0.169-0.057-0.395,0.112-0.503l0.085-0.054c0.169-0.107,0.395-0.057,0.503,0.112l14.823,23.31
				C113.163,69.699,113.113,69.925,112.944,70.033z"/>
			<path style="fill:#4D5566;" d="M131.91,71.18h-17.954c-0.91,0-1.655-0.745-1.655-1.655v-0.46c0-0.91,0.745-1.655,1.655-1.655
				h17.954c0.91,0,1.655,0.745,1.655,1.655v0.46C133.565,70.435,132.82,71.18,131.91,71.18z"/>
		</g>
		<g>
			<rect x="265.152" y="36.074" style="fill:#0F9FB7;" width="63.704" height="90.148"/>
			<path style="fill:#73D7FF;" d="M317.884,81.824c2.872-4.264,5.099-8.905,5.87-14.07c1.152-7.719-1.373-16.23-8.31-20.5
				c-3.465-2.133-7.928-2.763-11.384-0.446c-2.279-1.491-4.988-2.321-7.724-2.211c-2.254,0.091-4.451,0.786-6.367,1.949
				c-2.593-1.47-5.749-1.769-8.629-0.812c-3.631,1.207-6.555,3.999-8.462,7.26c-3.424,5.855-3.582,12.878-1.651,19.229
				c0.025,0.101,0.05,0.218,0.084,0.335c0.017,0.076,0.042,0.161,0.068,0.237c0.009,0.042,0.017,0.076,0.034,0.118
				c0.017,0.076,0.042,0.152,0.059,0.22c0.009,0.034,0.026,0.076,0.034,0.11c0.017,0.051,0.034,0.101,0.051,0.161
				c0.059,0.203,0.127,0.406,0.195,0.609c0.025,0.085,0.059,0.169,0.093,0.254c1.851,5.216,5.749,9.781,7.186,15.048
				c0.008,0.017,0.008,0.034,0.017,0.051c0,0.008,0.068,0.338,0.152,0.778c0.203,0.981,0.516,2.528,0.524,2.545
				c0.042,5.706-1.775,11.531-0.144,16.984c0.634,2.088,2.359,4.388,4.726,3.297c0.896-0.423,1.556-1.243,1.851-2.19
				c0.998-3.221,1.53-6.611,2.672-9.781c0-0.008,0.008-0.017,0.008-0.025c0.397-1.04,1.953-0.828,2.164,0.262l3.085,15.826
				c0.871,2.984,5.098,2.984,5.968,0c0,0,1.868-11.776,2.511-15.792c0.177-1.099,1.742-1.327,2.139-0.287
				c0,0.008,0,0.017,0.008,0.025c0.947,2.646,1.471,5.453,2.206,8.175c0.524,1.961,1.615,4.286,3.846,4.049
				c1.167-0.127,2.164-0.955,2.629-2.037c2.595-5.994,0.287-12.503,0.423-18.86c0.008-0.025,0.566-2.967,0.566-2.993
				C315.133,86.715,316.485,84.267,317.884,81.824z"/>
		</g>
		<g>
			<rect x="335.763" y="36.332" style="fill:#73D7FF;" width="63.704" height="90.148"/>
			<g>
				<path style="fill:#FFFFFF;" d="M367.681,120.859c-1.631,0-2.98-1.012-3.436-2.577l-3.097-15.868
					c-0.073-0.376-0.39-0.534-0.639-0.556c-0.105-0.009-0.43-0.011-0.591,0.302l-0.044,0.105c-0.635,1.768-1.089,3.648-1.529,5.467
					c-0.34,1.409-0.693,2.867-1.128,4.275c-0.347,1.108-1.112,2.01-2.101,2.476c-0.889,0.411-1.794,0.431-2.618,0.059
					c-1.197-0.538-2.228-1.901-2.758-3.646c-1.086-3.629-0.681-7.443-0.288-11.132c0.208-1.955,0.422-3.976,0.411-5.941
					c-0.035-0.155-0.103-0.487-0.261-1.263l-0.372-1.842c-0.01-0.047-0.017-0.089-0.023-0.125l-0.015-0.053
					c-0.769-2.811-2.284-5.482-3.748-8.065c-1.265-2.229-2.571-4.535-3.433-6.962c-0.032-0.081-0.072-0.18-0.1-0.278
					c-0.064-0.193-0.133-0.401-0.195-0.609l-0.09-0.292c-0.035-0.124-0.051-0.178-0.062-0.232l-0.001,0
					c-0.006,0-0.019-0.053-0.033-0.119c-0.017-0.045-0.048-0.146-0.067-0.236c-0.018-0.063-0.04-0.152-0.06-0.235
					c-2.171-7.151-1.568-14.113,1.68-19.666c2.138-3.658,5.235-6.311,8.719-7.469c2.925-0.97,6.102-0.708,8.769,0.717
					c1.963-1.14,4.155-1.788,6.358-1.877c2.639-0.101,5.377,0.646,7.742,2.122c3.279-2.035,7.703-1.814,11.632,0.605
					c6.486,3.992,9.833,12.224,8.528,20.971c-0.7,4.695-2.641,9.356-5.935,14.249c-1.405,2.453-2.725,4.864-3.45,7.394l0,0
					c-0.086,0.52-0.453,2.411-0.548,2.896c-0.042,2.085,0.186,4.232,0.406,6.308c0.449,4.228,0.912,8.6-0.866,12.707
					c-0.555,1.288-1.708,2.177-3.011,2.319c-1.414,0.15-3.309-0.493-4.352-4.396c-0.246-0.914-0.47-1.838-0.693-2.763
					c-0.425-1.757-0.864-3.572-1.468-5.281l-0.061-0.064l-0.004-0.106c-0.161-0.319-0.491-0.313-0.594-0.302
					c-0.246,0.025-0.554,0.186-0.614,0.557c-0.641,4.015-2.51,15.79-2.51,15.79C370.66,119.847,369.311,120.859,367.681,120.859z
					 M360.441,100.913c0.05,0,0.099,0.002,0.149,0.006c0.748,0.065,1.343,0.593,1.483,1.315l3.086,15.825
					c0.398,1.36,1.609,1.857,2.522,1.857c0.911,0,2.123-0.498,2.531-1.899c-0.004-0.001,1.858-11.729,2.498-15.735
					c0.118-0.728,0.7-1.268,1.448-1.345c0.698-0.073,1.304,0.281,1.572,0.902l0.017,0.042c0.003,0.007,0.005,0.014,0.007,0.02
					l0.031,0.089c0.628,1.768,1.076,3.623,1.51,5.417c0.222,0.916,0.443,1.833,0.688,2.74c0.482,1.801,1.455,3.906,3.342,3.704
					c0.95-0.103,1.832-0.792,2.247-1.756c1.68-3.881,1.25-7.938,0.795-12.234c-0.224-2.113-0.456-4.299-0.41-6.45l0.023-0.137
					c0.02-0.106,0.527-2.788,0.547-2.914c0.768-2.698,2.122-5.169,3.56-7.679l0.017-0.029c3.219-4.78,5.114-9.319,5.795-13.876
					c1.249-8.373-1.927-16.236-8.091-20.03c-2.912-1.792-7.297-2.854-10.875-0.456l-0.259,0.173l-0.26-0.171
					c-2.26-1.479-4.892-2.24-7.447-2.135c-2.133,0.086-4.257,0.737-6.143,1.881l-0.236,0.143l-0.24-0.136
					c-2.486-1.409-5.492-1.691-8.25-0.775c-3.267,1.086-6.18,3.591-8.203,7.051c-3.114,5.324-3.685,12.02-1.607,18.854l0.029,0.118
					c0.017,0.071,0.035,0.149,0.057,0.226c0.02,0.089,0.041,0.157,0.062,0.218l0.136,0.483c0.008,0.017,0.028,0.076,0.047,0.145
					c0.056,0.191,0.121,0.388,0.189,0.586c0.026,0.086,0.054,0.157,0.083,0.227c0.842,2.368,2.127,4.637,3.371,6.831
					c1.494,2.634,3.038,5.357,3.832,8.268l0.05,0.1l-0.017,0.075l0.025,0.08l0.372,1.838c0.118,0.575,0.223,1.089,0.257,1.246
					l0.024,0.154c0.015,2.032-0.204,4.096-0.417,6.091c-0.4,3.762-0.778,7.315,0.253,10.761c0.349,1.147,1.121,2.554,2.242,3.058
					c0.578,0.26,1.196,0.241,1.836-0.054c0.747-0.352,1.331-1.047,1.598-1.903c0.427-1.379,0.775-2.821,1.113-4.216
					c0.441-1.823,0.896-3.707,1.537-5.506l0.045-0.123C359.246,101.282,359.796,100.913,360.441,100.913z"/>
			</g>
		</g>
	</g>
	<g>
		<rect x="380.116" y="169.805" style="fill:#949AAF;" width="38.911" height="30.946"/>
		<g>
			<g>
				<path style="fill:#B0BAD1;" d="M326.131,209.353h-17.894v-30.398c0-22.04,17.931-39.971,39.971-39.971h77.276v17.894h-77.276
					c-12.173,0-22.077,9.904-22.077,22.077V209.353z"/>
			</g>
			<g>
				<path style="fill:#D0DCF4;" d="M369.808,383.869H227.385V203.676H349.88c11.005,0,19.927,8.922,19.927,19.927V383.869z"/>
				<path style="fill:#B0BAD1;" d="M369.808,222.443H227.385v-18.767h125.947c9.099,0,16.476,7.376,16.476,16.476V222.443z"/>
				<ellipse style="fill:#949AAF;" cx="283.935" cy="212.756" rx="22.254" ry="5.76"/>
				<rect x="234.454" y="232.392" style="fill:#B0BAD1;" width="125.667" height="38.747"/>
				<rect x="234.454" y="281.088" style="fill:#B0BAD1;" width="125.667" height="38.747"/>
			</g>
			<path style="fill:#949AAF;" d="M369.463,225.41h-143.13c-1.053,0-1.915-0.862-1.915-1.915v-0.533
				c0-1.053,0.862-1.915,1.915-1.915h143.13c1.053,0,1.915,0.862,1.915,1.915v0.533C371.378,224.548,370.516,225.41,369.463,225.41z
				"/>
			<ellipse style="fill:#80879B;" cx="282.772" cy="214.73" rx="11.142" ry="3.021"/>
			<g>
				<path style="fill:#FFFFFF;" d="M287.115,203.676h-2.825v-14.843c0-1.26-1.025-2.285-2.285-2.285
					c-1.26,0-2.285,1.025-2.285,2.285v9.065h-2.825v-9.065c0-2.818,2.293-5.111,5.111-5.111c2.818,0,5.111,2.293,5.111,5.111
					V203.676z"/>
			</g>
		</g>
		<path style="fill:#D0DCF4;" d="M491.639,135.7c-12.658,0.047-24.11,5.199-32.416,13.496c-8.335,8.335-13.495,19.853-13.495,32.576
			h-89.704c0-12.723,5.161-24.241,13.496-32.576c5.622-5.622,12.686-9.794,20.597-11.923c0.923-0.245,1.855-0.461,2.797-0.65
			c2.967-0.612,6.037-0.923,9.182-0.923H491.639z"/>
		<path style="fill:#949AAF;" d="M491.639,135.7v46.072h-45.912c0-12.723,5.161-24.241,13.495-32.576
			C467.53,140.899,478.982,135.747,491.639,135.7z"/>
		<polygon style="fill:#D0DCF4;" points="404.846,213.007 302.829,213.007 337.911,187.263 439.928,187.263 		"/>
		<polygon style="fill:#949AAF;" points="302.829,213.007 302.829,218.516 404.846,218.516 439.928,192.772 439.928,187.263 
			404.846,213.007 		"/>
		<polygon style="fill:#4ECDF4;" points="393.92,210.454 312.133,210.454 340.258,189.815 422.045,189.815 		"/>
		<g>
			<path style="fill:#FFFFFF;" d="M448.606,140.111l-2.468-1.376l23.493-42.142c1.702-3.055,5.123-4.518,8.507-3.637
				c3.385,0.88,5.66,3.821,5.66,7.319V135.7h-2.825v-35.425c0-2.703-1.909-4.159-3.545-4.584c-1.638-0.424-4.012-0.083-5.328,2.278
				L448.606,140.111z"/>
		</g>
		<g>
			<path style="fill:#FFFFFF;" d="M427.954,140.111l-2.468-1.376l23.493-42.142c1.702-3.055,5.123-4.518,8.507-3.637
				c3.385,0.88,5.66,3.821,5.66,7.319V135.7h-2.825v-35.425c0-2.703-1.909-4.159-3.545-4.584c-1.638-0.424-4.012-0.083-5.328,2.278
				L427.954,140.111z"/>
		</g>
		<g>
			<path style="fill:#FFFFFF;" d="M407.47,140.111l-2.468-1.376l23.493-42.142c1.702-3.055,5.123-4.518,8.507-3.637
				c3.385,0.88,5.66,3.821,5.66,7.319V135.7h-2.825v-35.425c0-2.703-1.909-4.159-3.545-4.584c-1.638-0.424-4.012-0.083-5.328,2.278
				L407.47,140.111z"/>
		</g>
		<g>
			<g>
				
					<rect x="385.955" y="173.626" transform="matrix(0.9029 0.4298 -0.4298 0.9029 113.5202 -149.2704)" style="fill:#8F9CB7;" width="2.517" height="6.097"/>
				<path style="fill:#4D5566;" d="M389.258,176.252l-2.933-1.396c5.044-22.577,17.276-36.231,17.276-36.231l4.608,2.194
					C408.21,140.818,403.592,158.097,389.258,176.252z"/>
				<path style="fill:#8F9CB7;" d="M383.883,185.369l-0.649-0.309c-1.284-0.611-1.834-2.162-1.223-3.446l1.569-3.296
					c0.611-1.284,2.162-1.834,3.446-1.223l0.649,0.309c1.284,0.611,1.834,2.162,1.223,3.446l-1.569,3.296
					C386.718,185.43,385.167,185.98,383.883,185.369z"/>
				
					<rect x="405.416" y="133.963" transform="matrix(0.9029 0.4298 -0.4298 0.9029 98.4238 -161.7559)" style="fill:#8F9CB7;" width="3.778" height="6.097"/>
			</g>
			<g>
				
					<rect x="406.727" y="173.316" transform="matrix(0.9029 0.4298 -0.4298 0.9029 115.4034 -158.2281)" style="fill:#8F9CB7;" width="2.517" height="6.097"/>
				<path style="fill:#4D5566;" d="M410.03,175.942l-2.933-1.396c5.044-22.577,17.276-36.231,17.276-36.231l4.608,2.194
					C428.982,140.509,424.365,157.787,410.03,175.942z"/>
				<path style="fill:#8F9CB7;" d="M404.655,185.059l-0.649-0.309c-1.284-0.611-1.834-2.162-1.223-3.446l1.569-3.296
					c0.611-1.284,2.162-1.834,3.446-1.223l0.649,0.309c1.284,0.611,1.834,2.162,1.223,3.446l-1.569,3.296
					C407.49,185.12,405.939,185.67,404.655,185.059z"/>
				<path style="fill:#4D5566;" d="M409.072,184.43l-1.792-0.853c-0.288-0.137-0.411-0.485-0.274-0.772l0.069-0.146
					c0.137-0.288,0.485-0.411,0.772-0.274l1.792,0.853c0.288,0.137,0.411,0.485,0.274,0.772l-0.069,0.146
					C409.708,184.443,409.36,184.567,409.072,184.43z"/>
				
					<ellipse transform="matrix(0.4298 -0.9029 0.9029 0.4298 67.1151 471.3719)" style="fill:#4D5566;" cx="406.767" cy="182.547" rx="1.966" ry="1.187"/>
				
					<rect x="426.188" y="133.653" transform="matrix(0.9029 0.4298 -0.4298 0.9029 100.3071 -170.7136)" style="fill:#8F9CB7;" width="3.778" height="6.097"/>
			</g>
			<g>
				
					<rect x="427.724" y="173.471" transform="matrix(0.9029 0.4298 -0.4298 0.9029 117.5083 -167.2373)" style="fill:#8F9CB7;" width="2.517" height="6.097"/>
				<path style="fill:#4D5566;" d="M431.027,176.097l-2.933-1.396c5.044-22.577,17.276-36.231,17.276-36.231l4.608,2.194
					C449.979,140.664,445.361,157.942,431.027,176.097z"/>
				<path style="fill:#8F9CB7;" d="M430.023,178.692c0,0.299-0.06,0.605-0.199,0.89l-0.883,1.867
					c-0.492,1.03-1.741,1.475-2.77,0.983c-1.03-0.492-1.475-1.734-0.983-2.77l0.89-1.867c0.492-1.03,1.734-1.475,2.764-0.983
					C429.592,177.164,430.023,177.915,430.023,178.692z"/>
				<path style="fill:#4D5566;" d="M423.998,185.2l2.205-4.632c0.137-0.288,0.485-0.411,0.772-0.274l0.146,0.069
					c0.288,0.137,0.411,0.485,0.274,0.772l-2.205,4.632c-0.137,0.288-0.485,0.411-0.772,0.274l-0.146-0.069
					C423.984,185.835,423.861,185.487,423.998,185.2z"/>
				
					<rect x="447.185" y="133.808" transform="matrix(0.9029 0.4298 -0.4298 0.9029 102.4119 -179.7228)" style="fill:#8F9CB7;" width="3.778" height="6.097"/>
			</g>
		</g>
		<path style="fill:#31343F;" d="M409.983,192.294l-14.484,11.031c-0.576,0.438-0.009,1.428,0.575,0.984l14.484-11.031
			C411.133,192.839,410.567,191.849,409.983,192.294z"/>
		<path style="fill:#31343F;" d="M398.587,198.691c-0.145-0.247-0.527-0.384-0.779-0.204c-1.264,0.9-2.528,1.801-3.793,2.701
			c-0.25,0.178-0.37,0.497-0.204,0.779c0.145,0.247,0.527,0.384,0.779,0.204c1.264-0.9,2.528-1.801,3.793-2.701
			C398.632,199.292,398.752,198.973,398.587,198.691z"/>
		<path style="fill:#31343F;" d="M363.225,160.386c-3.231,6.016-5.149,12.655-5.636,19.465c-0.052,0.731,1.087,0.728,1.139,0
			c0.472-6.604,2.348-13.058,5.48-18.89C364.555,160.315,363.573,159.739,363.225,160.386z"/>
		<path style="fill:#31343F;" d="M469.31,138.043c-11.997,6.487-21.089,17.89-25.088,30.898c-1.124,3.656-1.826,7.433-2.101,11.248
			c-0.053,0.731,1.087,0.728,1.139,0c0.959-13.309,7.489-25.998,17.48-34.792c2.798-2.462,5.866-4.598,9.144-6.37
			C470.53,138.678,469.956,137.694,469.31,138.043z"/>
	</g>
	<g>
		<g>
			<rect x="184.556" y="296.087" style="fill:#B0BAD1;" width="5.721" height="97.976"/>
			<path style="fill:#20232B;" d="M234.788,302.542h-93.02c-6.6,0-12-5.4-12-12v-16.349c0-6.6,5.4-12,12-12h93.02
				c6.6,0,12,5.4,12,12v16.349C246.788,297.142,241.389,302.542,234.788,302.542z"/>
			<path style="fill:#B0BAD1;" d="M244.297,408.338H136.257l36.155-14.137c8.627-3.374,18.092-3.63,26.869-0.728L244.297,408.338z"
				/>
		</g>
		<g>
			<path style="fill:#31343F;" d="M152.468,420.736c-0.141,3.193-0.48,6.668-2.703,8.956c-1.723,1.761-4.247,2.458-6.668,2.882
				c-5.933,1.045-12.064,0.914-17.941-0.377c-2.684-0.584-5.509-1.563-7.044-3.833c-1.761-2.609-1.281-6.084-0.603-9.154
				c1.516-6.969,3.607-13.816,6.263-20.446c4.05,1.582,15.087,4.869,28.404,0.367C152.675,406.317,152.769,413.531,152.468,420.736z
				"/>
			<path style="fill:#4ECDF4;" d="M260.035,138.933l-2.863,1.912l-17.818,11.885c-0.565-3.211-2.392-12.253-5.359-13.006
				c-3.607-0.923-28.329-1.055-29.807,0.603c-1.488,1.667,1.921,5.236,1.921,5.236c-9.295,1.968-2.533,5.236-2.533,5.236
				c-1.921,3.447,4.106,5.415,4.106,5.415c-0.047,3.532,10.378,6.715,10.378,6.715c1.441,8.561,8.551,8.372,8.551,8.372
				s2.759,3.089,7.12,6.79l-5.462,24.025l4.021,40.6c0,0-51.054,26.878-97.653-2.006l5.378-53.926
				c4.342-10.868,7.93-25.193,9.945-34.121c3.174-1.959,5.698-4.954,7.082-8.429c0.65-0.075,1.29-0.217,1.902-0.433
				c0.763-0.273,1.545-0.697,1.855-1.45c0.226-0.527,0.16-1.149-0.038-1.686c-0.113-0.301-0.273-0.584-0.461-0.857
				c1.234,0,2.477-0.226,3.362-1.045c1.074-0.998,1.309-2.656,0.951-4.087c-0.358-1.422-1.196-2.665-2.025-3.88l0.104-0.075
				c1.092,1.403,2.204,2.797,3.522,3.993c1.46,1.337,3.193,2.439,5.133,2.882c1.422,0.33,3.136,0.17,4.003-1.008
				c0.546-0.753,0.612-1.789,0.358-2.684c-0.254-0.904-0.772-1.705-1.328-2.458c-1.563-2.147-3.4-4.078-5.462-5.754
				c0.546,0.104,1.092,0.16,1.639,0.075c0.753-0.104,1.507-0.527,1.808-1.224c0.339-0.8,0.009-1.723-0.367-2.505
				c-1.648-3.381-4.37-6.244-7.666-8.062c-3.051-1.695-6.592-2.477-10.068-2.26c-3.211,0.848-6.517,1.874-8.749,4.294
				c-1.742,1.874-2.637,4.37-3.447,6.8c-1.723,5.18-3.296,10.416-4.709,15.69l0.057,0.028c-1.206,1.902-4.21,6.545-7.647,11.405
				h-13.11c0,0,6.931-28.8,15.709-38.227c6.913-7.431,32.407-13.891,42.907-16.293c0,0-0.066,22.857,14.428,33.885
				c0,0,13.081-2.722,20.578-11.725c1.008-0.283,1.987-0.65,2.919-1.14c2.741-1.422,4.935-3.748,6.602-6.338
				c0.904-1.394,1.658-2.872,2.345-4.389c0,0,12.846-0.461,20.437,7.741S260.035,138.933,260.035,138.933z"/>
			<g>
				
					<rect x="196.035" y="144.129" transform="matrix(0.3109 0.9504 -0.9504 0.3109 275.8373 -86.0961)" style="fill:#B0BAD1;" width="2.517" height="6.097"/>
				<path style="fill:#4D5566;" d="M199.009,148.368l-1.01-3.087c19.834-11.906,38.158-12.453,38.158-12.453l1.587,4.851
					C237.744,137.679,222.042,146.242,199.009,148.368z"/>
				<path style="fill:#B0BAD1;" d="M188.698,150.757l-0.224-0.683c-0.442-1.351,0.302-2.819,1.653-3.261l3.469-1.135
					c1.351-0.442,2.819,0.302,3.261,1.653l0.224,0.683c0.442,1.351-0.302,2.819-1.653,3.261l-3.469,1.135
					C190.608,152.853,189.14,152.109,188.698,150.757z"/>
				<path style="fill:#4D5566;" d="M193.176,156.512l-1.595-4.875c-0.099-0.303,0.068-0.632,0.371-0.731l0.153-0.05
					c0.303-0.099,0.632,0.068,0.731,0.371l1.595,4.875c0.099,0.303-0.068,0.632-0.371,0.731l-0.153,0.05
					C193.604,156.982,193.275,156.815,193.176,156.512z"/>
				
					<ellipse transform="matrix(0.9504 -0.3109 0.3109 0.9504 -37.2946 67.1469)" style="fill:#4D5566;" cx="191.974" cy="150.556" rx="1.966" ry="1.187"/>
				<polygon style="fill:#B0BAD1;" points="243.368,135.248 237.567,137.141 237.209,136.058 236.39,133.553 239.111,132.668 
					242.191,131.66 242.257,131.867 243.142,134.57 				"/>
			</g>
			<path style="fill:#4D5566;" d="M186.63,141.213c-2.374-2.018-4.748-4.037-7.122-6.055l0.129-0.153
				c1.078-1.277,0.917-3.186-0.359-4.264l-15.979-13.494c-1.277-1.078-3.186-0.917-4.264,0.359l-0.769,0.911
				c-1.078,1.277-0.917,3.186,0.359,4.264l15.979,13.494c1.277,1.078,3.186,0.917,4.264-0.359l0.034-0.04l7.062,6.004
				C186.423,142.269,187.093,141.606,186.63,141.213z"/>
			<g>
				
					<ellipse transform="matrix(0.4119 -0.9112 0.9112 0.4119 -19.4518 253.3166)" style="fill:#4D5566;" cx="186.516" cy="141.727" rx="5.803" ry="3.971"/>
				
					<ellipse transform="matrix(0.4119 -0.9112 0.9112 0.4119 -19.2938 252.934)" style="fill:#B4BDD3;" cx="186.298" cy="141.414" rx="4.953" ry="3.098"/>
			</g>
			<path style="fill:#FFA897;" d="M230.388,81.277v0.009c-1.959,6.903-4.031,13.769-6.611,20.465
				c-0.518,1.328-1.045,2.656-1.629,3.955c-0.687,1.516-1.441,2.995-2.345,4.389c-1.667,2.59-3.861,4.916-6.602,6.338
				c-0.932,0.49-1.912,0.857-2.919,1.14c-3.117,0.857-6.508,0.819-9.757,0.452c-5.669-0.622-11.537-2.298-15.436-6.442
				c-3.014-3.202-4.53-7.563-5.039-11.923c-0.198-1.742-0.254-3.494-0.217-5.246c0.047-2.345,0.264-4.681,0.49-7.016
				c-3.56-2.694-5.528-7.355-4.954-11.791c0.151-1.102,0.452-2.213,1.102-3.117c0.405-0.556,0.961-1.027,1.592-1.309l-0.104-0.226
				c11.848-5.717,25.965-6.527,38.377-2.185c3.164,1.102,6.253,2.543,8.834,4.69C227.62,75.495,229.597,78.198,230.388,81.277z"/>
			<path style="fill:#73D7FF;" d="M233.92,61.585c-0.603,5.208-1.667,13.091-3.108,18.205c-0.141,0.499-0.283,0.989-0.424,1.488
				c-0.791-3.08-2.769-5.783-5.217-7.817c-2.58-2.147-5.67-3.588-8.834-4.69c-12.413-4.342-26.53-3.532-38.377,2.185l0.104,0.226
				c-0.631,0.283-1.187,0.753-1.592,1.309c0,0,3.805-22.348,7.732-27.104c3.626-4.389,29.176-11.574,46.204,5.98
				C233.044,54.079,234.353,57.827,233.92,61.585z"/>
			<path style="fill:#FF988A;" d="M210.281,117.573c-7.497,9.003-20.578,11.725-20.578,11.725
				c-14.494-11.028-14.428-33.885-14.428-33.885c2.825-0.64,4.558-0.998,4.558-0.998c-0.038,1.752,0.019,3.503,0.217,5.246
				c0.509,4.36,2.025,8.721,5.039,11.923c3.899,4.144,9.766,5.82,15.436,6.442C203.774,118.393,207.164,118.43,210.281,117.573z"/>
			<path style="fill:#FF988A;" d="M129.769,149.933c-3.419,4.85-7.28,9.908-10.228,12.695c-4.191,3.955-9.578,10.906-12.61,18.101
				l10.943-30.796H129.769z"/>
			<path style="fill:#FFA897;" d="M268.898,188.028c-12.036,6.8-26.652-2.722-35.166-9.936c-4.36-3.701-7.12-6.79-7.12-6.79
				s-7.11,0.188-8.551-8.372c0,0-10.425-3.183-10.378-6.715c0,0-6.027-1.968-4.106-5.415c0,0-6.762-3.268,2.533-5.236
				c0,0-3.409-3.569-1.921-5.236c1.479-1.658,26.2-1.526,29.807-0.603c2.967,0.753,4.794,9.794,5.359,13.006l17.818-11.885
				C257.172,140.845,287.093,177.744,268.898,188.028z"/>
			<path style="fill:#29AFCE;" d="M237.612,399.837c-0.989,0.414-1.959,0.772-2.919,1.092c-13.317,4.502-24.354,1.215-28.404-0.367
				c-1.083-0.424-1.667-0.725-1.667-0.725l5.051-96.46l-20.76-26.624h-9.681l-23.563,29.478l-1.573,92.7
				c0,0-0.141,0.075-0.414,0.198c-2.505,1.196-15.963,6.95-29.261,0.688c-0.584-0.264-1.158-0.565-1.742-0.885
				c0,0-15.841-102.908-15.747-120.454c0.085-17.536,27.707-37.765,27.707-37.765c46.599,28.884,97.653,2.006,97.653,2.006
				s15.213,27.152,17.181,41.806C251.431,299.186,237.612,399.837,237.612,399.837z"/>
			<path style="fill:#31343F;" d="M234.984,422.534c-0.141,3.193-0.48,6.668-2.703,8.956c-1.723,1.761-4.247,2.458-6.668,2.882
				c-5.933,1.045-12.064,0.914-17.941-0.377c-2.684-0.584-5.509-1.563-7.044-3.833c-1.761-2.609-1.281-6.084-0.603-9.154
				c1.516-6.969,3.607-13.816,6.263-20.446c4.05,1.582,15.087,4.869,28.404,0.367C235.191,408.115,235.286,415.329,234.984,422.534z
				"/>
			<path style="fill:#FFA897;" d="M175.351,136.588c-0.866,1.177-2.58,1.337-4.003,1.008c-1.94-0.443-3.673-1.545-5.133-2.882
				c-1.318-1.196-2.43-2.59-3.522-3.993l-0.104,0.075c0.829,1.215,1.667,2.458,2.025,3.88c0.358,1.432,0.122,3.089-0.951,4.087
				c-0.885,0.819-2.128,1.045-3.362,1.045c0.188,0.273,0.348,0.556,0.461,0.857c0.198,0.537,0.264,1.158,0.038,1.686
				c-0.311,0.753-1.092,1.177-1.855,1.45c-0.612,0.217-1.253,0.358-1.902,0.433c-1.384,3.475-3.908,6.47-7.082,8.429
				c-2.015,8.928-5.604,23.252-9.945,34.121c-1.827,4.558-3.786,8.504-5.82,11.188c-9.616,12.695-27.227,6.216-29.318-4.191
				c-0.81-3.993,0.16-8.57,2.053-13.053c3.033-7.195,8.419-14.146,12.61-18.101c2.948-2.788,6.809-7.845,10.228-12.695
				c3.438-4.86,6.442-9.502,7.647-11.405l-0.057-0.028c1.413-5.274,2.985-10.51,4.709-15.69c0.81-2.43,1.705-4.925,3.447-6.8
				c2.232-2.42,5.538-3.447,8.749-4.294c3.475-0.217,7.016,0.565,10.068,2.26c3.296,1.818,6.018,4.681,7.666,8.062
				c0.377,0.782,0.706,1.705,0.367,2.505c-0.301,0.697-1.055,1.121-1.808,1.224c-0.546,0.085-1.092,0.028-1.639-0.075
				c2.063,1.676,3.899,3.607,5.462,5.754c0.556,0.753,1.074,1.554,1.328,2.458C175.963,134.799,175.897,135.835,175.351,136.588z"/>
			<path style="fill:#31343F;" d="M178.063,71.182c0,0,3.173,1.909,4.045,4.483l3.316-7.767
				C185.425,67.898,179.655,69.872,178.063,71.182z"/>
			<path style="fill:#29AFCE;" d="M190.555,43.37c-3.212,7.455-6.497,15.192-6.435,23.458c0.005,0.606,0.946,0.607,0.942,0
				c-0.061-8.091,3.161-15.685,6.306-22.983C191.606,43.295,190.795,42.815,190.555,43.37z"/>
			<path style="fill:#29AFCE;" d="M215.304,116.783c-5.284,9.098-15.021,14.077-24.42,17.916c-0.533,0.218-1.367,0.746-1.933,0.469
				c-0.5-0.245-0.955-0.789-1.361-1.165c-0.873-0.807-1.714-1.648-2.522-2.52c-1.585-1.711-3.04-3.539-4.361-5.46
				c-2.679-3.897-4.819-8.156-6.438-12.597c-1.824-5.001-3.01-10.229-3.597-15.517c-0.066-0.596-1.009-0.603-0.942,0
				c1.087,9.79,4.149,19.472,9.589,27.734c1.343,2.04,2.829,3.989,4.454,5.813c0.79,0.887,1.613,1.744,2.468,2.568
				c0.452,0.435,0.912,0.861,1.381,1.277c0.401,0.355,0.813,0.762,1.356,0.877c0.576,0.122,1.135-0.156,1.653-0.366
				c0.706-0.286,1.411-0.577,2.114-0.872c1.276-0.536,2.545-1.089,3.801-1.671c2.597-1.203,5.142-2.53,7.559-4.067
				c4.805-3.054,9.133-6.987,12.012-11.945C216.422,116.733,215.609,116.259,215.304,116.783z"/>
			<path style="fill:#31343F;" d="M154.419,301.864c-3.958-5.39-7.596-11.01-10.893-16.828c-0.299-0.527-1.113-0.053-0.813,0.475
				c3.297,5.818,6.935,11.438,10.893,16.828C153.961,302.823,154.778,302.353,154.419,301.864z"/>
			<path style="fill:#31343F;" d="M152.439,303.547c-3.64-2.738-7.471-5.21-11.466-7.398c-0.532-0.291-1.008,0.522-0.475,0.813
				c3.995,2.188,7.826,4.66,11.466,7.398C152.448,304.725,152.918,303.908,152.439,303.547z"/>
			<path style="fill:#31343F;" d="M136.986,138.122c-4.957,7.446-10.168,14.723-15.626,21.81c-1.581,2.053-3.184,4.088-4.806,6.109
				c-0.376,0.468,0.286,1.139,0.666,0.666c5.671-7.066,11.102-14.326,16.269-21.769c1.458-2.099,2.894-4.214,4.31-6.341
				C138.136,138.091,137.32,137.619,136.986,138.122z"/>
			<path style="fill:#31343F;" d="M160.439,139.659c-2.511-2.596-5.822-4.361-9.382-4.979c-0.593-0.103-0.847,0.804-0.25,0.908
				c3.412,0.593,6.557,2.247,8.966,4.737C160.195,140.762,160.861,140.095,160.439,139.659z"/>
			<path style="fill:#31343F;" d="M162.816,130.455c-2.511-1.499-5.295-2.507-8.186-2.951c-0.593-0.091-0.848,0.816-0.25,0.908
				c2.816,0.432,5.514,1.395,7.961,2.856C162.862,131.58,163.336,130.766,162.816,130.455z"/>
			<path style="fill:#31343F;" d="M169.57,125.063c-5.015-4.153-11.514-5.699-17.875-6.207c-0.604-0.048-0.601,0.894,0,0.942
				c6.088,0.486,12.404,1.952,17.209,5.931C169.367,126.112,170.037,125.45,169.57,125.063z"/>
			<path style="fill:#31343F;" d="M156.449,144.521c-1.583,0.034-3.168-0.063-4.733-0.306c-0.251-0.039-0.506,0.064-0.579,0.329
				c-0.061,0.223,0.076,0.54,0.329,0.579c1.649,0.257,3.314,0.376,4.983,0.34C157.054,145.45,157.057,144.508,156.449,144.521z"/>
			<path style="fill:#31343F;" d="M228.364,144.859c-1.886,0.042-3.729-0.341-5.589-0.592c-1.819-0.246-3.653-0.33-5.488-0.29
				c-3.763,0.081-7.495,0.646-11.211,1.208c-0.597,0.09-0.344,0.998,0.25,0.908c3.708-0.561,7.432-1.119,11.189-1.179
				c1.859-0.03,3.717,0.069,5.557,0.338c1.757,0.257,3.508,0.588,5.291,0.548C228.969,145.787,228.971,144.845,228.364,144.859z"/>
			<path style="fill:#31343F;" d="M224.906,150.891c-6.978-1.011-14.047-1.233-21.074-0.636c-0.599,0.051-0.605,0.993,0,0.942
				c6.937-0.59,13.932-0.396,20.823,0.602C225.248,151.885,225.504,150.978,224.906,150.891z"/>
			<path style="fill:#31343F;" d="M224.349,156.601c-5.469-0.705-10.985-0.981-16.497-0.825c-0.605,0.017-0.607,0.959,0,0.942
				c5.512-0.156,11.028,0.12,16.497,0.825C224.948,157.62,224.942,156.677,224.349,156.601z"/>
			<path style="fill:#31343F;" d="M267.144,170.495c-2.323-3.456-5.426-6.052-9.022-8.108c-3.933-2.248-7.993-4.299-12.073-6.264
				c-2.325-1.12-4.67-2.2-7.033-3.239c-0.55-0.242-1.029,0.569-0.475,0.813c4.065,1.788,8.076,3.698,12.029,5.722
				c1.955,1,3.897,2.026,5.822,3.082c1.896,1.04,3.779,2.132,5.451,3.513c1.728,1.427,3.237,3.098,4.487,4.958
				C266.667,171.471,267.483,171,267.144,170.495z"/>
			<path style="fill:#CFF4FF;" d="M184.12,86.573c0,0,23.233,5.981,41.945,8.84c0,0-3.854,16.753-11.841,21.421
				c0,0-19.71,4.298-32.479-8.88L184.12,86.573z"/>
			<path style="fill:#31343F;" d="M184.682,87.228c-1.14-4.648-2.036-9.355-2.668-14.1c-0.079-0.592-1.022-0.6-0.942,0
				c0.644,4.829,1.541,9.618,2.702,14.35C183.918,88.066,184.827,87.817,184.682,87.228z"/>
			<path style="fill:#31343F;" d="M182.425,107.468c-0.669-2.087-1.153-4.232-1.422-6.407c-0.032-0.254-0.194-0.468-0.471-0.471
				c-0.23-0.002-0.502,0.219-0.471,0.471c0.281,2.261,0.76,4.487,1.456,6.658C181.702,108.293,182.611,108.047,182.425,107.468z"/>
			<path style="fill:#73D7FF;" d="M224.431,96.864c-10.54-0.992-20.994-2.853-31.229-5.564c-2.915-0.772-5.81-1.614-8.686-2.521
				c-0.579-0.183-0.827,0.726-0.25,0.908c10.209,3.219,20.68,5.594,31.281,7.079c2.953,0.414,5.915,0.76,8.884,1.039
				C225.034,97.863,225.031,96.921,224.431,96.864z"/>
			<path style="fill:#31343F;" d="M207.2,86.617c-0.009,1.774-0.019,3.549-0.028,5.323c-0.003,0.606,0.939,0.607,0.942,0
				c0.009-1.775,0.019-3.549,0.028-5.323C208.145,86.011,207.203,86.01,207.2,86.617z"/>
			<path style="fill:#31343F;" d="M203.428,75.021c0.134-0.797-0.324-1.459-1.086-1.677c-1.599-0.458-3.197-0.916-4.796-1.374
				c-0.712-0.204-1.557,0.369-1.677,1.086c-0.134,0.797,0.324,1.459,1.086,1.677c1.599,0.458,3.197,0.916,4.796,1.374
				C202.463,76.311,203.308,75.737,203.428,75.021z"/>
			<path style="fill:#31343F;" d="M224.494,79.649c-0.215-0.319-0.493-0.506-0.857-0.632c-1.519-0.523-3.037-1.047-4.556-1.57
				c-0.33-0.114-0.798-0.012-1.085,0.164c-0.29,0.177-0.561,0.519-0.632,0.857c-0.076,0.363-0.049,0.769,0.164,1.086
				c0.215,0.319,0.493,0.506,0.857,0.632c1.519,0.523,3.037,1.047,4.556,1.57c0.33,0.114,0.798,0.012,1.085-0.164
				c0.29-0.177,0.561-0.519,0.632-0.857C224.734,80.371,224.708,79.965,224.494,79.649z"/>
			
				<ellipse transform="matrix(0.2367 -0.9716 0.9716 0.2367 71.6453 253.9132)" style="fill:#31343F;" cx="197.415" cy="81.361" rx="4.089" ry="3.056"/>
			
				<ellipse transform="matrix(0.2367 -0.9716 0.9716 0.2367 83.0691 278.0554)" style="fill:#31343F;" cx="218.491" cy="86.162" rx="4.089" ry="3.056"/>
			<path style="fill:#31343F;" d="M203.201,175.699c-11.456,3.059-22.541,7.498-32.938,13.2c-2.916,1.599-5.775,3.3-8.577,5.092
				c-0.509,0.326-0.037,1.141,0.475,0.813c9.921-6.349,20.594-11.503,31.744-15.304c3.148-1.073,6.332-2.036,9.545-2.894
				C204.036,176.451,203.788,175.543,203.201,175.699z"/>
			<path style="fill:#31343F;" d="M202.151,187.24c-8.646,1.192-17.084,3.624-25.048,7.191c-0.552,0.247-0.074,1.059,0.475,0.813
				c7.886-3.531,16.265-5.916,24.824-7.096C202.999,188.066,202.745,187.158,202.151,187.24z"/>
			<path style="fill:#31343F;" d="M222.356,292.934c-3.891,2.869-7.783,5.738-11.674,8.606c-0.584,0.43-0.016,1.419,0.575,0.984
				c3.891-2.869,7.783-5.738,11.674-8.606C223.515,293.487,222.947,292.498,222.356,292.934z"/>
			<path style="fill:#31343F;" d="M221.135,300.323c-3.306,0.885-6.512,2.11-9.569,3.648c-0.655,0.329-0.079,1.312,0.575,0.984
				c2.971-1.494,6.084-2.674,9.297-3.533C222.146,301.232,221.846,300.133,221.135,300.323z"/>
		</g>
		<path style="fill:#FFFFFF;" d="M392.913,136.623c-0.942,0.188-1.874,0.405-2.797,0.65c-1.997-4.351-4.003-8.702-6.009-13.062
			c-2.307-5.02-4.586-10.397-8.627-14.296c-8.514-8.212-21.529-3.287-31.399-0.801c-12.469,3.146-24.938,6.291-37.407,9.437
			c-21.171,5.33-42.352,10.67-63.532,16.02l-0.885-2.703c10.651-2.675,21.312-5.368,31.964-8.052
			c25.494-6.423,50.978-12.94,76.5-19.278c5.368-1.337,10.972-2.533,16.519-1.695c5.217,0.791,9.493,3.701,12.667,7.845
			c3.24,4.219,5.302,9.201,7.515,13.995C389.249,128.656,391.076,132.639,392.913,136.623z"/>
	</g>
	<g>
		<rect x="265.241" y="349.169" style="fill:#949AAF;" width="134.569" height="59.168"/>
		<path style="fill:#B0BAD1;" d="M466.569,349.322l-157.7,44.329c-21.849,6.14-45.036-3.645-55.885-23.573l-11.301-20.757H466.569z"
			/>
		<path style="fill:#949AAF;" d="M257.929,339.517c-15.557-2.446-29.319-12.671-35.203-27.462
			c-2.214-5.564-11.326-3.138-9.081,2.504c7.048,17.718,22.776,31.052,41.781,34.04
			C261.355,349.531,263.909,340.457,257.929,339.517z"/>
		<path style="fill:#73D7FF;" d="M577.275,302.83v30.878c-0.151,0-0.301,0.013-0.452,0.038l-64.276,8.984H241.682v-39.9H577.275z"/>
		<path style="fill:#949AAF;" d="M142.361,210.701c-12.098-15.527-25.81-37.024-14.86-56.819c2.936-5.308-5.194-10.064-8.132-4.753
			c-13.304,24.052,1.442,49.12,16.333,68.232C139.422,222.136,146.044,215.428,142.361,210.701z"/>
		<g>
			<path style="fill:#29AFCE;" d="M91.352,155.783l46.34,43.853c0,0,21.435-12.927-5.956-40.318S91.352,155.783,91.352,155.783z"/>
			<g>
				<path style="fill:#949AAF;" d="M137.691,202.461c-0.696,0-1.395-0.256-1.941-0.773l-46.34-43.852
					c-1.133-1.073-1.182-2.861-0.109-3.994c1.072-1.132,2.86-1.183,3.994-0.11l46.34,43.852c1.133,1.073,1.182,2.861,0.109,3.994
					C139.188,202.165,138.441,202.461,137.691,202.461z"/>
			</g>
		</g>
		<path style="fill:#CFF4FF;" d="M136.955,212.24c0,0,31.981-18.206,60.7,17.531s62.125,60.456,25.837,96.744L136.955,212.24z"/>
		<g>
			<path style="fill:#FFBBA9;" d="M146.682,179.044c-2.354-4.347-4.771-8.668-7.243-12.961c-2.877-0.09-5.791-1.082-7.874-3.076
				c-2.129-2.02-3.274-5.141-2.616-7.991c0.244-1.055,0.749-2.093,1.587-2.778c1.461-1.191,3.662-1.055,5.304-0.081
				c2.67-4.501,4.807-9.344,5.872-14.458c1.01-4.88,1.001-10.048-0.451-14.801c1.29-0.487,2.598-0.956,3.96-1.082
				c2.345-0.235,4.663,0.514,6.9,1.254c1.885,0.622,3.815,1.272,5.394,2.489c0.938,0.722,1.705,1.615,2.399,2.58
				c1.93,2.706,3.265,5.998,6.025,7.838c2.3,1.533,5.195,1.795,7.964,1.84c0.658,1.966,0.758,4.113,0.289,6.133
				c-0.072,0.334-0.171,0.676-0.325,0.983c0.577,0.442,1.155,0.893,1.732,1.326c-1.073,1.308-1.984,2.787-2.309,4.447
				c-0.352,1.777,0.09,3.797,1.461,4.979c0.884,0.767,2.065,1.118,3.229,1.2c1.001,0.072,2.002-0.045,2.995-0.18
				c0.613,1.326,1.209,2.679,1.488,4.113c0.307,1.542,0.216,3.22-0.568,4.582c-0.388,0.667-0.92,1.245-1.479,1.777
				c-1.732,1.66-3.689,3.013-5.8,4.104c-4.293,2.246-9.209,3.427-14.071,3.933c-1.921,0.207-3.878,0.316-5.782-0.036
				c-1.894-0.343-3.743-1.182-5.042-2.616c0.153,0.541,3.482,10.986,21.151,5.998c-3.779,3.951-7.558,7.901-11.347,11.843
				c-2.156-0.054-4.23,0.325-6.233,1.218l-0.289-0.631C150.948,186.981,148.838,183.004,146.682,179.044z"/>
			<path style="fill:#31343F;" d="M175.825,173.398c-1.651,1.723-3.301,3.436-4.952,5.159c-17.669,4.988-20.998-5.457-21.151-5.998
				c1.299,1.434,3.148,2.273,5.042,2.616c1.903,0.352,3.86,0.244,5.782,0.036c4.862-0.505,9.777-1.687,14.071-3.933
				C175.013,171.991,175.419,172.685,175.825,173.398z"/>
			<path style="fill:#31343F;" d="M154.789,114.018c-1.991-1.13-4.332-1.679-6.617-1.507c-2.727,0.205-5.287,1.427-8.026,1.506
				c-2.584,0.074-4.804-1.254-7.142-2.152c-1.145-0.44-2.348-0.767-3.583-0.772c-1.313-0.005-2.616,0.311-3.841,0.767
				c-4.346,1.617-7.778,5.078-10.021,9.07c-2.964,5.278-3.854,11.411-4.277,17.366c-2.703,2.004-4.571,5.083-5.386,8.377
				c-0.929,3.743-0.595,7.721,0.397,11.455c1.109,4.122,3.103,8.127,6.35,10.887c2.535,2.156,5.682,3.436,8.767,4.672
				c4.032,1.614,8.118,3.22,12.402,3.969c0.758,0.126,1.524,0.235,2.291,0.316c0.785,0.099,1.578,0.171,2.363,0.253
				c2.733,0.271,5.484,0.541,8.217,0.821c-2.354-4.347-4.771-8.668-7.243-12.961c-2.877-0.09-5.791-1.082-7.874-3.076
				c-2.129-2.02-3.274-5.141-2.616-7.991c0.244-1.055,0.749-2.093,1.587-2.778c1.461-1.191,3.662-1.055,5.304-0.081
				c2.67-4.501,4.807-9.344,5.872-14.458c1.01-4.88,1.001-10.048-0.451-14.801c1.29-0.487,2.598-0.956,3.96-1.082
				c2.345-0.235,4.663,0.514,6.9,1.254c1.885,0.622,3.815,1.272,5.394,2.489c0.938,0.722,1.705,1.614,2.399,2.58
				c0.179-0.948,0.263-1.912,0.268-2.877C160.905,120.82,158.73,116.254,154.789,114.018z M148.324,114.518
				c-2.264,0.505-4.573,0.893-6.891,0.839c-4.609-0.117-9.119-2.002-13.701-1.524c-4.191,0.442-7.933,2.904-10.584,6.222
				c1.785-2.738,4.154-5.104,7.067-6.611c2.178-1.126,4.662-1.819,7.092-1.187c2.236,0.581,4.216,1.874,6.465,2.413
				c2.442,0.585,4.822-0.052,7.191-0.651c2.372-0.6,4.68-0.891,7.068-0.195c0.08,0.023,0.156,0.055,0.235,0.08
				C150.953,113.911,149.621,114.228,148.324,114.518z"/>
			<path style="fill:#31343F;" d="M153.005,190.986l0.289,0.631c-2.246,0.992-4.384,2.616-6.404,4.979
				c-5.024,5.881-3.896,13.16,0.983,20.925c-2.913,3.022-7.189,4.699-11.392,4.411c-4.681-0.325-9.119-3.094-11.464-7.153
				c-0.803-1.389-1.38-2.949-1.362-4.555c0.027-1.605,0.722-3.256,2.047-4.167c-2.201-0.992-3.905-2.995-4.546-5.313
				c-0.64-2.318-0.189-4.916,1.191-6.891c1.479-2.12,3.86-3.418,6.169-4.573c2.318-1.155,4.735-2.3,6.44-4.248
				c1.669-1.93,2.444-4.889,1.145-7.062c0.785,0.099,1.578,0.171,2.363,0.253c2.733,0.271,5.484,0.541,8.217,0.821
				C148.838,183.004,150.948,186.981,153.005,190.986z"/>
			
				<ellipse transform="matrix(0.5928 -0.8054 0.8054 0.5928 -47.9498 183.6597)" style="fill:#31343F;" cx="157.63" cy="139.243" rx="2.69" ry="3.503"/>
			<path style="fill:#31343F;" d="M154.669,135.145c0.2-0.263,0.339-0.526,0.339-0.878c0-0.332-0.147-0.728-0.396-0.957
				c-0.258-0.237-0.596-0.412-0.957-0.396c-0.335,0.015-0.737,0.122-0.957,0.396c-1.143,1.43-2.017,3.008-2.573,4.757
				c-0.215,0.675,0.252,1.506,0.945,1.664c0.739,0.168,1.434-0.223,1.664-0.945c0.102-0.322,0.224-0.636,0.35-0.949
				c0.426-0.967,0.959-1.881,1.605-2.718C154.683,135.128,154.676,135.137,154.669,135.145z"/>
			<circle style="fill:#FFA897;" cx="154.822" cy="155.977" r="7.209"/>
			<path style="fill:#31343F;" d="M174.69,139.353c-0.057-0.613-0.072-1.368-0.59-1.791c-0.502-0.41-1.22-0.24-1.814-0.24
				c-2.927-0.003-5.784-1.188-7.874-3.231c-0.415-0.406-1.054,0.231-0.638,0.638c1.881,1.839,4.329,3.035,6.937,3.385
				c0.63,0.085,1.264,0.124,1.899,0.106c0.276-0.008,0.759-0.135,0.974,0.093c0.205,0.218,0.179,0.773,0.204,1.041
				c0.15,1.62,0.069,3.252-0.234,4.851c-0.108,0.567,0.761,0.81,0.87,0.24C174.742,142.766,174.847,141.055,174.69,139.353z"/>
			<path style="fill:#31343F;" d="M171.257,145.172c-0.035-0.109-0.103-0.214-0.207-0.27c-0.105-0.055-0.231-0.083-0.347-0.045
				c-0.324,0.104-0.648,0.208-0.972,0.312c-0.111,0.036-0.21,0.105-0.27,0.207c-0.057,0.097-0.08,0.239-0.045,0.347
				c0.035,0.109,0.103,0.214,0.207,0.27c0.105,0.055,0.231,0.083,0.348,0.045l0.972-0.312c0.111-0.036,0.21-0.105,0.27-0.207
				C171.268,145.423,171.292,145.281,171.257,145.172z"/>
			<path style="fill:#29AFCE;" d="M286.842,256.11c0,0-25.918,40.402-40.054,57.42c0,0-22.64-32.331-50.526-46.335
				c-27.453-13.797-45.855-45.252-46.43-46.241l0.33-0.339c-0.838-0.819-1.592-1.667-2.26-2.524
				c-7.6-9.804,32.303-41.815,31.87-42.097l46.42,23.77l26.746,26.737C259.568,232.951,280.212,249.658,286.842,256.11z"/>
			<path style="fill:#20232B;" d="M523.52,287.734v5.839c-24.317-5.764-94.611-22.282-107.777-23.507
				c-15.973-1.479-124.22,1.403-124.22,1.403l4.134-7.421l0.019-0.141c1.432,0.179,2.882,0.188,4.313,0.009
				c3.268-0.414,6.423-1.799,8.947-3.918c3.701,1.573,7.675,2.496,11.687,2.712c0.735,0.047,1.61-0.009,1.987-0.64
				c0.433-0.735-0.16-1.658-0.848-2.157c-0.678-0.499-1.535-0.866-1.921-1.62c2.006,0.81,4.219,1.055,6.348,0.697
				c0.047,0,0.085-0.009,0.132-0.019c0,0,76.378-8.41,86.191-7.685c9.823,0.716,111.007,35.543,111.007,35.543V287.734z"/>
			<path style="fill:#31343F;" d="M532.128,297.19c2.213,12.441-0.574,21.802-1.573,24.571c-0.198,0.556-0.32,0.848-0.32,0.848
				s-56.111-3.579-85.344-4.718c-29.233-1.13-37.878-9.069-37.878-9.069c-123.439,53.144-160.224,4.709-160.224,4.709
				c14.136-17.018,29.402-44.838,29.402-44.838c3.871-1.658,6.376-2.806,6.376-2.806l-0.066-0.207
				c2.543-1.158,5.076-2.326,7.61-3.485c1.742,0.885,3.635,1.46,5.566,1.714l-0.019,0.141l-4.134,7.421
				c0,0,108.248-2.882,124.22-1.403c13.166,1.224,83.46,17.743,107.777,23.507v0.009c5.189,1.224,8.288,1.968,8.288,1.968
				C531.921,296.107,532.024,296.653,532.128,297.19z"/>
			<path style="fill:#4ECDF4;" d="M592.129,290.71c2.656,0.688,5.01,3.136,4.812,5.886c-0.094,1.431-0.838,2.731-1.563,3.974
				c-1.432,2.467-2.872,4.925-4.313,7.393c-0.998,1.714-1.997,3.437-3.174,5.029c-5.886,7.977-16.321,12.328-26.134,10.925
				c0.791-1.639,1.196-3.447,1.121-5.274c6.979-0.735,13.552-4.69,17.461-10.51c3.202-4.756,4.577-10.689,3.908-16.377
				C586.742,290.701,589.52,290.023,592.129,290.71z"/>
			<path style="fill:#73D7FF;" d="M541.536,325.038l-0.217,0.132c-0.377-0.075-0.753-0.151-1.14-0.217
				c5.801-13.496,11.593-26.991,17.385-40.487c3.494-1.535,5.896-4.812,7.92-8.062c2.072-3.296,4.04-6.818,7.205-9.098
				c3.155-2.279,7.939-2.891,10.755-0.207c3.23-0.574,6.574,1.61,7.864,4.624c1.29,3.014,0.753,6.602-0.857,9.455
				c-1.61,2.854-4.181,5.067-6.96,6.818c0.358,1.234,0.612,2.486,0.753,3.758c0.669,5.688-0.706,11.622-3.908,16.377
				c-3.908,5.82-10.482,9.776-17.461,10.51c0.075,1.827-0.33,3.635-1.121,5.274c-1.45,3.042-4.172,5.481-7.44,6.338
				C549.551,331.508,544.098,329.238,541.536,325.038z"/>
			<path style="fill:#4ECDF4;" d="M552.009,287.066c0.414-0.857,0.848-1.714,1.271-2.562c1.563-0.33,3.127-0.659,4.69-0.979
				c-0.132,0.311-0.273,0.631-0.405,0.942c-5.792,13.496-11.584,26.991-17.385,40.487c-1.3-0.254-2.599-0.499-3.908-0.753
				c0.179-0.518,0.367-1.045,0.565-1.563C541.226,310.516,546.292,298.631,552.009,287.066z"/>
			<path style="fill:#FFBBA9;" d="M548.647,288.78c1.121-0.574,2.241-1.14,3.362-1.714c-5.717,11.565-10.783,23.45-15.172,35.571
				c-2.044-0.283-4.078-0.556-6.122-0.829l-0.16-0.047c0.998-2.769,3.786-12.13,1.573-24.571
				C537.628,294.383,543.137,291.586,548.647,288.78z"/>
			<path style="fill:#FFA897;" d="M544.497,290.892c-4.126,2.099-8.25,4.196-12.369,6.297c-0.104-0.537-0.207-1.083-0.32-1.639
				c0,0-3.098-0.744-8.288-1.968v-0.009v-5.839c7.336,0.226,14.673,0.461,22.009,0.678L544.497,290.892z"/>
			<path style="fill:#4ECDF4;" d="M545.529,288.412c0.226-0.461,0.443-0.923,0.659-1.384c0.998,0.113,2.006,0.217,3.004,0.33
				c-0.179,0.471-0.358,0.951-0.546,1.422c-1.383,0.705-2.767,1.409-4.15,2.113L545.529,288.412z"/>
			<path style="fill:#FFBBA9;" d="M308.936,259.999c-2.524,2.119-5.679,3.503-8.947,3.918c-1.432,0.179-2.882,0.17-4.313-0.009
				c-1.931-0.254-3.824-0.829-5.566-1.714c-2.533,1.158-5.067,2.326-7.61,3.485l-5.161-17.263l0.631-0.188
				c0.688-0.132,1.375-0.273,2.062-0.405c5.01-0.989,10.021-1.968,15.04-2.967c0.979-0.188,1.959-0.377,2.948-0.546
				c3.56-0.622,7.167-0.998,10.661-0.198c3.814,0.876,7.214,3.089,10.039,5.783c2.835,2.693,5.152,5.867,7.459,9.022l0.009,0.075
				c-2.128,0.358-4.342,0.113-6.348-0.697c0.386,0.753,1.243,1.121,1.921,1.62c0.688,0.499,1.281,1.422,0.848,2.157
				c-0.377,0.631-1.253,0.688-1.987,0.64C316.612,262.495,312.638,261.572,308.936,259.999z"/>
			<path style="fill:#FFA897;" d="M298.021,244.309c-0.989,0.17-1.968,0.358-2.948,0.546c-5.02,0.998-10.03,1.978-15.04,2.967
				v-0.009c1.064-2.072,2.128-4.134,3.193-6.206C288.274,241.465,293.35,242.397,298.021,244.309z"/>
			<path style="fill:#0F9FB7;" d="M283.226,241.606c-1.064,2.072-2.128,4.134-3.193,6.206v0.009
				c-0.688,0.132-1.375,0.273-2.062,0.405l-0.631,0.188l-0.876-2.91l-3.645,0.348c-6.63-6.451-13.251-12.902-19.881-19.354
				c0.48-0.49,0.961-0.979,1.431-1.469c10.143,4.492,19.956,9.719,29.355,15.605C283.565,240.956,283.395,241.286,283.226,241.606z"
				/>
			<path style="fill:#0F9FB7;" d="M282.501,265.678l0.066,0.207c0,0-2.505,1.149-6.376,2.806
				c-10.218,4.351-29.996,12.196-38.481,11.499c-8.74-0.716-68.119-32.096-87.877-59.238c-0.009-0.009-0.009-0.019-0.009-0.019
				c-0.688-0.951-1.337-1.902-1.921-2.844c-5.095-8.109-6.272-15.709-1.027-21.849c2.11-2.467,4.342-4.163,6.687-5.199
				c2.091-0.932,4.257-1.328,6.508-1.271c21.586,0.48,49.773,42.512,72.969,57.175c1.403,0.895,2.788,1.686,4.153,2.354
				l35.627-3.447l3.645-0.348l0.876,2.91L282.501,265.678z"/>
			<path style="fill:#FFFFFF;" d="M254.37,225.031c-0.471,0.49-0.951,0.979-1.431,1.469c-6.583,6.753-13.175,13.496-19.777,20.258
				l-0.122,0.188c-23.196-14.663-51.383-56.695-72.969-57.175c3.955-4.116,7.902-8.241,11.848-12.366
				c1.723-1.799,3.447-3.588,5.17-5.387c0.509-0.546,1.036-1.083,1.554-1.629l0.075,0.066c0,0,45.751,22.904,52.758,26.313
				c7.007,3.4,23.544,27.594,23.544,27.594C254.812,224.588,254.596,224.805,254.37,225.031z"/>
			<path style="fill:#31343F;" d="M141.197,220.51c-0.772,0.864-1.828,1.287-2.925,1.584c-1.142,0.309-2.316,0.505-3.497,0.578
				c-2.353,0.145-4.771-0.18-6.926-1.167c-3.76-1.721-6.787-5.723-6.313-10.01c0.243-2.202,1.552-4.458,3.762-5.138
				c0.583-0.179,0.341-1.027-0.25-0.908c-2.752,0.555-5.589-0.927-6.938-3.341c-1.382-2.474-1.25-5.542,0.046-8.019
				c1.366-2.612,3.722-4.314,6.348-5.521c2.588-1.189,5.374-1.981,7.795-3.514c2.372-1.502,4.506-3.717,4.896-6.606
				c0.08-0.593-0.827-0.849-0.908-0.25c-0.393,2.911-2.637,5.012-5.073,6.411c-2.644,1.519-5.638,2.29-8.332,3.709
				c-2.62,1.38-4.842,3.465-5.976,6.242c-1.071,2.622-0.974,5.722,0.483,8.183c1.239,2.092,3.441,3.471,5.811,3.705
				c-1.13,0.904-1.931,2.204-2.335,3.62c-0.635,2.228-0.248,4.632,0.756,6.688c2.26,4.627,7.267,6.941,12.257,6.89
				c1.504-0.016,3.014-0.222,4.47-0.598c1.304-0.337,2.599-0.847,3.516-1.873C142.266,220.725,141.602,220.057,141.197,220.51z"/>
			<path style="fill:#20232B;" d="M530.145,311.936c-17.649-2.383-35.235-5.225-52.734-8.535
				c-17.491-3.308-34.887-7.092-52.181-11.308c-8.357-2.037-16.678-3.844-25.333-3.185c-8.708,0.663-17.375,2.346-26.025,3.522
				c-17.907,2.434-35.879,4.453-53.913,5.671c-8.944,0.604-17.902,1.011-26.866,1.172c-7.997,0.144-16.286,0.393-24.009-2.023
				c-1.985-0.621-3.891-1.435-5.712-2.438c-0.531-0.292-1.007,0.521-0.475,0.813c6.697,3.685,14.379,4.524,21.903,4.64
				c8.819,0.135,17.669-0.236,26.474-0.699c18.002-0.948,35.949-2.757,53.827-5.038c8.755-1.117,17.492-2.362,26.224-3.643
				c4.456-0.654,8.942-1.257,13.455-1.207c4.548,0.051,9.05,0.789,13.486,1.749c8.634,1.869,17.188,4.117,25.81,6.049
				c8.774,1.966,17.574,3.815,26.398,5.545c17.476,3.427,35.042,6.392,52.675,8.891c2.247,0.318,4.496,0.628,6.745,0.932
				C530.487,312.924,530.744,312.017,530.145,311.936z"/>
			<path style="fill:#20232B;" d="M575.745,280.713l-12.981,4.651c-0.567,0.203-0.322,1.113,0.25,0.908
				c4.327-1.55,8.654-3.101,12.982-4.651C576.562,281.419,576.317,280.508,575.745,280.713z"/>
			<path style="fill:#20232B;" d="M571.46,287.589c-2.621,0.374-5.241,0.748-7.862,1.122c-0.598,0.085-0.343,0.993,0.25,0.908
				c2.621-0.374,5.242-0.748,7.862-1.122C572.308,288.412,572.054,287.504,571.46,287.589z"/>
			<path style="fill:#20232B;" d="M558.861,316.672l-6.17-6.393c-0.422-0.437-1.087,0.23-0.666,0.666
				c2.057,2.131,4.113,4.262,6.17,6.393C558.617,317.775,559.282,317.109,558.861,316.672z"/>
			<path style="fill:#20232B;" d="M554.235,321.445c-1.01-1.724-2.02-3.447-3.03-5.171c-0.306-0.523-1.121-0.049-0.813,0.475
				c1.01,1.724,2.02,3.447,3.03,5.171C553.728,322.443,554.542,321.969,554.235,321.445z"/>
			<path style="fill:#20232B;" d="M235.061,251.538c-3.697,3.788-6.694,8.219-8.82,13.067c-0.241,0.55,0.57,1.03,0.813,0.475
				c2.095-4.777,5.029-9.142,8.673-12.876C236.151,251.77,235.486,251.103,235.061,251.538z"/>
			<path style="fill:#20232B;" d="M231.365,251.335c-2.594,1.977-5.088,4.082-7.464,6.317c-0.443,0.416,0.224,1.081,0.666,0.666
				c2.318-2.179,4.744-4.241,7.274-6.169C232.316,251.785,231.848,250.967,231.365,251.335z"/>
			<path style="fill:#20232B;" d="M180.678,171.502c-5.341,6.083-10.682,12.165-16.023,18.248c-0.398,0.454,0.265,1.122,0.666,0.666
				c5.341-6.083,10.682-12.165,16.023-18.248C181.742,171.714,181.078,171.046,180.678,171.502z"/>
			<path style="fill:#20232B;" d="M252.291,223.216c-5.68,5.298-11.307,10.653-16.879,16.065c-1.6,1.554-3.195,3.113-4.785,4.676
				c-0.433,0.425,0.233,1.091,0.666,0.666c5.54-5.444,11.135-10.833,16.784-16.164c1.622-1.531,3.249-3.056,4.88-4.577
				C253.401,223.467,252.734,222.803,252.291,223.216z"/>
		</g>
		<path style="fill:#949AAF;" d="M125.785,219.001l93.901,114.722l35.082-28.624c0,0-12.479-14.836-37.526-25.657
			c-25.046-10.821-35.344-32.202-51.663-60.441C158.299,206.402,130.934,201.409,125.785,219.001z"/>
		<g>
			<path style="fill:#B0BAD1;" d="M219.689,337.019c-0.955,0-1.901-0.412-2.552-1.208l-93.902-114.722
				c-1.153-1.409-0.946-3.485,0.463-4.639c1.409-1.154,3.486-0.946,4.638,0.463l93.902,114.722c1.153,1.409,0.946,3.486-0.463,4.638
				C221.162,336.775,220.423,337.019,219.689,337.019z"/>
		</g>
		<path style="fill:#29AFCE;" d="M241.678,346.028c0,0,6.58-31.249,43.085-31.249c36.505,0,41.086,24.573,79.703,20.253
			c38.616-4.32,47.78-20.347,72.52-20.253s140.289,17.111,140.289,17.111v5.129l-64.496,9.009H241.678z"/>
		<g>
			<path style="fill:#B0BAD1;" d="M577.727,340.281l-0.452,0.066l-64.041,8.947c-0.151,0.019-0.301,0.028-0.452,0.028h-271.1
				c-1.827,0-3.296-1.479-3.296-3.296c0-1.818,1.469-3.296,3.296-3.296h270.864l64.276-8.975c0.151-0.019,0.301-0.028,0.452-0.028
				c1.62,0,3.032,1.187,3.268,2.835C580.787,338.369,579.535,340.036,577.727,340.281z"/>
		</g>
		<path style="fill:#949AAF;" d="M376.516,281.166l-29.468,8.825c-16.905,5.067-30.137,18.289-35.194,35.204l-5.246,17.536H250.45
			l32.011-48.059c9.719-14.598,26.097-23.365,43.632-23.365h48.982C380.877,271.305,382.082,279.508,376.516,281.166z"/>
		<path style="fill:#CFF4FF;" d="M323.352,271.381h51.724C375.075,271.381,345.42,256.774,323.352,271.381z"/>
		<path style="fill:#949AAF;" d="M307.654,349.322h-65.972c0,0,11.952,30.479,65.972,30.479s70.688-30.479,70.688-30.479H307.654z"
			/>
		<path style="fill:#B0BAD1;" d="M554.303,456.248H237.315c0,0-6.109-47.911,27.926-47.911H399.81
			C399.81,408.338,540.454,418.548,554.303,456.248z"/>
		<circle style="fill:#B0BAD1;" cx="280.557" cy="346.159" r="9.556"/>
		<circle style="fill:#949AAF;" cx="280.557" cy="346.028" r="6.458"/>
		<path style="fill:#20232B;" d="M222.79,325.499c-12.009-14.178-24.017-28.357-36.026-42.535
			c-12.009-14.178-24.017-28.357-36.026-42.535c-6.74-7.957-13.479-15.914-20.219-23.872c-0.474-0.56-1.277,0.249-0.805,0.805
			c12.009,14.178,24.017,28.356,36.026,42.535c12.009,14.178,24.018,28.356,36.026,42.535c6.74,7.957,13.479,15.914,20.219,23.871
			C222.459,326.864,223.261,326.055,222.79,325.499z"/>
		<path style="fill:#20232B;" d="M377.91,278.381c-15.34,2.732-30.928,5.543-45.015,12.507c-6.435,3.181-12.451,7.222-17.595,12.246
			c-4.999,4.882-9.164,10.568-12.716,16.57c-4.041,6.827-7.312,14.074-10.342,21.396c-0.28,0.677,0.822,0.972,1.098,0.303
			c5.293-12.793,11.462-25.651,21.106-35.782c10.091-10.602,23.606-16.781,37.534-20.624c8.621-2.379,17.435-3.95,26.232-5.516
			C378.934,279.351,378.628,278.253,377.91,278.381z"/>
		<path style="fill:#20232B;" d="M507.201,348.306c-20.274,0.117-40.549,0.233-60.823,0.35l-60.513,0.348
			c-11.378,0.065-22.757,0.131-34.135,0.196c-0.733,0.004-0.728,1.143,0.006,1.139c20.274-0.117,40.549-0.233,60.823-0.35
			l60.513-0.348c11.378-0.065,22.757-0.131,34.135-0.196C507.94,349.441,507.935,348.301,507.201,348.306z"/>
	</g>
</g>
</svg>
