<?xml version="1.0" encoding="utf-8"?>
<!-- Generator: Adobe Illustrator 27.5.0, SVG Export Plug-In . SVG Version: 6.00 Build 0)  -->
<svg version="1.1" xmlns="http://www.w3.org/2000/svg" xmlns:xlink="http://www.w3.org/1999/xlink" x="0px" y="0px"
	 viewBox="0 0 500 500" style="enable-background:new 0 0 500 500;" xml:space="preserve">
<g id="BACKGROUND">
	<rect x="0.206" style="fill:#768CF8;" width="500" height="500"/>
</g>
<g id="OBJECTS">
	<path style="fill:none;stroke:#EBF8FF;stroke-width:0.75;stroke-linecap:round;stroke-linejoin:round;stroke-miterlimit:10;" d="
		M324.969,349.203c27.008,17.777,112.358,20.161,80.991-27.529c-8.667-13.178-27.606-16.055-38.814-11.98
		c-15.871,5.77-6.691,28.553,11.514,28.223c10.755-0.195,22.588-7.508,26.636-16.323c6.441-14.027,9.199-31.156-10.759-48.218
		c-19.958-17.061-47.341-10.343-63.194-1.311c0,0-11.928,5.775-4.397,10.039c7.531,4.264,40.567-19.732,0.818-38.195
		c-23.295-10.821-30.707,0.649-22.461,7.175"/>
	<ellipse style="fill:#BCCAFD;" cx="251.911" cy="379.925" rx="198.062" ry="21.603"/>
	<g>
		<g>
			<path style="fill:#2639BF;" d="M173.168,354.246c0-4.701,3.811-8.511,8.511-8.511h167.454l0,0.025l13.027-0.024
				c2.249-0.004,4.077,2.051,3.977,4.535c-0.305,7.582,3.039,21.821,33.025,20.057c1.842-0.108,3.52,1.188,4.039,3.145
				c0.732,2.758-1.085,5.544-3.684,5.628c-11.596,0.376-39.404-0.093-45.816-12.709c-0.682-1.341-1.98-2.15-3.372-2.168
				l-89.182-1.147h-79.149C177.121,363.076,173.168,359.123,173.168,354.246L173.168,354.246z"/>
			<path style="fill:#2639BF;" d="M397.213,370.475h57.012c1.745,0,3.159,1.414,3.159,3.159v5.793c0,1.745-1.414,3.159-3.159,3.159
				h-57.013c-1.745,0-3.159-1.414-3.159-3.159v-5.793C394.054,371.889,395.468,370.475,397.213,370.475z"/>
			<path style="fill:none;stroke:#EBF8FF;stroke-width:0.5;stroke-linecap:round;stroke-linejoin:round;stroke-miterlimit:10;" d="
				M335.546,360.476c-32.686,0-92.317,0-126.217,0"/>
			<path style="fill:none;stroke:#EBF8FF;stroke-width:0.5;stroke-linecap:round;stroke-linejoin:round;stroke-miterlimit:10;" d="
				M198.732,360.475c-3.024,0-5.658,0-7.829,0"/>
			<path style="fill:none;stroke:#EBF8FF;stroke-width:0.5;stroke-linecap:round;stroke-linejoin:round;stroke-miterlimit:10;" d="
				M397.117,378.748l52.619,0.432c0,0,4.495-0.259,5.269-3.503c0.774-3.244-1.199-4.668-1.199-4.668"/>
		</g>
		<g>
			<path style="fill:#BCCAFD;" d="M452.726,372.713v-10.677c0-2.109-1.546-3.818-3.454-3.818l-47.106,0
				c-1.907,0-3.454,1.709-3.454,3.818l0,10.677c0,2.109,1.546,3.818,3.454,3.818l47.106,0
				C451.18,376.531,452.726,374.821,452.726,372.713z"/>
			<g>
				
					<line style="fill:none;stroke:#EBF8FF;stroke-width:0.5;stroke-linecap:round;stroke-linejoin:round;stroke-miterlimit:10;" x1="447.481" y1="362.457" x2="447.481" y2="376.531"/>
				
					<line style="fill:none;stroke:#EBF8FF;stroke-width:0.5;stroke-linecap:round;stroke-linejoin:round;stroke-miterlimit:10;" x1="444.256" y1="362.457" x2="444.256" y2="376.531"/>
				
					<line style="fill:none;stroke:#EBF8FF;stroke-width:0.5;stroke-linecap:round;stroke-linejoin:round;stroke-miterlimit:10;" x1="441.185" y1="362.457" x2="441.185" y2="376.531"/>
				
					<line style="fill:none;stroke:#EBF8FF;stroke-width:0.5;stroke-linecap:round;stroke-linejoin:round;stroke-miterlimit:10;" x1="437.807" y1="362.457" x2="437.807" y2="376.531"/>
				
					<line style="fill:none;stroke:#EBF8FF;stroke-width:0.5;stroke-linecap:round;stroke-linejoin:round;stroke-miterlimit:10;" x1="434.583" y1="362.457" x2="434.583" y2="376.531"/>
				
					<line style="fill:none;stroke:#EBF8FF;stroke-width:0.5;stroke-linecap:round;stroke-linejoin:round;stroke-miterlimit:10;" x1="431.512" y1="362.457" x2="431.512" y2="376.531"/>
				
					<line style="fill:none;stroke:#EBF8FF;stroke-width:0.5;stroke-linecap:round;stroke-linejoin:round;stroke-miterlimit:10;" x1="428.287" y1="362.457" x2="428.287" y2="376.531"/>
				
					<line style="fill:none;stroke:#EBF8FF;stroke-width:0.5;stroke-linecap:round;stroke-linejoin:round;stroke-miterlimit:10;" x1="425.063" y1="362.457" x2="425.063" y2="376.531"/>
				
					<line style="fill:none;stroke:#EBF8FF;stroke-width:0.5;stroke-linecap:round;stroke-linejoin:round;stroke-miterlimit:10;" x1="421.992" y1="362.457" x2="421.992" y2="376.531"/>
				
					<line style="fill:none;stroke:#EBF8FF;stroke-width:0.5;stroke-linecap:round;stroke-linejoin:round;stroke-miterlimit:10;" x1="418.614" y1="362.457" x2="418.614" y2="376.531"/>
				
					<line style="fill:none;stroke:#EBF8FF;stroke-width:0.5;stroke-linecap:round;stroke-linejoin:round;stroke-miterlimit:10;" x1="415.389" y1="362.457" x2="415.389" y2="376.531"/>
				
					<line style="fill:none;stroke:#EBF8FF;stroke-width:0.5;stroke-linecap:round;stroke-linejoin:round;stroke-miterlimit:10;" x1="412.318" y1="362.457" x2="412.318" y2="376.531"/>
				
					<line style="fill:none;stroke:#EBF8FF;stroke-width:0.5;stroke-linecap:round;stroke-linejoin:round;stroke-miterlimit:10;" x1="409.094" y1="362.457" x2="409.094" y2="376.531"/>
				
					<line style="fill:none;stroke:#EBF8FF;stroke-width:0.5;stroke-linecap:round;stroke-linejoin:round;stroke-miterlimit:10;" x1="406.023" y1="362.457" x2="406.023" y2="376.531"/>
				
					<line style="fill:none;stroke:#EBF8FF;stroke-width:0.5;stroke-linecap:round;stroke-linejoin:round;stroke-miterlimit:10;" x1="402.799" y1="362.457" x2="402.799" y2="376.531"/>
			</g>
		</g>
		<g>
			<path style="fill:#425ACE;" d="M446.941,347.777c1.185-1.121,3.247-0.005,2.706,1.448c-2.598,6.98-8.624,12.089-17.422,14.02
				c-6.155,1.35-13.391,2.656-19.809,1.232c-7.216-1.601-14.102-8.459-8.885-14.883c6.472-7.97,23.302,3.054,31.332,3.173
				C440.014,352.841,443.833,350.716,446.941,347.777z"/>
			<path style="fill:none;stroke:#111A45;stroke-width:0.5;stroke-linecap:round;stroke-linejoin:round;stroke-miterlimit:10;" d="
				M436.152,359.255c-5.281,2.105-13.057,2.787-24.448-0.315"/>
			<path style="fill:none;stroke:#111A45;stroke-width:0.5;stroke-linecap:round;stroke-linejoin:round;stroke-miterlimit:10;" d="
				M446.941,347.777c0,0-0.733,3.408-3.836,6.77"/>
		</g>
	</g>
	<g>
		<path style="fill:#EBF8FF;" d="M338.838,202.795c0.246-2.384,0.328-4.786,0.163-7.207c-0.495-7.225-3.62-14.773-9.451-18.459
			c-6.332-4.002-14.224-2.604-20.741,0.398c-11.494,5.295-22.161,15.344-34.779,13.465c-14.915-2.22-29.867-25.258-45.756-17.249
			c-6.026,3.038-9.228,10.524-9.594,17.862c-0.366,7.337,1.622,14.653,3.589,21.79c7.028,25.504,14.056,51.007,21.084,76.51
			c3.514,12.752,7.028,25.503,10.542,38.255c1.368,4.964,5.298,26.064,14.249,16.888c2.76-2.829,3.207-7.414,3.492-11.61
			c1.34-19.682,2.681-39.363,4.021-59.045c0.165-2.425,0.655-5.335,2.749-6.091c3.323-1.2,5.518,4.041,5.942,7.904
			c2.173,19.798,4.347,39.595,6.52,59.393c0.556,5.063,2.251,11.469,6.882,12.141c4.77,0.693,7.43-5.409,8.66-10.404
			c9.891-40.186,19.783-80.372,29.674-120.558C337.213,212.187,338.349,207.527,338.838,202.795z"/>
		<path style="fill:none;stroke:#111A45;stroke-width:0.5;stroke-miterlimit:10;" d="M258.372,183.272
			c0,0,23.702,18.572,37.819,13.866"/>
		<path style="fill:none;stroke:#111A45;stroke-width:0.5;stroke-miterlimit:10;" d="M330.071,197.902c0,0-1.748,8.169-4.327,20.221
			"/>
		<path style="fill:none;stroke:#111A45;stroke-width:0.5;stroke-miterlimit:10;" d="M323.778,227.314
			c-0.51,2.385-1.039,4.857-1.582,7.393"/>
		<path style="fill:none;stroke:#111A45;stroke-width:0.5;stroke-miterlimit:10;" d="M313.696,274.431
			c-4.919,22.99-9.035,42.228-9.035,42.228"/>
	</g>
	<g>
		<path style="fill:#111A45;" d="M191.693,375.377h-58.752c-13.453,0-24.358-10.906-24.358-24.358v-137.26
			c0-29.677,24.058-53.734,53.734-53.734l0,0c29.677,0,53.734,24.058,53.734,53.735v137.26
			C216.051,364.471,205.146,375.377,191.693,375.377z"/>
		<path style="fill:#BCCAFD;" d="M119.888,238.965c-4.45,1.202-7.572,5.198-7.572,9.807v84.168
			c0,15.187,10.591,27.499,23.655,27.499h53.105c13.064,0,23.655-12.312,23.655-27.499c0-12.4,0-24.8,0-37.2
			c0-9.351,0-18.702,0-28.052c0-7.727,1.335-16.424-3.104-23.518c-5.06-8.086-12.92-7.501-21.396-8.609
			c-7.826-1.023-15.706-1.658-23.599-1.8C149.573,233.492,134.45,235.032,119.888,238.965z"/>
		<g>
			<path style="fill:#2639BF;" d="M207.752,218.945c-23.404,3.383-47.934,4.515-73.029,0l0,116.062
				c27.593,5.93,53.561,3.751,73.029-4.029L207.752,218.945z"/>
			<path style="fill:#425ACE;" d="M205.433,280.725c-20.901,0.105-42.808,0.14-65.219,0l0,3.602
				c24.643,0.184,47.833,0.116,65.219-0.125V280.725z"/>
			<path style="fill:#425ACE;" d="M205.433,288.608c-20.901,0.105-42.808,0.14-65.219,0v3.603
				c24.642,0.184,47.833,0.116,65.219-0.125L205.433,288.608z"/>
			<path style="fill:#425ACE;" d="M205.433,296.482c-20.901,0.105-42.808,0.14-65.219,0v3.603
				c24.642,0.184,47.833,0.116,65.219-0.125V296.482z"/>
			<path style="fill:#768CF8;" d="M191.894,253.547c0,9.027-7.318,16.345-16.345,16.345c-9.027,0-16.345-7.318-16.345-16.345
				c0-9.027,7.318-16.344,16.345-16.345C184.576,237.202,191.894,244.52,191.894,253.547z"/>
		</g>
		<g>
			<path style="fill:#2639BF;" d="M188.284,122.057c0-2.635-12.075-4.772-26.971-4.772c-14.896,0-26.971,2.136-26.971,4.772
				l-5.876,49.168c0,3.21,14.706,5.812,32.847,5.811c18.141,0,32.847-2.602,32.847-5.811L188.284,122.057z"/>
			<path style="fill:none;stroke:#EBF8FF;stroke-width:0.5;stroke-linecap:round;stroke-linejoin:round;stroke-miterlimit:10;" d="
				M184.943,119.755c2.129,0.683,3.341,1.467,3.341,2.302c0,1.137-2.248,2.181-6.001,3.001"/>
			<path style="fill:none;stroke:#EBF8FF;stroke-width:0.5;stroke-linecap:round;stroke-linejoin:round;stroke-miterlimit:10;" d="
				M172.824,126.374c-3.491,0.292-7.393,0.455-11.511,0.455c-9.718,0-18.235-0.91-22.982-2.273"/>
		</g>
		<path style="fill:none;stroke:#EBF8FF;stroke-width:0.5;stroke-linecap:round;stroke-linejoin:round;stroke-miterlimit:10;" d="
			M114.3,189.641c0,0,4.25,1.567,11.853,3.186"/>
		<path style="fill:none;stroke:#EBF8FF;stroke-width:0.5;stroke-linecap:round;stroke-linejoin:round;stroke-miterlimit:10;" d="
			M167.162,196.243c12.816-0.437,27.417-2.285,43.175-6.602"/>
		<path style="fill:none;stroke:#EBF8FF;stroke-width:0.5;stroke-linecap:round;stroke-linejoin:round;stroke-miterlimit:10;" d="
			M108.582,346.331c0,0,4.756,2.606,13.264,5.299"/>
		<path style="fill:none;stroke:#EBF8FF;stroke-width:0.5;stroke-linecap:round;stroke-linejoin:round;stroke-miterlimit:10;" d="
			M167.737,357.313c14.342-0.728,30.681-3.801,48.315-10.982"/>
	</g>
	<g>
		<path style="fill:#EBF8FF;" d="M136.697,259.926c0-5.467-21.022-9.9-46.953-9.9c-25.932,0-46.953,4.432-46.953,9.9
			c0,0.235,0.053,0.467,0.129,0.698l19.415,104.974c0.846,4.575,4.367,8.188,8.916,9.163c12.724,2.727,25.714,2.59,38.939-0.097
			c4.684-0.952,8.303-4.688,9.083-9.403l17.32-104.707C136.654,260.346,136.696,260.137,136.697,259.926z"/>
		<path style="fill:#BCCAFD;" d="M91.669,362.601L91.669,362.601c10.142,0,18.629-7.695,19.619-17.788l7.969-81.21H60.23
			l8.738,78.679C70.253,353.849,80.03,362.601,91.669,362.601z"/>
		<path style="fill:#BCCAFD;stroke:#111A45;stroke-width:0.5;stroke-miterlimit:10;" d="M67.526,267.699
			c-4.543-1.094-7.296-2.527-7.296-4.096c0-3.437,13.214-6.223,29.514-6.223c16.3,0,29.513,2.786,29.513,6.223
			c0,3.437-13.214,6.223-29.514,6.223c-3.805,0-7.442-0.152-10.782-0.428"/>
		<path style="fill:none;stroke:#111A45;stroke-width:0.5;stroke-miterlimit:10;" d="M54.397,266.443
			c-7.228-1.741-11.607-4.021-11.607-6.517c0-5.468,21.022-9.9,46.953-9.9c25.932,0,46.953,4.432,46.953,9.9
			c0,5.467-21.022,9.9-46.953,9.9c-6.054,0-11.84-0.242-17.153-0.682"/>
		<path style="fill:none;stroke:#111A45;stroke-width:0.5;stroke-miterlimit:10;" d="M60.989,358.323c0,0,24.232,14.727,59.431,0"/>
		<path style="fill:#EBF8FF;" d="M80.911,310.688c0,2.439-1.977,4.416-4.416,4.416c-2.439,0-4.416-1.977-4.416-4.416
			c0-2.439,1.977-4.416,4.416-4.416C78.934,306.272,80.911,308.249,80.911,310.688z"/>
		<circle style="fill:#EBF8FF;" cx="98.575" cy="305.111" r="6.031"/>
		<path style="fill:#EBF8FF;" d="M101.804,283.741c0,1.665-1.35,3.015-3.015,3.015c-1.665,0-3.015-1.35-3.015-3.015
			c0-1.665,1.35-3.015,3.015-3.015C100.454,280.725,101.804,282.075,101.804,283.741z"/>
		<circle style="fill:#EBF8FF;" cx="89.743" cy="332.297" r="8.832"/>
	</g>
	<path style="fill:#EBF8FF;" d="M357.419,177.896L357.419,177.896c0-3.217-2.608-5.826-5.826-5.826v-0.024
		c3.217,0,5.826-2.608,5.826-5.826h0c0,3.217,2.608,5.826,5.826,5.826v0.024C360.027,172.07,357.419,174.679,357.419,177.896z"/>
	<path style="fill:#EBF8FF;" d="M359.465,202.947L359.465,202.947c0-3.217-2.608-5.826-5.826-5.826v-0.024
		c3.217,0,5.826-2.608,5.826-5.826h0c0,3.217,2.608,5.826,5.826,5.826v0.024C362.073,197.121,359.465,199.73,359.465,202.947z"/>
	<path style="fill:#EBF8FF;" d="M330.071,138.504L330.071,138.504c0-3.217-2.608-5.826-5.826-5.826v-0.024
		c3.217,0,5.826-2.608,5.826-5.826l0,0c0,3.217,2.608,5.826,5.826,5.826v0.024C332.679,132.678,330.071,135.286,330.071,138.504z"/>
	<path style="fill:#EBF8FF;" d="M304.661,165.861L304.661,165.861c0-3.217-2.608-5.826-5.826-5.826v-0.024
		c3.217,0,5.826-2.608,5.826-5.826l0,0c0,3.217,2.608,5.826,5.826,5.826v0.024C307.269,160.036,304.661,162.644,304.661,165.861z"/>
	<path style="fill:#EBF8FF;" d="M343.106,159.672l-6.184-1.143l-1.615-6.078c-0.028-0.047-0.096-0.044-0.121,0.005l-1.217,6.116
		l-6.004,1.683c-0.047,0.028-0.044,0.096,0.005,0.121l6.162,1.166l1.637,6.054c0.028,0.047,0.096,0.044,0.121-0.005l1.217-6.116
		l6.004-1.683C343.158,159.765,343.155,159.696,343.106,159.672z"/>
	<path style="fill:#EBF8FF;" d="M374.639,146.809l-6.184-1.143l-1.615-6.078c-0.028-0.047-0.096-0.044-0.121,0.005l-1.217,6.116
		l-6.004,1.683c-0.047,0.028-0.044,0.096,0.005,0.121l6.162,1.166l1.637,6.055c0.028,0.047,0.096,0.044,0.121-0.005l1.217-6.116
		l6.004-1.683C374.69,146.902,374.688,146.833,374.639,146.809z"/>
</g>
<g id="TEXTS">
	<rect x="134.858" y="422.88" style="fill:none;" width="224.607" height="17.21"/>
	<text transform="matrix(1 0 0 1 163.9305 435.6606)" style="fill:#EBF8FF; font-family:'MontserratRoman-Bold'; font-size:18px;">Cuida dos seus dentes</text>
</g>
</svg>
