<svg version="1.1" xmlns="http://www.w3.org/2000/svg" xmlns:xlink="http://www.w3.org/1999/xlink" x="0px" y="0px"
	 viewBox="0 0 500 500" style="enable-background:new 0 0 500 500;" xml:space="preserve">
<g id="BACKGROUND">
	<rect x="0" style="fill:#FFFFFF;" width="500" height="500"/>
</g>
<g id="OBJECTS">
	<g>
		<g>
			<g>
				
					<rect x="332.06" y="24.419" transform="matrix(-1.836970e-16 1 -1 -1.836970e-16 487.9096 -273.4742)" style="fill:#4290A5;" width="97.263" height="165.597"/>
				<rect x="300.686" y="61.379" style="fill:#CAE8E6;" width="160.012" height="91.678"/>
			</g>
			<g>
				<g>
					<path style="fill:#FFFFFF;" d="M392.381,106.266c0.385-2.569,4.367-7.065,2.44-14.386c-1.927-7.322-7.964-6.294-10.019-5.266
						c-2.055,1.028-4.11,0.899-4.11,0.899s-2.055,0.128-4.11-0.899c-2.055-1.028-8.092-2.055-10.019,5.266
						c-1.927,7.322,2.055,11.817,2.44,14.386c0.385,2.569-2.152,21.43,5.266,22.221c2.398,0.055,3.34-0.771,2.826-4.881
						c-0.514-4.11,0.899-11.56,3.597-11.432c2.697-0.128,4.11,7.322,3.596,11.432c-0.514,4.11,0.552,5.213,2.826,4.881
						C394.753,127.164,391.995,108.835,392.381,106.266z"/>
					<path style="fill:#EAEAEA;" d="M388.621,88.178c1.357,0.591,2.244,1.447,3.001,2.483c0.731,1.031,1.158,2.216,1.354,3.392
						c0.229,1.181,0.129,2.36,0.014,3.501c-0.179,1.14-0.473,2.239-0.818,3.315c0.176-1.12,0.292-2.237,0.294-3.349
						c-0.061-1.106-0.143-2.211-0.511-3.217c-0.336-1.008-0.854-1.928-1.555-2.644c-0.666-0.704-1.623-1.28-2.388-1.467
						l-0.064-0.016c-0.568-0.139-0.916-0.711-0.777-1.278c0.138-0.567,0.711-0.915,1.278-0.777
						C388.507,88.134,388.568,88.155,388.621,88.178z"/>
				</g>
				<g>
					<g>
						<path style="fill:#F6AF33;" d="M444.96,80.537c-1.912,0.653-3.406,2.217-3.957,4.176c-0.064,0.228-0.397,0.228-0.461,0
							c-0.55-1.959-2.041-3.523-3.956-4.176c-0.223-0.076-0.223-0.377,0-0.453c1.915-0.653,3.406-2.217,3.956-4.176
							c0.064-0.228,0.397-0.228,0.461,0c0.552,1.959,2.045,3.523,3.957,4.176C445.183,80.16,445.183,80.461,444.96,80.537z"/>
						<path style="fill:#F6AF33;" d="M446.733,139.75c-1.007,0.344-1.793,1.167-2.083,2.198c-0.034,0.12-0.209,0.12-0.243,0
							c-0.29-1.031-1.074-1.854-2.082-2.198c-0.117-0.04-0.117-0.199,0-0.239c1.008-0.344,1.793-1.167,2.082-2.198
							c0.034-0.12,0.209-0.12,0.243,0c0.29,1.031,1.076,1.854,2.083,2.198C446.85,139.551,446.85,139.71,446.733,139.75z"/>
						<path style="fill:#F6AF33;" d="M314.715,75.856c-1.007,0.344-1.793,1.167-2.083,2.198c-0.034,0.12-0.209,0.12-0.242,0
							c-0.29-1.031-1.074-1.854-2.083-2.198c-0.117-0.04-0.117-0.199,0-0.239c1.008-0.344,1.793-1.167,2.083-2.198
							c0.034-0.12,0.209-0.12,0.242,0c0.29,1.031,1.077,1.854,2.083,2.198C314.832,75.657,314.832,75.816,314.715,75.856z"/>
						<path style="fill:#F6AF33;" d="M351.374,119.663c-1.007,0.344-1.793,1.167-2.083,2.198c-0.034,0.12-0.209,0.12-0.243,0
							c-0.29-1.031-1.074-1.854-2.082-2.198c-0.117-0.04-0.117-0.199,0-0.239c1.008-0.344,1.793-1.167,2.082-2.198
							c0.034-0.12,0.209-0.12,0.243,0c0.29,1.031,1.076,1.854,2.083,2.198C351.492,119.464,351.492,119.623,351.374,119.663z"/>
						<path style="fill:#F6AF33;" d="M405.222,73.448c-1.007,0.344-1.793,1.167-2.083,2.198c-0.034,0.12-0.209,0.12-0.243,0
							c-0.29-1.031-1.074-1.854-2.082-2.198c-0.117-0.04-0.117-0.199,0-0.239c1.008-0.344,1.793-1.167,2.082-2.198
							c0.034-0.12,0.209-0.12,0.243,0c0.29,1.031,1.076,1.854,2.083,2.198C405.339,73.25,405.339,73.408,405.222,73.448z"/>
						<path style="fill:#F6AF33;" d="M386.14,141.916c-1.007,0.344-1.793,1.167-2.083,2.198c-0.034,0.12-0.209,0.12-0.242,0
							c-0.29-1.031-1.074-1.854-2.082-2.198c-0.118-0.04-0.118-0.199,0-0.239c1.008-0.344,1.793-1.167,2.082-2.198
							c0.034-0.12,0.209-0.12,0.242,0c0.29,1.031,1.077,1.855,2.083,2.198C386.258,141.718,386.258,141.876,386.14,141.916z"/>
					</g>
					<g>
						<path style="fill:#FFFFFF;" d="M327.495,103.396c-1.007,0.344-1.793,1.167-2.083,2.198c-0.034,0.12-0.209,0.12-0.242,0
							c-0.29-1.031-1.074-1.854-2.082-2.198c-0.117-0.04-0.117-0.199,0-0.239c1.008-0.344,1.793-1.167,2.082-2.198
							c0.034-0.12,0.209-0.12,0.242,0c0.29,1.031,1.077,1.854,2.083,2.198C327.612,103.197,327.612,103.355,327.495,103.396z"/>
						<path style="fill:#FFFFFF;" d="M416.089,131.07c-1.007,0.344-1.793,1.167-2.083,2.198c-0.034,0.12-0.209,0.12-0.243,0
							c-0.29-1.031-1.074-1.854-2.082-2.198c-0.117-0.04-0.117-0.199,0-0.239c1.008-0.344,1.793-1.167,2.082-2.198
							c0.034-0.12,0.209-0.12,0.243,0c0.29,1.031,1.076,1.855,2.083,2.198C416.207,130.871,416.207,131.03,416.089,131.07z"/>
						<path style="fill:#FFFFFF;" d="M337.147,135.822c-2.771,0.946-4.935,3.213-5.734,6.051c-0.093,0.33-0.575,0.33-0.668,0
							c-0.797-2.838-2.957-5.105-5.732-6.051c-0.323-0.11-0.323-0.547,0-0.657c2.776-0.946,4.935-3.213,5.732-6.051
							c0.093-0.33,0.575-0.33,0.668,0c0.799,2.838,2.963,5.105,5.734,6.051C337.47,135.276,337.47,135.712,337.147,135.822z"/>
						<path style="fill:#FFFFFF;" d="M425.257,97.414c-1.169,0.399-2.082,1.356-2.419,2.553c-0.039,0.139-0.243,0.139-0.282,0
							c-0.336-1.197-1.248-2.154-2.419-2.553c-0.136-0.047-0.136-0.231,0-0.277c1.171-0.399,2.082-1.356,2.419-2.553
							c0.039-0.139,0.242-0.139,0.282,0c0.337,1.197,1.25,2.154,2.419,2.553C425.393,97.183,425.393,97.367,425.257,97.414z"/>
						<path style="fill:#FFFFFF;" d="M356.684,83.245c-1.169,0.399-2.082,1.356-2.419,2.553c-0.039,0.139-0.243,0.139-0.282,0
							c-0.336-1.197-1.248-2.154-2.419-2.553c-0.136-0.047-0.136-0.231,0-0.277c1.171-0.399,2.082-1.356,2.419-2.553
							c0.039-0.139,0.242-0.139,0.282,0c0.337,1.197,1.25,2.154,2.419,2.553C356.821,83.014,356.821,83.198,356.684,83.245z"/>
					</g>
				</g>
			</g>
		</g>
		<g>
			<g>
				<rect x="44.508" y="93.224" style="fill:#F08F00;" width="54.968" height="67.061"/>
				<rect x="47.394" y="97.072" style="fill:#FFFFFF;" width="49.196" height="59.365"/>
			</g>
			<g>
				<rect x="50.188" y="106.965" style="fill:#D7D7D7;" width="43.608" height="1.099"/>
				<rect x="50.188" y="110.996" style="fill:#D7D7D7;" width="43.608" height="1.099"/>
				<rect x="50.188" y="115.027" style="fill:#D7D7D7;" width="43.608" height="1.099"/>
				<rect x="50.188" y="119.059" style="fill:#D7D7D7;" width="43.608" height="1.099"/>
				<rect x="50.188" y="123.089" style="fill:#D7D7D7;" width="43.608" height="1.099"/>
				<rect x="50.188" y="127.12" style="fill:#D7D7D7;" width="43.608" height="1.099"/>
				<rect x="50.188" y="131.151" style="fill:#D7D7D7;" width="43.608" height="1.099"/>
				<rect x="50.188" y="135.182" style="fill:#D7D7D7;" width="43.608" height="1.099"/>
				<rect x="50.188" y="139.213" style="fill:#D7D7D7;" width="43.608" height="1.099"/>
				<path style="fill:#D7D7D7;" d="M91.157,149.016c0,0.522-0.844,0.872-1.032,1.326c-0.195,0.47,0.147,1.313-0.208,1.667
					c-0.354,0.354-1.197,0.012-1.667,0.207c-0.454,0.188-0.804,1.032-1.325,1.032c-0.522,0-0.872-0.844-1.326-1.032
					c-0.47-0.195-1.313,0.147-1.667-0.208c-0.354-0.354-0.012-1.197-0.207-1.667c-0.188-0.454-1.032-0.804-1.032-1.326
					c0-0.522,0.844-0.872,1.032-1.325c0.195-0.47-0.147-1.313,0.208-1.667c0.354-0.354,1.197-0.012,1.667-0.207
					c0.454-0.188,0.804-1.032,1.326-1.032c0.522,0,0.872,0.844,1.326,1.032c0.47,0.195,1.313-0.147,1.667,0.208
					c0.354,0.354,0.013,1.197,0.208,1.667C90.313,148.144,91.157,148.494,91.157,149.016z"/>
			</g>
		</g>
		<g>
			<g>
				<rect x="123.662" y="132.822" style="fill:#F08F00;" width="54.968" height="67.061"/>
				<rect x="126.547" y="136.67" style="fill:#FFFFFF;" width="49.196" height="59.365"/>
			</g>
			<g>
				<rect x="129.341" y="146.564" style="fill:#D7D7D7;" width="43.608" height="1.099"/>
				<rect x="129.341" y="150.595" style="fill:#D7D7D7;" width="43.608" height="1.099"/>
				<rect x="129.341" y="154.626" style="fill:#D7D7D7;" width="43.608" height="1.099"/>
				<rect x="129.341" y="158.657" style="fill:#D7D7D7;" width="43.608" height="1.099"/>
				<rect x="129.341" y="162.688" style="fill:#D7D7D7;" width="43.608" height="1.099"/>
				<rect x="129.341" y="166.719" style="fill:#D7D7D7;" width="43.608" height="1.099"/>
				<rect x="129.341" y="170.75" style="fill:#D7D7D7;" width="43.608" height="1.099"/>
				<rect x="129.341" y="174.781" style="fill:#D7D7D7;" width="43.608" height="1.099"/>
				<rect x="129.341" y="178.811" style="fill:#D7D7D7;" width="43.608" height="1.099"/>
				<path style="fill:#D7D7D7;" d="M170.311,188.614c0,0.522-0.844,0.872-1.032,1.326c-0.195,0.47,0.147,1.313-0.208,1.667
					c-0.354,0.354-1.197,0.013-1.667,0.207c-0.454,0.188-0.804,1.032-1.326,1.032c-0.522,0-0.872-0.844-1.326-1.032
					c-0.47-0.195-1.313,0.147-1.667-0.208c-0.354-0.355-0.012-1.197-0.208-1.667c-0.188-0.454-1.032-0.804-1.032-1.326
					c0-0.522,0.844-0.872,1.032-1.326c0.195-0.47-0.147-1.313,0.208-1.667c0.354-0.354,1.197-0.012,1.667-0.208
					c0.454-0.188,0.804-1.032,1.325-1.032c0.522,0,0.872,0.844,1.326,1.032c0.47,0.195,1.313-0.147,1.667,0.208
					c0.354,0.354,0.012,1.197,0.207,1.667C169.467,187.742,170.311,188.092,170.311,188.614z"/>
			</g>
		</g>
		<g>
			<g>
				<rect x="123.662" y="49.268" style="fill:#D37A05;" width="54.968" height="67.061"/>
				<rect x="126.547" y="53.115" style="fill:#FFFFFF;" width="49.196" height="59.365"/>
			</g>
			<g>
				<rect x="129.342" y="63.01" style="fill:#D7D7D7;" width="43.608" height="1.099"/>
				<rect x="129.342" y="67.041" style="fill:#D7D7D7;" width="43.608" height="1.099"/>
				<rect x="129.342" y="71.071" style="fill:#D7D7D7;" width="43.608" height="1.099"/>
				<rect x="129.342" y="75.102" style="fill:#D7D7D7;" width="43.608" height="1.099"/>
				<rect x="129.342" y="79.133" style="fill:#D7D7D7;" width="43.608" height="1.099"/>
				<rect x="129.342" y="83.164" style="fill:#D7D7D7;" width="43.608" height="1.099"/>
				<rect x="129.342" y="87.195" style="fill:#D7D7D7;" width="43.608" height="1.099"/>
				<rect x="129.342" y="91.226" style="fill:#D7D7D7;" width="43.608" height="1.099"/>
				<rect x="129.342" y="95.257" style="fill:#D7D7D7;" width="43.608" height="1.099"/>
				<path style="fill:#D7D7D7;" d="M170.311,105.06c0,0.522-0.844,0.872-1.032,1.326c-0.195,0.47,0.147,1.313-0.208,1.667
					c-0.354,0.354-1.197,0.013-1.667,0.208c-0.454,0.188-0.804,1.032-1.326,1.032c-0.522,0-0.872-0.844-1.326-1.032
					c-0.47-0.195-1.313,0.147-1.667-0.208c-0.354-0.354-0.012-1.197-0.207-1.667c-0.188-0.454-1.032-0.804-1.032-1.325
					c0-0.522,0.844-0.872,1.032-1.326c0.195-0.47-0.147-1.313,0.208-1.667c0.354-0.354,1.197-0.012,1.667-0.207
					c0.454-0.188,0.804-1.032,1.326-1.032c0.522,0,0.872,0.844,1.326,1.032c0.47,0.195,1.313-0.147,1.667,0.208
					c0.354,0.354,0.012,1.197,0.207,1.667C169.467,104.188,170.311,104.538,170.311,105.06z"/>
			</g>
		</g>
		<g>
			<g>
				<g>
					<path style="fill:#AFAFAF;" d="M74.045,390.143h-15.49c-0.307,0-0.556-0.249-0.556-0.557v-36.511
						c0-0.307-0.249-0.556-0.556-0.556h-4.275c-0.307,0-0.557,0.249-0.557,0.556v36.511c0,0.307-0.249,0.557-0.556,0.557H36.097
						h-2.255c-0.307,0-0.556,0.249-0.556,0.556v2.723v6.471c0,0.307,0.249,0.556,0.556,0.556h1.698c0.307,0,0.556-0.249,0.556-0.556
						v-5.915c0-0.307,0.249-0.556,0.556-0.556h16.69c0.307,0,0.556,0.249,0.556,0.556v5.915c0,0.307,0.249,0.556,0.556,0.556h1.698
						c0.307,0,0.556-0.249,0.556-0.556v-5.915c0-0.307,0.249-0.556,0.556-0.556h16.222c0.307,0,0.556,0.249,0.556,0.556v5.915
						c0,0.307,0.249,0.556,0.556,0.556H76.3c0.307,0,0.556-0.249,0.556-0.556v-6.471v-2.723c0-0.307-0.249-0.556-0.556-0.556H74.045
						z"/>
					<path style="fill:#898989;" d="M37.151,401.518c0,1.383-1.121,2.504-2.503,2.504c-1.383,0-2.504-1.121-2.504-2.504
						c0-1.383,1.121-2.503,2.504-2.503C36.031,399.015,37.151,400.135,37.151,401.518z"/>
					<path style="fill:#9A9A99;" d="M35.79,401.518c0,0.631-0.511,1.142-1.142,1.142c-0.631,0-1.142-0.511-1.142-1.142
						c0-0.631,0.511-1.142,1.142-1.142C35.279,400.376,35.79,400.888,35.79,401.518z"/>
					<path style="fill:#898989;" d="M57.765,401.196c0,1.383-1.121,2.504-2.504,2.504c-1.382,0-2.503-1.121-2.503-2.504
						c0-1.383,1.121-2.504,2.503-2.504C56.644,398.693,57.765,399.813,57.765,401.196z"/>
					<path style="fill:#9A9A99;" d="M56.404,401.196c0,0.631-0.511,1.142-1.142,1.142c-0.631,0-1.142-0.511-1.142-1.142
						c0-0.631,0.511-1.142,1.142-1.142C55.892,400.054,56.404,400.565,56.404,401.196z"/>
					<path style="fill:#898989;" d="M77.969,401.196c0,1.383-1.121,2.504-2.504,2.504c-1.383,0-2.504-1.121-2.504-2.504
						c0-1.383,1.121-2.504,2.504-2.504C76.848,398.693,77.969,399.813,77.969,401.196z"/>
					<path style="fill:#9A9A99;" d="M76.607,401.196c0,0.631-0.511,1.142-1.142,1.142s-1.142-0.511-1.142-1.142
						c0-0.631,0.511-1.142,1.142-1.142S76.607,400.565,76.607,401.196z"/>
				</g>
			</g>
			<path style="fill:#F08F00;" d="M77.005,352.625H33.503c-4.429,0-8.019-3.59-8.019-8.019v0c0-4.429,3.59-8.019,8.019-8.019h43.502
				c4.429,0,8.019,3.59,8.019,8.019v0C85.024,349.034,81.434,352.625,77.005,352.625z"/>
			<rect x="25.484" y="347.331" style="fill:#D37A05;" width="59.54" height="7.547"/>
		</g>
		<g>
			<g>
				<path style="fill:#F3F3F3;" d="M453.862,311.276h-15.225v-10.959c0-0.955,0.774-1.729,1.729-1.729h11.767
					c0.955,0,1.729,0.774,1.729,1.729V311.276z"/>
				<rect x="438.637" y="302.293" style="fill:#C3C3C3;" width="15.225" height="6.09"/>
				<path style="fill:#706F6F;" d="M451.523,296.088h-10.471c-0.535,0-0.969,0.434-0.969,0.969v1.531h12.409v-1.531
					C452.492,296.522,452.058,296.088,451.523,296.088z"/>
			</g>
			<g>
				<path style="fill:#D6D6D6;" d="M424.527,300.169v9.703H378.03v-9.703H424.527 M426.527,298.169H376.03v13.703h50.498V298.169
					L426.527,298.169z"/>
				<g>
					<rect x="380.953" y="294.336" style="fill:#F6AF33;" width="2.436" height="15.456"/>
					<rect x="388.464" y="294.336" style="fill:#BB1622;" width="2.436" height="15.456"/>
					<rect x="395.975" y="294.336" style="fill:#F6AF33;" width="2.436" height="15.456"/>
					<rect x="403.486" y="294.336" style="fill:#2D2E80;" width="2.436" height="15.456"/>
					<rect x="410.997" y="294.336" style="fill:#F6AF33;" width="2.436" height="15.456"/>
					<rect x="418.509" y="294.336" style="fill:#BB1622;" width="2.436" height="15.456"/>
				</g>
			</g>
			<g>
				<path style="fill:#D6D6D6;" d="M476.136,312.087h-19.59v-3.807c0-1.681,1.363-3.044,3.044-3.044h13.502
					c1.681,0,3.044,1.363,3.044,3.044V312.087z"/>
				<path style="fill:#BEBFBF;" d="M467.153,305.236h-1.573v-0.833c0-0.409,0.331-0.74,0.74-0.74h0.093
					c0.409,0,0.74,0.332,0.74,0.74V305.236z"/>
			</g>
			<g>
				<path style="fill:#CAE8E6;" d="M480.411,402.656H341.258c-1.235,0-2.236-1.001-2.236-2.236v-86.765
					c0-1.235,1.001-2.236,2.236-2.236h139.153c1.235,0,2.236,1.001,2.236,2.236v86.765
					C482.647,401.655,481.646,402.656,480.411,402.656z"/>
				<g>
					<g>
						<path style="fill:#ADD8D7;" d="M467.699,349.577h-115.15c-1.035,0-1.874-0.839-1.874-1.874v-24.96
							c0-1.035,0.839-1.874,1.874-1.874h115.15c1.035,0,1.874,0.839,1.874,1.874v24.96
							C469.572,348.738,468.734,349.577,467.699,349.577z"/>
						<path style="fill:#679A9B;" d="M423.517,337.262h-24.939c-0.646,0-1.17-0.524-1.17-1.17l0,0c0-0.646,0.524-1.17,1.17-1.17
							h24.939c0.646,0,1.17,0.524,1.17,1.17l0,0C424.687,336.738,424.163,337.262,423.517,337.262z"/>
					</g>
					<g>
						<path style="fill:#ADD8D7;" d="M467.699,393.206h-115.15c-1.035,0-1.874-0.839-1.874-1.874v-24.96
							c0-1.035,0.839-1.874,1.874-1.874h115.15c1.035,0,1.874,0.839,1.874,1.874v24.96
							C469.572,392.367,468.734,393.206,467.699,393.206z"/>
						<path style="fill:#679A9B;" d="M422.807,380.12h-24.939c-0.646,0-1.17-0.524-1.17-1.17l0,0c0-0.646,0.524-1.17,1.17-1.17
							h24.939c0.646,0,1.17,0.524,1.17,1.17l0,0C423.977,379.596,423.453,380.12,422.807,380.12z"/>
					</g>
				</g>
			</g>
		</g>
		<g>
			<g>
				<g>
					<g>
						<path style="fill:#91C1C1;" d="M295.082,214.632v14.371c0,0.66-0.535,1.195-1.195,1.195h-83.155v7.993h86.711
							c3.227,0,5.843-2.616,5.843-5.843v-17.716H295.082z"/>
						<path style="fill:#CAE8E6;" d="M374.172,258.703l-83.79-45.602c-1.536-0.836-2.104-2.76-1.268-4.296l0.793-1.457
							c0.836-1.536,2.76-2.104,4.296-1.268l83.79,45.602c1.536,0.836,2.104,2.76,1.268,4.296l-0.793,1.457
							C377.632,258.971,375.709,259.539,374.172,258.703z"/>
					</g>
					<g>
						<g>
							<path style="fill:#91C1C1;" d="M351.985,293.752v-31h-7.573v32.814v1.104v2.603c0,2.396,1.943,4.338,4.339,4.338h11.332
								v-8.046h-6.284C352.797,295.566,351.985,294.754,351.985,293.752z"/>
							<g>
								<path style="fill:#CAE8E6;" d="M402.634,308.502h-44.188c-1.39,0-2.517-1.127-2.517-2.517v-15.002
									c0-1.39,1.127-2.517,2.517-2.517h44.188c1.39,0,2.517,1.127,2.517,2.517v15.002
									C405.151,307.376,404.024,308.502,402.634,308.502z"/>
								<g>
									<path style="fill:#848484;" d="M363.029,398.107c-1.476,0-2.678-1.202-2.678-2.679v-89.923h1.255v89.923
										c0,0.785,0.638,1.424,1.424,1.424s1.424-0.638,1.424-1.424v-86.926h1.255v86.926
										C365.707,396.905,364.505,398.107,363.029,398.107z"/>
								</g>
								<g>
									<path style="fill:#848484;" d="M370.286,398.107c-1.476,0-2.679-1.202-2.679-2.679v-89.923h1.255v89.923
										c0,0.785,0.638,1.424,1.424,1.424c0.785,0,1.424-0.638,1.424-1.424v-86.926h1.255v86.926
										C372.964,396.905,371.762,398.107,370.286,398.107z"/>
								</g>
								<g>
									<path style="fill:#848484;" d="M377.542,398.107c-1.476,0-2.677-1.202-2.677-2.679v-89.923h1.255v89.923
										c0,0.785,0.638,1.424,1.423,1.424c0.786,0,1.424-0.638,1.424-1.424v-86.926h1.255v86.926
										C380.221,396.905,379.019,398.107,377.542,398.107z"/>
								</g>
								<g>
									<path style="fill:#848484;" d="M384.8,398.107c-1.477,0-2.679-1.202-2.679-2.679v-89.923h1.255v89.923
										c0,0.785,0.638,1.424,1.424,1.424c0.785,0,1.424-0.638,1.424-1.424v-86.926h1.255v86.926
										C387.478,396.905,386.276,398.107,384.8,398.107z"/>
								</g>
								<g>
									<rect x="366.029" y="264.54" style="fill:#848484;" width="1.255" height="23.926"/>
								</g>
								<g>
									<rect x="374.785" y="264.54" style="fill:#848484;" width="1.255" height="23.926"/>
								</g>
								<g>
									<rect x="382.043" y="264.54" style="fill:#848484;" width="1.255" height="23.926"/>
								</g>
								<g>
									<rect x="388.431" y="264.54" style="fill:#848484;" width="1.255" height="23.926"/>
								</g>
								<rect x="359.4" y="285.785" style="fill:#AFAFAF;" width="2.997" height="19.72"/>
								<rect x="366.657" y="285.785" style="fill:#AFAFAF;" width="2.997" height="19.72"/>
								<rect x="373.914" y="285.785" style="fill:#AFAFAF;" width="2.997" height="19.72"/>
								<rect x="381.171" y="285.785" style="fill:#AFAFAF;" width="2.997" height="19.72"/>
							</g>
						</g>
						<g>
							<path style="fill:#CAE8E6;" d="M412.011,264.539H334.46c-1.181,0-2.137-0.957-2.137-2.137v-9.256
								c0-1.181,0.957-2.137,2.137-2.137h77.551c1.18,0,2.137,0.957,2.137,2.137v9.256
								C414.148,263.582,413.191,264.539,412.011,264.539z"/>
							<path style="fill:#ADD8D7;" d="M413.21,251.919H306.957c-0.98,0-1.774-0.794-1.774-1.774v-4.865
								c0-0.98,0.794-1.774,1.774-1.774H413.21c0.98,0,1.775,0.794,1.775,1.774v4.865
								C414.985,251.124,414.19,251.919,413.21,251.919z"/>
						</g>
					</g>
				</g>
				<g>
					<path style="fill:#91C1C1;" d="M311.202,104.357h-0.999h-96.421h-1.472c-2.498,0-4.523,2.025-4.523,4.523v137.515h5.995
						V112.113c0-0.799,0.647-1.446,1.446-1.446h93.529c0.799,0,1.446,0.647,1.446,1.446v18.064c0,0.465-0.377,0.841-0.841,0.841
						h-55.298h-2.025c-2.018,0-3.655,1.636-3.655,3.655v2.445v12.305h5.679V137.96c0-0.465,0.377-0.841,0.841-0.841h57.164
						c2.019,0,3.655-1.636,3.655-3.655v-2.445v-20.351v-1.788C315.725,106.382,313.7,104.357,311.202,104.357z"/>
					<g>
						<path style="fill:#F6AF33;" d="M254.819,158.987h-6.736c-1.08,0-1.956-0.876-1.956-1.956v-7.607h10.648v7.607
							C256.775,158.111,255.899,158.987,254.819,158.987z"/>
						<g>
							<path style="fill:#ADD8D7;" d="M259.872,164.32H243.03c-1.874,0-3.398-1.524-3.398-3.398v-9.353
								c0-1.874,1.524-3.399,3.398-3.399h16.842c1.874,0,3.399,1.525,3.399,3.399v9.353
								C263.271,162.796,261.746,164.32,259.872,164.32z M243.03,150.678c-0.49,0-0.889,0.399-0.889,0.889v9.353
								c0,0.49,0.399,0.889,0.889,0.889h16.842c0.491,0,0.89-0.399,0.89-0.889v-9.353c0-0.491-0.399-0.889-0.89-0.889H243.03z"/>
						</g>
					</g>
				</g>
			</g>
			<g>
				<path style="fill:#CAE8E6;" d="M151.064,253.935c0,0-2.452,13.396,10.8,19.18v46.014h60.03c0.197,0,0.357-0.16,0.357-0.357
					v-64.483L151.064,253.935z"/>
				<path style="fill:#91C1C1;" d="M191.854,245.133v-10.938c0,0,0.445-7.856-7.503-6.83c-0.555,0.072-1.109,0.204-1.611,0.45
					c-2.581,1.266-3.079,4.169-3.172,5.408c-0.023,0.313,0.227,0.577,0.541,0.577h2.57c0.269,0,0.496-0.195,0.535-0.46
					c0.098-0.662,0.45-1.822,1.714-2.005c1.316-0.19,2.484,0.846,2.644,2.166c0.201,1.657,0.164,4.851,0.021,11.631H191.854z"/>
				<path style="fill:#ADD8D7;" d="M219.409,255.335h-65.681c-2.817,0-5.101-2.284-5.101-5.101l0,0c0-2.817,2.284-5.101,5.101-5.101
					h65.681c2.817,0,5.101,2.284,5.101,5.101l0,0C224.51,253.051,222.227,255.335,219.409,255.335z"/>
			</g>
			<g>
				<g>
					<g>
						<path style="fill:#848484;" d="M133.183,364.446c-4.499,0-8.552-0.984-12.129-2.953c-9.391-5.167-12.937-15.67-14.215-21.472
							c-2.923-13.269-5.678-88.917-5.794-92.131c-0.013-0.346,0.258-0.636,0.604-0.649c0.336,0.007,0.637,0.257,0.649,0.605
							c0.029,0.785,2.867,78.747,5.766,91.906c1.233,5.593,4.638,15.715,13.595,20.643c6.768,3.724,15.397,3.727,25.648,0.011
							c0.325-0.119,0.686,0.049,0.804,0.375c0.118,0.326-0.05,0.686-0.376,0.804C142.473,363.492,137.611,364.446,133.183,364.446z"
							/>
					</g>
					<g>
						<path style="fill:#848484;" d="M140.392,378.236c-1.234,0-2.451-0.061-3.635-0.168
							c-32.793-4.558-29.055-125.093-28.88-130.221c0.012-0.347,0.32-0.586,0.648-0.606c0.346,0.012,0.618,0.303,0.605,0.648
							c-0.042,1.245-3.883,124.533,27.769,128.933c9.789,0.88,22.073-1.464,24.836-17.627c0.058-0.342,0.377-0.572,0.724-0.513
							c0.341,0.059,0.571,0.383,0.512,0.724C160.381,374.552,149.933,378.236,140.392,378.236z"/>
					</g>
					<g>
						<path style="fill:#848484;" d="M138.356,374.915c-0.067,0-0.134,0-0.201-0.001c-30.088-2.549-23.072-122-22.759-127.084
							c0.021-0.347,0.32-0.618,0.665-0.588c0.346,0.021,0.609,0.318,0.588,0.664c-0.076,1.234-7.265,123.311,21.566,125.756
							c0.06,0,0.12,0.001,0.179,0.001c7.717,0,13.943-5.041,17.056-13.857c0.116-0.327,0.472-0.5,0.801-0.384
							c0.327,0.115,0.498,0.474,0.383,0.8C153.333,369.57,146.678,374.914,138.356,374.915z"/>
					</g>
				</g>
				<g>
					<path style="fill:#578282;" d="M60.521,258.886c0,0-0.379,3.443,3.379,4.001c3.758,0.558,6.635,3.802,6.635,3.802l1.735-2.047
						l-5.91-5.381L60.521,258.886z"/>
					<path style="fill:#99CCCD;" d="M50.026,239.243c0,0-0.473,24.926,20.509,20.509C63.909,254.23,50.026,239.243,50.026,239.243z"
						/>
					<path style="fill:#4290A5;" d="M49.237,234.352c0,0-1.578,0.631-1.104,2.209c0.473,1.578,20.351,24.083,23.664,23.716
						c3.313-0.367,5.364-5.573,3.155-9.517C72.743,246.816,56.336,225.991,49.237,234.352z"/>
					<path style="fill:#679A9B;" d="M52.528,251.401c0,0-2.975,0.778-1.713,3.303c1.262,2.524,5.048,7.415,7.099,6.942
						c2.051-0.473,2.366-2.356,2.366-2.356L52.528,251.401z"/>
				</g>
				<g>
					<path style="fill:#CAE8E6;" d="M128.758,269.657v-21.79h-5.952v22.078c0,2.78,0.578,5.53,1.697,8.075l12.309,28.003
						l5.767-2.623l-11.896-25.167C129.416,275.552,128.758,272.623,128.758,269.657z"/>
					<path style="fill:#ADD8D7;" d="M132.721,249.76H96.695c-0.798,0-1.444-0.647-1.444-1.444v-3.842
						c0-0.798,0.646-1.444,1.444-1.444h36.026c0.798,0,1.444,0.646,1.444,1.444v3.842
						C134.165,249.113,133.519,249.76,132.721,249.76z"/>
				</g>
				<g>
					<path style="fill:#AFAFAF;" d="M101.991,249.76h-0.64c-0.581,0-1.052-0.471-1.052-1.052v-13.462
						c0-0.581,0.471-1.052,1.052-1.052h0.64c0.581,0,1.052,0.471,1.052,1.052v13.462C103.042,249.289,102.572,249.76,101.991,249.76
						z"/>
					<path style="fill:#AFAFAF;" d="M108.503,249.76L108.503,249.76c-0.581,0-1.052-0.471-1.052-1.052v-7.151
						c0-0.581,0.471-1.052,1.052-1.052l0,0c0.581,0,1.052,0.471,1.052,1.052v7.151C109.555,249.289,109.084,249.76,108.503,249.76z"
						/>
					<path style="fill:#AFAFAF;" d="M116.286,249.76h-0.526c-0.581,0-1.052-0.471-1.052-1.052v-7.151
						c0-0.581,0.471-1.052,1.052-1.052h0.526c0.581,0,1.052,0.471,1.052,1.052v7.151C117.337,249.289,116.867,249.76,116.286,249.76
						z"/>
				</g>
				<g>
					<path style="fill:#91C1C1;" d="M197.458,403.683h-72.781c-1.294,0-2.381-0.974-2.512-2.261
						c-0.506-4.991-1.097-16.513,4.217-16.513h60.038c1.171,0,2.12-0.949,2.12-2.12v-7.367l25.949,15.58l-14.837,11.909
						C199.03,403.411,198.256,403.683,197.458,403.683z"/>
					<polygon style="fill:#91C1C1;" points="232.556,354.488 224.352,354.475 233.478,360.014 					"/>
					<path style="fill:#679A9B;" d="M162.352,359.3l46.382,28.555l23.822-20.036c0,0-41.649-23.349-48.275-23.98
						C177.655,343.208,162.352,359.3,162.352,359.3z"/>
					<path style="fill:#ADD8D7;" d="M195.009,337.213l40.387,22.402v12.148c0,0-43.7-27.96-54.586-27.942
						C188.856,337.213,195.009,337.213,195.009,337.213z"/>
					<path style="fill:#99CCCD;" d="M201.95,403.473c0,0-3.944-1.578-3.155-6.941c0.789-5.364,18.143-31.57,26.188-30.694
						c8.046,0.877,9.466,0,9.466,0l-1.893-11.35c0,0,62.789-1.656,75.883,33.367c3.786,10.728,2.682,15.145,0,15.618
						C305.758,403.946,201.95,403.473,201.95,403.473z"/>
				</g>
				<g>
					<path style="fill:#5AA5BF;" d="M71.297,264.522c0,0,3.826-7.829,11.172-7.981c7.346-0.152,28.77,6.533,42.39,19.446
						c8.264,7.9,13.314,15.648,11.631,20.205c-1.683,4.558-6.274,15.04-12.09,11.546C118.584,304.244,71.297,264.522,71.297,264.522
						z"/>
					<path style="fill:#99CCCD;" d="M72.27,264.643c0,0-3.944,2.209-1.735,4.891c2.209,2.682,48.117,38.906,48.117,38.906
						s5.03,3.652,7.248-0.036C128.118,304.714,72.27,264.643,72.27,264.643z"/>
				</g>
				<g>
					<path style="fill:#578282;" d="M153.307,273.983c7.462-0.496,30.346-1.633,42.778,2.051c0.84,0.249,1.51,0.882,1.778,1.716
						l1.563,4.877h-1.972l4.195,10.636c0.675,1.71-0.586,3.562-2.424,3.562l0,0c-1.069,0-2.029-0.653-2.423-1.646l-4.944-12.482
						c-0.305-0.77-0.952-1.349-1.753-1.559c-4.545-1.19-20.515-4.803-36.07-1.491c-1.622,0.345-3.15-0.88-3.15-2.538v-0.526
						C150.886,275.211,151.938,274.074,153.307,273.983z"/>
					<path style="fill:#679A9B;" d="M124.805,307.396c0,0,1.578,11.201,4.575,13.41c3.786,0,3.313-2.524,3.313-2.524
						s-2.378-7.953-1.82-12.259C126.698,307.238,124.805,307.396,124.805,307.396z"/>
					<path style="fill:#4290A5;" d="M130.958,330.902c0,0-5.364-22.56,12.463-33.761c10.097-3.629,37.705,0,50.01-2.051
						c12.305-2.051,11.517-4.891,42.596,1.262c31.079,6.153,67.206,9.623,72.728,16.565c5.522,6.942,4.259,15.776,0,14.987
						c-4.26-0.789-88.241-12.621-106.857-9.15C183.282,322.226,136.322,331.218,130.958,330.902z"/>
					<path style="fill:#99CCCD;" d="M131.748,320.27c0,0-9.309,1.956-7.889,10.002c1.42,8.046,2.682,30.448,14.199,31.552
						c11.517,1.104,28.87,2.051,47.013-11.201c18.143-13.252,36.212-32.258,36.212-32.258S133.288,316.899,131.748,320.27z"/>
				</g>
			</g>
		</g>
	</g>
	<g>
		<rect y="402.773" style="fill:#F3F3F3;" width="500" height="97.227"/>
	</g>
	<text transform="matrix(1 0 0 1 173.5906 439.4092)"><tspan x="0" y="0" style="fill:#4290A5; font-family:'Montserrat-Black'; font-size:17.5696px;">DENTAL </tspan><tspan x="88.373" y="0" style="fill:#4290A5; font-family:'Montserrat-ExtraLightItalic'; font-size:17.5696px;">CLINIC</tspan></text>
</g>
<g id="DESIGNED_BY_FREEPIK">
	<g>
		<g id="XMLID_319_">
			<g id="XMLID_338_">
				<path id="XMLID_346_" style="fill:#112129;" d="M260.104,465.465c-0.433,0.443-0.804,0.932-1.108,1.453l-0.465-0.241
					c-0.067-0.297-0.35-0.502-0.659-0.466c-0.331,0.039-0.567,0.339-0.529,0.67c0.039,0.331,0.339,0.567,0.67,0.528
					c0.065-0.007,0.127-0.025,0.184-0.052l0.451,0.234c-0.251,0.554-0.433,1.139-0.539,1.743l0.747,0.132
					c0.229-1.306,0.85-2.507,1.792-3.473L260.104,465.465z"/>
				<path id="XMLID_345_" style="fill:#112129;" d="M265.591,463.164c-0.171,0-0.341,0.006-0.509,0.017l-0.074-0.626
					c0.188-0.149,0.296-0.389,0.266-0.645c-0.046-0.393-0.402-0.674-0.795-0.628c-0.394,0.046-0.675,0.402-0.628,0.796
					c0.03,0.254,0.189,0.461,0.404,0.563l0.073,0.624c-0.714,0.116-1.402,0.332-2.06,0.646l0.327,0.685
					c0.935-0.447,1.941-0.674,2.995-0.674c0.497,0,0.993,0.053,1.476,0.158l0.16-0.741
					C266.692,463.222,266.142,463.164,265.591,463.164z"/>
				<path id="XMLID_344_" style="fill:#112129;" d="M272.194,465.711c0.331-0.04,0.566-0.341,0.525-0.672
					c-0.04-0.331-0.341-0.566-0.672-0.525c-0.31,0.038-0.535,0.304-0.53,0.608l-0.416,0.363c-0.418-0.43-0.89-0.813-1.407-1.14
					l-0.404,0.642c1.135,0.715,2.021,1.727,2.564,2.925l0.69-0.313c-0.251-0.554-0.567-1.071-0.942-1.545l0.402-0.351
					C272.065,465.715,272.128,465.719,272.194,465.711z"/>
				<path id="XMLID_343_" style="fill:#112129;" d="M265.044,473.372c-0.386,0.023-0.775,0.035-1.157,0.035
					c-0.88,0-1.733-0.061-2.479-0.18c-0.391-0.062-0.846-0.154-1.271-0.292c1.047,1.861,3.069,3.125,5.389,3.125
					c2.855,0,5.263-1.916,5.949-4.503c-0.682,0.449-1.505,0.825-2.458,1.122C267.838,473.047,266.463,473.287,265.044,473.372z"/>
				<path id="XMLID_339_" style="fill:#112129;" d="M265.591,464.68c-3.351,0-6.079,2.666-6.079,5.943
					c0,0.425,0.046,0.849,0.137,1.261c0.674,0.483,2.706,0.891,5.348,0.731c2.88-0.174,5.297-0.958,6.672-2.159
					c-0.005-0.194-0.02-0.39-0.045-0.581C271.244,466.914,268.65,464.68,265.591,464.68z M263.432,471.195
					c-1.02,0-1.85-0.83-1.85-1.85c0-1.021,0.83-1.851,1.85-1.851c1.02,0,1.85,0.83,1.85,1.851
					C265.282,470.365,264.452,471.195,263.432,471.195z M268.169,470.287c-0.75,0-1.36-0.61-1.36-1.36s0.61-1.36,1.36-1.36
					s1.36,0.61,1.36,1.36S268.919,470.287,268.169,470.287z"/>
			</g>
			<path id="XMLID_336_" style="fill:#112129;" d="M281.595,466.547c-0.295-0.116-0.806-0.31-1.383-0.238
				c-0.551,0.069-0.844,0.341-0.844,1.007v0.866h2.229v1.717h-2.229v5.455h-1.932v-5.455h-1.339v-1.717h1.339v-0.889
				c0-1.68,0.896-2.782,2.568-2.782c0.643,0,1.157,0.121,1.59,0.308V466.547z"/>
			<path id="XMLID_334_" style="fill:#112129;" d="M286.297,469.878c-0.177-0.029-0.357-0.046-0.525-0.046
				c-0.896,0-1.51,0.548-1.51,1.613v3.908h-1.933v-7.172h1.873v0.784c0.451-0.673,1.14-0.977,2.021-0.977
				c0.414,0,0.848,0.128,1.095,0.337L286.297,469.878z"/>
			<path id="XMLID_331_" style="fill:#112129;" d="M293.965,471.757c0,0.222-0.016,0.488-0.037,0.651h-5.085
				c0.207,1.036,0.933,1.487,1.843,1.487c0.622,0,1.295-0.252,1.813-0.689l1.133,1.243c-0.814,0.748-1.851,1.089-3.057,1.089
				c-2.198,0-3.724-1.496-3.724-3.753c0-2.258,1.48-3.797,3.627-3.797C292.543,467.99,293.958,469.522,293.965,471.757z
				 M288.851,471.091h3.175c-0.178-0.918-0.732-1.437-1.561-1.437C289.554,469.655,289.021,470.203,288.851,471.091z"/>
			<path id="XMLID_328_" style="fill:#112129;" d="M301.619,471.757c0,0.222-0.016,0.488-0.037,0.651h-5.085
				c0.207,1.036,0.933,1.487,1.843,1.487c0.622,0,1.296-0.252,1.814-0.689l1.133,1.243c-0.815,0.748-1.851,1.089-3.058,1.089
				c-2.198,0-3.723-1.496-3.723-3.753c0-2.258,1.48-3.797,3.627-3.797C300.197,467.99,301.611,469.522,301.619,471.757z
				 M296.504,471.091h3.175c-0.178-0.918-0.733-1.437-1.561-1.437C297.208,469.655,296.674,470.203,296.504,471.091z"/>
			<path id="XMLID_325_" style="fill:#112129;" d="M309.964,471.764c0,2.154-1.495,3.775-3.472,3.775
				c-0.962,0-1.644-0.378-2.109-0.933v3.708h-1.925v-10.133h1.888v0.792c0.467-0.585,1.154-0.984,2.139-0.984
				C308.469,467.99,309.964,469.611,309.964,471.764z M304.287,471.764c0,1.133,0.748,1.977,1.844,1.977
				c1.14,0,1.85-0.881,1.85-1.977c0-1.095-0.71-1.976-1.85-1.976C305.035,469.789,304.287,470.632,304.287,471.764z"/>
			<path id="XMLID_322_" style="fill:#112129;" d="M313.068,465.836c0,0.696-0.541,1.229-1.236,1.229
				c-0.696,0-1.229-0.533-1.229-1.229c0-0.695,0.532-1.243,1.229-1.243C312.527,464.592,313.068,465.14,313.068,465.836z
				 M312.808,475.354h-1.932v-7.172h1.932V475.354z"/>
			<path id="XMLID_320_" style="fill:#112129;" d="M316.032,470.736l2.702-2.554h2.368l-3.478,3.375l3.501,3.797h-2.376
				l-2.717-2.901v2.901H314.1v-10.658h1.932V470.736z"/>
		</g>
		<g>
			<path style="fill:#112129;" d="M184.412,475.29v-1.055c-0.527,0.718-1.391,1.23-2.387,1.23c-1.846,0-3.149-1.406-3.149-3.706
				c0-2.256,1.289-3.721,3.149-3.721c0.952,0,1.816,0.469,2.387,1.245v-3.765h1.099v9.771H184.412z M184.412,473.371v-3.208
				c-0.395-0.615-1.245-1.143-2.124-1.143c-1.42,0-2.27,1.172-2.27,2.739c0,1.567,0.85,2.725,2.27,2.725
				C183.167,474.484,184.017,473.986,184.412,473.371z"/>
			<path style="fill:#112129;" d="M186.932,471.745c0-2.051,1.465-3.706,3.486-3.706c2.139,0,3.398,1.67,3.398,3.794v0.278h-5.727
				c0.088,1.333,1.025,2.446,2.549,2.446c0.806,0,1.626-0.322,2.182-0.894l0.527,0.718c-0.703,0.703-1.655,1.084-2.812,1.084
				C188.44,475.465,186.932,473.957,186.932,471.745z M190.403,468.947c-1.509,0-2.256,1.274-2.314,2.358h4.644
				C192.718,470.25,192.015,468.947,190.403,468.947z"/>
			<path style="fill:#112129;" d="M194.607,474.352l0.571-0.791c0.469,0.542,1.362,1.011,2.329,1.011c1.084,0,1.67-0.513,1.67-1.216
				c0-1.714-4.38-0.659-4.38-3.281c0-1.099,0.952-2.036,2.636-2.036c1.202,0,2.051,0.454,2.623,1.025l-0.513,0.762
				c-0.424-0.513-1.201-0.894-2.109-0.894c-0.966,0-1.567,0.483-1.567,1.113c0,1.553,4.379,0.527,4.379,3.281
				c0,1.187-0.952,2.139-2.783,2.139C196.306,475.465,195.325,475.114,194.607,474.352z"/>
			<path style="fill:#112129;" d="M201.477,466.471c0-0.41,0.337-0.747,0.732-0.747c0.41,0,0.747,0.337,0.747,0.747
				c0,0.41-0.337,0.732-0.747,0.732C201.814,467.204,201.477,466.881,201.477,466.471z M201.667,475.29v-7.075h1.099v7.075H201.667z
				"/>
			<path style="fill:#112129;" d="M204.582,477.106l0.556-0.82c0.586,0.703,1.289,0.967,2.3,0.967c1.172,0,2.27-0.571,2.27-2.124
				v-1.011c-0.513,0.718-1.377,1.26-2.373,1.26c-1.846,0-3.149-1.377-3.149-3.662c0-2.271,1.289-3.677,3.149-3.677
				c0.952,0,1.802,0.469,2.373,1.245v-1.069h1.099v6.87c0,2.344-1.641,3.076-3.369,3.076
				C206.237,478.161,205.416,477.925,204.582,477.106z M209.708,473.253v-3.091c-0.381-0.615-1.23-1.143-2.109-1.143
				c-1.421,0-2.27,1.128-2.27,2.695c0,1.553,0.849,2.695,2.27,2.695C208.478,474.411,209.328,473.869,209.708,473.253z"/>
			<path style="fill:#112129;" d="M217.413,475.29v-4.629c0-1.245-0.63-1.641-1.582-1.641c-0.864,0-1.685,0.527-2.094,1.099v5.171
				h-1.099v-7.075h1.099v1.025c0.497-0.586,1.464-1.201,2.519-1.201c1.48,0,2.256,0.747,2.256,2.285v4.966H217.413z"/>
			<path style="fill:#112129;" d="M219.932,471.745c0-2.051,1.465-3.706,3.486-3.706c2.139,0,3.398,1.67,3.398,3.794v0.278h-5.727
				c0.088,1.333,1.025,2.446,2.548,2.446c0.806,0,1.626-0.322,2.183-0.894l0.527,0.718c-0.703,0.703-1.655,1.084-2.813,1.084
				C221.441,475.465,219.932,473.957,219.932,471.745z M223.404,468.947c-1.509,0-2.256,1.274-2.314,2.358h4.643
				C225.718,470.25,225.015,468.947,223.404,468.947z"/>
			<path style="fill:#112129;" d="M233.35,475.29v-1.055c-0.527,0.718-1.392,1.23-2.388,1.23c-1.845,0-3.149-1.406-3.149-3.706
				c0-2.256,1.289-3.721,3.149-3.721c0.952,0,1.817,0.469,2.388,1.245v-3.765h1.098v9.771H233.35z M233.35,473.371v-3.208
				c-0.396-0.615-1.245-1.143-2.124-1.143c-1.421,0-2.27,1.172-2.27,2.739c0,1.567,0.85,2.725,2.27,2.725
				C232.105,474.484,232.954,473.986,233.35,473.371z"/>
			<path style="fill:#112129;" d="M239.692,475.29v-9.771h1.099v3.765c0.571-0.776,1.421-1.245,2.388-1.245
				c1.845,0,3.149,1.465,3.149,3.721c0,2.3-1.304,3.706-3.149,3.706c-0.996,0-1.86-0.513-2.388-1.23v1.055H239.692z M242.9,474.484
				c1.436,0,2.285-1.157,2.285-2.725c0-1.567-0.85-2.739-2.285-2.739c-0.864,0-1.729,0.527-2.109,1.143v3.208
				C241.171,473.986,242.036,474.484,242.9,474.484z"/>
			<path style="fill:#112129;" d="M247.528,477.062c0.161,0.073,0.425,0.117,0.6,0.117c0.483,0,0.806-0.161,1.055-0.747l0.469-1.069
				l-2.959-7.148h1.187l2.358,5.801l2.344-5.801h1.2l-3.544,8.511c-0.425,1.024-1.143,1.421-2.08,1.436
				c-0.234,0-0.6-0.044-0.806-0.104L247.528,477.062z"/>
		</g>
	</g>
</g>
</svg>
