<svg version="1.1" xmlns="http://www.w3.org/2000/svg" xmlns:xlink="http://www.w3.org/1999/xlink" x="0px" y="0px"
	 viewBox="0 0 500 500" style="enable-background:new 0 0 500 500;" xml:space="preserve">

<g id="OBJECTS">
	<g>
		<defs>
			<rect id="SVGID_1_" width="500" height="500"/>
		</defs>
		<clipPath id="SVGID_00000160900983649548392880000003888187503140285623_">
			<use xlink:href="#SVGID_1_"  style="overflow:visible;"/>
		</clipPath>
		<g style="clip-path:url(#SVGID_00000160900983649548392880000003888187503140285623_);">
			<g>
				<g>
					<g>
						<g>
							<path style="fill:#FCB695;" d="M187.969,147.045c0,0,2.621,19.29-6.867,30.524l36.001,42.643l16.179-45.683
								c0,0-11.421-11.685-6.194-28.349L187.969,147.045z"/>
							<path style="fill:#E69D7A;" d="M184.341,147.125c0,0,6.026,4.595,2.664,17.944c0,0,20.188,13.337,40.756,0.514
								c0,0-4.261-8.173-0.672-19.403L184.341,147.125z"/>
						</g>
						<g>
							<g>
								<g>
									<path style="fill:#FCB695;" d="M170.53,74.389c-0.134,10.008-0.268,20.016-0.401,30.025
										c-0.137,10.277-1.424,20.208,1.557,30.237c2.352,7.914,6.35,15.399,11.992,21.459c2.103,2.259,4.427,4.311,6.933,6.114
										c0.134,0.096,0.268,0.192,0.404,0.287c9.572,6.735,22.343,6.874,32.079,0.38c0.156-0.104,0.31-0.208,0.463-0.313
										c8.225-5.629,14.832-14.051,18.54-23.286c2.486-6.192,2.854-12.336,2.942-18.874c0.167-12.485,0.334-24.97,0.501-37.455
										c0.005-0.403,0.101-7.57,0.101-7.57L170.53,74.389z"/>
								</g>
							</g>
							<g>
								<path style="fill:#FCB695;" d="M172.056,112.291c0,0-5.91-6.364-9.009-1.807c-3.099,4.558-0.693,17.017,5.647,16.476
									C175.034,126.419,172.056,112.291,172.056,112.291z"/>
								<path style="fill:#FCB695;" d="M242.329,112.291c0,0,5.91-6.364,9.009-1.807c3.099,4.558,0.693,17.017-5.646,16.476
									C239.352,126.419,242.329,112.291,242.329,112.291z"/>
							</g>
							<g>
								<g>
									<g>
										<g>
											<g>
												<g>
													<g>
														<path style="fill:#3C291F;" d="M226.85,115.476c0,2.163-1.372,3.917-3.064,3.917c-1.692,0-3.064-1.754-3.064-3.917
															s1.372-3.917,3.064-3.917C225.479,111.559,226.85,113.312,226.85,115.476z"/>
														<path style="fill:#FFFFFF;" d="M223.787,114.759c0,0.708-0.403,1.282-0.9,1.282s-0.9-0.574-0.9-1.282
															c0-0.708,0.403-1.282,0.9-1.282S223.787,114.05,223.787,114.759z"/>
													</g>
												</g>
												<path style="fill:#3C291F;" d="M212.718,107.101L212.718,107.101c-0.487-1.425,0.511-2.924,2.013-3.025l9.368-0.628
													c2.09-0.14,4.177,0.315,6.019,1.312l5.351,2.896c0.519,0.281,0.671,0.955,0.322,1.431l0,0
													c-0.265,0.362-0.743,0.496-1.157,0.325l-4.699-1.941c-2.077-0.858-4.367-1.065-6.564-0.592l-8.005,1.72
													C214.231,108.842,213.094,108.199,212.718,107.101z"/>
											</g>
											<g>
												<g>
													<g>
														<path style="fill:#3C291F;" d="M187.794,115.476c0,2.163,1.372,3.917,3.064,3.917c1.692,0,3.064-1.754,3.064-3.917
															s-1.372-3.917-3.064-3.917C189.166,111.559,187.794,113.312,187.794,115.476z"/>
														<path style="fill:#FFFFFF;" d="M190.858,114.759c0,0.708,0.403,1.282,0.9,1.282c0.497,0,0.9-0.574,0.9-1.282
															c0-0.708-0.403-1.282-0.9-1.282C191.261,113.476,190.858,114.05,190.858,114.759z"/>
													</g>
												</g>
												<path style="fill:#3C291F;" d="M201.926,107.101L201.926,107.101c0.487-1.425-0.511-2.924-2.013-3.025l-9.368-0.628
													c-2.09-0.14-4.177,0.315-6.019,1.312l-5.351,2.896c-0.519,0.281-0.671,0.955-0.322,1.431l0,0
													c0.265,0.362,0.743,0.496,1.157,0.325l4.699-1.941c2.077-0.858,4.367-1.065,6.564-0.592l8.005,1.72
													C200.413,108.842,201.551,108.199,201.926,107.101z"/>
											</g>
										</g>
									</g>
									<g>
										<path style="fill:#E69D7A;" d="M206.63,110.474c0.001,2.69-0.087,5.373-0.014,8.028c0.085,2.662,0.315,5.285,1.106,7.785
											c0.735,2.528,1.854,4.91,3.043,7.33c0.569,1.23,1.031,2.734,0.515,4.149c-0.546,1.391-1.805,2.187-3.014,2.711
											c1.094-0.741,2.201-1.649,2.478-2.88c0.311-1.204-0.18-2.457-0.78-3.581c-1.335-2.304-2.559-4.779-3.34-7.403
											c-0.384-1.314-0.662-2.668-0.796-4.039c-0.11-1.359-0.162-2.72-0.103-4.073
											C205.804,115.791,206.191,113.126,206.63,110.474z"/>
									</g>
								</g>
							</g>
							<g>
								<g>
									<polygon style="fill:#FFFFFF;" points="169.736,110.32 180.393,123.34 179.322,124.56 									"/>
									<polygon style="fill:#FFFFFF;" points="245.366,109.914 234.708,122.934 235.779,124.154 									"/>
									<path style="fill:#FFFFFF;" d="M244.777,126.977c0,0-0.801,10.107-3.211,13.586l-1.948-1.561
										C239.617,139.003,242.76,136.104,244.777,126.977z"/>
									<path style="fill:#FFFFFF;" d="M170.175,126.977c0,0,1.205,10.107,3.615,13.586l1.545-1.561
										C175.335,139.003,172.192,136.104,170.175,126.977z"/>
								</g>
								<g>
									<path style="fill:#FFFFFF;" d="M236.976,121.027c-17.671,7.861-29.414,6.984-29.414,6.984s-11.617,0.877-29.288-6.984
										c0,0,2.253,15.655-5.12,18.266c-0.335,0.119,4.605,9.268,4.928,9.779c4.009,6.346,9.359,12.096,16.153,15.469
										c19.979,9.918,39.309-5.475,47.104-23.386c0.267-0.613,0.534-1.231,0.758-1.861
										C234.722,136.682,236.976,121.027,236.976,121.027z"/>
									<g>
										<g>
											<path style="fill:#F2F2F2;" d="M183.07,131.907c4.219,0.718,8.383,1.635,12.529,2.619
												c4.148,0.973,8.265,2.063,12.374,3.18l-0.588,0.005l6.348-1.831c2.129-0.565,4.246-1.174,6.385-1.704
												c2.132-0.555,4.276-1.071,6.423-1.576c2.154-0.48,4.306-0.971,6.486-1.363c-2.043,0.857-4.115,1.617-6.184,2.386
												c-2.076,0.744-4.156,1.478-6.247,2.172c-2.084,0.719-4.191,1.36-6.285,2.044l-6.322,1.917l-0.292,0.089l-0.296-0.084
												c-4.097-1.159-8.187-2.345-12.244-3.648C191.098,134.824,187.057,133.465,183.07,131.907z"/>
										</g>
										<g>
											<path style="fill:#F2F2F2;" d="M181.103,140.564c2.303,0.715,4.568,1.522,6.835,2.321
												c2.258,0.822,4.512,1.653,6.749,2.522c2.249,0.843,4.464,1.765,6.698,2.644l6.649,2.761l-0.845,0.005
												c4.286-1.852,8.583-3.681,12.929-5.396c4.341-1.727,8.711-3.388,13.165-4.857c-4.101,2.275-8.286,4.358-12.501,6.375
												c-4.209,2.029-8.468,3.944-12.737,5.836l-0.423,0.188l-0.423-0.183l-6.608-2.855c-2.185-0.993-4.389-1.943-6.559-2.972
												c-2.181-1.003-4.346-2.044-6.507-3.094C185.373,142.786,183.219,141.721,181.103,140.564z"/>
										</g>
										<g>
											<path style="fill:#F2F2F2;" d="M183.07,150.917c2.189,0.782,4.332,1.659,6.479,2.527c2.137,0.889,4.267,1.793,6.381,2.73
												c2.122,0.921,4.214,1.902,6.32,2.855l6.261,2.978l-0.928,0.002c1.934-0.915,3.853-1.862,5.8-2.751
												c1.945-0.893,3.885-1.797,5.849-2.649c3.917-1.73,7.863-3.401,11.898-4.889c-3.659,2.26-7.406,4.338-11.183,6.356
												c-1.882,1.021-3.79,1.992-5.691,2.973c-1.9,0.986-3.828,1.913-5.741,2.872l-0.46,0.231l-0.468-0.229l-6.228-3.046
												c-2.057-1.055-4.127-2.082-6.169-3.169c-2.049-1.071-4.083-2.175-6.109-3.294
												C187.065,153.274,185.045,152.143,183.07,150.917z"/>
										</g>
									</g>
								</g>
							</g>
						</g>
						<g>
							<g>
								<path style="fill:#0B3951;" d="M147.307,365.035c0,0-17.739,90.247-15.628,137.965h75.118l4.454-43.465
									c0.167-1.631,2.51-1.722,2.802-0.108L221.952,503h76.082c0,0-4.383-66.982-23.698-136.846L147.307,365.035z"/>
								<path style="fill:#08293B;" d="M147.307,365.035l-7.456,44.104c0,0,87.933,20.767,144.796,0.931l-10.31-43.916
									L147.307,365.035z"/>
							</g>
							<path style="fill:#0B3951;" d="M281.998,288.386c-0.012,1.175-0.015,1.825-0.015,1.825l35.988-10.878l-26.803-77.144
								c-0.001,0.001-0.002,0.003-0.003,0.004c-2.378-3.936-5.374-7.323-9.9-9.076l-47.982-18.588l-16.179,45.683l-36.001-42.643
								l-38.156,15.425c-5.891,2.381-10.147,7.62-11.271,13.874L108.198,276.5l39.432,12.749l-9.081,115.784
								c0,0,102.334,21.784,147.928,0"/>
							<g>
								<g>
									<path style="fill:#08293B;" d="M176.231,418.651c-1.322,5.341-3.322,10.507-5.716,15.481
										c-2.388,4.981-5.303,9.732-8.753,14.104c-3.515,4.296-7.593,8.291-12.54,11.003c-2.454,1.352-5.076,2.453-7.826,2.999
										c-2.742,0.551-5.549,0.673-8.275,0.316c2.751-0.118,5.442-0.526,8.009-1.333l1.903-0.653l1.835-0.819
										c0.615-0.26,1.185-0.622,1.78-0.923c0.598-0.297,1.162-0.657,1.721-1.024c2.243-1.446,4.374-3.081,6.288-4.962
										c1.941-1.848,3.763-3.83,5.435-5.943c3.372-4.206,6.295-8.788,8.945-13.533C171.673,428.607,174.072,423.7,176.231,418.651
										z"/>
								</g>
								<g>
									<path style="fill:#08293B;" d="M243.223,422.677c2.461,4.851,5.35,9.429,8.589,13.706
										c3.253,4.262,6.935,8.181,11.118,11.449c2.065,1.669,4.316,3.085,6.647,4.328c1.154,0.653,2.371,1.167,3.581,1.707
										c1.244,0.443,2.47,0.958,3.753,1.298c1.261,0.425,2.573,0.641,3.871,0.948l1.977,0.3c0.66,0.118,1.325,0.172,1.994,0.212
										c2.673,0.303,5.37,0.137,8.093,0.007c-2.648,0.599-5.373,1.056-8.131,1.044c-0.69,0.026-1.379,0.023-2.067-0.038
										l-2.07-0.136c-1.367-0.199-2.749-0.369-4.093-0.721c-5.441-1.201-10.49-3.881-14.873-7.263
										c-4.349-3.452-8.1-7.595-11.153-12.165C247.403,432.794,244.869,427.878,243.223,422.677z"/>
								</g>
							</g>
							<g>
								<path style="fill:#FFFFFF;" d="M181.103,177.568l36.001,42.643l16.179-45.683
									C233.283,174.529,214.223,193.906,181.103,177.568z"/>
								<path style="fill:#F2F2F2;" d="M198.661,193.103l18.443,27.109l-36.001-42.643c0,0,28.495,15.307,52.18-3.04
									c0,0-8.294,16.679-31.808,13.962C198.943,188.199,197.227,190.996,198.661,193.103z"/>
							</g>
							<g>
								<g>
									<g>
										<g>
											<path style="fill:#08293B;" d="M235.816,180.904c-0.42,1.675-0.905,3.329-1.355,4.994l-1.461,4.96
												c-0.976,3.306-2.031,6.586-3.087,9.866c-1.08,3.272-2.163,6.543-3.324,9.789l-1.745,4.867
												c-0.619,1.61-1.203,3.232-1.853,4.832c0.419-1.676,0.904-3.329,1.354-4.995l1.461-4.96
												c0.977-3.306,2.032-6.586,3.089-9.865c1.081-3.271,2.163-6.543,3.325-9.788l1.745-4.867
												C234.583,184.126,235.167,182.505,235.816,180.904z"/>
										</g>
										<g>
											<path style="fill:#08293B;" d="M176.347,179.491c1.311,1.422,2.569,2.887,3.854,4.329l3.768,4.4
												c2.503,2.94,4.931,5.941,7.4,8.909c2.402,3.023,4.84,6.016,7.208,9.066l3.536,4.588c1.148,1.554,2.325,3.085,3.448,4.66
												c-1.311-1.421-2.569-2.887-3.855-4.328l-3.768-4.4c-2.501-2.942-4.932-5.941-7.399-8.91
												c-2.4-3.024-4.841-6.015-7.207-9.067l-3.536-4.588C178.647,182.596,177.47,181.065,176.347,179.491z"/>
										</g>
									</g>
									<g>
										<g>
											<path style="fill:#08293B;" d="M138.593,195.496c2.737,1.348,5.214,3.206,7.45,5.305
												c2.247,2.096,4.167,4.544,5.752,7.186c0.833,1.3,1.437,2.728,2.094,4.119c0.497,1.46,1.117,2.879,1.39,4.402
												c0.153,0.754,0.393,1.488,0.474,2.253l0.283,2.282c0.114,0.758,0.077,1.528,0.08,2.291
												c0.003,0.764-0.007,1.525-0.027,2.284c-0.332-3.027-0.658-6.035-1.606-8.894c-0.38-1.453-0.989-2.826-1.527-4.219
												c-0.667-1.337-1.257-2.717-2.081-3.969c-1.515-2.576-3.351-4.966-5.412-7.154l-1.592-1.6
												c-0.563-0.499-1.107-1.023-1.687-1.505C141.056,197.269,139.847,196.359,138.593,195.496z"/>
										</g>
										<g>
											<path style="fill:#08293B;" d="M275.287,190.801c-0.715,2.701-1.208,5.435-1.587,8.177
												c-0.37,2.743-0.568,5.504-0.584,8.262c-0.054,2.759,0.126,5.519,0.496,8.255c0.315,2.751,0.984,5.44,1.675,8.151
												c-1.082-2.567-2.039-5.238-2.5-8.017c-0.151-0.688-0.278-1.381-0.345-2.082l-0.253-2.097
												c-0.074-1.405-0.18-2.812-0.143-4.22c0.038-2.814,0.288-5.628,0.833-8.386
												C273.403,196.086,274.179,193.37,275.287,190.801z"/>
										</g>
									</g>
								</g>
								<g>
									<g>
										<path style="fill:#08293B;" d="M203.47,393.488c3.032-2.214,6.074-4.398,9.047-6.678c3-2.24,5.97-4.517,8.924-6.809
											c5.895-4.601,11.711-9.294,17.327-14.21c5.631-4.895,11.075-10.003,16.17-15.438c2.552-2.714,4.979-5.542,7.259-8.489
											c2.314-2.924,4.395-6.029,6.231-9.305c-2.907,6.945-7.346,13.197-12.245,18.908c-2.449,2.869-5.049,5.605-7.721,8.262
											c-2.693,2.635-5.46,5.193-8.289,7.676c-2.856,2.452-5.748,4.859-8.702,7.186c-2.975,2.301-5.965,4.579-9.037,6.745
											C216.321,385.703,210.009,389.796,203.47,393.488z"/>
									</g>
									<g>
										<path style="fill:#08293B;" d="M190.378,388.093c4.36-2.652,8.664-5.34,12.913-8.102c4.233-2.782,8.426-5.614,12.46-8.648
											c2.04-1.487,4.018-3.052,5.96-4.655c1.967-1.577,3.835-3.266,5.679-4.978c3.673-3.445,7.048-7.2,9.844-11.475
											c-2.01,4.708-5.139,8.926-8.659,12.654c-3.508,3.769-7.45,7.092-11.545,10.171c-4.123,3.047-8.422,5.839-12.873,8.353
											C199.708,383.928,195.136,386.233,190.378,388.093z"/>
									</g>
								</g>
							</g>
							<g>
								<rect x="227.765" y="250.424" style="fill:#08293B;" width="38.784" height="2.576"/>
								<rect x="244.481" y="253" style="fill:#08293B;" width="4.75" height="9.568"/>
								<g>
									<rect x="236.324" y="262.568" style="fill:#FFFFFF;" width="21.667" height="32.054"/>
									<path style="fill:#F2F2F2;" d="M257.99,262.568c0,0-11.074,29.05-21.667,32.054h21.667V262.568z"/>
									<path style="fill:#0B3951;" d="M251.021,270.846c0,2.134-1.73,3.864-3.864,3.864c-2.134,0-3.864-1.73-3.864-3.864
										c0-2.134,1.73-3.864,3.864-3.864C249.291,266.982,251.021,268.712,251.021,270.846z"/>
								</g>
							</g>
						</g>
						<g>
							<path style="fill:#3C291F;" d="M245.029,121.027c-0.767-4.658-1.534-9.316-2.302-13.974
								c-0.579-3.517-1.159-7.035-1.738-10.552c-0.563-3.419-0.277-7.881-3.332-10.222c-1.961-1.503-4.62-2.135-7.03-2.359
								c-8.548-0.796-16.805,3.653-23.092,9.051c-18.586,15.958-33.804,3.745-33.804,3.745l-2.934,24.312
								c0,0-23.961-50.343,3.666-47.666c0,0,7.113-25.815,38.769-18.183c0,0,12.328,3.802,20.453,3.966
								c1.751,0.035,2.514,2.319,1.074,3.315c-1.142,0.789-2.792,1.397-5.168,1.397c0,0,3.425,1.889,9.893-0.113
								c2.108-0.652,3.469,2.358,1.498,3.35c-0.124,0.063-0.25,0.116-0.377,0.158c0,0,3.389,1.951,8.496,0.089
								c1.563-0.57,3.037,1.141,2.235,2.598c-1.002,1.822-2.73,3.513-5.695,3.513c1.298-0.48,3.226,2.462,3.913,3.276
								c4.303,5.098,5.597,11.948,4.984,18.455c-0.486,5.164-3.201,9.607-5.449,14.164
								C247.725,112.111,244.509,117.87,245.029,121.027z"/>
							<g>
								<g>
									<path style="fill:#4F3629;" d="M178.665,74.389c1.024-2.289,2.336-4.455,3.893-6.446c1.621-1.934,3.429-3.725,5.459-5.25
										c4.068-3.033,8.893-5.043,13.927-5.822c2.521-0.308,5.088-0.441,7.614-0.086c0.637,0.037,1.258,0.182,1.884,0.296
										c0.623,0.132,1.254,0.206,1.869,0.396c1.24,0.324,2.426,0.772,3.591,1.244c2.334,0.93,4.616,1.952,7.016,2.581
										c1.194,0.311,2.417,0.576,3.658,0.573c1.236,0.007,2.477-0.189,3.656-0.627c-2.281,1.116-4.976,1.075-7.429,0.531
										c-2.479-0.547-4.824-1.503-7.174-2.339c-4.618-1.84-9.668-2.31-14.54-1.583c-2.448,0.312-4.826,1.03-7.126,1.914
										c-2.304,0.904-4.438,2.171-6.496,3.54c-2.036,1.413-3.864,3.106-5.536,4.944C181.271,70.115,179.891,72.201,178.665,74.389
										z"/>
								</g>
								<g>
									<path style="fill:#4F3629;" d="M180.393,78.833c2.538-4.971,6.215-9.399,10.736-12.772
										c4.498-3.358,10.05-5.581,15.782-5.524c2.866,0.063,5.631,0.616,8.359,1.26c2.725,0.659,5.413,1.414,8.088,2.18
										c2.683,0.717,5.371,1.518,8.084,2.038c2.691,0.517,5.572,0.789,8.175-0.304c-1.236,0.659-2.65,0.945-4.05,1.019
										c-1.406,0.077-2.816-0.035-4.206-0.232c-2.784-0.433-5.473-1.147-8.199-1.778c-2.718-0.651-5.393-1.432-8.099-2.038
										c-2.699-0.61-5.445-1.115-8.161-1.147c-5.491-0.136-10.839,1.999-15.326,5.146c-2.262,1.575-4.332,3.434-6.194,5.484
										C183.495,74.199,181.845,76.451,180.393,78.833z"/>
								</g>
								<g>
									<path style="fill:#4F3629;" d="M180.393,82.172c4.098-4.59,9.026-8.47,14.506-11.37c5.469-2.863,11.736-4.586,18.008-3.999
										c0.781,0.057,1.551,0.215,2.326,0.328c0.758,0.177,1.541,0.333,2.277,0.53c1.487,0.38,2.971,0.774,4.464,1.124
										c2.979,0.734,5.98,1.365,8.991,1.911c3.012,0.523,6.058,0.935,9.109,0.868c3.059,0.025,6.081-0.644,8.99-1.637
										c-2.826,1.204-5.871,1.986-8.973,2.127c-3.101,0.168-6.195-0.163-9.249-0.598c-3.06-0.431-6.076-1.094-9.078-1.785
										c-1.504-0.337-2.996-0.717-4.492-1.084c-0.751-0.192-1.479-0.327-2.219-0.494c-0.747-0.101-1.489-0.244-2.242-0.296
										c-6.037-0.646-12.119,1.02-17.567,3.688c-2.74,1.339-5.352,2.95-7.824,4.756C184.933,78.028,182.575,80.006,180.393,82.172
										z"/>
								</g>
								<g>
									<path style="fill:#4F3629;" d="M182.065,85.667c4.487-3.247,9.405-5.9,14.541-8.02c5.139-2.111,10.558-3.623,16.118-4.237
										c1.397-0.064,2.793-0.17,4.19-0.182l2.098,0.09c0.698,0.045,1.401,0.019,2.091,0.156c1.377,0.224,2.79,0.37,4.135,0.661
										l4.06,0.828c2.706,0.556,5.423,1.056,8.149,1.487c1.361,0.233,2.728,0.422,4.098,0.58c0.686,0.07,1.373,0.129,2.062,0.159
										c0.344,0.008,0.689,0.024,1.033,0.006c0.337-0.026,0.705-0.014,1-0.196c-0.285,0.205-0.657,0.22-0.994,0.271
										c-0.346,0.044-0.692,0.053-1.04,0.07c-0.694,0.011-1.388-0.013-2.081-0.046c-1.384-0.084-2.768-0.199-4.144-0.359
										c-2.752-0.335-5.492-0.751-8.222-1.216c-1.368-0.218-2.729-0.474-4.088-0.737c-1.362-0.279-2.709-0.397-4.063-0.604
										c-0.673-0.127-1.361-0.093-2.043-0.129l-2.048-0.066c-1.365,0.026-2.73,0.15-4.095,0.221
										c-5.458,0.519-10.791,2.018-15.934,3.955c-2.582,0.953-5.1,2.083-7.57,3.308C186.832,82.865,184.416,84.209,182.065,85.667
										z"/>
								</g>
								<g>
									<path style="fill:#4F3629;" d="M247.157,78.833c2.383,2.075,4.35,4.72,5.465,7.759c1.22,3.006,1.167,6.527-0.018,9.578
										c-0.366,0.725-0.718,1.483-1.102,2.175c-0.384,0.684-0.79,1.356-1.156,2.05c-0.773,1.366-1.454,2.778-2.147,4.187
										c-0.666,1.42-1.278,2.867-1.8,4.347c-0.546,1.473-1.008,2.981-1.269,4.541c0.149-3.183,1.201-6.249,2.365-9.197
										c0.598-1.475,1.286-2.912,2.016-4.324c0.352-0.714,0.765-1.394,1.145-2.092c0.375-0.693,0.675-1.375,1.021-2.061
										c0.498-1.429,0.924-2.91,0.892-4.439c0.075-0.761-0.076-1.518-0.128-2.28c-0.178-0.744-0.279-1.509-0.543-2.237
										c-0.444-1.477-1.118-2.895-1.941-4.222C249.161,81.273,248.219,80.006,247.157,78.833z"/>
								</g>
								<g>
									<path style="fill:#4F3629;" d="M244.777,80.5c1.212,1.571,2.13,3.408,2.617,5.375c0.506,1.963,0.58,4.035,0.303,6.044
										c-0.594,4.05-2.492,7.549-2.92,11.504c-0.179-1.987,0.168-4.006,0.643-5.926c0.46-1.931,1.03-3.812,1.288-5.717
										c0.28-1.901,0.254-3.84-0.074-5.741C246.295,84.139,245.66,82.277,244.777,80.5z"/>
								</g>
								<g>
									<path style="fill:#4F3629;" d="M240.898,80.5c0.644,0.874,1.138,1.839,1.561,2.832c0.425,0.993,0.754,2.029,0.985,3.093
										c0.207,1.067,0.368,2.156,0.294,3.26c-0.06,1.093-0.29,2.208-0.84,3.149c0.152-1.076,0.141-2.105,0.059-3.135
										c-0.083-1.028-0.277-2.049-0.491-3.065C242.043,84.593,241.43,82.591,240.898,80.5z"/>
								</g>
								<g>
									<path style="fill:#4F3629;" d="M178.665,89.167c4.994-0.295,9.949-1.013,14.764-2.26c4.859-1.111,9.258-3.452,13.871-5.467
										c2.32-0.967,4.708-1.854,7.217-2.331c1.246-0.27,2.529-0.366,3.806-0.404c1.264-0.011,2.523,0.053,3.779,0.16
										c5.022,0.427,9.959,1.567,14.652,3.306c-2.414-0.66-4.839-1.261-7.299-1.669c-2.45-0.449-4.926-0.744-7.405-0.869
										c-1.239-0.054-2.481-0.078-3.717-0.063c-1.218,0.053-2.44,0.156-3.637,0.431c-2.407,0.486-4.725,1.38-7.006,2.358
										c-4.564,1.902-9.097,4.321-14.081,5.291c-2.455,0.55-4.939,0.952-7.435,1.222
										C183.676,89.106,181.168,89.233,178.665,89.167z"/>
								</g>
								<g>
									<path style="fill:#4F3629;" d="M177.398,92.833c1.73,0.811,3.521,1.46,5.371,1.859c1.84,0.42,3.724,0.633,5.597,0.581
										c1.866-0.074,3.738-0.312,5.479-0.935c1.752-0.612,3.378-1.563,4.97-2.581c1.603-0.997,3.204-2.077,4.875-3.019
										c1.651-0.95,3.289-1.946,5.017-2.791c1.715-0.863,3.496-1.622,5.342-2.177c1.853-0.521,3.783-0.817,5.693-0.723
										c-3.834,0.228-7.384,1.742-10.676,3.581c-1.645,0.939-3.282,1.901-4.913,2.895c-1.639,0.958-3.184,2.041-4.805,3.081
										c-1.632,1.008-3.339,1.975-5.206,2.595c-1.87,0.62-3.83,0.887-5.773,0.842C184.482,95.963,180.654,94.838,177.398,92.833z"
										/>
								</g>
								<g>
									<path style="fill:#4F3629;" d="M173.137,75.833c-1.638,0.229-3.25,0.674-4.679,1.446c-1.429,0.75-2.682,1.839-3.412,3.234
										c-0.751,1.399-0.915,2.987-0.828,4.61c0.05,1.624,0.232,3.26,0.468,4.887c0.448,3.26,1.083,6.504,1.713,9.749
										c0.323,1.622,0.656,3.243,1.012,4.859l1.022,4.866c-1.08-3.14-1.973-6.337-2.785-9.557c-0.81-3.221-1.476-6.48-1.953-9.781
										c-0.22-1.653-0.403-3.316-0.422-5.005c-0.037-1.661,0.159-3.51,1.104-5.004c0.902-1.51,2.33-2.608,3.868-3.298
										C169.809,76.188,171.477,75.839,173.137,75.833z"/>
								</g>
								<g>
									<path style="fill:#4F3629;" d="M174.065,79.679c-2.357,0.076-4.502,1.603-4.952,3.805c-0.29,1.069-0.259,2.204-0.195,3.335
										l0.285,3.493c0.161,2.331,0.319,4.662,0.401,6.999l0.119,3.506c0.003,1.172,0.041,2.341,0.014,3.516
										c-0.199-1.156-0.334-2.318-0.502-3.478l-0.397-3.488c-0.262-2.326-0.448-4.658-0.631-6.99l-0.231-3.501
										c-0.01-1.192-0.034-2.441,0.405-3.615c0.392-1.166,1.144-2.268,2.221-2.887C171.665,79.763,172.9,79.527,174.065,79.679z"
										/>
								</g>
								<g>
									<path style="fill:#4F3629;" d="M175.064,85.667c-1.063,1.329-1.684,2.781-2.021,4.314c-0.16,0.769-0.239,1.558-0.276,2.364
										c-0.024,0.403-0.002,0.81-0.02,1.225c0.007,0.413,0.033,0.828,0.008,1.263c-0.191-0.382-0.348-0.781-0.493-1.187
										c-0.098-0.414-0.229-0.832-0.274-1.262c-0.125-0.859-0.086-1.744,0.078-2.612c0.201-0.859,0.533-1.697,1.044-2.417
										C173.612,86.638,174.267,86.007,175.064,85.667z"/>
								</g>
								<g>
									<path style="fill:#4F3629;" d="M192.657,69c1.869-1.628,4.09-2.838,6.418-3.724c2.333-0.88,4.808-1.419,7.308-1.556
										c0.623-0.072,1.251-0.017,1.876-0.013c0.625,0.016,1.252,0.006,1.871,0.105l1.861,0.221
										c0.614,0.106,1.22,0.267,1.826,0.409c1.227,0.236,2.378,0.739,3.555,1.126c1.148,0.471,2.249,1.052,3.352,1.6
										c-1.177-0.395-2.299-0.905-3.476-1.254c-1.188-0.312-2.339-0.747-3.556-0.909c-2.385-0.542-4.842-0.656-7.265-0.537
										c-2.437,0.071-4.838,0.605-7.158,1.349C196.947,66.575,194.708,67.623,192.657,69z"/>
								</g>
								<g>
									<path style="fill:#4F3629;" d="M207.918,78.833c2.069-1.254,4.417-1.998,6.786-2.5c2.38-0.496,4.819-0.637,7.248-0.611
										c1.211,0.102,2.427,0.143,3.624,0.352c1.205,0.148,2.395,0.38,3.57,0.679c1.185,0.251,2.323,0.684,3.481,1.019
										c1.131,0.424,2.247,0.888,3.353,1.36c-1.167-0.313-2.301-0.706-3.462-1.009c-1.171-0.261-2.313-0.628-3.497-0.807
										c-2.341-0.483-4.716-0.75-7.095-0.846c-2.38-0.087-4.764,0.062-7.119,0.428C212.457,77.276,210.121,77.86,207.918,78.833z"
										/>
								</g>
								<g>
									<path style="fill:#4F3629;" d="M187.065,79.679c2.056-1.717,4.317-3.177,6.649-4.504c2.343-1.308,4.788-2.451,7.332-3.342
										c2.561-0.826,5.195-1.497,7.895-1.686c2.697-0.15,5.425,0.129,7.957,1.02c-2.618-0.589-5.277-0.708-7.906-0.445
										c-2.627,0.302-5.202,0.953-7.702,1.819c-2.522,0.817-4.93,1.953-7.306,3.14c-1.193,0.586-2.357,1.235-3.506,1.908
										C189.315,78.241,188.184,78.947,187.065,79.679z"/>
								</g>
								<g>
									<path style="fill:#4F3629;" d="M182.065,91.333c1.514,0.288,3.038,0.398,4.554,0.384c1.515-0.033,3.028-0.133,4.512-0.425
										c1.482-0.281,2.956-0.642,4.382-1.164c1.444-0.48,2.815-1.147,4.218-1.795c-0.626,0.445-1.263,0.89-1.927,1.289
										c-0.686,0.357-1.357,0.755-2.08,1.043c-1.412,0.663-2.934,1.06-4.462,1.366c-1.536,0.283-3.108,0.366-4.661,0.261
										C185.051,92.186,183.499,91.921,182.065,91.333z"/>
								</g>
								<g>
									<path style="fill:#4F3629;" d="M249.065,84.833c1.122,1.807,1.691,3.944,1.769,6.092c0.04,1.077-0.096,2.163-0.38,3.201
										c-0.254,1.05-0.79,2.01-1.39,2.874c0.344-1.006,0.671-1.983,0.819-3.002c0.155-1.011,0.253-2.029,0.201-3.052
										c-0.024-1.022-0.142-2.044-0.314-3.062C249.583,86.868,249.365,85.848,249.065,84.833z"/>
								</g>
								<g>
									<path style="fill:#4F3629;" d="M178.665,85.667c0.941,0.309,1.927,0.395,2.901,0.421c0.977,0.011,1.953-0.02,2.921-0.157
										c1.933-0.257,3.854-0.639,5.725-1.219c0.949-0.24,1.864-0.6,2.801-0.888l2.762-1.026c1.831-0.723,3.627-1.529,5.456-2.298
										c-0.842,0.52-1.709,0.999-2.566,1.501c-0.876,0.462-1.775,0.883-2.663,1.327c-0.899,0.423-1.827,0.78-2.745,1.163
										c-0.945,0.314-1.871,0.683-2.836,0.94c-1.908,0.572-3.887,0.947-5.884,1.072C182.559,86.605,180.474,86.536,178.665,85.667
										z"/>
								</g>
								<g>
									<path style="fill:#4F3629;" d="M168.432,79.132c-0.533,0.286-0.897,0.771-1.161,1.28c-0.287,0.502-0.441,1.069-0.597,1.623
										c-0.265,1.132-0.33,2.311-0.354,3.485c-0.009,1.179,0.046,2.364,0.135,3.551c0.08,1.19,0.208,2.379,0.276,3.588
										c-0.354-1.153-0.678-2.322-0.857-3.52c-0.21-1.193-0.301-2.408-0.304-3.629c0.04-1.219,0.141-2.456,0.544-3.638
										c0.217-0.583,0.462-1.162,0.85-1.659C167.35,79.735,167.826,79.263,168.432,79.132z"/>
								</g>
								<g>
									<path style="fill:#4F3629;" d="M170.379,85.667c0.226,1.726,0.37,3.455,0.501,5.185c0.14,1.729,0.221,3.461,0.302,5.193
										c0.063,1.733,0.124,3.465,0.128,5.2c0.011,1.735,0.01,3.47-0.074,5.209c-0.227-1.726-0.371-3.455-0.502-5.185
										c-0.139-1.729-0.221-3.461-0.3-5.193c-0.062-1.733-0.124-3.465-0.126-5.2C170.295,89.141,170.296,87.405,170.379,85.667z"
										/>
								</g>
							</g>
						</g>
					</g>
					<g>
						<g>
							<path style="fill:#0B3951;" d="M270.693,295.242l48.795-14.898c0.542-0.165,0.893-0.689,0.84-1.253l-0.388-4.175
								c-0.069-0.747-0.803-1.246-1.523-1.036l-45.2,13.184L270.693,295.242z"/>
							<path style="fill:#08293B;" d="M313.176,272.69c-0.293,0.663-1.068,0.963-1.731,0.669c-0.663-0.293-0.963-1.068-0.669-1.731
								c0.293-0.663,1.068-0.963,1.731-0.669C313.17,271.252,313.469,272.027,313.176,272.69z"/>
						</g>
						<g>
							<path style="fill:#0B3951;" d="M154.893,296.735l-48.795-14.898c-0.542-0.165-0.893-0.689-0.84-1.253l0.388-4.175
								c0.069-0.747,0.803-1.246,1.523-1.036l45.2,13.184L154.893,296.735z"/>
							<path style="fill:#08293B;" d="M112.409,274.183c0.293,0.663,1.068,0.963,1.731,0.669c0.663-0.293,0.963-1.068,0.669-1.731
								c-0.293-0.663-1.068-0.963-1.731-0.669C112.416,272.745,112.116,273.52,112.409,274.183z"/>
						</g>
					</g>
				</g>
				<g>
					<g>
						<path style="fill:#FCB695;" d="M281.986,291.794l26.043,66.592c1.143,3.198,3.242,6.018,6.128,7.808
							c3.573,2.216,9.083,3.626,16.831,0.406c15.496-6.441,47.846-82.062,47.846-82.062l-16.905-5.942l-33.174,51.395l-15.24-47.823
							L281.986,291.794z"/>
						<g>
							<g>
								<g>
									<g>
										<path style="fill:#F2F2F2;" d="M384.137,207.375l-1.259-0.041l-1.408,59.912c-0.02,0.877-0.613,1.598-1.408,1.838
											c0.197,0.074,0.404,0.126,0.626,0.133c1.099,0.036,2.016-0.831,2.042-1.93L384.137,207.375z"/>
										<path style="fill:#FFFFFF;" d="M381.47,267.246l1.408-59.912l-1.323-0.044l-2.778,59.859
											c-0.041,0.88,0.504,1.642,1.284,1.935C380.857,268.844,381.449,268.123,381.47,267.246z"/>
									</g>
									<g>
										<polygon style="fill:#FFFFFF;" points="380.166,265.898 380.983,239.581 381.9,213.268 381.083,239.584 										"/>
									</g>
								</g>
								<path style="fill:#FFFFFF;" d="M388.582,204.058c-0.105,3.174-2.762,5.662-5.936,5.558
									c-3.174-0.104-5.662-2.762-5.558-5.936c0.104-3.174,2.762-5.662,5.936-5.558
									C386.198,198.226,388.686,200.884,388.582,204.058z"/>
								<path style="fill:#A1D6E6;" d="M387.499,204.022c-0.085,2.576-2.242,4.595-4.818,4.51c-2.576-0.085-4.595-2.242-4.511-4.818
									s2.242-4.595,4.818-4.51C385.565,199.289,387.584,201.446,387.499,204.022z"/>
								<g>
									<defs>
										<path id="SVGID_00000060007833450686408460000014901511856495349895_" d="M387.499,204.022
											c-0.085,2.576-2.242,4.595-4.818,4.51c-2.576-0.085-4.595-2.242-4.511-4.818s2.242-4.595,4.818-4.51
											C385.565,199.289,387.584,201.446,387.499,204.022z"/>
									</defs>
									<clipPath id="SVGID_00000015323554059519315010000014284800911420622262_">
										<use xlink:href="#SVGID_00000060007833450686408460000014901511856495349895_"  style="overflow:visible;"/>
									</clipPath>
									
										<rect x="379.925" y="191.472" transform="matrix(0.9193 0.3935 -0.3935 0.9193 110.2544 -133.5393)" style="clip-path:url(#SVGID_00000015323554059519315010000014284800911420622262_);fill:#BAE4F0;" width="1.701" height="21.247"/>
									
										<rect x="382.346" y="192.725" transform="matrix(0.9193 0.3936 -0.3936 0.9193 110.937 -134.2702)" style="clip-path:url(#SVGID_00000015323554059519315010000014284800911420622262_);fill:#BAE4F0;" width="0.992" height="21.246"/>
									
										<rect x="384.928" y="193.831" transform="matrix(0.9193 0.3936 -0.3936 0.9193 111.5805 -135.1973)" style="clip-path:url(#SVGID_00000015323554059519315010000014284800911420622262_);fill:#BAE4F0;" width="0.992" height="21.246"/>
								</g>
							</g>
							<g>
								<path style="fill:#0B3951;" d="M400.011,230.197L394.3,212.53c0,0-2.738-2.223-3.017,1.542l-1.214-2.772
									c0,0-2.477-2.33-3.301,1.963c0,0-3.452-0.257-3.136,4.405l1.753,16.77l-2.768,7.07c-0.754-5.105-1.507-10.211-2.26-15.316
									c-0.178-1.206-1.585-1.777-2.553-1.037c-1.092,0.835-1.755,2.104-1.85,3.476c-0.246,3.561,0.023,7.505-0.566,11.175
									c-0.663,4.132-2.767,7.219-4.948,10.678c-3.04,4.821-5.394,11.678-5.246,17.446c0.055,2.162,1.129,4.716,0.247,6.82
									c-0.066,0.158-2.082,0.773-2.392,1.047c-1.421,1.259-1.085,3.417-2.822,4.49c-0.447,0.276-0.926,0.519-1.294,0.894
									c-1.994,2.032,2.663,3.983,3.908,4.661c3.848,2.094,7.972,3.665,12.033,5.284c1.439,0.574,3.664,0.084,4.131-1.579
									c0.299-1.065-0.465-2.104-0.229-3.176c0.195-0.884,1.359-1.68,1.021-2.64c-0.2-0.568-1.039-0.987-1.559-1.203l18.13-28.539
									l3.818-20.677C400.397,232.277,400.337,231.204,400.011,230.197z"/>
								<g>
									<g>
										<path style="fill:#08293B;" d="M391.283,214.072c0.47,1.32,0.922,2.644,1.351,3.976l1.258,4.004l1.177,4.029
											c0.382,1.346,0.742,2.699,1.083,4.057c-0.47-1.319-0.922-2.644-1.352-3.976l-1.258-4.005l-1.177-4.029
											C391.984,216.783,391.625,215.431,391.283,214.072z"/>
									</g>
									<g>
										<path style="fill:#08293B;" d="M386.768,213.263c0.508,1.486,0.999,2.977,1.466,4.475l1.373,4.502l1.292,4.526
											c0.42,1.512,0.818,3.03,1.197,4.554c-0.509-1.486-0.999-2.977-1.467-4.475l-1.372-4.503l-1.291-4.526
											C387.545,216.306,387.148,214.787,386.768,213.263z"/>
									</g>
									<g>
										<path style="fill:#08293B;" d="M365.44,274.75c1.115,0.774,2.18,1.594,3.311,2.315c0.551,0.383,1.125,0.728,1.711,1.047
											c0.586,0.318,1.188,0.613,1.842,0.796c-0.685-0.033-1.343-0.272-1.967-0.544c-0.628-0.275-1.213-0.63-1.787-0.994
											C367.428,276.602,366.359,275.754,365.44,274.75z"/>
									</g>
								</g>
							</g>
						</g>
					</g>
					<g>
						<g>
							<path style="fill:#F2F2F2;" d="M210.443,379.174l-29.663-18.577l3.08-4.918c1.817-2.901,5.641-3.78,8.542-1.963
								l19.158,11.998c2.901,1.817,3.78,5.641,1.963,8.542L210.443,379.174z"/>
							<g>
								
									<rect x="131.956" y="357.787" transform="matrix(0.8475 0.5308 -0.5308 0.8475 242.097 -29.6547)" style="fill:#FFFFFF;" width="81.41" height="97.489"/>
								<path style="fill:#F2F2F2;" d="M233.031,386.824l-51.743,82.624l-68.997-43.209
									C112.291,426.239,192.043,427.028,233.031,386.824z"/>
							</g>
						</g>
						<path style="fill:#FCB695;" d="M196.223,445.587c0.539,0.418,1.078,0.836,1.618,1.254c1.029,0.797,2.048,1.769,3.151,2.455
							c1.155,0.718,3.646,0.93,3.925-0.866c0.159-1.023-0.929-2.043-1.58-2.648c-1.021-0.947-2.044-1.892-3.131-2.763
							c-2.465-1.973-4.762-4.141-7.285-6.046c-1.552-1.171-5.692-3.911-4.042-5.498c1.214-1.167,16.219,7.426,20.923,10.066
							c0.817,0.459,1.797,0.6,2.676,0.277c1.465-0.537,1.722-1.563,1.596-2.482c-0.143-1.039-0.843-1.918-1.77-2.409l-17.132-9.06
							c-0.696-0.414-2.994-1.937-2.21-2.987c1.167-1.565,10.558,2.886,12.024,3.454c2.421,0.938,4.833,1.903,7.23,2.9
							c0.839,0.349,1.796,0.368,2.627-0.001c1.672-0.742,1.754-1.82,1.411-2.718c-0.366-0.96-1.205-1.66-2.181-1.981
							c-5.022-1.653-9.996-3.474-14.904-5.425c-2.894-1.15-5.738-2.42-8.519-3.82c-2.13-1.073-4.813-2.56-5.507-4.76
							c-0.138-0.438-0.103-0.842,0.064-1.212c0.982-2.178,6.505-3.223,7.987-3.536c3.942-0.833,4.813-2.809,4.846-4.329
							c0.021-0.98-0.868-1.709-1.829-1.51c-4.519,0.937-16.441,0.785-20.117,0.714c-0.736-0.014-1.467,0.081-2.174,0.283
							l-9.735,2.774l-0.434-0.507l-32.247-49.342l14.937-61.708l-31.519-9.623l-14.681,66.55
							c-1.846,8.647,1.014,17.627,7.521,23.614l42.054,39.889l7.418,5.726c4.621,9.872,19.209,18.237,19.209,18.237
							s10.074,11.867,14.23,13.103c2.802,0.834,3.163-0.499,3.101-1.455c-0.031-0.472-0.238-0.912-0.581-1.238
							c-2.544-2.417-12.557-11.935-10.884-13.15c0.577-0.419,1.567,0.212,2.021,0.564c1.714,1.329,3.429,2.658,5.144,3.986
							C191.724,442.1,193.973,443.843,196.223,445.587"/>
					</g>
				</g>
				<polygon style="fill:#E69D7A;" points="328.756,329.99 325.723,341.298 326.329,322.374 				"/>
				<polygon style="fill:#E69D7A;" points="131.505,355.863 121.128,352.957 132.595,351.358 				"/>
			</g>
		</g>
	</g>
</g>
</svg>
