<?xml version="1.0" encoding="utf-8"?>
<!-- Generator: Adobe Illustrator 27.5.0, SVG Export Plug-In . SVG Version: 6.00 Build 0)  -->
<svg version="1.1" xmlns="http://www.w3.org/2000/svg" xmlns:xlink="http://www.w3.org/1999/xlink" x="0px" y="0px"
	 viewBox="0 0 500 500" style="enable-background:new 0 0 500 500;" xml:space="preserve">
<g id="BACKGROUND">
	<rect style="fill:#93E1E5;" width="500.708" height="425.552"/>
	<rect y="375.387" style="fill:#8C8C8B;" width="500.708" height="124.613"/>
	<g>
		<g>
			<rect x="97.43" y="236.955" style="fill:#E8E0BF;" width="239.891" height="138.433"/>
			<g>
				<rect x="107.493" y="247.341" style="fill:#FFFBE9;" width="221.791" height="23.873"/>
				<rect x="107.493" y="278.1" style="fill:#FFFBE9;" width="221.791" height="23.873"/>
				<rect x="107.493" y="308.716" style="fill:#FFFBE9;" width="221.791" height="23.873"/>
				<rect x="107.493" y="340.653" style="fill:#FFFBE9;" width="221.791" height="23.873"/>
			</g>
		</g>
		<g>
			<rect x="337.322" y="236.955" style="fill:#E8E0BF;" width="163.025" height="138.433"/>
			<g>
				<g>
					<rect x="344.593" y="245.574" style="fill:#FFFBE9;" width="69.643" height="122.055"/>
					<path style="fill:#E8E0BF;" d="M406.083,290.291c-2.415,0.033-2.486,26.446-0.158,26.417S408.498,290.258,406.083,290.291z"/>
				</g>
				<g>
					<rect x="423.466" y="245.574" style="fill:#FFFBE9;" width="69.643" height="122.055"/>
					<path style="fill:#E8E0BF;" d="M432.497,290.292c-2.415,0.011-2.735,26.421-0.406,26.414
						C434.42,316.699,434.913,290.282,432.497,290.292z"/>
				</g>
			</g>
		</g>
	</g>
	<g>
		<g>
			<rect x="40.702" y="63.378" style="fill:#E8E0BF;" width="108.667" height="108.667"/>
			<rect x="46.93" y="68.716" style="fill:#2DA08D;" width="95.957" height="95.957"/>
		</g>
		<path style="fill:#FFFFFF;" d="M110.095,119.225c0.127,2.161,8.813,25.138,1.315,26.869c-8.812,2.034-9.028-18.553-17.497-20.55
			c-8.469,1.997-8.685,22.584-17.497,20.55c-7.499-1.731,1.188-24.708,1.315-26.869c0.157-2.664-14.287-18.358-1.569-26.13
			c4.244-2.594,10.568,0.059,17.751,0.659c7.183-0.601,13.507-3.253,17.751-0.659C124.383,100.867,109.939,116.561,110.095,119.225z
			"/>
	</g>
	<g>
		<g>
			<rect x="268.833" y="65.544" style="fill:#E8E0BF;" width="95.667" height="106.5"/>
			<rect x="275.698" y="72.544" style="fill:#FFFBE9;" width="82.969" height="92.333"/>
			<path style="fill:#E8E0BF;" d="M346.824,106.604c-2.414,0.053-2.782,20.486-0.454,20.437
				C348.698,126.993,349.238,106.551,346.824,106.604z"/>
		</g>
		<g>
			<rect x="362.321" y="65.461" style="fill:#E8E0BF;" width="95.667" height="106.5"/>
			<rect x="369.185" y="72.461" style="fill:#FFFBE9;" width="82.969" height="92.333"/>
			<path style="fill:#E8E0BF;" d="M440.311,106.521c-2.414,0.053-2.782,20.486-0.454,20.437
				C442.185,126.91,442.725,106.468,440.311,106.521z"/>
		</g>
		<g>
			<polygon style="fill:#E8E0BF;" points="456.471,164.878 456.471,72.544 500,72.544 500,65.544 449.607,65.544 449.607,172.044 
				500,172.044 500,164.878 			"/>
			<rect x="456.471" y="72.544" style="fill:#FFFBE9;" width="43.529" height="92.333"/>
		</g>
	</g>
</g>
<g id="OBJECTS">
	<g>
		<g>
			<g>
				<g>
					<path style="fill:#FFFFFF;" d="M211.33,124.109c0,0-1.309-2.684-4.812-3.559s-102.459,53.419-102.459,55.696
						s64.628,51.842,65.679,53.769s-0.876,58.804-0.876,58.804h-15.763c0,0,2.452-50.485,0.35-52.631
						c-2.102-2.146-70.758-57.666-70.758-63.621c0-5.955,121.189-67.253,127.329-67.255c3.853-0.001,13.562,9.507,13.562,9.507
						L211.33,124.109z"/>
					<circle style="fill:#E5E5E5;" cx="93.267" cy="173.51" r="3.81"/>
					<circle style="fill:#E5E5E5;" cx="161.024" cy="236.188" r="3.547"/>
				</g>
				<g>
					<path style="fill:#E5E5E5;" d="M211.132,141.532c0,0-8.467-10.824,4.318-21.946c12.785-11.122,23.333-2.157,23.333-2.157
						L211.132,141.532z"/>
					<path style="fill:#FFF0A4;" d="M205.642,161.095c0,0,22.418,5.605,41.772-10.333s12.523-33.715,12.523-33.715L205.642,161.095z
						"/>
					<path style="fill:#FFFFFF;" d="M205.642,161.095c0,0,27.235-17.865,54.295-44.049c0,0-3.328-6.393-11.997-4.641
						c-8.67,1.751-41.655,31.561-43.258,37.481C202.665,157.33,205.642,161.095,205.642,161.095z"/>
				</g>
			</g>
			<g>
				<polygon style="fill:#B2B2B2;" points="223.002,288.819 136.285,288.819 136.285,443.865 150.297,443.865 150.297,305.852 
					208.526,305.852 208.526,443.865 223.002,443.865 				"/>
				<rect x="150.297" y="305.852" style="fill:#CCCCCC;" width="58.229" height="138.013"/>
			</g>
			<g>
				<path style="fill:#B2B2B2;" d="M180.767,277.38c0,0,4.208-10.06,12.177-13.388c7.969-3.328,10.071-2.977,10.596-1.489
					c0.525,1.489-5.519,3.636-8.757,9.107c-3.238,5.471-3.24,7.444-3.24,7.444L180.767,277.38z"/>
				<path style="fill:#FFFFFF;" d="M177.882,288.819c0,0-8.319-8.713-6.305-10.465c2.014-1.751,56.747-1.839,58.41,0
					c1.664,1.839-9.612,10.465-9.612,10.465H177.882z"/>
			</g>
		</g>
		<g>
			<g>
				<path style="fill:#CCCCCC;" d="M386.798,184.008c0,0,19.188,18.51,7.035,42.99c-10.246,20.639-37.519,20.319-37.519,20.319
					l6.781-13.62c0,0,12.094,1.982,21.28-14.315c6.962-12.351-4.443-26.144-4.443-26.144L386.798,184.008z"/>
				<path style="fill:#CCCCCC;" d="M324.3,309.311c0,0,22.508,13.709,9.722,42.783s-49.63,21.207-49.63,21.207l4.284-14.896
					c0,0,25.029,2.617,31.159-13.319c6.13-15.936-2.073-23.627-2.073-23.627L324.3,309.311z"/>
			</g>
			<g>
				<path style="fill:#FFFFFF;" d="M366.887,224.072c-1.055-1.57-2.59-2.759-4.328-3.504c-4.593-1.968-6.821-2.456-11.612,6.383
					c-5.301,9.782-52.648,96.762-52.796,103.303c-0.108,4.772,8.466,7.441,11.041,5.908c2.574-1.533,59.044-110.057,57.734-112.032
					C366.914,224.111,366.9,224.092,366.887,224.072z"/>
				<g>
					<path style="fill:#43C9B5;" d="M353.787,222.392c0,0-9.781-3.057-16.612,6.576c-3.916,5.522-17.672,28.887-28.288,50.1
						l15.989,6.26L353.787,222.392z"/>
					<path style="fill:#2DA08D;" d="M308.887,279.068c-7.902,15.79-14.066,30.389-13.132,35.545
						c2.188,12.085,8.669,15.237,8.669,15.237l20.453-44.523L308.887,279.068z"/>
				</g>
			</g>
			<g>
				<path style="fill:#FFFFFF;" d="M236.029,385.275c0,0-48.952,36.098-48.952,52.814c0,7.356,11.542,6.437,14.178,6.305
					c2.636-0.131,181.282,0.106,181.282,0.106s7.619-0.171,5.977-8.775c-1.642-8.604-6.371-23.513-21.149-24.958
					s-80.281-0.963-80.281-0.963l-11.647-20.93L236.029,385.275z"/>
				<g>
					<path style="fill:#E5E5E5;" d="M194.797,341.452c0,0,10.32,22.026,21.704,32.534c11.384,10.509,28.205,13.836,28.205,13.836
						s-5.961,18.74,15.581,20.142c21.543,1.401,25.677-46.588,31.762-56.763l-72.57-20.125L194.797,341.452z"/>
					<circle style="fill:#CCCCCC;" cx="260.593" cy="390.757" r="10.093"/>
				</g>
			</g>
			<g>
				<g>
					<path style="fill:#43C9B5;" d="M256.346,279.846c0,0,5.429-7.005,21.017-3.152c15.588,3.853,44.486,12.873,44.486,12.873
						l-4.484,9.943L256.346,279.846z"/>
					<path style="fill:#FFFFFF;" d="M244.834,281.686c2.665-5.596,21.525-1.047,64.669,13.661
						c19.266,6.568,13.048,14.099,7.181,12.523S241.331,289.042,244.834,281.686z"/>
				</g>
				<circle style="fill:#CCCCCC;" cx="325.572" cy="293.902" r="9.939"/>
			</g>
			<g>
				<path style="fill:#43C9B5;" d="M295.754,338.739c0,0-2.19-12.395-15.326-15.546c-13.136-3.151-50.616-14.813-60.425-15.112
					s-113.96,31.37-112.413,48.462l105.757-28.795L295.754,338.739z"/>
				<path style="fill:#FFFFFF;" d="M100.556,365.58c-3.631-7.868,16.113-12.961,46.063-21.893s59.899-20.317,69.182-20.492
					s83.018,14.712,85.295,17.514c2.277,2.802,1.401,8.757-1.576,11.034c-2.977,2.277-74.611-16.113-84.945-15.763
					C204.241,336.331,104.759,374.687,100.556,365.58z"/>
			</g>
			<g>
				<path style="fill:#43C9B5;" d="M387.233,155.994c0,0-12.709-1.506-16.255,4.011s-16.288,28.242-14.843,33.102
					c1.445,4.86,7.619,11.559,7.619,11.559L387.233,155.994z"/>
				<path style="fill:#FFFFFF;" d="M389.236,153.306c3.024-1.176,8.787,1.474,9.444,3.576c0.657,2.102-24.812,55.141-27.965,56.323
					c-3.153,1.182-8.18-1.129-9.494-3.625C359.907,207.084,386.872,154.225,389.236,153.306z"/>
			</g>
		</g>
	</g>
</g>
<g id="DESIGNED_BY_FREEPIK">
	<g>
		<g id="XMLID_319_">
			<g id="XMLID_338_">
				<path id="XMLID_346_" style="fill:#FFFFFF;" d="M260.104,465.465c-0.433,0.443-0.804,0.932-1.108,1.453l-0.465-0.241
					c-0.067-0.297-0.35-0.502-0.659-0.466c-0.331,0.039-0.567,0.339-0.529,0.67c0.039,0.331,0.339,0.567,0.67,0.528
					c0.065-0.007,0.127-0.025,0.184-0.052l0.451,0.234c-0.251,0.554-0.433,1.139-0.539,1.743l0.747,0.132
					c0.229-1.306,0.85-2.507,1.792-3.473L260.104,465.465z"/>
				<path id="XMLID_345_" style="fill:#FFFFFF;" d="M265.591,463.164c-0.171,0-0.341,0.006-0.509,0.017l-0.074-0.626
					c0.188-0.149,0.296-0.389,0.266-0.645c-0.046-0.393-0.402-0.674-0.795-0.628c-0.394,0.046-0.675,0.402-0.628,0.796
					c0.03,0.254,0.189,0.461,0.404,0.563l0.073,0.624c-0.714,0.116-1.402,0.332-2.06,0.646l0.327,0.685
					c0.935-0.447,1.941-0.674,2.995-0.674c0.497,0,0.993,0.053,1.476,0.158l0.16-0.741
					C266.692,463.222,266.142,463.164,265.591,463.164z"/>
				<path id="XMLID_344_" style="fill:#FFFFFF;" d="M272.194,465.711c0.331-0.04,0.566-0.341,0.525-0.672
					c-0.04-0.331-0.341-0.566-0.672-0.525c-0.31,0.038-0.535,0.304-0.53,0.608l-0.416,0.363c-0.418-0.43-0.89-0.813-1.407-1.14
					l-0.404,0.642c1.135,0.715,2.021,1.727,2.564,2.925l0.69-0.313c-0.251-0.554-0.567-1.071-0.942-1.545l0.402-0.351
					C272.065,465.715,272.128,465.719,272.194,465.711z"/>
				<path id="XMLID_343_" style="fill:#FFFFFF;" d="M265.044,473.372c-0.386,0.023-0.775,0.035-1.157,0.035
					c-0.88,0-1.733-0.061-2.479-0.18c-0.391-0.062-0.846-0.154-1.271-0.292c1.047,1.861,3.069,3.125,5.389,3.125
					c2.855,0,5.263-1.916,5.949-4.503c-0.682,0.449-1.505,0.825-2.458,1.122C267.838,473.047,266.463,473.287,265.044,473.372z"/>
				<path id="XMLID_339_" style="fill:#FFFFFF;" d="M265.591,464.68c-3.351,0-6.079,2.666-6.079,5.943
					c0,0.425,0.046,0.849,0.137,1.261c0.674,0.483,2.706,0.891,5.348,0.731c2.88-0.174,5.297-0.958,6.672-2.159
					c-0.005-0.194-0.02-0.39-0.045-0.581C271.244,466.914,268.65,464.68,265.591,464.68z M263.432,471.195
					c-1.02,0-1.85-0.83-1.85-1.85c0-1.021,0.83-1.851,1.85-1.851c1.02,0,1.85,0.83,1.85,1.851
					C265.282,470.365,264.452,471.195,263.432,471.195z M268.169,470.287c-0.75,0-1.36-0.61-1.36-1.36s0.61-1.36,1.36-1.36
					s1.36,0.61,1.36,1.36S268.919,470.287,268.169,470.287z"/>
			</g>
			<path id="XMLID_336_" style="fill:#FFFFFF;" d="M281.595,466.547c-0.295-0.116-0.806-0.31-1.383-0.238
				c-0.551,0.069-0.844,0.341-0.844,1.007v0.866h2.229v1.717h-2.229v5.455h-1.932v-5.455h-1.339v-1.717h1.339v-0.889
				c0-1.68,0.896-2.782,2.568-2.782c0.643,0,1.157,0.121,1.59,0.308V466.547z"/>
			<path id="XMLID_334_" style="fill:#FFFFFF;" d="M286.297,469.878c-0.177-0.029-0.357-0.046-0.525-0.046
				c-0.896,0-1.51,0.548-1.51,1.613v3.908h-1.933v-7.172h1.873v0.784c0.451-0.673,1.14-0.977,2.021-0.977
				c0.414,0,0.848,0.128,1.095,0.337L286.297,469.878z"/>
			<path id="XMLID_331_" style="fill:#FFFFFF;" d="M293.965,471.757c0,0.222-0.016,0.488-0.037,0.651h-5.085
				c0.207,1.036,0.933,1.487,1.843,1.487c0.622,0,1.295-0.252,1.813-0.689l1.133,1.243c-0.814,0.748-1.851,1.089-3.057,1.089
				c-2.198,0-3.724-1.496-3.724-3.753c0-2.258,1.48-3.797,3.627-3.797C292.543,467.99,293.958,469.522,293.965,471.757z
				 M288.851,471.091h3.175c-0.178-0.918-0.732-1.437-1.561-1.437C289.554,469.655,289.021,470.203,288.851,471.091z"/>
			<path id="XMLID_328_" style="fill:#FFFFFF;" d="M301.619,471.757c0,0.222-0.016,0.488-0.037,0.651h-5.085
				c0.207,1.036,0.933,1.487,1.843,1.487c0.622,0,1.296-0.252,1.814-0.689l1.133,1.243c-0.815,0.748-1.851,1.089-3.058,1.089
				c-2.198,0-3.723-1.496-3.723-3.753c0-2.258,1.48-3.797,3.627-3.797C300.197,467.99,301.611,469.522,301.619,471.757z
				 M296.504,471.091h3.175c-0.178-0.918-0.733-1.437-1.561-1.437C297.208,469.655,296.674,470.203,296.504,471.091z"/>
			<path id="XMLID_325_" style="fill:#FFFFFF;" d="M309.964,471.764c0,2.154-1.495,3.775-3.472,3.775
				c-0.962,0-1.644-0.378-2.109-0.933v3.708h-1.925v-10.133h1.888v0.792c0.467-0.585,1.154-0.984,2.139-0.984
				C308.469,467.99,309.964,469.611,309.964,471.764z M304.287,471.764c0,1.133,0.748,1.977,1.844,1.977
				c1.14,0,1.85-0.881,1.85-1.977c0-1.095-0.71-1.976-1.85-1.976C305.035,469.789,304.287,470.632,304.287,471.764z"/>
			<path id="XMLID_322_" style="fill:#FFFFFF;" d="M313.068,465.836c0,0.696-0.541,1.229-1.236,1.229
				c-0.696,0-1.229-0.533-1.229-1.229c0-0.695,0.532-1.243,1.229-1.243C312.527,464.592,313.068,465.14,313.068,465.836z
				 M312.808,475.354h-1.932v-7.172h1.932V475.354z"/>
			<path id="XMLID_320_" style="fill:#FFFFFF;" d="M316.032,470.736l2.702-2.554h2.368l-3.478,3.375l3.501,3.797h-2.376
				l-2.717-2.901v2.901H314.1v-10.658h1.932V470.736z"/>
		</g>
		<g>
			<path style="fill:#FFFFFF;" d="M184.412,475.29v-1.055c-0.527,0.718-1.391,1.23-2.387,1.23c-1.846,0-3.149-1.406-3.149-3.706
				c0-2.256,1.289-3.721,3.149-3.721c0.952,0,1.816,0.469,2.387,1.245v-3.765h1.099v9.771H184.412z M184.412,473.371v-3.208
				c-0.395-0.615-1.245-1.143-2.124-1.143c-1.42,0-2.27,1.172-2.27,2.739c0,1.567,0.85,2.725,2.27,2.725
				C183.167,474.484,184.017,473.986,184.412,473.371z"/>
			<path style="fill:#FFFFFF;" d="M186.932,471.745c0-2.051,1.465-3.706,3.486-3.706c2.139,0,3.398,1.67,3.398,3.794v0.278h-5.727
				c0.088,1.333,1.025,2.446,2.549,2.446c0.806,0,1.626-0.322,2.182-0.894l0.527,0.718c-0.703,0.703-1.655,1.084-2.812,1.084
				C188.44,475.465,186.932,473.957,186.932,471.745z M190.403,468.947c-1.509,0-2.256,1.274-2.314,2.358h4.644
				C192.718,470.25,192.015,468.947,190.403,468.947z"/>
			<path style="fill:#FFFFFF;" d="M194.607,474.352l0.571-0.791c0.469,0.542,1.362,1.011,2.329,1.011c1.084,0,1.67-0.513,1.67-1.216
				c0-1.714-4.38-0.659-4.38-3.281c0-1.099,0.952-2.036,2.636-2.036c1.202,0,2.051,0.454,2.623,1.025l-0.513,0.762
				c-0.424-0.513-1.201-0.894-2.109-0.894c-0.966,0-1.567,0.483-1.567,1.113c0,1.553,4.379,0.527,4.379,3.281
				c0,1.187-0.952,2.139-2.783,2.139C196.306,475.465,195.325,475.114,194.607,474.352z"/>
			<path style="fill:#FFFFFF;" d="M201.477,466.471c0-0.41,0.337-0.747,0.732-0.747c0.41,0,0.747,0.337,0.747,0.747
				c0,0.41-0.337,0.732-0.747,0.732C201.814,467.204,201.477,466.881,201.477,466.471z M201.667,475.29v-7.075h1.099v7.075H201.667z
				"/>
			<path style="fill:#FFFFFF;" d="M204.582,477.106l0.556-0.82c0.586,0.703,1.289,0.967,2.3,0.967c1.172,0,2.27-0.571,2.27-2.124
				v-1.011c-0.513,0.718-1.377,1.26-2.373,1.26c-1.846,0-3.149-1.377-3.149-3.662c0-2.271,1.289-3.677,3.149-3.677
				c0.952,0,1.802,0.469,2.373,1.245v-1.069h1.099v6.87c0,2.344-1.641,3.076-3.369,3.076
				C206.237,478.161,205.416,477.925,204.582,477.106z M209.708,473.253v-3.091c-0.381-0.615-1.23-1.143-2.109-1.143
				c-1.421,0-2.27,1.128-2.27,2.695c0,1.553,0.849,2.695,2.27,2.695C208.478,474.411,209.328,473.869,209.708,473.253z"/>
			<path style="fill:#FFFFFF;" d="M217.413,475.29v-4.629c0-1.245-0.63-1.641-1.582-1.641c-0.864,0-1.685,0.527-2.094,1.099v5.171
				h-1.099v-7.075h1.099v1.025c0.497-0.586,1.464-1.201,2.519-1.201c1.48,0,2.256,0.747,2.256,2.285v4.966H217.413z"/>
			<path style="fill:#FFFFFF;" d="M219.932,471.745c0-2.051,1.465-3.706,3.486-3.706c2.139,0,3.398,1.67,3.398,3.794v0.278h-5.727
				c0.088,1.333,1.025,2.446,2.548,2.446c0.806,0,1.626-0.322,2.183-0.894l0.527,0.718c-0.703,0.703-1.655,1.084-2.813,1.084
				C221.441,475.465,219.932,473.957,219.932,471.745z M223.404,468.947c-1.509,0-2.256,1.274-2.314,2.358h4.643
				C225.718,470.25,225.015,468.947,223.404,468.947z"/>
			<path style="fill:#FFFFFF;" d="M233.35,475.29v-1.055c-0.527,0.718-1.392,1.23-2.388,1.23c-1.845,0-3.149-1.406-3.149-3.706
				c0-2.256,1.289-3.721,3.149-3.721c0.952,0,1.817,0.469,2.388,1.245v-3.765h1.098v9.771H233.35z M233.35,473.371v-3.208
				c-0.396-0.615-1.245-1.143-2.124-1.143c-1.421,0-2.27,1.172-2.27,2.739c0,1.567,0.85,2.725,2.27,2.725
				C232.105,474.484,232.954,473.986,233.35,473.371z"/>
			<path style="fill:#FFFFFF;" d="M239.692,475.29v-9.771h1.099v3.765c0.571-0.776,1.421-1.245,2.388-1.245
				c1.845,0,3.149,1.465,3.149,3.721c0,2.3-1.304,3.706-3.149,3.706c-0.996,0-1.86-0.513-2.388-1.23v1.055H239.692z M242.9,474.484
				c1.436,0,2.285-1.157,2.285-2.725c0-1.567-0.85-2.739-2.285-2.739c-0.864,0-1.729,0.527-2.109,1.143v3.208
				C241.171,473.986,242.036,474.484,242.9,474.484z"/>
			<path style="fill:#FFFFFF;" d="M247.528,477.062c0.161,0.073,0.425,0.117,0.6,0.117c0.483,0,0.806-0.161,1.055-0.747l0.469-1.069
				l-2.959-7.148h1.187l2.358,5.801l2.344-5.801h1.2l-3.544,8.511c-0.425,1.024-1.143,1.421-2.08,1.436
				c-0.234,0-0.6-0.044-0.806-0.104L247.528,477.062z"/>
		</g>
	</g>
</g>
</svg>
