<svg version="1.1" xmlns="http://www.w3.org/2000/svg" xmlns:xlink="http://www.w3.org/1999/xlink" x="0px" y="0px"
	 viewBox="0 0 500 500" style="enable-background:new 0 0 500 500;" xml:space="preserve">
<g id="BACKGROUND">
	<rect style="fill:#376BAA;" width="500" height="500"/>
</g>
<g id="OBJECTS">
	<g style="opacity:0.2;">
		<path style="fill:#376BAA;" d="M467.802,210.051c-4.8-32.538-21.192-64.169-48.164-82.992
			c-43.097-30.077-101.723-22.338-151.319-39.724c-24.509-8.592-46.721-23.338-71.861-29.855
			c-36.554-9.476-76.772-0.036-107.504,21.907c-30.732,21.943-46.353,94.424-50.035,133c-5.548,57.884,7.153,118.849,42.577,164.962
			s95.212,74.832,152.64,65.702c30.433-4.838,48.804-19.591,82.847-33.578c34.043-13.987,60.476-7.969,84.062-23.3
			c27.415-17.82,44.123-48.25,54.862-79.133C466.711,275.974,472.603,242.59,467.802,210.051z"/>
	</g>
	<g>
		
			<rect x="72.884" y="284.93" transform="matrix(0.928 -0.3727 0.3727 0.928 -108.8226 56.9763)" style="fill:#B4EFF9;" width="40.176" height="50.11"/>
		<path style="fill:#B4EFF9;" d="M115.189,467.187l68.219-27.396c6.163-2.475,9.103-9.844,6.474-16.227l-42.544-102.876
			c-2.504-6.033-9.28-8.876-15.346-6.44l-63.624,25.551c-6.097,2.449-9.155,9.297-6.908,15.471l38.198,104.621
			C102.021,466.346,109.056,469.65,115.189,467.187z"/>
		<g>
			<path style="fill:#73B2E5;" d="M93.391,268.811l-29.2,11.726c-4.091,1.643-6.075,6.291-4.432,10.381l6.362,15.843l6.362,15.843
				l1.558,3.88c0.782,1.948,2.995,2.893,4.943,2.11l3.88-1.558l29.2-11.726l3.88-1.558c1.948-0.782,2.892-2.995,2.11-4.943
				l-1.558-3.88l-6.362-15.843l-6.362-15.843C102.13,269.153,97.482,267.168,93.391,268.811z"/>
			<g style="opacity:0.3;">
				
					<rect x="84.289" y="274.149" transform="matrix(0.928 -0.3727 0.3727 0.928 -105.3815 53.2061)" style="fill:#73B2E5;" width="1.308" height="50.11"/>
				
					<rect x="74.314" y="278.154" transform="matrix(0.928 -0.3727 0.3727 0.928 -107.5999 49.7828)" style="fill:#73B2E5;" width="1.308" height="50.11"/>
				
					<rect x="79.301" y="276.152" transform="matrix(0.928 -0.3727 0.3727 0.928 -106.4942 51.4972)" style="fill:#73B2E5;" width="1.308" height="50.11"/>
				<path style="fill:#73B2E5;" d="M113.623,314.685l1.214-0.487l-18.454-45.953c-0.453-0.001-0.909,0.032-1.365,0.111
					L113.623,314.685z"/>
				
					<rect x="99.252" y="268.14" transform="matrix(0.928 -0.3727 0.3727 0.928 -102.0711 58.3552)" style="fill:#73B2E5;" width="1.308" height="50.11"/>
				
					<rect x="89.276" y="272.146" transform="matrix(0.928 -0.3727 0.3727 0.928 -104.2759 54.9204)" style="fill:#73B2E5;" width="1.308" height="50.11"/>
				<path style="fill:#73B2E5;" d="M78.7,328.678c0.095-0.03,0.192-0.045,0.285-0.082l0.939-0.377l-18.428-45.887
					c-0.352,0.356-0.671,0.739-0.948,1.15L78.7,328.678z"/>
				
					<rect x="94.265" y="270.143" transform="matrix(0.928 -0.3727 0.3727 0.928 -103.1768 56.6408)" style="fill:#73B2E5;" width="1.308" height="50.11"/>
			</g>
		</g>
		<g>
			<path style="fill:#FFFFFF;" d="M172.895,401.289L97.467,431.58c-2.407,0.967-5.137-0.243-6.037-2.676l-16.98-45.882
				c-0.866-2.34,0.288-4.944,2.603-5.873l73.131-29.368c2.322-0.933,4.964,0.159,5.95,2.459l19.278,44.959
				C176.431,397.575,175.295,400.325,172.895,401.289z"/>
			<g>
				<g>
					<path style="fill:#B4EFF9;" d="M153.412,373.194c-1.389-0.925-14.246-0.357-21.238,10.135
						c-6.992,10.493-2.824,22.406-1.178,23.503c1.646,1.097,14.245,0.357,21.238-10.135
						C159.226,386.204,154.801,374.119,153.412,373.194z"/>
					<path style="opacity:0.4;fill:#B4EFF9;" d="M149.909,398.139c0.137,0.012,0.256-0.087,0.271-0.224
						c0.013-0.138-0.09-0.257-0.223-0.269l-11.79-1.128l4.158-6.239l11.328,1.558c0.135,0.018,0.259-0.076,0.278-0.212
						c0.019-0.134-0.079-0.261-0.212-0.278l-11.09-1.525l4.145-6.22l7.886,0.882c0.137,0.014,0.258-0.083,0.274-0.219
						c0.016-0.138-0.085-0.257-0.217-0.273l-7.633-0.853l3.638-5.459l3.804,0.935c0.133,0.033,0.266-0.048,0.3-0.181
						c0.032-0.132-0.044-0.273-0.182-0.298l-3.631-0.892l1.579-2.369c0.076-0.114,0.045-0.267-0.069-0.343
						c-0.113-0.076-0.267-0.046-0.343,0.069l-1.579,2.369l-2.221-3.008c-0.079-0.117-0.235-0.133-0.345-0.053
						c-0.11,0.082-0.133,0.236-0.052,0.346l2.327,3.151l-3.638,5.459l-3.726-6.716c-0.066-0.116-0.216-0.165-0.335-0.096
						c-0.12,0.066-0.163,0.216-0.097,0.337l3.849,6.939l-4.145,6.22l-5.677-9.648c-0.069-0.12-0.221-0.158-0.338-0.088
						c-0.118,0.07-0.157,0.22-0.088,0.338l5.799,9.856l-4.158,6.239l-5.58-10.447c-0.065-0.12-0.212-0.167-0.335-0.102
						c-0.12,0.066-0.166,0.214-0.102,0.336l5.705,10.681l-4.022,6.036l-4.044-8.39c-0.06-0.124-0.205-0.178-0.329-0.115
						c-0.123,0.06-0.175,0.206-0.115,0.33l4.17,8.653l-1.799,2.699c-0.076,0.114-0.045,0.267,0.069,0.343s0.267,0.046,0.343-0.069
						l1.799-2.699l9.592,0.518c0.137,0.007,0.252-0.096,0.26-0.233c0.01-0.14-0.1-0.254-0.233-0.26l-9.3-0.502l4.022-6.036
						L149.909,398.139z"/>
				</g>
				<g>
					<path style="fill:#B4EFF9;" d="M90.761,398.354c0.363-1.629,10.042-10.111,22.349-7.369
						c12.307,2.742,17.537,14.229,17.107,16.16c-0.43,1.931-10.042,10.111-22.349,7.369
						C95.56,411.772,90.398,399.983,90.761,398.354z"/>
					<path style="opacity:0.4;fill:#B4EFF9;" d="M110.545,413.948c-0.09,0.103-0.245,0.115-0.35,0.026
						c-0.104-0.091-0.113-0.248-0.025-0.349l7.735-8.969l-7.318-1.631l-7.104,8.961c-0.085,0.107-0.24,0.125-0.347,0.039
						c-0.106-0.084-0.124-0.243-0.039-0.347l6.955-8.772l-7.296-1.625l-5.085,6.091c-0.089,0.105-0.244,0.119-0.349,0.031
						c-0.107-0.089-0.116-0.244-0.031-0.347l4.923-5.896l-6.403-1.427l-2.101,3.307c-0.073,0.115-0.225,0.15-0.341,0.076
						c-0.114-0.073-0.157-0.228-0.074-0.341l2.005-3.156l-2.779-0.619c-0.134-0.03-0.217-0.162-0.188-0.295
						c0.03-0.133,0.161-0.217,0.295-0.188l2.779,0.619l-0.476-3.709c-0.024-0.139,0.077-0.259,0.212-0.277
						c0.136-0.017,0.259,0.079,0.277,0.214l0.499,3.886l6.403,1.427l-1.954-7.428c-0.032-0.13,0.042-0.269,0.176-0.301
						c0.132-0.035,0.267,0.044,0.303,0.176l2.019,7.674l7.296,1.625l-2.573-10.895c-0.033-0.134,0.05-0.267,0.183-0.298
						c0.134-0.032,0.266,0.05,0.298,0.183l2.628,11.129l7.318,1.63l-3.195-11.405c-0.036-0.132,0.038-0.268,0.171-0.305
						c0.133-0.036,0.268,0.04,0.306,0.172l3.267,11.66l7.079,1.577l-2.883-8.857c-0.042-0.131,0.025-0.27,0.158-0.311
						c0.13-0.042,0.269,0.028,0.311,0.158l2.973,9.134l3.166,0.705c0.134,0.03,0.217,0.162,0.188,0.295
						c-0.03,0.133-0.161,0.217-0.295,0.188l-3.166-0.705l-6.569,7.008c-0.093,0.1-0.249,0.105-0.349,0.011
						c-0.104-0.094-0.104-0.253-0.011-0.349l6.37-6.795l-7.079-1.577L110.545,413.948z"/>
				</g>
				<g>
					<g>
						<path style="fill:#B4EFF9;" d="M129.802,407.854c-3.309-0.001-14.389-3.689-18.923-14.978
							c-2.614-6.508-1.739-12.527-0.544-16.431c1.292-4.221,3.495-7.592,4.742-8.092c0.242-0.098,0.542-0.145,0.917-0.145
							c2.882,0,14.508,3.581,19.074,14.953c4.838,12.048-1.777,23.551-4.197,24.522
							C130.589,407.798,130.239,407.854,129.802,407.854C129.802,407.854,129.802,407.854,129.802,407.854z"/>
						<path style="fill:#FFFFFF;" d="M115.994,369.19c2.893,0,13.832,3.549,18.164,14.338c4.699,11.701-1.817,22.51-3.652,23.247
							c-0.16,0.064-0.398,0.098-0.704,0.098c-3.199,0-13.723-3.681-18.012-14.362c-4.699-11.701,2.104-22.625,3.653-23.247
							C115.562,369.215,115.749,369.19,115.994,369.19 M115.994,367.228c-0.503,0-0.923,0.07-1.283,0.215
							c-1.96,0.787-4.201,5.078-5.314,8.716c-1.241,4.054-2.148,10.309,0.572,17.083c4.72,11.754,16.355,15.593,19.833,15.593
							c0.565,0,1.035-0.078,1.435-0.239c2.093-0.841,4.314-5.049,5.425-8.771c1.197-4.01,2.051-10.219-0.684-17.027
							C131.266,371.061,119.513,367.228,115.994,367.228L115.994,367.228z"/>
					</g>
					<path style="opacity:0.4;fill:#B4EFF9;" d="M134.033,386.261c0.088-0.106,0.073-0.26-0.031-0.35
						c-0.106-0.088-0.263-0.071-0.348,0.032l-7.599,9.085l-2.794-6.958l7.692-8.461c0.092-0.101,0.084-0.257-0.017-0.349
						c-0.1-0.091-0.26-0.083-0.349,0.017l-7.53,8.284l-2.785-6.936l5.187-6.005c0.089-0.104,0.078-0.26-0.026-0.35
						c-0.105-0.091-0.26-0.075-0.348,0.025l-5.021,5.812l-2.445-6.087l2.923-2.609c0.102-0.091,0.111-0.247,0.02-0.349
						c-0.09-0.101-0.25-0.118-0.349-0.018l-2.789,2.49l-1.061-2.642c-0.051-0.127-0.195-0.188-0.322-0.137
						c-0.126,0.051-0.188,0.194-0.137,0.322l1.061,2.642l-3.737,0.131c-0.141-0.002-0.243,0.118-0.239,0.254
						c0.005,0.137,0.12,0.243,0.256,0.238l3.915-0.137l2.445,6.087l-7.646-0.725c-0.133-0.011-0.258,0.085-0.269,0.222
						c-0.013,0.136,0.086,0.257,0.223,0.271l7.899,0.749l2.785,6.936l-11.168-0.775c-0.138-0.011-0.255,0.092-0.264,0.229
						c-0.009,0.137,0.093,0.254,0.229,0.264l11.408,0.791l2.794,6.958l-11.772-1.306c-0.136-0.014-0.258,0.081-0.273,0.218
						c-0.014,0.137,0.083,0.258,0.219,0.274l12.035,1.336l2.703,6.73l-9.206-1.41c-0.136-0.02-0.263,0.068-0.281,0.207
						c-0.021,0.135,0.071,0.261,0.207,0.281l9.495,1.455l1.209,3.01c0.051,0.127,0.195,0.188,0.322,0.137
						c0.126-0.051,0.188-0.194,0.137-0.322l-1.209-3.01l5.852-7.617c0.083-0.108,0.063-0.263-0.045-0.346
						c-0.11-0.087-0.266-0.062-0.346,0.045l-5.674,7.386l-2.703-6.73L134.033,386.261z"/>
				</g>
			</g>
		</g>
		<path style="opacity:0.4;fill:#B4EFF9;" d="M139.469,436.734c-22.214,8.23-37.386,6.798-47.096,3.208l7.283,19.949
			c2.364,6.454,9.4,9.759,15.532,7.296l68.219-27.396c6.163-2.475,9.103-9.844,6.474-16.227l-7.98-19.296
			C178.636,412.395,168.837,425.854,139.469,436.734z"/>
		<g style="opacity:0.3;">
			<path style="fill:#FFFFFF;" d="M105.244,440.349c-1.877,0.754-3.922,0.108-4.588-1.46C90.139,414.1,65.92,355.681,68.164,348.581
				c2.741-8.685,16.575-11.945,18.144-12.289c1.993-0.436,3.815,0.602,4.071,2.319c0.254,1.716-1.147,3.449-3.142,3.895
				c-2.745,0.606-10.86,3.22-12.08,7.078c-0.567,5.172,16.235,48.449,32.355,86.441c0.672,1.585-0.317,3.511-2.21,4.301
				C105.282,440.333,105.263,440.341,105.244,440.349z"/>
		</g>
	</g>
	<g>
		<path style="fill:#FFFFFF;" d="M374.441,244.652l0.986,2.778c0.139,0.391,0.446,0.698,0.837,0.837l2.778,0.986
			c1.221,0.434,1.221,2.161,0,2.595l-2.778,0.986c-0.391,0.139-0.698,0.446-0.837,0.837l-0.986,2.778
			c-0.434,1.221-2.161,1.221-2.595,0l-0.986-2.778c-0.139-0.391-0.446-0.698-0.837-0.837l-2.778-0.986
			c-1.221-0.434-1.221-2.161,0-2.595l2.778-0.986c0.391-0.139,0.698-0.446,0.837-0.837l0.986-2.778
			C372.28,243.431,374.007,243.431,374.441,244.652z"/>
		<path style="fill:#FFFFFF;" d="M99.056,217.734l0.986,2.778c0.139,0.391,0.446,0.698,0.837,0.837l2.778,0.987
			c1.222,0.434,1.222,2.161,0,2.595l-2.778,0.986c-0.391,0.139-0.698,0.446-0.837,0.837l-0.986,2.778
			c-0.434,1.221-2.161,1.221-2.595,0l-0.987-2.778c-0.139-0.391-0.446-0.698-0.837-0.837l-2.778-0.986
			c-1.221-0.434-1.221-2.161,0-2.595l2.778-0.987c0.391-0.139,0.698-0.446,0.837-0.837l0.987-2.778
			C96.894,216.513,98.622,216.513,99.056,217.734z"/>
		<path style="fill:#FFFFFF;" d="M115.912,91.873l0.986,2.778c0.139,0.391,0.446,0.698,0.837,0.837l2.778,0.987
			c1.221,0.434,1.221,2.161,0,2.595l-2.778,0.986c-0.391,0.139-0.698,0.446-0.837,0.837l-0.986,2.778
			c-0.434,1.221-2.161,1.221-2.595,0l-0.986-2.778c-0.139-0.391-0.446-0.698-0.837-0.837l-2.778-0.986
			c-1.221-0.434-1.221-2.161,0-2.595l2.778-0.987c0.391-0.139,0.698-0.446,0.837-0.837l0.986-2.778
			C113.751,90.651,115.478,90.651,115.912,91.873z"/>
		<path style="fill:#FFFFFF;" d="M353.499,442.37l0.986,2.778c0.139,0.391,0.446,0.698,0.837,0.837l2.778,0.986
			c1.222,0.434,1.222,2.161,0,2.595l-2.778,0.986c-0.391,0.139-0.698,0.446-0.837,0.837l-0.986,2.778
			c-0.434,1.221-2.161,1.221-2.595,0l-0.986-2.778c-0.139-0.391-0.446-0.698-0.837-0.837l-2.778-0.986
			c-1.222-0.434-1.222-2.161,0-2.595l2.778-0.986c0.391-0.139,0.698-0.446,0.837-0.837l0.986-2.778
			C351.338,441.148,353.065,441.148,353.499,442.37z"/>
		<path style="fill:#FFFFFF;" d="M436.973,276.467l1.645,4.633c0.078,0.221,0.252,0.395,0.473,0.473l4.632,1.645
			c0.691,0.245,0.691,1.223,0,1.468l-4.632,1.645c-0.221,0.078-0.395,0.252-0.473,0.473l-1.645,4.632
			c-0.245,0.691-1.223,0.691-1.468,0l-1.645-4.632c-0.078-0.221-0.252-0.395-0.473-0.473l-4.632-1.645
			c-0.691-0.245-0.691-1.223,0-1.468l4.632-1.645c0.221-0.078,0.395-0.252,0.473-0.473l1.645-4.633
			C435.75,275.776,436.728,275.776,436.973,276.467z"/>
		<path style="fill:#FFFFFF;" d="M321.571,87.074l1.645,4.632c0.078,0.221,0.252,0.395,0.473,0.473l4.633,1.645
			c0.691,0.245,0.691,1.223,0,1.468l-4.633,1.645c-0.221,0.078-0.395,0.252-0.473,0.473l-1.645,4.632
			c-0.245,0.691-1.223,0.691-1.468,0l-1.645-4.632c-0.079-0.221-0.253-0.395-0.473-0.473l-4.633-1.645
			c-0.691-0.245-0.691-1.223,0-1.468l4.633-1.645c0.221-0.078,0.395-0.252,0.473-0.473l1.645-4.632
			C320.349,86.383,321.326,86.383,321.571,87.074z"/>
		<path style="fill:#FFFFFF;" d="M217.598,398.047l1.645,4.633c0.079,0.221,0.252,0.395,0.473,0.473l4.633,1.645
			c0.691,0.245,0.691,1.223,0,1.468l-4.633,1.645c-0.221,0.078-0.395,0.252-0.473,0.473l-1.645,4.633
			c-0.245,0.691-1.223,0.691-1.468,0l-1.645-4.633c-0.079-0.221-0.252-0.395-0.473-0.473l-4.633-1.645
			c-0.691-0.245-0.691-1.223,0-1.468l4.633-1.645c0.221-0.078,0.395-0.252,0.473-0.473l1.645-4.633
			C216.375,397.356,217.353,397.356,217.598,398.047z"/>
	</g>
	<g>
		<g>
			<path style="fill:#B4EFF9;" d="M405.153,96.837l0.145-0.494c0.293-1.003,1.281-1.636,2.315-1.483l25.593,3.78
				c1.168,0.172,1.962,1.275,1.755,2.437l0,0c-0.197,1.108,0.518,2.174,1.618,2.412l12.561,2.721
				c4.54,0.983,7.483,5.388,6.654,9.959l-2.4,13.229c-0.744,4.098-4.313,7.078-8.478,7.078h-4.64c-0.462,0-0.923-0.037-1.378-0.111
				l-54.534-8.837c-0.626-0.101-1.238-0.271-1.827-0.507l-3.991-1.599c-3.806-1.525-6.01-5.521-5.27-9.554l2.402-13.077
				c0.836-4.551,5.117-7.629,9.697-6.972l17.471,2.505C403.877,98.469,404.86,97.837,405.153,96.837z"/>
			<path style="opacity:0.3;fill:#B4EFF9;" d="M405.153,96.837l0.145-0.494c0.293-1.003,1.281-1.636,2.315-1.483l25.593,3.78
				c1.168,0.172,1.962,1.275,1.755,2.437l0,0c-0.197,1.108,0.518,2.174,1.618,2.412l12.561,2.721
				c4.54,0.983,7.483,5.388,6.654,9.959l-2.4,13.229c-0.744,4.098-4.313,7.078-8.478,7.078h-4.64c-0.462,0-0.923-0.037-1.378-0.111
				l-54.534-8.837c-0.626-0.101-1.238-0.271-1.827-0.507l-3.991-1.599c-3.806-1.525-6.01-5.521-5.27-9.554l2.402-13.077
				c0.836-4.551,5.117-7.629,9.697-6.972l17.471,2.505C403.877,98.469,404.86,97.837,405.153,96.837z"/>
			<path style="opacity:0.4;fill:none;stroke:#B4EFF9;stroke-width:1.2259;stroke-miterlimit:10;" d="M406.324,100.598l0.126-0.393
				c0.257-0.797,1.121-1.3,2.024-1.179l22.38,3.005c1.021,0.137,1.716,1.014,1.535,1.938l0,0c-0.172,0.881,0.453,1.729,1.415,1.918
				l10.984,2.163c3.97,0.782,6.544,4.284,5.818,7.918l-2.099,10.518c-0.65,3.258-3.771,5.627-7.413,5.627h-4.058
				c-0.404,0-0.807-0.029-1.205-0.088l-47.688-7.026c-0.547-0.081-1.083-0.216-1.597-0.403l-3.49-1.272
				c-3.328-1.213-5.256-4.39-4.608-7.596l2.1-10.397c0.731-3.618,4.474-6.065,8.48-5.544l15.278,1.991
				C405.208,101.896,406.068,101.393,406.324,100.598z"/>
		</g>
		<g>
			<g>
				<g>
					<path style="fill:#D2F3F9;" d="M437.616,134.209c-5.305-9.808-13.271-18.271-22.129-24.964
						c-4.493-3.395-9.339-6.38-14.524-8.597c-5.141-2.199-10.594-3.479-16.147-4.075c-11.755-1.261-23.831,0.753-34.554,5.724
						c-10.333,4.79-19.019,12.43-26.227,21.155c-7.326,8.867-13.295,18.753-19.207,28.587c-0.739,1.23-1.478,2.46-2.218,3.689
						c-0.497,0.825,0.797,1.578,1.288,0.753c5.797-9.726,11.486-19.564,18.368-28.579c6.71-8.789,14.692-16.758,24.388-22.212
						c10.197-5.737,21.996-8.5,33.676-8.076c5.601,0.203,11.265,1.093,16.583,2.894c5.136,1.739,9.961,4.348,14.451,7.368
						c9.218,6.199,17.459,14.31,23.514,23.643c0.672,1.036,1.313,2.092,1.921,3.168C437.1,135.217,437.906,134.744,437.616,134.209
						L437.616,134.209z"/>
				</g>
			</g>
			<g>
				<g>
					<path style="fill:#D2F3F9;" d="M302.616,155.732c-5.838,9.736-11.826,19.408-19.108,28.147
						c-6.313,7.577-13.399,14.505-21.098,20.667c-7.731,6.187-16.096,11.589-24.905,16.11c-8.853,4.544-18.163,8.175-27.761,10.805
						c-11.189,3.066-22.703,4.908-33.731,8.568c-1.338,0.444-2.667,0.917-3.985,1.418c-0.889,0.338-0.504,1.781,0.397,1.439
						c10.974-4.169,22.594-6.134,33.94-8.989c9.903-2.492,19.528-5.923,28.725-10.369c8.974-4.338,17.506-9.586,25.433-15.627
						c7.951-6.06,15.303-12.896,21.877-20.429c7.301-8.367,13.396-17.616,19.143-27.096c0.786-1.297,1.568-2.597,2.347-3.898
						C304.381,155.66,303.105,154.917,302.616,155.732L302.616,155.732z"/>
				</g>
			</g>
			<g>
				<path style="fill:#B4EFF9;" d="M376.909,123.543l68.978,11.331c2.965,0.487,4.865,3.424,4.094,6.328l-19.907,74.954
					c-0.67,2.524-3.143,4.131-5.722,3.719l-58.211-9.306c-2.696-0.431-4.572-2.913-4.25-5.625l9.14-76.979
					C371.373,125.085,374.048,123.073,376.909,123.543z"/>
				<path style="fill:#87C6DD;" d="M436.329,147.547l-53.745-9.463c-2.191-0.389-4.274,0.941-4.583,2.922l-9.08,52.865
					c-0.349,1.859,1.21,3.631,3.537,4.016l50.876,8.364c2.283,0.373,4.372-0.664,4.829-2.402l11.83-51.777
					C440.383,150.057,438.679,147.958,436.329,147.547z"/>
				<path style="fill:#FFFFFF;" d="M417.142,160.658c-4.553-4.673-10.267,0.371-12.62,0.091c-2.352-0.28-6.723-6.524-12.246-3.051
					c-5.523,3.473-1.49,30.742,2.898,31.264c4.388,0.522,4.745-10.41,7.193-10.119c2.449,0.292,0.181,10.997,4.569,11.519
					C411.324,190.885,421.695,165.331,417.142,160.658z"/>
				<path style="opacity:0.3;fill:#B4EFF9;" d="M366.141,210.568l58.211,9.306c2.579,0.412,5.051-1.195,5.722-3.719l7.486-28.187
					c-12.191,12.231-34.366,20.68-74.446,6.678l-1.223,10.297C361.569,207.655,363.444,210.137,366.141,210.568z"/>
			</g>
		</g>
		<g>
			<path style="fill:#FFFFFF;" d="M316.699,153.204c-29.175-22.442-49.373,4.488-68.262,4.488c-18.889,0-39.087-26.931-68.262-4.489
				c-29.175,22.443-4.488,72.564,0,100.242c4.489,27.679,5.495,109.219,34.701,109.219c29.206,0,7.191-87.525,33.561-87.525
				s6.559,87.525,35.765,87.525c29.206,0,28.008-81.54,32.497-109.219C321.188,225.767,345.874,175.646,316.699,153.204z"/>
			<g style="opacity:0.35;">
				<path style="fill:#B4EFF9;" d="M314.719,271.657c-12.925,16.188-33.009,28.465-50.703,34.384
					c2.784,25.192,2.684,56.625,20.187,56.625C308.423,362.665,311.734,306.588,314.719,271.657z"/>
				<path style="fill:#B4EFF9;" d="M268.658,151.272L268.658,151.272c0,0-0.009-0.006-0.01-0.007
					c-7.097,3.258-13.731,6.427-20.211,6.427c-6.893,0-13.961-3.586-21.575-7.051c-0.002,0.008-0.005,0.016-0.007,0.024
					c2.151,6.561,8.07,16.295,21.565,16.632C266.577,167.751,268.658,151.272,268.658,151.272z"/>
				<path style="fill:#B4EFF9;" d="M182.665,275.043c3.49,35.047,8.758,87.622,32.212,87.622c17.169,0,16.638-30.245,18.641-55.177
					C215.545,302.654,195.847,291.014,182.665,275.043z"/>
			</g>
		</g>
		<g>
			<g>
				<path style="fill:#D2F3F9;" d="M172.027,241.439c-10.316,3.967-20.71,10.129-25.646,20.489
					c-2.131,4.473-2.93,9.528-1.589,14.357c1.211,4.36,4.002,8.057,7.515,10.846c7.895,6.267,18.242,8.512,27.926,10.311
					c11.817,2.195,23.807,3.301,35.798,3.986c24.177,1.382,48.529,0.989,72.545,4.476c11.789,1.712,23.468,4.392,34.618,8.629
					c10.677,4.057,21.112,9.598,29.074,17.937c7.721,8.085,12.889,19.165,12.095,30.512c-0.698,9.968-6.77,19.517-15.951,23.728
					c-2.211,1.014-4.622,1.686-7.043,1.928c-0.912,0.091-0.921,1.53,0,1.438c9.725-0.973,17.908-7.857,21.861-16.624
					c4.408-9.775,2.994-21.06-1.705-30.457c-5.023-10.044-13.711-17.647-23.355-23.133c-10.159-5.779-21.45-9.607-32.79-12.291
					c-23.471-5.555-47.746-5.974-71.732-6.837c-12.115-0.436-24.239-0.967-36.295-2.29c-6.115-0.671-12.209-1.55-18.249-2.726
					c-5.206-1.013-10.417-2.16-15.389-4.037c-8.7-3.284-17.765-9.568-18.089-19.794c-0.351-11.082,9.066-20.077,18.056-24.989
					c2.818-1.54,5.75-2.852,8.747-4.004C173.325,242.548,172.935,241.09,172.027,241.439L172.027,241.439z"/>
			</g>
		</g>
	</g>
	<g>
		<g>
			<g>
				<path style="fill:#FFFFFF;" d="M200.933,91.412l8.914,17.496c1.534,3.011,0.372,6.695-2.611,8.281l-24.722,13.143
					c-3.504,1.863-7.854,0.407-9.53-3.19l-8.288-17.78L200.933,91.412z"/>
				
					<line style="fill:none;stroke:#73B2E5;stroke-width:1.2009;stroke-linecap:round;stroke-linejoin:round;stroke-miterlimit:10;" x1="178.885" y1="125.912" x2="169.988" y2="106.677"/>
				
					<line style="fill:none;stroke:#73B2E5;stroke-width:1.2009;stroke-linecap:round;stroke-linejoin:round;stroke-miterlimit:10;" x1="188.788" y1="120.95" x2="179.772" y2="101.895"/>
				
					<line style="fill:none;stroke:#73B2E5;stroke-width:1.2009;stroke-linecap:round;stroke-linejoin:round;stroke-miterlimit:10;" x1="198.027" y1="116.531" x2="189.071" y2="97.288"/>
				
					<line style="fill:none;stroke:#73B2E5;stroke-width:1.2009;stroke-linecap:round;stroke-linejoin:round;stroke-miterlimit:10;" x1="206.704" y1="113.106" x2="197.223" y2="93.218"/>
			</g>
			<g>
				<path style="fill:#73B2E5;" d="M24.118,210.704c6.502-6.749,13.315-12.863,20.363-18.87
					c7.063-5.956,14.449-11.543,22.107-16.787c1.901-1.329,3.852-2.593,5.813-3.843c1.939-1.282,3.942-2.474,5.943-3.671
					c1.999-1.225,3.994-2.35,6.004-3.472c2-1.138,4.032-2.221,6.051-3.327c8.09-4.388,16.37-8.5,24.651-12.411l6.153-2.922
					c1.996-0.975,4.036-1.951,5.773-2.958c0.871-0.499,1.65-1.01,2.225-1.457c0.437-0.396,0.741-0.669,1.307-1.538
					c1.059-1.566,2.182-3.559,3.297-5.518c2.266-3.966,4.58-8.085,7.416-12.046c0.724-0.987,1.429-1.978,2.234-2.939
					c0.755-0.977,1.612-1.919,2.475-2.856c1.776-1.847,3.704-3.662,6.121-5.141c1.257-0.83,2.203-1.276,3.261-1.851l3.095-1.585
					l6.171-3.065l12.352-5.979c4.113-1.99,8.269-3.885,12.411-5.808c4.144-1.919,8.291-3.823,12.471-5.677l0.016-0.007
					c1.819-0.807,3.949,0.013,4.756,1.833c0.775,1.748,0.038,3.787-1.633,4.66l-24.249,12.6l-12.104,6.285l-5.994,3.19l-2.949,1.617
					c-0.934,0.535-2.038,1.098-2.661,1.564c-2.966,1.882-5.664,5.144-8.082,8.585c-2.438,3.485-4.613,7.326-6.84,11.29
					c-1.137,2.005-2.223,4.008-3.702,6.23c-0.2,0.287-0.349,0.539-0.593,0.854l-0.749,0.939c-0.488,0.604-1.248,1.277-1.847,1.781
					c-1.227,0.953-2.378,1.66-3.487,2.292c-2.221,1.26-4.311,2.229-6.416,3.244l-6.223,2.905
					c-8.235,3.823-16.324,7.775-24.296,12.03c-3.967,2.122-7.982,4.299-11.846,6.51c-1.935,1.107-3.874,2.206-5.763,3.404
					c-1.908,1.163-3.808,2.34-5.67,3.588c-7.508,4.887-14.734,10.248-21.815,15.806c-7.035,5.578-13.952,11.501-20.416,17.584
					l-0.068,0.064c-1.449,1.363-3.729,1.294-5.092-0.155C22.768,214.268,22.799,212.078,24.118,210.704z"/>
			</g>
		</g>
		<g>
			<path style="fill:#D2F3F9;" d="M230.266,135.344c3.105-1.267,5.294-4.419,4.996-8.166c-0.256-3.22-2.553-6.082-5.647-7.011
				c-1.02-0.306-2.031-0.408-3.001-0.336c-0.826,0.061-1.497-0.581-1.408-1.405c0.139-1.291-0.18-2.759-1.498-4.547
				c-1.067-1.449-2.601-2.598-4.388-2.808c-2.034-0.239-3.934,0.465-5.312,1.748c-0.667,0.621-1.644,0.734-2.394,0.216
				c-2.103-1.453-4.684-2.277-7.547-2.1c-3.712,0.23-8.259,2.265-10.373,5.325c-0.696,1.009-1.086,2.949-1.729,3.076
				c-0.643,0.127-2.127-1.405-3.644-1.54c-2.699-0.241-5.082,1.751-5.323,4.45c-0.065,0.723,0.103,1.567-0.445,1.997
				c-0.548,0.43-1.9,0.138-3.066,0.392c-2.59,0.563-5.47,2.678-7.016,4.83c-1.939,2.698-2.419,5.334-2.113,7.763
				c0.124,0.988-0.363,1.909-1.199,2.451c-1.67,1.082-2.843,2.891-3.034,5.027c-0.165,1.842,0.441,3.565,1.544,4.875
				c0.63,0.748,0.789,1.754,0.379,2.642c-0.745,1.614-1.032,3.492-0.58,5.55c0.713,3.253,3.299,5.937,6.536,6.721
				c3.854,0.934,7.513-0.727,9.495-3.671c0.585-0.868,1.702-1.078,2.555-0.471c1.236,0.879,2.711,1.454,4.331,1.599
				c3.049,0.273,5.854-1.037,7.649-3.243c0.844-1.037,2.356-1.195,3.391-0.35c2.05,1.675,4.663,2.701,7.581,2.707
				c2.244,0.005,4.437-0.848,6.211-2.222c4.659-3.605,5.876-6.739,5.892-9.634c0.005-0.917,0.912-1.506,1.796-1.26
				c1.073,0.299,2.268,0.329,3.558-0.033c2.163-0.607,3.957-2.335,4.59-4.49c0.68-2.313,0.097-4.551-1.242-6.173
				C229.298,136.63,229.52,135.649,230.266,135.344z"/>
			<g style="opacity:0.7;">
				<path style="fill:#FFFFFF;" d="M181.998,129.339c-0.399-0.366-0.954-0.674-1.515-0.628c-2.245,0.186-4.387,0.989-5.995,2.611
					c-1.718,1.732-2.434,4.051-2.529,6.445c-0.024,0.601-0.007,1.2,0.045,1.799c0.032,0.366,0.091,0.738,0.114,1.11
					c-0.62,0.272-1.187,0.589-1.673,1.116c-0.582,0.631-1.054,1.432-1.214,2.284c-0.181,0.967-0.122,1.941,0.36,2.817
					c0.441,0.801,1.232,1.535,2.189,1.596c0.648,0.041,1.006-0.626,0.9-1.181c-0.021-0.108-0.07-0.204-0.113-0.305
					c0.05,0.117,0.039,0.106,0.001-0.006c-0.033-0.098-0.063-0.197-0.087-0.299c-0.053-0.228-0.138-0.444-0.192-0.673
					c-0.011-0.047-0.02-0.095-0.029-0.143c-0.003-0.03-0.005-0.06-0.007-0.09c-0.003-0.03-0.093-0.686-0.043-0.327
					c0.038,0.272,0.007,0.013,0.005-0.051c-0.002-0.057-0.003-0.113-0.003-0.169c0.001-0.042,0.003-0.084,0.005-0.126
					c0.018-0.083,0.034-0.165,0.058-0.247c0.013-0.045,0.028-0.09,0.044-0.135c0.043-0.081,0.103-0.189,0.112-0.204
					c0.024-0.04,0.05-0.08,0.076-0.119c0.042-0.046,0.123-0.141,0.154-0.172c0.023-0.023,0.167-0.13,0.239-0.199
					c0.014-0.009,0.028-0.018,0.042-0.027c0.065-0.039,0.134-0.069,0.201-0.103c0.625-0.223,1.266-0.356,1.755-0.871
					c0.627-0.661,0.841-1.525,0.839-2.414c-0.002-1.09-0.031-2.181,0.079-3.267c0.093-0.595,0.239-1.177,0.452-1.74
					c0.154-0.321,0.332-0.627,0.535-0.919c0.25-0.296,0.525-0.569,0.821-0.818c0.326-0.23,0.67-0.43,1.03-0.602
					c0.352-0.131,0.713-0.233,1.081-0.304c0.249-0.011,0.5-0.004,0.747,0.018c0.518,0.047,1.16-0.273,1.515-0.628
					c0.372-0.372,0.652-0.981,0.628-1.515C182.601,130.3,182.419,129.725,181.998,129.339z"/>
				<path style="fill:#FFFFFF;" d="M175.188,158.545c-0.094-0.288-0.254-0.536-0.48-0.747c-0.159-0.158-0.337-0.283-0.527-0.387
					c-0.111-0.05-0.208-0.123-0.311-0.186c-0.041-0.039-0.082-0.08-0.121-0.122c-0.071-0.11-0.141-0.221-0.199-0.339
					c-0.049-0.16-0.089-0.323-0.116-0.49c-0.015-0.169-0.016-0.337-0.003-0.506c0.029-0.16,0.055-0.32,0.054-0.484
					c-0.001-0.114-0.001-0.226,0.01-0.339c0.049-0.497-0.312-1.019-0.722-1.26c-0.478-0.28-0.992-0.231-1.472,0
					c-0.432,0.208-0.761,0.512-1.034,0.911c-0.209,0.307-0.349,0.649-0.484,0.995c-0.225,0.572-0.292,1.208-0.227,1.818
					c0.086,0.815,0.272,1.539,0.673,2.266c0.408,0.739,0.99,1.282,1.668,1.766c0.501,0.358,1.211,0.365,1.788,0.234
					c0.697-0.159,1.235-0.708,1.503-1.343C175.44,159.735,175.44,159.143,175.188,158.545z"/>
				<path style="fill:#FFFFFF;" d="M188.711,121.741c-0.09-0.277-0.244-0.517-0.462-0.72c-0.279-0.277-0.608-0.469-0.987-0.575
					c-0.592-0.106-0.597-0.106-1.189,0c-0.379,0.106-0.708,0.298-0.987,0.575c-0.218,0.203-0.372,0.443-0.463,0.72
					c-0.14,0.267-0.204,0.554-0.193,0.862c0.001,0.404,0.103,0.78,0.305,1.129c0.032,0.067,0.064,0.135,0.096,0.202
					c0.015,0.032,0.031,0.064,0.046,0.097c0.008,0.018,0.016,0.036,0.025,0.053c0.107,0.138,0.213,0.276,0.32,0.414
					c0.005,0.004,0.011,0.008,0.017,0.013c0.072,0.06,0.144,0.121,0.216,0.181c0.155,0.167,0.339,0.286,0.552,0.355
					c0.205,0.107,0.425,0.157,0.661,0.148c0.152-0.02,0.304-0.041,0.456-0.061c0.291-0.082,0.543-0.229,0.757-0.441
					c0.073-0.061,0.146-0.123,0.22-0.184c-0.009,0.007-0.017,0.013-0.026,0.02c0.145-0.125,0.274-0.265,0.359-0.444
					c0.008-0.018,0.016-0.035,0.024-0.053c0.015-0.032,0.031-0.064,0.046-0.097c0.032-0.067,0.064-0.135,0.096-0.202
					c0.202-0.349,0.304-0.725,0.305-1.129C188.915,122.295,188.851,122.007,188.711,121.741z"/>
				<path style="fill:#FFFFFF;" d="M201.782,115.223c-0.2-0.473-0.617-0.921-1.147-1.025c-0.596-0.116-1.051-0.104-1.614,0.189
					c-0.122,0.064-0.241,0.133-0.357,0.207c-0.329,0.208-0.639,0.451-0.938,0.698c-0.519,0.429-0.949,0.958-1.332,1.509
					c-0.226,0.325-0.367,0.695-0.512,1.062c-0.096,0.243-0.175,0.493-0.237,0.747c-0.093,0.386-0.089,0.743-0.044,1.13
					c0.019,0.16,0.032,0.326,0.074,0.481c0.092,0.341,0.322,0.616,0.617,0.802c0.256,0.162,0.571,0.259,0.873,0.165
					c0.016-0.005,0.033-0.01,0.049-0.015c-0.364,0.049-0.327,0.044,0.111-0.015c0.315-0.087,0.543-0.274,0.736-0.523
					c0.124-0.16,0.234-0.329,0.356-0.49c-0.08,0.103-0.159,0.206-0.239,0.309c0.207-0.265,0.391-0.522,0.564-0.808
					c0.111-0.183,0.233-0.358,0.362-0.528c0.124-0.159,0.249-0.316,0.371-0.477c-0.094,0.121-0.187,0.242-0.281,0.363
					c0.253-0.325,0.542-0.615,0.855-0.882c0.15-0.107,0.299-0.216,0.459-0.307c0.111-0.063,0.223-0.122,0.338-0.177
					c0.371-0.177,0.641-0.491,0.845-0.84C201.98,116.307,202,115.738,201.782,115.223z"/>
				<path style="fill:#FFFFFF;" d="M191.765,156.885c-0.116-0.415-0.326-0.775-0.63-1.081c-0.165-0.128-0.331-0.255-0.496-0.383
					c-0.382-0.222-0.794-0.333-1.237-0.335c-0.217,0.029-0.434,0.058-0.651,0.087c-0.319,0.076-0.596,0.222-0.833,0.439
					c-0.242,0.157-0.432,0.367-0.581,0.617c-0.027,0.039-0.052,0.08-0.076,0.121c-0.067,0.109-0.118,0.223-0.159,0.34
					c-0.134,0.262-0.197,0.543-0.186,0.845c0.027,0.199,0.053,0.398,0.08,0.597c0.026,0.093,0.073,0.173,0.109,0.259
					c0.021,0.059,0.045,0.116,0.073,0.172c0.025,0.049,0.048,0.099,0.077,0.145c0.012,0.021,0.02,0.042,0.033,0.063l0.383,0.496
					c0.222,0.239,0.485,0.408,0.788,0.507c0.292,0.153,0.606,0.224,0.944,0.211c0.337,0.013,0.652-0.058,0.944-0.211
					c0.304-0.099,0.567-0.268,0.788-0.507c0.239-0.222,0.408-0.485,0.507-0.788c0.153-0.292,0.224-0.607,0.211-0.944
					C191.823,157.32,191.794,157.102,191.765,156.885z"/>
			</g>
		</g>
	</g>
	<g>
		<g>
			<g>
				<path style="fill:#B4EFF9;" d="M362.863,282.747c0.266-3.959-0.985-7.94-3.146-11.267c-2.162-3.327-5.196-6.028-8.552-8.146
					c-7.986-5.04-17.972-6.809-27.203-4.818c-6.924,1.493-13.5,5.007-20.583,4.944c-3.707-0.033-7.778-1.344-10.948-3.265
					c-1.506,8.186,1.036,17.017,6.662,23.151c5.626,6.134,14.206,9.427,22.491,8.632c3.875-0.372,7.613-1.572,11.362-2.616
					c3.75-1.043,7.612-1.943,11.496-1.688c3.884,0.255,7.84,1.811,10.214,4.897L362.863,282.747z"/>
			</g>
			<g>
				<path style="fill:#D2F3F9;" d="M361.014,280.646c-1.353-3.612-3.661-6.865-6.46-9.497c-5.552-5.336-12.977-8.689-20.685-9.619
					c-3.848-0.526-7.835-0.279-11.608,0.465c-3.743,0.767-7.155,1.954-10.481,2.855c-1.659,0.475-3.304,0.846-4.948,1.088
					c-0.822,0.143-1.645,0.238-2.469,0.275c-0.854,0.07-1.486,0.023-2.323-0.118c-3.244-0.528-6.571-2.064-9.861-3.553l-0.042,0.059
					c-0.007,0.078-0.022,0.155-0.029,0.233c2.563,2.573,5.432,4.834,9.058,6.357c4.006,1.363,7.874,1.109,11.623,0.622
					c3.717-0.534,7.208-1.408,10.541-1.927c3.295-0.575,6.563-0.585,9.86-0.313c6.573,0.67,12.972,3.106,18.418,7.047
					c3.811,2.774,7.075,6.544,8.742,11.134l1.531-1.833C361.678,282.81,361.407,281.71,361.014,280.646z"/>
			</g>
			<g>
				<path style="fill:#73B2E5;" d="M354.574,283.185c-6.581-5.743-15.344-8.931-24.175-8.898
					c-9.141-0.115-16.634,4.553-23.702,3.971c-3.336-0.59-6.685-3.059-9.41-5.81c-1.992-2.022-3.793-4.301-5.239-6.815
					c0.025,0.945,0.106,1.884,0.229,2.821c0.916,1.911,2.043,3.738,3.323,5.45c2.6,3.259,5.647,6.518,10.295,7.913
					c2.238,0.708,4.559,0.867,6.739,0.741c2.187-0.114,4.296-0.387,6.316-0.765c4.104-0.696,7.747-1.462,11.456-1.385
					c7.432,0.04,14.915,2.34,21.15,6.637c1.628,1.12,3.167,2.377,4.567,3.769l2.67-3.196
					C357.533,286.003,356.116,284.51,354.574,283.185z"/>
			</g>
		</g>
		<g>
			<path style="fill:#FFFFFF;" d="M481.16,370.158l-91.874-84.311c-0.718-0.659-1.714-0.923-2.664-0.705l-11.23,2.573
				c-0.979,0.224-2.006-0.063-2.726-0.764l-1.471-1.431l0.269-0.315c0.373-0.437,0.32-1.09-0.114-1.464
				c-0.437-0.373-1.09-0.322-1.464,0.114l-0.183,0.214l-1.388-1.35l0.417-0.505c0.365-0.442,0.303-1.096-0.139-1.461
				c-0.442-0.362-1.093-0.306-1.461,0.139l-0.31,0.376l-0.54-0.525c-1.166-1.134-3.028-1.115-4.171,0.041l-10.206,10.322
				c-1.11,1.122-1.145,2.917-0.079,4.082l1.844,2.016l-0.252,0.306c-0.365,0.442-0.303,1.095,0.139,1.461
				c0.196,0.163,0.435,0.241,0.673,0.238c0.295-0.003,0.585-0.131,0.788-0.377l0.067-0.082l1.076,1.177l-0.265,0.311
				c-0.373,0.437-0.32,1.09,0.114,1.464c0.199,0.171,0.443,0.251,0.687,0.249c0.289-0.003,0.574-0.126,0.777-0.363l0.099-0.117
				l0.281,0.307c0.583,0.637,0.859,1.496,0.756,2.352l-1.571,13.091c-0.101,0.841,0.163,1.684,0.725,2.318l81.859,92.341
				c1.134,1.28,3.113,1.336,4.318,0.122l37.318-37.575C482.444,373.234,482.399,371.295,481.16,370.158z"/>
			<path style="fill:#73B2E5;" d="M442.135,370.998L442.135,370.998c-5.506,5.333-14.294,5.193-19.627-0.313l-44.402-45.844
				c-5.333-5.506-5.193-14.294,0.314-19.627l0,0c5.506-5.333,14.293-5.193,19.627,0.314l44.402,45.844
				C447.782,356.878,447.641,365.665,442.135,370.998z"/>
			
				<line style="fill:none;stroke:#D2F3F9;stroke-width:1.3837;stroke-linecap:round;stroke-linejoin:round;stroke-miterlimit:10;" x1="471.841" y1="362.908" x2="432.023" y2="402.339"/>
			
				<line style="fill:none;stroke:#D2F3F9;stroke-width:1.3837;stroke-linecap:round;stroke-linejoin:round;stroke-miterlimit:10;" x1="445.802" y1="408.7" x2="435.885" y2="398.512"/>
			
				<line style="fill:none;stroke:#D2F3F9;stroke-width:1.3837;stroke-linecap:round;stroke-linejoin:round;stroke-miterlimit:10;" x1="450.1" y1="404.478" x2="440.309" y2="394.413"/>
			
				<line style="fill:none;stroke:#D2F3F9;stroke-width:1.3837;stroke-linecap:round;stroke-linejoin:round;stroke-miterlimit:10;" x1="454.779" y1="399.995" x2="444.886" y2="389.831"/>
			
				<line style="fill:none;stroke:#D2F3F9;stroke-width:1.3837;stroke-linecap:round;stroke-linejoin:round;stroke-miterlimit:10;" x1="458.905" y1="395.771" x2="449.113" y2="385.704"/>
			
				<line style="fill:none;stroke:#D2F3F9;stroke-width:1.3837;stroke-linecap:round;stroke-linejoin:round;stroke-miterlimit:10;" x1="463.871" y1="391.03" x2="454.079" y2="380.962"/>
			
				<line style="fill:none;stroke:#D2F3F9;stroke-width:1.3837;stroke-linecap:round;stroke-linejoin:round;stroke-miterlimit:10;" x1="467.943" y1="386.664" x2="458.086" y2="376.534"/>
			
				<line style="fill:none;stroke:#D2F3F9;stroke-width:1.3837;stroke-linecap:round;stroke-linejoin:round;stroke-miterlimit:10;" x1="472.889" y1="381.483" x2="462.898" y2="371.667"/>
			
				<line style="fill:none;stroke:#D2F3F9;stroke-width:1.3837;stroke-linecap:round;stroke-linejoin:round;stroke-miterlimit:10;" x1="478.003" y1="376.397" x2="468.151" y2="366.699"/>
			<g>
				<path style="fill:#D2F3F9;" d="M356.697,301.948c-0.243,0.003-0.487-0.078-0.687-0.249c-0.437-0.373-0.488-1.03-0.114-1.464
					l14.11-16.475c0.373-0.437,1.027-0.488,1.464-0.114c0.437,0.373,0.488,1.029,0.114,1.464l-14.11,16.475
					C357.272,301.822,356.987,301.944,356.697,301.948z"/>
			</g>
			<g>
				<path style="fill:#D2F3F9;" d="M354.239,299.22c-0.238,0.003-0.477-0.076-0.673-0.238c-0.442-0.362-0.504-1.018-0.139-1.46
					l13.751-16.679c0.365-0.445,1.021-0.501,1.46-0.139c0.442,0.362,0.504,1.018,0.139,1.461l-13.751,16.679
					C354.824,299.089,354.533,299.216,354.239,299.22z"/>
			</g>
		</g>
	</g>
	<g>
		<g>
			
				<ellipse transform="matrix(0.3881 -0.9216 0.9216 0.3881 72.9226 302.5092)" style="fill:#73B2E5;" cx="264.268" cy="96.34" rx="22.87" ry="22.87"/>
			<path style="fill:#FFFFFF;" d="M278.067,93.603h-8.624c-1.346,0-2.438-1.091-2.438-2.438v-8.624c0-1.511-1.226-2.737-2.737-2.737
				s-2.737,1.226-2.737,2.737v8.624c0,1.346-1.091,2.438-2.438,2.438h-8.624c-1.511,0-2.737,1.226-2.737,2.737
				c0,1.511,1.226,2.737,2.737,2.737h8.624c1.346,0,2.438,1.091,2.438,2.438v8.624c0,1.511,1.226,2.737,2.737,2.737
				s2.737-1.226,2.737-2.737v-8.624c0-1.346,1.091-2.438,2.438-2.438h8.624c1.511,0,2.737-1.226,2.737-2.737
				C280.804,94.828,279.578,93.603,278.067,93.603z"/>
			<path style="opacity:0.2;fill:#73B2E5;" d="M286.089,89.48c-0.926,11.782-10.759,21.06-22.779,21.06
				c-10.241,0-18.906-6.732-21.821-16.011c-0.047,0.599-0.092,1.2-0.092,1.811c0,12.631,10.239,22.87,22.87,22.87
				c12.631,0,22.87-10.239,22.87-22.87C287.138,93.95,286.769,91.646,286.089,89.48z"/>
		</g>
		<g>
			
				<ellipse transform="matrix(0.989 -0.1479 0.1479 0.989 -54.6644 51.0225)" style="fill:#73B2E5;" cx="315.719" cy="393.049" rx="27.628" ry="27.628"/>
			<g>
				<path style="fill:#D2F3F9;" d="M315.719,374.656c-2.103,0-3.937,6.766-16.072,10.906c-1.052,0.359-1.71,1.401-1.507,2.494
					c0.922,4.96,7.585,22.101,17.579,22.101c9.994,0,16.657-17.141,17.579-22.1c0.203-1.093-0.455-2.135-1.507-2.493
					C319.656,381.423,317.822,374.656,315.719,374.656z"/>
				<path style="opacity:0.5;fill:#D2F3F9;" d="M331.79,385.562c-12.135-4.139-13.969-10.906-16.072-10.906v35.5
					c9.994,0,16.657-17.141,17.579-22.101C333.501,386.963,332.842,385.921,331.79,385.562z"/>
			</g>
			<path style="opacity:0.2;fill:#73B2E5;" d="M341.246,382.486c0.042,0.621,0.094,1.24,0.094,1.872
				c0,15.259-12.369,27.628-27.628,27.628c-11.516,0-21.378-7.05-25.527-17.066c0.966,14.382,12.907,25.757,27.534,25.757
				c15.259,0,27.628-12.369,27.628-27.628C343.347,389.306,342.594,385.742,341.246,382.486z"/>
		</g>
	</g>
</g>
</svg>
