<svg version="1.1" id="Capa_1" xmlns="http://www.w3.org/2000/svg" xmlns:xlink="http://www.w3.org/1999/xlink" x="0px" y="0px"
	 viewBox="138 100 150 200" style="enable-background:new 0 0 425.2 437.291;" xml:space="preserve">
<g>
    <path style="fill:#53C5D1;" d="M276.658,115.053c-8.429-8.35-17.72-12.584-27.617-12.584c-10.548,0-18.48,4.854-22.741,7.463
		c-0.362,0.222-0.92,0.564-1.212,0.731l-0.125,0.054c-0.654,0.28-1.272,0.639-1.84,1.07l-0.258,0.194
		c-1.451,1.031-6.28,3.844-10.227,3.844l-0.281,0.001c-3.819,0-8.591-2.815-10.011-3.836l-0.27-0.203
		c-0.566-0.429-1.182-0.786-1.834-1.067l-0.135-0.058c-0.29-0.167-0.847-0.507-1.198-0.723c-4.265-2.612-12.198-7.471-22.751-7.471
		c-9.897,0-19.188,4.234-27.615,12.585c-5.968,5.911-12.325,16.594-8.719,33.905c2.142,10.275,7.126,19.907,10.424,26.28
		c1.083,2.092,2.188,4.229,2.647,5.345c0.02,0.078,0.04,0.162,0.064,0.253l0.099,0.388c0.683,2.65,2.103,8.17,5.423,13.254
		c4.626,7.083,11.373,11.09,19.511,11.589c0.014,0.001,0.03,0.002,0.044,0.002c0.456,0.786,0.992,1.522,1.596,2.198v8.158
		c0,0.44,0.022,0.881,0.066,1.32c-0.044,0.432-0.066,0.866-0.066,1.298v14.856c0,0.507,0.029,1.012,0.086,1.512
		c-0.057,0.509-0.086,1.026-0.086,1.545v6.366c0,5.166,2.941,9.653,7.228,11.863l5.122,11.655c2.275,5.168,7.613,7.477,11.898,7.477
		h16.649c1.553,0,3.064-0.255,4.495-0.758c3.376-1.145,6.098-3.597,7.482-6.744l4.281-9.738l0.839-1.908
		c4.283-2.208,7.217-6.661,7.217-11.783v-14.855c0-0.507-0.028-1.012-0.085-1.512c0.057-0.51,0.085-1.025,0.085-1.545v-14.857
		c0-0.431-0.021-0.862-0.063-1.292c0.032-0.334,0.052-0.67,0.06-1.006c0.629-0.683,1.177-1.429,1.639-2.228h0.083
		c0.206,0,0.413-0.007,0.619-0.021l0.07-0.005c8.118-0.509,14.849-4.515,19.467-11.586c3.322-5.084,4.743-10.604,5.424-13.255
		l0.099-0.386c0.024-0.093,0.045-0.181,0.065-0.261c0.435-1.063,1.535-3.189,2.6-5.249l0.045-0.088
		c3.296-6.369,8.282-16.001,10.424-26.278C288.982,131.649,282.625,120.966,276.658,115.053z"/>
	<g>
        <path style="fill:#D1D3D4;" d="M236.64,184.631c0-6.213,0-12.427,0-18.638c0-5.656-4.636-9.478-10.042-9.478
			c-3.598,0-7.195,0-10.794,0c-4.626,0-9.253,0-13.879,0c-3.416,0-6.829-0.338-9.88,1.556c-4.351,2.701-4.21,7.495-4.21,11.93
			c0,4.563,0,9.128,0,13.692c0,0.316,0,0.632,0,0.948c-1.622,0.676-2.807,2.268-2.807,4.12c0,3.537,0,7.075,0,10.613
			c0,2.071,1.45,3.89,3.397,4.391c0,4.219,0,8.44,0,12.66c0,0.475,0.076,0.919,0.204,1.336c-0.131,0.418-0.204,0.85-0.204,1.282
			c0,4.952,0,9.904,0,14.856c0,0.53,0.09,1.026,0.249,1.484c-0.014,0.048-0.027,0.099-0.04,0.148
			c-0.134,0.428-0.209,0.902-0.209,1.425c0,2.121,0,4.243,0,6.366c0,2.438,2.004,4.53,4.467,4.53c0.129,0,0.258,0,0.388,0
			c0.063,0.2,0.136,0.397,0.222,0.593c2.178,4.953,4.354,9.905,6.53,14.858c0.607,1.378,2.424,2.221,3.849,2.221
			c5.55,0,11.1,0,16.649,0c0.605,0,1.144-0.103,1.623-0.277c1.001-0.327,1.869-0.982,2.306-1.973
			c2.177-4.954,4.354-9.905,6.531-14.858c0.082-0.185,0.152-0.375,0.212-0.564c0.105,0,0.212,0,0.318,0
			c2.438,0,4.531-2.003,4.531-4.467c0-4.952,0-9.904,0-14.855c0-0.53-0.091-1.027-0.249-1.485c0.015-0.048,0.027-0.098,0.04-0.148
			c0.134-0.428,0.21-0.901,0.21-1.424c0-4.953,0-9.904,0-14.857c0-0.452-0.07-0.878-0.187-1.278c0.118-0.405,0.187-0.85,0.187-1.339
			c0-1.408,0-2.816,0-4.226c0.749-0.176,1.372-0.522,1.861-0.986c0.913-0.717,1.533-1.83,1.533-3.35c0-3.537,0-7.075,0-10.613
			C239.446,186.969,238.283,185.315,236.64,184.631z"/>
		<g>
            <g>
                <g>
                    <rect x="189.89" y="188.793" style="fill:#58595B;" width="45.419" height="10.612"/>
                </g>
				<g>
                    <polygon style="fill:#58595B;" points="231.914,207.967 193.287,216.457 193.287,201.597 231.914,201.597 					"/>
                </g>
				<g>
                    <polygon style="fill:#58595B;" points="193.287,236.988 231.914,228.499 231.914,243.355 193.287,243.355 					"/>
                </g>
				<g>
                    <polygon style="fill:#58595B;" points="231.914,225.442 193.287,233.931 193.287,219.074 231.914,210.584 					"/>
                </g>
				<g>
                    <polygon style="fill:#58595B;" points="220.925,261.026 204.275,261.026 197.745,246.168 227.458,246.168 					"/>
                </g>
				<g>
                    <path style="fill:#58595B;" d="M232.503,186.517v-20.646c0-2.682-2.174-4.857-4.856-4.857h-30.094
						c-2.683,0-4.856,2.174-4.856,4.857v20.646H232.503z"/>
                </g>
            </g>
			<path style="fill:#FFFFFF;" d="M270.468,121.299c-6.723-6.66-13.932-10.037-21.428-10.037c-8.074,0-14.385,3.865-18.156,6.173
				c-0.821,0.503-1.669,1.024-2.069,1.198l-0.388,0.166l-0.337,0.254c-0.073,0.056-7.599,5.564-15.453,5.564l-0.246,0.001
				c-7.745,0-15.215-5.514-15.283-5.566l-0.337-0.254l-0.387-0.166c-0.4-0.173-1.249-0.694-2.069-1.196
				c-3.772-2.31-10.083-6.175-18.157-6.175c-7.495,0-14.704,3.377-21.426,10.037c-14.874,14.735-3.033,37.612,3.327,49.901
				c1.38,2.668,2.571,4.971,3.146,6.492c0.106,0.287,0.216,0.752,0.366,1.337c1.231,4.785,4.502,17.5,16.956,18.261l0.219,0.008
				c7.08,0,9.587-7.299,9.925-11.161l0.012-0.309c0-0.6-0.02-1.585-0.048-2.832c-0.328-14.98,0.282-19.526,0.787-20.595
				c2.516-3.73,6.294-5.184,13.479-5.184c1.651,0,3.32,0.07,4.967,0.136c0.295,0.013,0.589,0.023,0.884,0.037l0.002,0.108
				l3.85-0.003l0.357,0.002l3.56-0.009v-0.102c0.27-0.011,0.538-0.022,0.808-0.033c1.648-0.066,3.317-0.136,4.968-0.136
				c7.185,0,10.964,1.454,13.417,5.078c0.569,1.176,1.177,5.721,0.85,20.703c-0.028,1.246-0.048,2.231-0.048,2.831l0.014,0.309
				c0.335,3.858,2.843,11.161,9.923,11.161h0.109l0.107-0.008c12.455-0.761,15.727-13.477,16.958-18.261
				c0.15-0.585,0.259-1.05,0.366-1.337c0.575-1.521,1.768-3.823,3.146-6.492C273.501,158.911,285.34,136.034,270.468,121.299z"/>
			<g>
                <path style="fill:#E6E7E8;" d="M172.416,178.391c-0.131-0.523-0.225-0.939-0.317-1.195c-0.499-1.36-1.533-3.419-2.73-5.806
					c-5.514-10.99-15.778-31.449-2.885-44.626c5.828-5.957,12.078-8.976,18.578-8.976c0.772,0,1.522,0.046,2.255,0.125
					c-2.708-1.178-5.915-2.105-9.535-2.105c-6.498,0-12.749,3.02-18.576,8.976c-12.895,13.177-2.63,33.636,2.885,44.627
					c1.196,2.387,2.23,4.446,2.729,5.806c0.092,0.256,0.186,0.672,0.316,1.195c1.068,4.28,3.904,15.65,14.702,16.331l0.189,0.007
					c0.256,0,0.503-0.016,0.745-0.038C175.094,189.105,173.234,181.67,172.416,178.391z"/>
				<path style="fill:#E6E7E8;" d="M196.843,137.01l0.214,0.085c6.775,2.755,15.198,0.643,15.282,0.62l0.379-0.101l0.393-0.008
					c0.407-0.01,1.321-0.161,2.206-0.307c4.062-0.669,10.863-1.79,17.827,1.043c0.617,0.251,1.216,0.535,1.809,0.837
					c-2.422-2.527-5.184-4.435-8.274-5.691c-6.966-2.832-13.767-1.712-17.829-1.043c-0.884,0.146-1.799,0.297-2.205,0.307
					l-0.392,0.007l-0.38,0.102c-0.083,0.022-8.507,2.135-15.283-0.62l-0.213-0.085c-0.292-0.119-0.578-0.25-0.861-0.384
					C191.414,133.741,193.921,135.821,196.843,137.01z"/>
				<path style="fill:#E6E7E8;" d="M249.226,183.038l-0.013-0.287c0-0.559,0.02-1.476,0.046-2.637
					c0.304-13.951-0.262-18.184-0.792-19.278c-2.034-3.006-5.056-4.406-10.419-4.676c1.03,0.684,1.878,1.547,2.6,2.615
					c0.53,1.094,1.097,5.328,0.792,19.279c-0.026,1.161-0.045,2.078-0.045,2.636l0.013,0.288c0.313,3.593,2.647,10.393,9.24,10.393
					h0.102l0.103-0.007c0.668-0.041,1.306-0.123,1.919-0.235C250.42,188.824,249.423,185.298,249.226,183.038z"/>
            </g>
        </g>
    </g>
</g>
	<g>
                    </g>
</svg>

