<svg version="1.1" xmlns="http://www.w3.org/2000/svg" xmlns:xlink="http://www.w3.org/1999/xlink" x="0px" y="0px"
	 viewBox="0 0 500 500" style="enable-background:new 0 0 500 500;" xml:space="preserve">
<g id="BACKGROUND">
	<rect style="fill-rule:evenodd;clip-rule:evenodd;fill:#90C0C0;" width="500" height="500"/>
</g>
<g id="OBJECTS">
	<g>
		<g>
			<g>
				<g>
					<g>
						<g>
							<path style="fill-rule:evenodd;clip-rule:evenodd;fill:#A7D8D6;" d="M352.433,224.803c0-7.328,3.596-12.17,8.164-14.338
								c1.768-0.839,3.689-1.268,5.615-1.279c1.922-0.012,3.845,0.402,5.615,1.248c4.427,2.116,7.861,6.871,7.861,14.369v24.645
								h-4.388v-24.645c0-5.558-2.341-8.984-5.359-10.428c-1.163-0.555-2.435-0.826-3.713-0.819
								c-1.276,0.007-2.563,0.298-3.763,0.868c-3.16,1.498-5.646,4.986-5.646,10.379H352.433z"/>
							<rect x="373.083" y="243.265" style="fill-rule:evenodd;clip-rule:evenodd;fill:#A7D8D6;" width="9.055" height="19.851"/>
						</g>
						<g>
							<rect x="365.178" y="275.034" style="fill-rule:evenodd;clip-rule:evenodd;fill:#A7D8D6;" width="24.389" height="154.691"/>
							<path style="fill-rule:evenodd;clip-rule:evenodd;fill:#A7D8D6;" d="M336.517,254.919h81.711v9.311
								c0,22.47-18.385,40.855-40.855,40.855l0,0c-22.471,0-40.855-18.385-40.855-40.855V254.919z"/>
							<path style="fill-rule:evenodd;clip-rule:evenodd;fill:#90C0C0;" d="M344.743,264.228v-1.084h65.258v1.084
								c0,8.966-3.675,17.123-9.591,23.039c-5.915,5.916-14.073,9.591-23.038,9.591c-8.965,0-17.122-3.675-23.038-9.591
								C348.418,281.352,344.743,273.194,344.743,264.228L344.743,264.228z M345.84,264.242c0.004,8.656,3.555,16.535,9.27,22.25
								c5.718,5.717,13.601,9.27,22.263,9.27c8.662,0,16.545-3.553,22.263-9.27c5.715-5.715,9.267-13.594,9.27-22.25H345.84z"/>
						</g>
					</g>
					<path style="fill-rule:evenodd;clip-rule:evenodd;fill:#A7D8D6;" d="M354.555,222.479c-3.3,0-5.975,2.676-5.975,5.975h11.949
						C360.529,225.154,357.854,222.479,354.555,222.479z"/>
				</g>
				<g>
					<g>
						<g>
							<path style="fill-rule:evenodd;clip-rule:evenodd;fill:#A7D8D6;" d="M326.087,134.405h96.966
								c2.126,0,3.864,1.738,3.864,3.864l0,0c0,2.125-1.738,3.863-3.864,3.863h-96.966c-2.126,0-3.865-1.738-3.865-3.863l0,0
								C322.222,136.144,323.961,134.405,326.087,134.405z"/>
							<path style="fill-rule:evenodd;clip-rule:evenodd;fill:#A7D8D6;" d="M346.554,100.419h3.32c1.488,0,2.705,1.217,2.705,2.704
								V131.7c0,1.487-1.217,2.705-2.705,2.705h-3.32c-1.488,0-2.705-1.218-2.705-2.705v-28.577
								C343.849,101.636,345.065,100.419,346.554,100.419z"/>
							<path style="fill-rule:evenodd;clip-rule:evenodd;fill:#A7D8D6;" d="M358.146,100.419h3.321c1.487,0,2.704,1.217,2.704,2.704
								V131.7c0,1.487-1.217,2.705-2.704,2.705h-3.321c-1.487,0-2.705-1.218-2.705-2.705v-28.577
								C355.441,101.636,356.659,100.419,358.146,100.419z"/>
							<path style="fill-rule:evenodd;clip-rule:evenodd;fill:#A7D8D6;" d="M369.74,100.419h3.32c1.488,0,2.705,1.217,2.705,2.704
								V131.7c0,1.487-1.217,2.705-2.705,2.705h-3.32c-1.488,0-2.705-1.218-2.705-2.705v-28.577
								C367.035,101.636,368.252,100.419,369.74,100.419z"/>
							<path style="fill-rule:evenodd;clip-rule:evenodd;fill:#A7D8D6;" d="M402.229,100.419h3.321c1.487,0,2.704,1.217,2.704,2.704
								V131.7c0,1.487-1.217,2.705-2.704,2.705h-3.321c-1.488,0-2.705-1.218-2.705-2.705v-28.577
								C399.524,101.636,400.741,100.419,402.229,100.419z"/>
						</g>
						<g>
							<g>
								<path style="fill-rule:evenodd;clip-rule:evenodd;fill:#A7D8D6;" d="M352.271,166.686
									c-4.58-17.748-5.296-19.895-5.296-19.895c7.518,4.41,8.251,13.455,10.306,21.182L352.271,166.686z"/>
								<path style="fill-rule:evenodd;clip-rule:evenodd;fill:#A7D8D6;" d="M358.998,166.686
									c4.58-17.748,5.296-19.895,5.296-19.895c-7.517,4.41-8.251,13.455-10.305,21.182L358.998,166.686z"/>
							</g>
							<path style="fill-rule:evenodd;clip-rule:evenodd;fill:#A7D8D6;" d="M326.087,180.491h96.966
								c2.126,0,3.864,1.739,3.864,3.864l0,0c0,2.125-1.738,3.864-3.864,3.864h-96.966c-2.126,0-3.865-1.739-3.865-3.864l0,0
								C322.222,182.23,323.961,180.491,326.087,180.491z"/>
							<path style="fill-rule:evenodd;clip-rule:evenodd;fill:#A7D8D6;" d="M355.565,162.344c-2.336,0-1.215,0-3.551,0
								c-5.044,0-8.297-0.416-7.889,3.428l1.908,12.171c0.292,2.747,2.477,2.546,6.027,2.546c1.478,0,2.026,0,3.504,0h0.004h0.003
								c1.478,0,2.026,0,3.504,0c3.552,0,5.735,0.201,6.027-2.546l2.04-12.171c0.409-3.844-2.844-3.428-7.889-3.428
								c-2.336,0-1.347,0-3.683,0h-0.003H355.565z"/>
						</g>
						<g>
							<path style="fill-rule:evenodd;clip-rule:evenodd;fill:#A7D8D6;" d="M376.32,39.718c-5.661,0-10.786,2.294-14.495,6.004
								c-3.71,3.709-6.005,8.834-6.005,14.495s2.295,10.786,6.005,14.496c3.709,3.709,8.834,6.004,14.495,6.004
								s10.786-2.295,14.495-6.004c3.71-3.71,6.005-8.835,6.005-14.496s-2.295-10.786-6.005-14.495
								C387.106,42.012,381.981,39.718,376.32,39.718L376.32,39.718z M358,41.896c4.688-4.688,11.166-7.589,18.32-7.589
								s13.632,2.9,18.32,7.589c4.689,4.689,7.589,11.166,7.589,18.32s-2.9,13.632-7.589,18.32s-11.166,7.589-18.32,7.589
								s-13.632-2.9-18.32-7.589c-4.689-4.688-7.589-11.166-7.589-18.32S353.311,46.586,358,41.896z"/>
							<path style="fill-rule:evenodd;clip-rule:evenodd;fill:#A7D8D6;" d="M378.484,60.217c0,1.195-0.969,2.164-2.164,2.164
								c-1.195,0-2.164-0.969-2.164-2.164V45.824c0-1.194,0.969-2.164,2.164-2.164c1.195,0,2.164,0.97,2.164,2.164V60.217z"/>
							<path style="fill-rule:evenodd;clip-rule:evenodd;fill:#A7D8D6;" d="M374.791,58.688c0.845-0.845,2.214-0.845,3.06,0
								c0.845,0.845,0.845,2.215,0,3.06l-6.927,6.927c-0.846,0.845-2.215,0.845-3.06,0c-0.846-0.845-0.846-2.215,0-3.059
								L374.791,58.688z"/>
						</g>
					</g>
					<g>
						<g>
							<path style="fill-rule:evenodd;clip-rule:evenodd;fill:#A7D8D6;" d="M227.326,164.406H125.868v136.699h-5.409V164.406H73.083
								v-29.741h52.785v24.331h101.458V164.406L227.326,164.406z M78.492,158.996h41.967v-18.922H78.492V158.996z"/>
							<path style="fill-rule:evenodd;clip-rule:evenodd;fill:#A7D8D6;" d="M227.06,159.125c-11.858,0-21.47,9.611-21.47,21.469
								h42.938C248.528,168.736,238.916,159.125,227.06,159.125z"/>
							<path style="fill-rule:evenodd;clip-rule:evenodd;fill:#A7D8D6;" d="M227.06,189.253c-4.783,0-8.66-3.876-8.66-8.659h17.318
								C235.718,185.377,231.842,189.253,227.06,189.253z"/>
						</g>
						<g>
							<polygon style="fill-rule:evenodd;clip-rule:evenodd;fill:#A7D8D6;" points="74.596,45.309 221.075,45.309 221.075,111.92 
								215.915,111.92 215.915,49.669 78.376,49.669 78.376,111.92 73.083,111.92 73.083,45.309 							"/>
							<rect x="144.626" y="45.888" style="fill-rule:evenodd;clip-rule:evenodd;fill:#A7D8D6;" width="5.04" height="66.032"/>
							<rect x="74.596" y="106.849" style="fill-rule:evenodd;clip-rule:evenodd;fill:#A7D8D6;" width="145.1" height="5.041"/>
							<rect x="154.348" y="64.025" style="fill-rule:evenodd;clip-rule:evenodd;fill:#A7D8D6;" width="8.535" height="42.823"/>
							<rect x="164.95" y="64.025" style="fill-rule:evenodd;clip-rule:evenodd;fill:#A7D8D6;" width="8.535" height="42.823"/>
							<rect x="174.886" y="64.025" style="fill-rule:evenodd;clip-rule:evenodd;fill:#A7D8D6;" width="8.535" height="42.823"/>
							<rect x="185.688" y="64.025" style="fill-rule:evenodd;clip-rule:evenodd;fill:#A7D8D6;" width="8.535" height="42.823"/>
							
								<rect x="198.331" y="64.335" transform="matrix(0.9856 -0.1693 0.1693 0.9856 -11.5939 35.5445)" style="fill-rule:evenodd;clip-rule:evenodd;fill:#A7D8D6;" width="8.535" height="42.824"/>
							<g>
								<rect x="100.868" y="96.833" style="fill-rule:evenodd;clip-rule:evenodd;fill:#A7D8D6;" width="31.741" height="10.016"/>
								<path style="fill-rule:evenodd;clip-rule:evenodd;fill:#A7D8D6;" d="M91.774,69.325h1.812v-4.222h6.008v4.222h1.812
									c1.013,0,1.841,0.828,1.841,1.841v35.683H89.933V71.166C89.933,70.153,90.762,69.325,91.774,69.325z"/>
								<g>
									<path style="fill-rule:evenodd;clip-rule:evenodd;fill:#A7D8D6;" d="M113.761,88.979
										c-2.839-11.003-3.282-12.334-3.282-12.334c4.661,2.734,5.115,8.342,6.389,13.133L113.761,88.979z"/>
									<path style="fill-rule:evenodd;clip-rule:evenodd;fill:#A7D8D6;" d="M117.932,88.979
										c2.84-11.003,3.283-12.334,3.283-12.334c-4.661,2.734-5.115,8.342-6.389,13.133L117.932,88.979z"/>
								</g>
								<path style="fill-rule:evenodd;clip-rule:evenodd;fill:#A7D8D6;" d="M115.804,86.288c-1.448,0-0.753,0-2.201,0
									c-3.128,0-5.145-0.257-4.891,2.125l1.183,7.546c0.181,1.703,1.535,1.578,3.736,1.578c0.917,0,1.257,0,2.173,0h0.002h0.002
									c0.916,0,1.256,0,2.173,0c2.201,0,3.556,0.125,3.736-1.578l1.265-7.546c0.254-2.382-1.764-2.125-4.891-2.125
									c-1.448,0-0.835,0-2.283,0h-0.002H115.804z"/>
							</g>
						</g>
					</g>
				</g>
			</g>
			<g>
				<path style="fill-rule:evenodd;clip-rule:evenodd;fill:#7CA6AC;" d="M45.517,428.31h408.967
					c10.279,0,18.689,8.411,18.689,18.691l0,0c0,10.28-8.41,18.69-18.689,18.69H45.517c-10.279,0-18.69-8.41-18.69-18.69l0,0
					C26.827,436.722,35.237,428.31,45.517,428.31z"/>
				<path style="fill-rule:evenodd;clip-rule:evenodd;fill:#638798;" d="M48.021,433.563h403.959c4.58,0,8.328,3.748,8.328,8.328
					l0,0c0,4.581-3.748,8.329-8.328,8.329H48.021c-4.58,0-8.328-3.748-8.328-8.329l0,0C39.692,437.31,43.44,433.563,48.021,433.563z
					"/>
				<g>
					<g>
						<path style="fill-rule:evenodd;clip-rule:evenodd;fill:#DAEAE9;" d="M54.445,205.7c15.19,0,23.982,0.087,29.062,0
							c9.364-0.159,9.01-11.952,1.938-12.642c-0.964-0.094-1.905-0.467-2.944-0.377c-2.481,0.213,23.274-10.341,23.274,9.715
							c0,16.75-0.123,33.611-0.123,50.444c0,0,2.102,10.717-11.004,10.84c-15.234,0.143-34.703,0-34.703,0L54.445,205.7z"/>
						<path style="fill-rule:evenodd;clip-rule:evenodd;fill:#FFFFFF;" d="M54.445,205.7c15.19,0,23.982,0.087,29.062,0
							c9.364-0.159,9.01-11.952,1.938-12.642c-0.964-0.094-1.905-0.467-2.944-0.377c-1.726,0.148,10.206-4.908,17.634-1.257
							c0.573,1.539,0.9,3.403,0.9,5.655c0,16.751-0.125,33.611-0.125,50.445c0,0,2.103,10.717-11.003,10.84
							c-10.869,0.102-23.893,0.059-30.464,0.025L54.445,205.7z"/>
						<path style="fill-rule:evenodd;clip-rule:evenodd;fill:#365576;" d="M61.367,286.27c0,73.141-2.149,113.142-2.013,134.906
							c0.18,28.666,22.027,29.483,20.894-1.783c-0.447-12.303-2.235-27.848-2.886-44.717l-3.477-90.174l-11.782-22.387
							l-0.063-53.021c-0.011-8.563-11.662-6.929-11.838-0.002l0.414,55.381L61.367,286.27z"/>
						<g>
							<path style="fill-rule:evenodd;clip-rule:evenodd;fill:#365576;" d="M93.299,240.482c-0.096,5.633-4.69,10.17-10.347,10.17
								c-5.655,0-10.251-4.537-10.346-10.17c3.083,0.775,6.605,1.217,10.346,1.217C86.692,241.699,90.215,241.258,93.299,240.482z"
								/>
							<path style="fill-rule:evenodd;clip-rule:evenodd;fill:#CA6D6B;" d="M90.145,247.743c-1.862,1.8-4.397,2.909-7.192,2.909
								c-2.795,0-5.33-1.109-7.192-2.909c1.862-1.802,4.397-2.909,7.192-2.909C85.747,244.834,88.282,245.941,90.145,247.743z"/>
							<path style="fill-rule:evenodd;clip-rule:evenodd;fill:#365576;" d="M71.964,233.082c2.466,0,4.477-2.011,4.477-4.477
								c0-2.465-2.011-4.477-4.477-4.477c-2.465,0-4.477,2.012-4.477,4.477C67.487,231.071,69.499,233.082,71.964,233.082z"/>
							<path style="fill-rule:evenodd;clip-rule:evenodd;fill:#365576;" d="M94.382,233.082c2.466,0,4.477-2.011,4.477-4.477
								c0-2.465-2.011-4.477-4.477-4.477c-2.466,0-4.477,2.012-4.477,4.477C89.905,231.071,91.916,233.082,94.382,233.082z"/>
							<path style="fill-rule:evenodd;clip-rule:evenodd;fill:#FFFFFF;" d="M74.871,227.269c0.864,0,1.569-0.705,1.569-1.569
								c0-0.865-0.705-1.57-1.569-1.57c-0.864,0-1.569,0.705-1.569,1.57C73.302,226.564,74.007,227.269,74.871,227.269z"/>
							<path style="fill-rule:evenodd;clip-rule:evenodd;fill:#FFFFFF;" d="M97.289,227.269c0.864,0,1.569-0.705,1.569-1.569
								c0-0.865-0.705-1.57-1.569-1.57c-0.864,0-1.569,0.705-1.569,1.57C95.72,226.564,96.425,227.269,97.289,227.269z"/>
						</g>
					</g>
					<g>
						<g>
							<path style="fill-rule:evenodd;clip-rule:evenodd;fill:#FFFFFF;" d="M285.434,203.225
								c-5.424-9.921-6.257-18.014,4.538-23.235c10.796-5.222,6.568-8.355,3.427-12.532c-3.142-4.177-1.148-4.177-1.148-4.177
								s16.914,7.18,19.709,13.575c1.31,3.001,0.701,5.254-0.241,7.582c-2.891,7.15,2.379,19.287,1.171,19.266L285.434,203.225z"/>
							<path style="fill-rule:evenodd;clip-rule:evenodd;fill:#DAEAE9;" d="M297.404,168.031c0.738,0.796,1.421,1.649,1.987,2.547
								c1.419,2.246,2.12,4.76,1.219,7.337c-1.039,2.969-3.399,4.737-5.711,6.471c-2.305,1.728-4.557,3.415-5.029,6.186
								c-0.806,4.72,1.934,9.063,2.768,10.253l10.447-0.133c-1.166-3.02-3.819-11.433,0.104-17.317l0.029-0.041
								c0.387-0.589,0.68-1.198,0.884-1.819c0.756-2.301,0.32-4.828-0.974-7.234C301.897,171.99,299.897,169.814,297.404,168.031
								L297.404,168.031z M292.188,165.635c-0.847-1.537-0.561-2.07-0.261-2.256c2.07,0.724,4.013,1.703,5.752,2.863
								c3.002,2.001,5.422,4.553,6.881,7.268c1.499,2.789,1.992,5.756,1.088,8.507c-0.25,0.761-0.605,1.501-1.074,2.214
								c-0.01,0.016-0.02,0.031-0.029,0.047c-4.345,6.517,0.476,16.844,0.488,16.873c0.047,0.1,0.072,0.211,0.074,0.328
								c0.005,0.447-0.354,0.815-0.803,0.82l-12.031,0.153c-0.257,0.013-0.517-0.095-0.687-0.315
								c-0.013-0.016-4.386-5.595-3.319-11.839c0.58-3.403,3.091-5.285,5.659-7.21c2.115-1.586,4.274-3.205,5.15-5.707
								c0.711-2.03,0.116-4.076-1.059-5.938C296.536,169.097,294.151,167.047,292.188,165.635z"/>
							<path style="fill-rule:evenodd;clip-rule:evenodd;fill:#DAEAE9;" d="M297.352,441.165c-10.434,0-1.89,0-12.323,0
								c-22.527,0-37.057,2.55-35.229-21.059c4.748-61.337,9.496-122.673,14.244-184.009c1.306-16.875,1.796-15.636,17.656-15.636
								c6.602,0,9.05,0,15.651,0c7.026,0,9.263,0,16.289,0c14.781,0,15.794-0.186,17.043,15.953
								c4.675,60.4,9.352,120.8,14.026,181.2c2.063,26.635-3.9,23.55-29.473,23.55C305.655,441.165,306.934,441.165,297.352,441.165
								z"/>
							<path style="fill-rule:evenodd;clip-rule:evenodd;fill:#FFFFFF;" d="M250.918,432.291c-1.12-2.978-1.524-6.933-1.118-12.185
								c4.748-61.337,9.496-122.673,14.244-184.009c1.306-16.875,1.796-15.636,17.656-15.636c6.602,0,9.05,0,15.651,0
								c7.026,0,9.263,0,16.289,0c2.261,0,4.197-0.005,5.864,0.046c0.344,2.055,0.584,4.631,0.834,7.861
								c4.676,60.4,9.352,120.801,14.027,181.201c2.062,26.635-3.901,23.549-29.473,23.549c-9.582,0-8.305,0-17.887,0
								c-10.434,0-1.889,0-12.322,0C265.099,433.119,256.963,433.58,250.918,432.291z"/>
							<path style="fill-rule:evenodd;clip-rule:evenodd;fill:#365576;" d="M281.396,197.457h31.94c1.405,0,2.555,1.149,2.555,2.555
								v17.875c0,1.405-1.149,2.555-2.555,2.555h-31.94c-1.405,0-2.556-1.149-2.556-2.555v-17.875
								C278.84,198.606,279.99,197.457,281.396,197.457z"/>
							<path style="fill-rule:evenodd;clip-rule:evenodd;fill:#365576;" d="M278.653,366.722h37.424
								c2.135,0,3.881,0.777,3.881,1.727v47.262c0,0.949-1.746,1.727-3.881,1.727h-37.424c-2.135,0-3.881-0.777-3.881-1.727v-47.262
								C274.772,367.499,276.519,366.722,278.653,366.722z"/>
							<path style="fill-rule:evenodd;clip-rule:evenodd;fill:#DAEAE9;" d="M303.71,197.457h8.109
								c-0.873-4.039-1.634-9.229-0.102-13.02c0.942-2.328,1.552-4.581,0.241-7.582c-2.795-6.395-19.709-13.575-19.709-13.575
								s-0.164,0-0.323,0.099c2.07,0.724,4.013,1.703,5.752,2.863c3.002,2.001,5.422,4.553,6.881,7.268
								c1.499,2.789,1.992,5.756,1.088,8.507c-0.25,0.761-0.605,1.501-1.074,2.214c-0.01,0.016-0.02,0.031-0.029,0.047
								C301.844,188.328,302.684,193.85,303.71,197.457z"/>
							<g>
								<path style="fill-rule:evenodd;clip-rule:evenodd;fill:#55718A;" d="M284.337,200.061h1.92c0.151,0,0.275,0.124,0.275,0.275
									v17.227c0,0.151-0.124,0.275-0.275,0.275h-1.92c-0.151,0-0.275-0.124-0.275-0.275v-17.227
									C284.061,200.185,284.185,200.061,284.337,200.061z"/>
								<path style="fill-rule:evenodd;clip-rule:evenodd;fill:#55718A;" d="M290.371,200.061h1.921c0.15,0,0.274,0.124,0.274,0.275
									v17.227c0,0.151-0.124,0.275-0.274,0.275h-1.921c-0.151,0-0.274-0.124-0.274-0.275v-17.227
									C290.097,200.185,290.22,200.061,290.371,200.061z"/>
								<path style="fill-rule:evenodd;clip-rule:evenodd;fill:#55718A;" d="M296.405,200.061h1.92c0.151,0,0.275,0.124,0.275,0.275
									v17.227c0,0.151-0.124,0.275-0.275,0.275h-1.92c-0.151,0-0.275-0.124-0.275-0.275v-17.227
									C296.13,200.185,296.254,200.061,296.405,200.061z"/>
								<path style="fill-rule:evenodd;clip-rule:evenodd;fill:#55718A;" d="M302.439,200.061h1.921c0.15,0,0.274,0.124,0.274,0.275
									v17.227c0,0.151-0.124,0.275-0.274,0.275h-1.921c-0.151,0-0.274-0.124-0.274-0.275v-17.227
									C302.165,200.185,302.288,200.061,302.439,200.061z"/>
								<path style="fill-rule:evenodd;clip-rule:evenodd;fill:#55718A;" d="M308.474,200.061h1.921c0.15,0,0.274,0.124,0.274,0.275
									v17.227c0,0.151-0.124,0.275-0.274,0.275h-1.921c-0.151,0-0.274-0.124-0.274-0.275v-17.227
									C308.199,200.185,308.322,200.061,308.474,200.061z"/>
							</g>
							<path style="fill-rule:evenodd;clip-rule:evenodd;fill:#365576;" d="M278.653,240.289h37.424
								c2.135,0,3.881,1.156,3.881,2.568v70.292c0,1.412-1.746,2.567-3.881,2.567h-37.424c-2.135,0-3.881-1.155-3.881-2.567v-70.292
								C274.772,241.445,276.519,240.289,278.653,240.289z"/>
						</g>
						<g>
							<path style="fill-rule:evenodd;clip-rule:evenodd;fill:#365576;" d="M309.69,346.481c-0.12,7.083-5.898,12.788-13.01,12.788
								c-7.111,0-12.89-5.705-13.01-12.788c3.877,0.976,8.306,1.53,13.01,1.53S305.814,347.457,309.69,346.481z"/>
							<path style="fill-rule:evenodd;clip-rule:evenodd;fill:#CA6D6B;" d="M305.725,355.611c-2.341,2.264-5.529,3.658-9.044,3.658
								c-3.515,0-6.703-1.395-9.044-3.658c2.341-2.265,5.529-3.658,9.044-3.658C300.195,351.953,303.384,353.347,305.725,355.611z"
								/>
							<path style="fill-rule:evenodd;clip-rule:evenodd;fill:#365576;" d="M282.864,337.177c3.1,0,5.629-2.528,5.629-5.629
								c0-3.101-2.529-5.63-5.629-5.63c-3.101,0-5.629,2.529-5.629,5.63C277.235,334.648,279.764,337.177,282.864,337.177z"/>
							<path style="fill-rule:evenodd;clip-rule:evenodd;fill:#365576;" d="M311.053,337.177c3.101,0,5.629-2.528,5.629-5.629
								c0-3.101-2.528-5.63-5.629-5.63c-3.101,0-5.629,2.529-5.629,5.63C305.424,334.648,307.952,337.177,311.053,337.177z"/>
							<path style="fill-rule:evenodd;clip-rule:evenodd;fill:#FFFFFF;" d="M286.52,329.866c1.087,0,1.974-0.887,1.974-1.974
								c0-1.088-0.887-1.975-1.974-1.975c-1.088,0-1.975,0.887-1.975,1.975C284.545,328.979,285.432,329.866,286.52,329.866z"/>
							<path style="fill-rule:evenodd;clip-rule:evenodd;fill:#FFFFFF;" d="M314.708,329.866c1.088,0,1.974-0.887,1.974-1.974
								c0-1.088-0.886-1.975-1.974-1.975c-1.087,0-1.974,0.887-1.974,1.975C312.734,328.979,313.621,329.866,314.708,329.866z"/>
						</g>
					</g>
					<g>
						<g>
							<path style="fill-rule:evenodd;clip-rule:evenodd;fill:#FFFFFF;" d="M398.666,441.151c-10.292,0-5.353,0-15.646,0
								c-22.222,0-36.554,3.071-34.751-25.362l8.403-90.06c1.289-20.325,10.91-18.832,26.555-18.832c6.512,0,8.927,0,15.439,0h0.014
								h0.015c6.511,0,8.926,0,15.438,0c15.646,0,25.267-1.493,26.555,18.832l8.985,90.06c1.803,28.434-12.529,25.362-34.751,25.362
								c-10.293,0-5.935,0-16.227,0h-0.015H398.666z"/>
							<path style="fill-rule:evenodd;clip-rule:evenodd;fill:#C5DFE1;" d="M440.492,416.531l-8.984-90.053l-0.011-0.166
								c-0.109-1.736-0.665-8.039-2.426-9.176c-2.246-1.449-12.179-1.031-14.94-1.031c-5.145,0-10.292,0-15.438,0h-0.028
								c-5.146,0-10.292,0-15.439,0c-2.76,0-12.692-0.418-14.939,1.031c-1.76,1.137-2.315,7.44-2.426,9.176l-0.009,0.137
								l-8.402,90.054c-0.182,2.967-0.505,11.755,2.2,13.79c1.56,1.174,5.107,1.492,6.969,1.611
								c5.379,0.342,10.996,0.039,16.4,0.039c5.216,0,10.431,0,15.646,0h0.028c5.408,0,10.817,0,16.227,0
								c5.404,0,11.021,0.303,16.4-0.039c1.861-0.119,5.408-0.438,6.969-1.611C440.986,428.264,440.675,419.525,440.492,416.531z"/>
							<path style="fill-rule:evenodd;clip-rule:evenodd;fill:#365576;" d="M440.492,416.531l-5.146-50.768
								c-11.281,8.275-30.146,7.603-42.572,0.428c-12.427-7.175-21.987-7.81-30.093-5.925l-5.229,56.236
								c-0.182,2.967-0.505,11.755,2.2,13.79c1.56,1.174,5.107,1.492,6.969,1.611c5.379,0.342,10.996,0.039,16.4,0.039
								c5.216,0,10.431,0,15.646,0h0.028c5.408,0,10.817,0,16.227,0c5.404,0,11.021,0.303,16.4-0.039
								c1.861-0.119,5.408-0.438,6.969-1.611C440.986,428.264,440.675,419.525,440.492,416.531z"/>
							<path style="fill-rule:evenodd;clip-rule:evenodd;fill:#365576;" d="M379.736,279.19h38.469c1.693,0,3.078,1.385,3.078,3.078
								v21.528c0,1.692-1.385,3.077-3.078,3.077h-38.469c-1.692,0-3.077-1.385-3.077-3.077v-21.528
								C376.659,280.574,378.044,279.19,379.736,279.19z"/>
							<path style="fill-rule:evenodd;clip-rule:evenodd;fill:#FFFFFF;" d="M423.227,348.382c1.364,0,2.477-1.112,2.477-2.478
								c0-1.364-1.112-2.477-2.477-2.477c-1.365,0-2.477,1.112-2.477,2.477C420.75,347.27,421.862,348.382,423.227,348.382z"/>
							<circle style="fill-rule:evenodd;clip-rule:evenodd;fill:#FFFFFF;" cx="419.572" cy="362.579" r="3.108"/>
							<path style="fill-rule:evenodd;clip-rule:evenodd;fill:#BEDCE1;" d="M393.657,402.9c1.271,0,2.309-1.037,2.309-2.309
								c0-1.271-1.037-2.31-2.309-2.31c-1.272,0-2.31,1.038-2.31,2.31C391.348,401.863,392.385,402.9,393.657,402.9z"/>
							<path style="fill-rule:evenodd;clip-rule:evenodd;fill:#FFFFFF;" d="M428.855,359.471c1.411,0,2.561-1.15,2.561-2.561
								c0-1.411-1.15-2.563-2.561-2.563c-1.41,0-2.562,1.151-2.562,2.563C426.294,358.32,427.445,359.471,428.855,359.471z"/>
							<path style="fill-rule:evenodd;clip-rule:evenodd;fill:#C5DFE1;" d="M408.315,387.865c1.712,0,3.107-1.396,3.107-3.107
								c0-1.713-1.396-3.109-3.107-3.109c-1.713,0-3.108,1.396-3.108,3.109C405.207,386.469,406.602,387.865,408.315,387.865z"/>
							<path style="fill-rule:evenodd;clip-rule:evenodd;fill:#C5DFE1;" d="M423.436,403.994c1.712,0,3.108-1.396,3.108-3.107
								c0-1.712-1.397-3.108-3.108-3.108c-1.712,0-3.108,1.397-3.108,3.108C420.328,402.599,421.725,403.994,423.436,403.994z"/>
							<path style="fill-rule:evenodd;clip-rule:evenodd;fill:#C5DFE1;" d="M402.938,420.46c1.712,0,3.108-1.395,3.108-3.108
								c0-1.711-1.396-3.107-3.108-3.107c-1.712,0-3.108,1.396-3.108,3.107C399.83,419.065,401.227,420.46,402.938,420.46z"/>
							<g>
								<path style="fill-rule:evenodd;clip-rule:evenodd;fill:#55718A;" d="M383.734,282.638h2.246
									c0.177,0,0.321,0.145,0.321,0.321v20.145c0,0.177-0.145,0.321-0.321,0.321h-2.246c-0.177,0-0.321-0.145-0.321-0.321v-20.145
									C383.413,282.782,383.558,282.638,383.734,282.638z"/>
								<path style="fill-rule:evenodd;clip-rule:evenodd;fill:#55718A;" d="M390.791,282.638h2.246
									c0.177,0,0.321,0.145,0.321,0.321v20.145c0,0.177-0.145,0.321-0.321,0.321h-2.246c-0.177,0-0.321-0.145-0.321-0.321v-20.145
									C390.47,282.782,390.614,282.638,390.791,282.638z"/>
								<path style="fill-rule:evenodd;clip-rule:evenodd;fill:#55718A;" d="M397.848,282.638h2.246
									c0.177,0,0.321,0.145,0.321,0.321v20.145c0,0.177-0.145,0.321-0.321,0.321h-2.246c-0.177,0-0.321-0.145-0.321-0.321v-20.145
									C397.526,282.782,397.671,282.638,397.848,282.638z"/>
								<path style="fill-rule:evenodd;clip-rule:evenodd;fill:#55718A;" d="M404.904,282.638h2.246
									c0.177,0,0.321,0.145,0.321,0.321v20.145c0,0.177-0.145,0.321-0.321,0.321h-2.246c-0.177,0-0.321-0.145-0.321-0.321v-20.145
									C404.583,282.782,404.727,282.638,404.904,282.638z"/>
								<path style="fill-rule:evenodd;clip-rule:evenodd;fill:#55718A;" d="M411.961,282.638h2.246
									c0.177,0,0.321,0.145,0.321,0.321v20.145c0,0.177-0.145,0.321-0.321,0.321h-2.246c-0.177,0-0.321-0.145-0.321-0.321v-20.145
									C411.64,282.782,411.784,282.638,411.961,282.638z"/>
							</g>
							<path style="fill-rule:evenodd;clip-rule:evenodd;fill:#C5DFE1;" d="M403.211,400.635c1.4,0,2.54-1.142,2.54-2.541
								c0-1.4-1.141-2.541-2.54-2.541c-1.399,0-2.541,1.142-2.541,2.541C400.67,399.493,401.811,400.635,403.211,400.635z"/>
							<path style="fill-rule:evenodd;clip-rule:evenodd;fill:#C5DFE1;" d="M411.024,418.275c0.89,0,1.616-0.726,1.616-1.615
								c0-0.891-0.727-1.617-1.616-1.617c-0.891,0-1.617,0.727-1.617,1.617C409.407,417.55,410.134,418.275,411.024,418.275z"/>
						</g>
						<g>
							<path style="fill-rule:evenodd;clip-rule:evenodd;fill:#365576;" d="M412.477,348.329c-0.122,7.23-6.02,13.054-13.28,13.054
								c-7.259,0-13.157-5.823-13.28-13.054c3.958,0.997,8.478,1.563,13.28,1.563C403.999,349.892,408.52,349.326,412.477,348.329z"
								/>
							<path style="fill-rule:evenodd;clip-rule:evenodd;fill:#CA6D6B;" d="M408.43,357.648c-2.391,2.313-5.645,3.734-9.232,3.734
								c-3.587,0-6.842-1.422-9.232-3.734c2.39-2.311,5.645-3.734,9.232-3.734C402.785,353.914,406.04,355.338,408.43,357.648z"/>
							<path style="fill-rule:evenodd;clip-rule:evenodd;fill:#365576;" d="M385.094,338.831c3.165,0,5.745-2.581,5.745-5.745
								c0-3.166-2.58-5.746-5.745-5.746c-3.165,0-5.746,2.58-5.746,5.746C379.348,336.25,381.929,338.831,385.094,338.831z"/>
							<path style="fill-rule:evenodd;clip-rule:evenodd;fill:#365576;" d="M413.868,338.831c3.165,0,5.746-2.581,5.746-5.745
								c0-3.166-2.581-5.746-5.746-5.746c-3.164,0-5.746,2.58-5.746,5.746C408.122,336.25,410.704,338.831,413.868,338.831z"/>
							<path style="fill-rule:evenodd;clip-rule:evenodd;fill:#FFFFFF;" d="M388.825,331.369c1.109,0,2.015-0.905,2.015-2.016
								c0-1.109-0.905-2.014-2.015-2.014c-1.11,0-2.016,0.904-2.016,2.014C386.81,330.464,387.715,331.369,388.825,331.369z"/>
							<path style="fill-rule:evenodd;clip-rule:evenodd;fill:#FFFFFF;" d="M417.601,331.369c1.109,0,2.014-0.905,2.014-2.016
								c0-1.109-0.904-2.014-2.014-2.014c-1.11,0-2.016,0.904-2.016,2.014C415.585,330.464,416.49,331.369,417.601,331.369z"/>
						</g>
					</g>
					<g>
						<g>
							<path style="fill-rule:evenodd;clip-rule:evenodd;fill:#CA6D6B;" d="M112.167,359.321H215.33
								c14.934,0,27.151,12.218,27.151,27.15v30.753c0,14.934-12.218,27.15-27.151,27.15H112.167
								c-14.934,0-27.151-12.217-27.151-27.15v-30.753C85.016,371.539,97.233,359.321,112.167,359.321z"/>
							<path style="fill-rule:evenodd;clip-rule:evenodd;fill:#A65C5B;" d="M112.167,359.321H215.33
								c7.332,0,14.007,2.946,18.905,7.712c-2.331,3.438-4.721,6.837-7.093,10.27c-2.884,4.172-6.886,9.791-8.607,14.557
								c-1.971,5.458-3.71,11.155-5.887,16.514c-2.075,5.109-4.849,10.006-10.36,11.986c-4.71,1.691-9.316,0.471-13.568-1.78
								c-6.395-3.386-9.958-8.868-13.208-15.061c-5.775-11.004-17.929-10.627-23.643,0.225c-3.217,6.107-6.789,11.501-13.09,14.837
								c-4.253,2.251-8.86,3.472-13.569,1.78c-5.512-1.98-8.285-6.877-10.36-11.986c-2.177-5.358-3.916-11.056-5.887-16.514
								c-1.722-4.766-5.724-10.385-8.607-14.557c-2.372-3.433-4.762-6.832-7.093-10.27
								C98.159,362.268,104.835,359.321,112.167,359.321z"/>
							<path style="fill-rule:evenodd;clip-rule:evenodd;fill:#DAEAE9;" d="M82.93,298.143
								c-9.221,40.68,27.663,71.055,34.714,90.582c7.052,19.526,7.594,26.578,16.815,21.695c4.443-2.352,6.998-6.721,9.241-10.98
								c9.213-17.494,30.792-17.729,39.985-0.211c2.271,4.324,4.835,8.801,9.353,11.191c9.221,4.883,9.764-2.169,16.815-21.695
								c7.051-19.527,43.935-49.902,34.714-90.582c-7.769-34.27-37.236-45.494-65.43-35.759c-21.827,7.537-6.971,9.028-28.822,0.71
								C121.542,252.142,90.878,263.078,82.93,298.143z"/>
							<path style="fill-rule:evenodd;clip-rule:evenodd;fill:#FFFFFF;" d="M82.93,298.143c-0.757,3.34-1.197,6.609-1.375,9.809
								c5.225,40.89,42.905,69.417,80.939,69.857c38.871,0.451,78.11-28.086,83.447-69.871c-0.178-3.196-0.618-6.461-1.374-9.795
								c-7.769-34.27-37.236-45.494-65.43-35.759c-21.827,7.537-6.971,9.028-28.822,0.71
								C121.542,252.142,90.878,263.078,82.93,298.143z"/>
							<path style="fill-rule:evenodd;clip-rule:evenodd;fill:#365576;" d="M187.881,336.826
								c-0.223,13.139-10.94,23.721-24.132,23.721c-13.191,0-23.91-10.582-24.133-23.721c7.192,1.81,15.407,2.838,24.133,2.838
								C172.474,339.664,180.688,338.637,187.881,336.826z"/>
							<path style="fill-rule:evenodd;clip-rule:evenodd;fill:#CA6D6B;" d="M180.926,353.363
								c-4.376,4.434-10.455,7.184-17.177,7.184c-6.723,0-12.802-2.75-17.178-7.184c4.376-4.434,10.455-7.184,17.178-7.184
								C170.471,346.18,176.55,348.93,180.926,353.363z"/>
							<circle style="fill-rule:evenodd;clip-rule:evenodd;fill:#365576;" cx="132.967" cy="309.125" r="10.441"/>
							<circle style="fill-rule:evenodd;clip-rule:evenodd;fill:#365576;" cx="194.53" cy="309.125" r="10.441"/>
							<path style="fill-rule:evenodd;clip-rule:evenodd;fill:#FFFFFF;" d="M139.747,306.006c2.017,0,3.661-1.645,3.661-3.66
								c0-2.017-1.645-3.662-3.661-3.662s-3.661,1.646-3.661,3.662C136.086,304.361,137.73,306.006,139.747,306.006z"/>
							<path style="fill-rule:evenodd;clip-rule:evenodd;fill:#FFFFFF;" d="M201.311,306.006c2.017,0,3.661-1.645,3.661-3.66
								c0-2.017-1.645-3.662-3.661-3.662c-2.017,0-3.661,1.646-3.661,3.662C197.649,304.361,199.294,306.006,201.311,306.006z"/>
						</g>
						<path style="fill-rule:evenodd;clip-rule:evenodd;fill:#DAEAE9;" d="M164.274,268.711c-1.658-0.066-3.983-1.82-13.959-5.617
							c-10.469-3.984-21.188-5.072-30.972-3.154c15.984,3.593,24.305,14.843,31.297,13.359
							C159.789,271.358,163.989,268.883,164.274,268.711z"/>
					</g>
				</g>
			</g>
			<g>
				<g>
					<g>
						<g>
							<g>
								<path style="fill:#FFFFFF;" d="M314.667,86.64h-4.971c-0.546,0-0.989-0.594-0.989-1.327c0-0.733,0.443-1.328,0.989-1.328
									h4.971c0.546,0,0.989,0.594,0.989,1.328C315.656,86.045,315.213,86.64,314.667,86.64z"/>
							</g>
						</g>
						<g>
							<g>
								<path style="fill:#FFFFFF;" d="M323.942,86.64h-4.971c-0.546,0-0.989-0.594-0.989-1.327c0-0.733,0.443-1.328,0.989-1.328
									h4.971c0.546,0,0.989,0.594,0.989,1.328C324.932,86.045,324.488,86.64,323.942,86.64z"/>
							</g>
						</g>
					</g>
					<g>
						<g>
							<g>
								<path style="fill:#FFFFFF;" d="M315.492,83.16v-4.971c0-0.546,0.594-0.989,1.327-0.989s1.327,0.443,1.327,0.989v4.971
									c0,0.546-0.594,0.989-1.327,0.989S315.492,83.706,315.492,83.16z"/>
							</g>
						</g>
						<g>
							<g>
								<path style="fill:#FFFFFF;" d="M315.492,92.435v-4.97c0-0.546,0.594-0.99,1.327-0.99s1.327,0.443,1.327,0.99v4.97
									c0,0.546-0.594,0.989-1.327,0.989S315.492,92.981,315.492,92.435z"/>
							</g>
						</g>
					</g>
				</g>
				<g>
					<g>
						<g>
							<g>
								<path style="fill:#FFFFFF;" d="M267.734,120.254h-4.971c-0.546,0-0.989-0.594-0.989-1.327c0-0.733,0.443-1.328,0.989-1.328
									h4.971c0.546,0,0.989,0.594,0.989,1.328C268.724,119.66,268.28,120.254,267.734,120.254z"/>
							</g>
						</g>
						<g>
							<g>
								<path style="fill:#FFFFFF;" d="M277.01,120.254h-4.971c-0.546,0-0.989-0.594-0.989-1.327c0-0.733,0.443-1.328,0.989-1.328
									h4.971c0.546,0,0.989,0.594,0.989,1.328C277.999,119.66,277.556,120.254,277.01,120.254z"/>
							</g>
						</g>
					</g>
					<g>
						<g>
							<g>
								<path style="fill:#FFFFFF;" d="M268.56,116.774v-4.971c0-0.546,0.594-0.989,1.327-0.989s1.328,0.443,1.328,0.989v4.971
									c0,0.546-0.595,0.989-1.328,0.989S268.56,117.32,268.56,116.774z"/>
							</g>
						</g>
						<g>
							<g>
								<path style="fill:#FFFFFF;" d="M268.56,126.049v-4.97c0-0.546,0.594-0.99,1.327-0.99s1.328,0.443,1.328,0.99v4.97
									c0,0.546-0.595,0.989-1.328,0.989S268.56,126.596,268.56,126.049z"/>
							</g>
						</g>
					</g>
				</g>
				<g>
					<g>
						<g>
							<g>
								<path style="fill:#FFFFFF;" d="M227.212,234.74h-4.97c-0.546,0-0.989-0.594-0.989-1.327c0-0.733,0.443-1.328,0.989-1.328
									h4.97c0.546,0,0.99,0.594,0.99,1.328C228.202,234.145,227.758,234.74,227.212,234.74z"/>
							</g>
						</g>
						<g>
							<g>
								<path style="fill:#FFFFFF;" d="M236.488,234.74h-4.971c-0.546,0-0.989-0.594-0.989-1.327c0-0.733,0.443-1.328,0.989-1.328
									h4.971c0.546,0,0.989,0.594,0.989,1.328C237.477,234.145,237.034,234.74,236.488,234.74z"/>
							</g>
						</g>
					</g>
					<g>
						<g>
							<g>
								<path style="fill:#FFFFFF;" d="M228.037,231.259v-4.97c0-0.546,0.595-0.989,1.328-0.989c0.733,0,1.328,0.443,1.328,0.989
									v4.97c0,0.546-0.595,0.99-1.328,0.99C228.632,232.249,228.037,231.806,228.037,231.259z"/>
							</g>
						</g>
						<g>
							<g>
								<path style="fill:#FFFFFF;" d="M228.037,240.536v-4.971c0-0.546,0.595-0.99,1.328-0.99c0.733,0,1.328,0.443,1.328,0.99
									v4.971c0,0.546-0.595,0.988-1.328,0.988C228.632,241.524,228.037,241.082,228.037,240.536z"/>
							</g>
						</g>
					</g>
				</g>
				<g>
					<g>
						<g>
							<g>
								<path style="fill:#FFFFFF;" d="M162.521,200.167h-4.971c-0.546,0-0.989-0.594-0.989-1.327s0.443-1.328,0.989-1.328h4.971
									c0.546,0,0.989,0.594,0.989,1.328S163.067,200.167,162.521,200.167z"/>
							</g>
						</g>
						<g>
							<g>
								<path style="fill:#FFFFFF;" d="M171.796,200.167h-4.97c-0.546,0-0.99-0.594-0.99-1.327s0.443-1.328,0.99-1.328h4.97
									c0.546,0,0.989,0.594,0.989,1.328S172.343,200.167,171.796,200.167z"/>
							</g>
						</g>
					</g>
					<g>
						<g>
							<g>
								<path style="fill:#FFFFFF;" d="M163.346,196.686v-4.97c0-0.546,0.595-0.99,1.328-0.99c0.733,0,1.328,0.443,1.328,0.99v4.97
									c0,0.546-0.595,0.989-1.328,0.989C163.94,197.676,163.346,197.233,163.346,196.686z"/>
							</g>
						</g>
						<g>
							<g>
								<path style="fill:#FFFFFF;" d="M163.346,205.962v-4.97c0-0.547,0.595-0.99,1.328-0.99c0.733,0,1.328,0.443,1.328,0.99v4.97
									c0,0.546-0.595,0.989-1.328,0.989C163.94,206.951,163.346,206.509,163.346,205.962z"/>
							</g>
						</g>
					</g>
				</g>
				<g>
					<g>
						<g>
							<g>
								<path style="fill:#FFFFFF;" d="M63.971,185.655H59c-0.546,0-0.989-0.594-0.989-1.327c0-0.733,0.443-1.328,0.989-1.328h4.971
									c0.546,0,0.989,0.594,0.989,1.328C64.96,185.061,64.517,185.655,63.971,185.655z"/>
							</g>
						</g>
						<g>
							<g>
								<path style="fill:#FFFFFF;" d="M73.246,185.655h-4.97c-0.546,0-0.99-0.594-0.99-1.327c0-0.733,0.443-1.328,0.99-1.328h4.97
									c0.546,0,0.989,0.594,0.989,1.328C74.235,185.061,73.793,185.655,73.246,185.655z"/>
							</g>
						</g>
					</g>
					<g>
						<g>
							<g>
								<path style="fill:#FFFFFF;" d="M64.795,182.175v-4.97c0-0.546,0.595-0.99,1.328-0.99c0.733,0,1.328,0.443,1.328,0.99v4.97
									c0,0.546-0.595,0.989-1.328,0.989C65.39,183.164,64.795,182.721,64.795,182.175z"/>
							</g>
						</g>
						<g>
							<g>
								<path style="fill:#FFFFFF;" d="M64.795,191.451v-4.97c0-0.547,0.595-0.99,1.328-0.99c0.733,0,1.328,0.443,1.328,0.99v4.97
									c0,0.546-0.595,0.989-1.328,0.989C65.39,192.439,64.795,191.997,64.795,191.451z"/>
							</g>
						</g>
					</g>
				</g>
				<g>
					<g>
						<g>
							<g>
								<path style="fill:#FFFFFF;" d="M409.867,217.482h-4.971c-0.546,0-0.988-0.594-0.988-1.327c0-0.734,0.442-1.328,0.988-1.328
									h4.971c0.546,0,0.99,0.594,0.99,1.328C410.857,216.888,410.413,217.482,409.867,217.482z"/>
							</g>
						</g>
						<g>
							<g>
								<path style="fill:#FFFFFF;" d="M419.143,217.482h-4.971c-0.546,0-0.988-0.594-0.988-1.327c0-0.734,0.442-1.328,0.988-1.328
									h4.971c0.546,0,0.99,0.594,0.99,1.328C420.133,216.888,419.688,217.482,419.143,217.482z"/>
							</g>
						</g>
					</g>
					<g>
						<g>
							<g>
								<path style="fill:#FFFFFF;" d="M410.691,214.001v-4.97c0-0.546,0.595-0.99,1.329-0.99c0.732,0,1.326,0.443,1.326,0.99v4.97
									c0,0.546-0.594,0.99-1.326,0.99C411.286,214.991,410.691,214.548,410.691,214.001z"/>
							</g>
						</g>
						<g>
							<g>
								<path style="fill:#FFFFFF;" d="M410.691,223.277v-4.97c0-0.547,0.595-0.99,1.329-0.99c0.732,0,1.326,0.443,1.326,0.99v4.97
									c0,0.546-0.594,0.989-1.326,0.989C411.286,224.266,410.691,223.824,410.691,223.277z"/>
							</g>
						</g>
					</g>
				</g>
				<g>
					<g>
						<g>
							<g>
								<path style="fill:#FFFFFF;" d="M145.704,139.361h-4.971c-0.546,0-0.988-0.594-0.988-1.327c0-0.733,0.442-1.328,0.988-1.328
									h4.971c0.546,0,0.99,0.594,0.99,1.328C146.694,138.767,146.251,139.361,145.704,139.361z"/>
							</g>
						</g>
						<g>
							<g>
								<path style="fill:#FFFFFF;" d="M154.979,139.361h-4.97c-0.546,0-0.989-0.594-0.989-1.327c0-0.733,0.442-1.328,0.989-1.328
									h4.97c0.546,0,0.99,0.594,0.99,1.328C155.97,138.767,155.526,139.361,154.979,139.361z"/>
							</g>
						</g>
					</g>
					<g>
						<g>
							<g>
								<path style="fill:#FFFFFF;" d="M146.529,135.88v-4.97c0-0.546,0.595-0.989,1.329-0.989c0.732,0,1.327,0.443,1.327,0.989
									v4.97c0,0.546-0.594,0.99-1.327,0.99C147.123,136.87,146.529,136.427,146.529,135.88z"/>
							</g>
						</g>
						<g>
							<g>
								<path style="fill:#FFFFFF;" d="M146.529,145.157v-4.971c0-0.546,0.595-0.99,1.329-0.99c0.732,0,1.327,0.443,1.327,0.99
									v4.971c0,0.546-0.594,0.988-1.327,0.988C147.123,146.145,146.529,145.703,146.529,145.157z"/>
							</g>
						</g>
					</g>
				</g>
			</g>
		</g>
	</g>
</g>
</svg>
